<svg width="9" height="10" viewBox="0 0 9 10" fill="none" xmlns="http://www.w3.org/2000/svg">
<path fill-rule="evenodd" clip-rule="evenodd" d="M0.809432 8.01284C0.613003 8.20693 0.613003 8.52161 0.809432 8.7157C1.00586 8.90979 1.32433 8.90979 1.52076 8.7157L4.5702 5.70259L8.00165 9.09316C8.19807 9.28725 8.51655 9.28725 8.71298 9.09316C8.90941 8.89908 8.90941 8.58439 8.71298 8.39031L5.28153 4.99974L8.71298 1.60917C8.9094 1.41508 8.90941 1.1004 8.71298 0.906309C8.51655 0.71222 8.19807 0.71222 8.00165 0.906309L4.5702 4.29688L1.52076 1.28377C1.32433 1.08969 1.00586 1.08968 0.809431 1.28377C0.613002 1.47786 0.613002 1.79254 0.809431 1.98663L3.85886 4.99974L0.809432 8.01284Z" fill="#7B7878"/>
</svg>
