<svg width="10" height="6" viewBox="0 0 10 6" fill="none" xmlns="http://www.w3.org/2000/svg">
<path d="M0.197889 4.81106L4.63061 0.152074C4.68338 0.0967741 4.74055 0.0576958 4.80211 0.0348386C4.86368 0.0116128 4.92964 6.04634e-08 5 5.96244e-08C5.07036 5.87854e-08 5.13632 0.0116128 5.19789 0.0348386C5.25945 0.0576958 5.31662 0.096774 5.36939 0.152074L9.8153 4.81106C9.93843 4.94009 10 5.10138 10 5.29493C10 5.48848 9.93404 5.65438 9.80211 5.79263C9.67018 5.93088 9.51627 6 9.34037 6C9.16447 6 9.01055 5.93088 8.87863 5.79263L5 1.72811L1.12137 5.79263C0.998241 5.92166 0.846614 5.98618 0.666491 5.98618C0.486016 5.98618 0.329815 5.91705 0.197889 5.7788C0.0659629 5.64055 6.53396e-08 5.47926 6.31414e-08 5.29493C6.09433e-08 5.1106 0.0659629 4.94931 0.197889 4.81106Z" fill="#D9D9D9"/>
</svg>
