<svg width="25" height="24" viewBox="0 0 25 24" fill="none" xmlns="http://www.w3.org/2000/svg">
<path d="M21.7599 23.6245L14.1236 15.9772C13.4418 16.5235 12.6577 16.9559 11.7713 17.2745C10.8849 17.5932 9.94176 17.7525 8.94176 17.7525C6.46449 17.7525 4.36812 16.8935 2.65267 15.1756C0.936307 13.4568 0.078125 11.357 0.078125 8.87624C0.078125 6.39545 0.936307 4.29565 2.65267 2.57684C4.36812 0.858947 6.46449 0 8.94176 0C11.419 0 13.5159 0.858947 15.2322 2.57684C16.9477 4.29565 17.8054 6.39545 17.8054 8.87624C17.8054 9.87767 17.6463 10.8222 17.3281 11.7098C17.0099 12.5974 16.5781 13.3826 16.0327 14.0654L23.7031 21.7468C23.9531 21.9972 24.0781 22.3044 24.0781 22.6686C24.0781 23.0327 23.9418 23.3513 23.669 23.6245C23.419 23.8748 23.1009 24 22.7145 24C22.3281 24 22.0099 23.8748 21.7599 23.6245ZM8.94176 15.0213C10.6463 15.0213 12.0954 14.4241 13.289 13.2297C14.4818 12.0344 15.0781 10.5832 15.0781 8.87624C15.0781 7.16927 14.4818 5.71812 13.289 4.52279C12.0954 3.32836 10.6463 2.73115 8.94176 2.73115C7.23722 2.73115 5.78812 3.32836 4.59449 4.52279C3.40176 5.71812 2.8054 7.16927 2.8054 8.87624C2.8054 10.5832 3.40176 12.0344 4.59449 13.2297C5.78812 14.4241 7.23722 15.0213 8.94176 15.0213Z" fill="#BAB9B9"/>
</svg>
