<svg width="51" height="61" viewBox="0 0 51 61" fill="none" xmlns="http://www.w3.org/2000/svg">
<path fill-rule="evenodd" clip-rule="evenodd" d="M0 25.2414C0 11.4852 11.1829 0.298452 25.0931 0L25.0931 60.6926C7.25926 46.4062 0 39.0391 0 25.2414ZM50.1865 25.2414C50.1865 11.4852 39.0036 0.298452 25.0934 0L25.0934 60.6926C42.9272 46.4062 50.1865 39.0391 50.1865 25.2414Z" fill="white"/>
<path fill-rule="evenodd" clip-rule="evenodd" d="M3 25.4946C3 13.2353 12.8045 3.26593 24.9999 3L24.9999 57.0878C9.36443 44.3561 3 37.7907 3 25.4946ZM47 25.4946C47 13.2353 37.1955 3.26593 25.0001 3L25.0001 57.0878C40.6356 44.3561 47 37.7907 47 25.4946Z" fill="url(#paint0_linear_448_2583)"/>
<path d="M12.002 25.8596C11.9824 25.5469 12.1068 25.2425 12.3389 25.0358L14.8127 22.8324C15.2121 22.4766 15.8164 22.5018 16.1858 22.8895L17.9217 24.7122C18.0908 24.8897 18.19 25.124 18.2006 25.3707L18.6961 36.9455C18.7211 37.5299 18.2535 38.0137 17.6773 37.9997L13.6694 37.9025C13.1533 37.89 12.7322 37.4793 12.6993 36.9565L12.002 25.8596Z" fill="white"/>
<path d="M19.0026 18.0541C18.6089 18.2095 18.3546 18.6001 18.3682 19.0286L18.5237 23.92L24.2558 21.8426C24.7414 21.6666 25.2757 21.9234 25.4491 22.4162C25.6226 22.909 25.3695 23.4511 24.8839 23.6271L18.5869 25.9092L18.6348 27.4141L24.2914 25.6203C24.7836 25.4642 25.3072 25.7426 25.461 26.242C25.6148 26.7415 25.3405 27.2729 24.8484 27.429L18.6973 29.3796L18.7429 30.8161L24.3434 29.3953C24.8437 29.2684 25.3506 29.577 25.4756 30.0846C25.6007 30.5923 25.2966 31.1067 24.7963 31.2336L18.8045 32.7537L18.9368 36.916C18.9542 37.4611 19.3947 37.894 19.9322 37.894H35.4319C35.9694 37.894 36.4099 37.4611 36.4273 36.916L36.9995 18.9155C37.0113 18.5445 36.8218 18.1969 36.5059 18.0099L29.9644 14.1377C29.7022 13.9825 29.3845 13.9571 29.1016 14.0687L19.0026 18.0541Z" fill="white"/>
<defs>
<linearGradient id="paint0_linear_448_2583" x1="-34.7285" y1="-52.0539" x2="51.6284" y2="36.5958" gradientUnits="userSpaceOnUse">
<stop stop-color="white"/>
<stop offset="1" stop-color="#2DDDC3"/>
</linearGradient>
</defs>
</svg>
