<svg width="11" height="19" viewBox="0 0 11 19" fill="none" xmlns="http://www.w3.org/2000/svg">
<path d="M2.15156 0.375195L10.5766 8.7752C10.6766 8.8752 10.7472 8.98353 10.7886 9.10019C10.8306 9.21686 10.8516 9.34186 10.8516 9.47519C10.8516 9.60853 10.8306 9.73353 10.7886 9.85019C10.7472 9.96686 10.6766 10.0752 10.5766 10.1752L2.15156 18.6002C1.91823 18.8335 1.62656 18.9502 1.27656 18.9502C0.926562 18.9502 0.626563 18.8252 0.376563 18.5752C0.126563 18.3252 0.00156307 18.0335 0.00156307 17.7002C0.00156307 17.3669 0.126563 17.0752 0.376563 16.8252L7.72656 9.47519L0.376563 2.12519C0.143229 1.89186 0.0265627 1.60453 0.0265627 1.2632C0.0265627 0.921196 0.151563 0.625195 0.401563 0.375195C0.651563 0.125195 0.94323 0.00019455 1.27656 0.00019455C1.6099 0.00019455 1.90156 0.125195 2.15156 0.375195Z" fill="#2DDDC3"/>
</svg>
