<svg width="24" height="24" viewBox="0 0 24 24" fill="none" xmlns="http://www.w3.org/2000/svg">
<path d="M24 12C24 18.6274 18.6274 24 12 24C5.37258 24 0 18.6274 0 12C0 5.37258 5.37258 0 12 0C18.6274 0 24 5.37258 24 12Z" fill="#2DDDC3"/>
<path d="M6.92857 11.5H18.0714V17H6.92857V11.5Z" fill="white"/>
<path d="M15.5376 6H13.2222L12.6806 9.97222H14.9959L15.5376 6Z" fill="white"/>
<path d="M15.9306 9.97222H19L17.9167 6H16.4722L15.9306 9.97222Z" fill="white"/>
<path d="M9.97223 6H12.2876L11.7459 9.97222H9.43056L9.97223 6Z" fill="white"/>
<path d="M9.03756 6H7.08333L6 9.97222H8.49589L9.03756 6Z" fill="white"/>
</svg>
