<svg width="14" height="9" viewBox="0 0 14 9" fill="none" xmlns="http://www.w3.org/2000/svg">
<path id="Vector" d="M13.723 2.31197L7.51715 8.32615C7.44327 8.39754 7.36324 8.44798 7.27705 8.47749C7.19085 8.50747 7.09851 8.52246 7 8.52246C6.9015 8.52246 6.80915 8.50747 6.72296 8.47749C6.63676 8.44798 6.55673 8.39754 6.48285 8.32615L0.258575 2.31197C0.0861917 2.14541 0 1.9372 0 1.68735C0 1.4375 0.0923483 1.22335 0.277045 1.04489C0.461741 0.866426 0.677221 0.777194 0.923483 0.777194C1.16974 0.777194 1.38522 0.866426 1.56992 1.04489L7 6.29168L12.4301 1.04489C12.6025 0.878323 12.8147 0.79504 13.0669 0.79504C13.3196 0.79504 13.5383 0.884272 13.723 1.06273C13.9077 1.2412 14 1.4494 14 1.68735C14 1.9253 13.9077 2.13351 13.723 2.31197Z" fill="#5C5C5C"/>
</svg>
