<svg width="11" height="14" viewBox="0 0 11 14" fill="none" xmlns="http://www.w3.org/2000/svg">
<path fill-rule="evenodd" clip-rule="evenodd" d="M0.775391 2.94336H10.2261V10.8448C10.2261 12.2138 9.11627 13.3236 7.74722 13.3236H3.25426C1.88522 13.3236 0.775391 12.2138 0.775391 10.8448V2.94336ZM2.01483 4.1828V10.8448C2.01483 11.5293 2.56974 12.0842 3.25426 12.0842H7.74722C8.43174 12.0842 8.98666 11.5293 8.98666 10.8448V4.1828H2.01483Z" fill="#FF6C6A"/>
<path fill-rule="evenodd" clip-rule="evenodd" d="M3.795 5.26758C4.18005 5.26758 4.49219 5.57972 4.49219 5.96476L4.49219 10.3028C4.49219 10.6878 4.18005 11 3.795 11C3.40996 11 3.09782 10.6878 3.09782 10.3028L3.09782 5.96476C3.09782 5.57972 3.40996 5.26758 3.795 5.26758Z" fill="#FF6C6A"/>
<path fill-rule="evenodd" clip-rule="evenodd" d="M7.20321 5.26758C7.58825 5.26758 7.90039 5.57972 7.90039 5.96476L7.90039 10.3028C7.90039 10.6878 7.58825 11 7.20321 11C6.81816 11 6.50602 10.6878 6.50602 10.3028L6.50602 5.96476C6.50602 5.57972 6.81816 5.26758 7.20321 5.26758Z" fill="#FF6C6A"/>
<path fill-rule="evenodd" clip-rule="evenodd" d="M6.66212 0H4.49311L4.18372 0.464083H4.1831L0.509088 0.872306C0.219263 0.904509 0 1.14948 0 1.44109C0 1.75716 0.256221 2.01338 0.572286 2.01338H10.4266C10.7433 2.01338 11 1.75664 11 1.43994C11 1.14868 10.7816 0.903677 10.4923 0.87029L6.97183 0.464083H6.97151L6.66212 0Z" fill="#FF6C6A"/>
</svg>
