<svg width="10" height="16" viewBox="0 0 10 16" fill="none" xmlns="http://www.w3.org/2000/svg">
<path d="M1.98157 0.316622L9.74654 7.40897C9.83871 7.4934 9.90384 7.58487 9.94194 7.68338C9.98065 7.78188 10 7.88742 10 8C10 8.11258 9.98065 8.21812 9.94194 8.31662C9.90384 8.41513 9.83871 8.5066 9.74654 8.59103L1.98157 15.7045C1.76651 15.9015 1.49769 16 1.17511 16C0.852533 16 0.576036 15.8945 0.345621 15.6834C0.115207 15.4723 -8.86012e-07 15.226 -8.61408e-07 14.9446C-8.36803e-07 14.6631 0.115207 14.4169 0.345621 14.2058L7.11982 8L0.345622 1.79419C0.130569 1.59718 0.0230411 1.35458 0.0230411 1.06638C0.0230411 0.777624 0.138249 0.527703 0.368664 0.316622C0.599079 0.105539 0.867896 -7.98354e-07 1.17512 -7.71496e-07C1.48234 -7.44638e-07 1.75115 0.10554 1.98157 0.316622Z" fill="white"/>
</svg>
