<svg width="12" height="13" viewBox="0 0 12 13" fill="none" xmlns="http://www.w3.org/2000/svg">
<path id="Subtract" fill-rule="evenodd" clip-rule="evenodd" d="M0 10.9637C0 11.3295 0.121752 11.6368 0.365255 11.8855C0.608758 12.1489 0.909557 12.2769 1.26765 12.2696C1.62574 12.2623 1.92654 12.1343 2.17004 11.8855L10.9009 2.9665L9.07685 1.14246L0.365255 10.0418C0.121752 10.2906 0 10.5979 0 10.9637ZM9.50382 0.706284L11.3279 2.53032L11.6237 2.22809C11.8815 1.97934 12.0069 1.67206 11.9997 1.30624C11.9925 0.940433 11.8672 0.633151 11.6237 0.384399C11.3802 0.135647 11.0794 0.00761284 10.7213 0.000296604C10.3632 -0.00701963 10.0624 0.121014 9.81892 0.384399L9.50382 0.706284Z" fill="#5C5C5C"/>
</svg>
