<svg width="43" height="51" viewBox="0 0 43 51" fill="none" xmlns="http://www.w3.org/2000/svg">
<path fill-rule="evenodd" clip-rule="evenodd" d="M15.5873 49.7799L9.9527 46.9355C9.14172 46.5261 8.63029 45.695 8.63029 44.7866V37.9714C3.51663 34.159 0.205078 28.0636 0.205078 21.1948C0.205078 9.64511 9.56796 0.282227 21.1177 0.282227C32.6674 0.282227 42.0302 9.64511 42.0302 21.1948C42.0302 28.0636 38.7187 34.159 33.605 37.9714V47.8245C33.605 49.618 31.7141 50.7817 30.113 49.9734L24.2565 47.017L18.1167 50.0326C17.2364 50.465 16.2744 50.3067 15.5873 49.7799Z" fill="#FFC941"/>
<path d="M39.4171 20.7038H39.924C39.7858 16.1091 37.9885 11.9282 35.1016 8.74902C34.9634 8.87054 34.8251 8.99534 34.6836 9.11358C37.5046 12.1877 39.269 16.2405 39.4171 20.7038Z" fill="white"/>
<path d="M3.5701 22.1768H2.91504C3.15413 26.822 5.11931 31.0119 8.18497 34.1315C8.33564 34.0014 8.48957 33.8681 8.64679 33.7379C5.68921 30.7159 3.79282 26.6659 3.56682 22.1768H3.5701Z" fill="white"/>
<path d="M20.9284 3.30122V2.68945C16.336 2.79515 12.1583 4.53115 8.97363 7.33695C9.13695 7.47788 9.30353 7.62201 9.47665 7.76614C12.5372 5.08847 16.5352 3.42613 20.9284 3.30442V3.30122Z" fill="white"/>
<path d="M8.31926 8.86199C8.15038 8.71354 7.99105 8.56838 7.83173 8.41992C4.89382 11.6464 3.05206 15.9516 2.91504 20.7022H3.55233C3.69891 16.1199 5.48332 11.973 8.31926 8.85869V8.86199Z" fill="white"/>
<path d="M9.76269 34.7861C9.60364 34.917 9.45107 35.0478 9.30176 35.1754C12.4342 37.9099 16.4852 39.5944 20.929 39.6991V39.1659C16.6702 39.0449 12.7782 37.416 9.76269 34.7861Z" fill="white"/>
<path d="M22.4014 39.1752V39.7017C26.8026 39.4514 30.7992 37.6996 33.8649 34.9533C33.7333 34.8428 33.6017 34.7323 33.4668 34.625C30.4932 37.2641 26.6381 38.9477 22.4014 39.1784V39.1752Z" fill="white"/>
<path d="M33.6037 8.09367C33.7475 7.97512 33.8881 7.84997 34.0286 7.72483C30.9526 4.8136 26.8928 2.94962 22.4014 2.68945V3.31188C26.7162 3.55228 30.6258 5.32076 33.6037 8.09367Z" fill="white"/>
<path d="M39.4179 22.1768C39.1943 26.5354 37.3699 30.4856 34.5166 33.4767C34.6481 33.5837 34.7763 33.6938 34.9045 33.804C37.8236 30.7287 39.6907 26.6682 39.9208 22.18H39.4179V22.1768Z" fill="white"/>
<path d="M5.09576 25.8054C4.92272 25.1426 4.76927 24.4766 4.63867 23.8105C4.75294 24.4897 4.90313 25.1557 5.09576 25.8054Z" fill="white"/>
<path d="M11.0426 21.0843C11.027 20.8372 11.1259 20.5969 11.3103 20.4336L13.2753 18.6932C13.5926 18.4122 14.0727 18.432 14.3661 18.7383L15.7451 20.178C15.8794 20.3182 15.9582 20.5032 15.9666 20.6981L16.3602 29.8406C16.3801 30.3022 16.0087 30.6843 15.5509 30.6733L12.3671 30.5965C11.9572 30.5866 11.6226 30.2622 11.5965 29.8493L11.0426 21.0843Z" fill="white"/>
<path d="M16.6038 14.919C16.291 15.0417 16.089 15.3502 16.0998 15.6887L16.2233 19.5523L20.7768 17.9114C21.1625 17.7724 21.5869 17.9752 21.7247 18.3644C21.8625 18.7537 21.6614 19.1819 21.2757 19.3209L16.2735 21.1235L16.3115 22.3121L20.805 20.8953C21.196 20.772 21.612 20.9918 21.7341 21.3863C21.8563 21.7808 21.6384 22.2006 21.2475 22.3238L16.3612 23.8646L16.3974 24.9992L20.8463 23.877C21.2437 23.7767 21.6464 24.0205 21.7458 24.4215C21.8451 24.8224 21.6035 25.2287 21.2061 25.329L16.4464 26.5296L16.5515 29.8173C16.5652 30.2479 16.9152 30.5898 17.3422 30.5898H29.6548C30.0818 30.5898 30.4317 30.2479 30.4455 29.8173L30.9 15.5993C30.9094 15.3064 30.7589 15.0318 30.5079 14.8841L25.3115 11.8255C25.1032 11.7029 24.8509 11.6829 24.6261 11.7711L16.6038 14.919Z" fill="white"/>
</svg>
