<svg width="6" height="10" viewBox="0 0 6 10" fill="none" xmlns="http://www.w3.org/2000/svg">
<path id="Vector" d="M1.18894 0.19789L5.84793 4.63061C5.90323 4.68338 5.9423 4.74055 5.96516 4.80211C5.98839 4.86368 6 4.92964 6 5C6 5.07036 5.98839 5.13632 5.96516 5.19789C5.9423 5.25945 5.90323 5.31662 5.84793 5.36939L1.18894 9.8153C1.05991 9.93843 0.898617 10 0.705069 10C0.51152 10 0.345622 9.93404 0.207373 9.80211C0.0691242 9.67019 -5.19126e-07 9.51627 -5.34504e-07 9.34037C-5.49882e-07 9.16447 0.0691241 9.01055 0.207373 8.87863L4.27189 5L0.207372 1.12137C0.0783402 0.998241 0.0138237 0.846614 0.0138236 0.666491C0.0138236 0.486017 0.0829478 0.329815 0.221197 0.19789C0.359446 0.0659633 0.520736 4.79012e-07 0.705068 4.62898e-07C0.8894 4.46783e-07 1.05069 0.0659632 1.18894 0.19789Z" fill="#747474"/>
</svg>
