<svg width="20" height="18" viewBox="0 0 20 18" fill="none" xmlns="http://www.w3.org/2000/svg">
<g id="Group 306">
<path id="Subtract" fill-rule="evenodd" clip-rule="evenodd" d="M10.5499 6.3L12.6599 6.3L12.6599 2.7C12.6599 1.20883 11.2429 -6.19394e-08 9.49494 -1.38345e-07L3.16499 -4.15036e-07C1.41702 -4.91442e-07 1.13913e-05 1.20883 1.13261e-05 2.7L1.07753e-05 15.3C1.07101e-05 16.7912 1.41702 18 3.16499 18L9.49494 18C11.2429 18 12.6599 16.7912 12.6599 15.3L12.6599 11.7L10.5499 11.7L10.5499 15.3C10.5499 15.7971 10.0776 16.2 9.49494 16.2L3.16499 16.2C2.58233 16.2 2.10999 15.7971 2.10999 15.3L2.10999 2.7C2.10999 2.20294 2.58233 1.8 3.16499 1.8L9.49494 1.8C10.0776 1.8 10.5499 2.20294 10.5499 2.7L10.5499 6.3Z" fill="#5C5C5C"/>
<path id="Union" fill-rule="evenodd" clip-rule="evenodd" d="M14.461 5.29289C14.873 4.90237 15.541 4.90237 15.953 5.29289L18.681 7.87868C18.9573 8.14059 19.1873 8.60474 19.1845 8.99985C19.1873 9.39496 18.9573 9.8591 18.681 10.121L15.953 12.7068C15.541 13.0973 14.873 13.0973 14.461 12.7068C14.049 12.3163 14.049 11.6831 14.461 11.2926L15.8249 9.99985L6.33012 9.99985C5.74747 9.99985 5.27513 9.55213 5.27513 8.99985C5.27513 8.44756 5.74747 7.99985 6.33012 7.99985L15.8249 7.99985L14.461 6.70711C14.049 6.31658 14.049 5.68342 14.461 5.29289Z" fill="#5C5C5C"/>
</g>
</svg>
