<svg width="20" height="21" viewBox="0 0 20 21" fill="none" xmlns="http://www.w3.org/2000/svg">
<path id="Subtract" fill-rule="evenodd" clip-rule="evenodd" d="M0 17.9631C0 18.5624 0.19948 19.0659 0.598441 19.4735C0.997401 19.905 1.49024 20.1148 2.07694 20.1028C2.66365 20.0908 3.15648 19.881 3.55544 19.4735L17.8602 4.86036L14.8717 1.87183L0.598441 16.4527C0.19948 16.8603 0 17.3637 0 17.9631ZM15.5712 1.15718L18.5598 4.14571L19.0445 3.65054C19.4669 3.24298 19.6723 2.73953 19.6605 2.14017C19.6488 1.54082 19.4435 1.03736 19.0445 0.629803C18.6455 0.222242 18.1527 0.0124689 17.566 0.000481858C16.9793 -0.0115052 16.4865 0.198268 16.0875 0.629803L15.5712 1.15718Z" fill="white"/>
</svg>
