<svg width="10" height="14" viewBox="0 0 10 14" fill="none" xmlns="http://www.w3.org/2000/svg">
<mask id="path-1-inside-1_770_3729" fill="white">
<path fill-rule="evenodd" clip-rule="evenodd" d="M2.00164 0C0.624866 0 -0.340195 1.35865 0.113196 2.65863L0.501577 3.77221C0.60594 4.07144 0.776563 4.33388 0.993575 4.54541C0.776563 4.75694 0.60594 5.01938 0.501577 5.31861L0.113196 6.43219C-0.340195 7.73217 0.624866 9.09082 2.00164 9.09082H7.96273C9.3395 9.09082 10.3046 7.73216 9.85118 6.43219L9.46279 5.31861C9.35843 5.01938 9.18781 4.75694 8.9708 4.54541C9.18781 4.33388 9.35843 4.07144 9.46279 3.77221L9.85118 2.65863C10.3046 1.35866 9.3395 0 7.96273 0H2.00164Z"/>
</mask>
<path d="M0.113196 2.65863L1.05742 2.32931L0.113196 2.65863ZM0.501577 3.77221L-0.442643 4.10152L-0.442643 4.10152L0.501577 3.77221ZM0.993575 4.54541L1.69158 5.2615L2.42622 4.54541L1.69158 3.82932L0.993575 4.54541ZM0.501577 5.31861L-0.442643 4.9893L-0.442643 4.9893L0.501577 5.31861ZM0.113196 6.43219L-0.831025 6.10288H-0.831025L0.113196 6.43219ZM9.85118 6.43219L8.90696 6.76151L9.85118 6.43219ZM9.46279 5.31861L8.51857 5.64793V5.64793L9.46279 5.31861ZM8.9708 4.54541L8.27279 3.82932L7.53815 4.54541L8.27279 5.2615L8.9708 4.54541ZM9.46279 3.77221L8.51857 3.44289V3.44289L9.46279 3.77221ZM9.85118 2.65863L8.90696 2.32931L9.85118 2.65863ZM1.05742 2.32931C0.830721 1.67933 1.31325 1 2.00164 1V-1C-0.0635177 -1 -1.51111 1.03798 -0.831025 2.98794L1.05742 2.32931ZM1.4458 3.44289L1.05742 2.32931L-0.831025 2.98794L-0.442643 4.10152L1.4458 3.44289ZM1.69158 3.82932C1.58322 3.72369 1.49812 3.59291 1.4458 3.44289L-0.442643 4.10152C-0.286238 4.54997 -0.0300939 4.94406 0.295567 5.2615L1.69158 3.82932ZM0.295567 3.82932C-0.0300939 4.14676 -0.286238 4.54085 -0.442643 4.9893L1.4458 5.64793C1.49812 5.49791 1.58322 5.36713 1.69158 5.2615L0.295567 3.82932ZM-0.442643 4.9893L-0.831025 6.10288L1.05742 6.76151L1.4458 5.64793L-0.442643 4.9893ZM-0.831025 6.10288C-1.51111 8.05284 -0.0635178 10.0908 2.00164 10.0908V8.09082C1.31325 8.09082 0.830721 7.41149 1.05742 6.76151L-0.831025 6.10288ZM2.00164 10.0908H7.96273V8.09082H2.00164V10.0908ZM7.96273 10.0908C10.0279 10.0908 11.4755 8.05284 10.7954 6.10288L8.90696 6.76151C9.13365 7.41149 8.65112 8.09082 7.96273 8.09082V10.0908ZM10.7954 6.10288L10.407 4.9893L8.51857 5.64793L8.90696 6.76151L10.7954 6.10288ZM10.407 4.9893C10.2506 4.54085 9.99447 4.14676 9.66881 3.82932L8.27279 5.2615C8.38115 5.36713 8.46625 5.49791 8.51857 5.64793L10.407 4.9893ZM8.51857 3.44289C8.46625 3.59291 8.38115 3.72369 8.27279 3.82932L9.66881 5.2615C9.99447 4.94406 10.2506 4.54997 10.407 4.10152L8.51857 3.44289ZM8.90696 2.32931L8.51857 3.44289L10.407 4.10152L10.7954 2.98794L8.90696 2.32931ZM7.96273 1C8.65112 1 9.13365 1.67933 8.90696 2.32931L10.7954 2.98794C11.4755 1.03798 10.0279 -1 7.96273 -1V1ZM2.00164 1H7.96273V-1H2.00164V1Z" fill="#FF6C6A" mask="url(#path-1-inside-1_770_3729)"/>
<path d="M4.97656 9L4.97656 13" stroke="#FF6C6A" stroke-linecap="round"/>
</svg>
