<svg width="60" height="60" viewBox="0 0 60 60" fill="none" xmlns="http://www.w3.org/2000/svg">
<circle cx="30" cy="30" r="30" fill="#BEBEBE"/>
<path d="M48.2648 15.7099C46.3773 14.7611 43.3157 17.1852 41.119 18.9257C36.7667 22.3751 34.7062 26.5992 33.7505 29.07C32.7322 28.8917 31.6814 28.7941 30.6176 28.7941C29.3441 28.7941 28.0901 28.932 26.8858 29.1846C26.0318 26.6374 24.1658 22.373 20.0362 18.7538C17.9152 16.8965 14.9617 14.3089 13.0158 15.1707C10.0148 16.4995 10.5942 25.506 13.2428 32.1097C14.3974 34.988 15.8482 37.168 16.9465 38.6114C16.9574 38.8131 16.9747 39.0169 17.0028 39.2228C17.9973 46.0281 22.7043 49.9465 30.3863 49.9996C37.7634 50.0505 43.3071 45.3934 44.2324 39.2228C44.3233 38.6199 44.3211 38.0277 44.2454 37.4503C45.2011 36.1704 46.2627 34.521 47.1924 32.5066C50.1523 26.0813 51.1772 17.1724 48.267 15.7099H48.2648Z" fill="white"/>
</svg>
