<svg width="60" height="60" viewBox="0 0 60 60" fill="none" xmlns="http://www.w3.org/2000/svg">
<circle cx="30" cy="30" r="30" fill="#BEBEBE"/>
<path fill-rule="evenodd" clip-rule="evenodd" d="M48.2207 15.7423C46.2847 14.7502 43.1446 17.2848 40.8916 19.1048C36.4276 22.7114 34.3143 27.1282 33.3341 29.7116C32.2896 29.5252 31.2119 29.4231 30.1208 29.4231C28.8147 29.4231 27.5285 29.5674 26.2933 29.8315C25.4173 27.1681 23.5036 22.7092 19.268 18.925L19.2648 18.9221C17.0895 16.9803 14.0624 14.2779 12.0675 15.1785C8.98953 16.5679 9.58384 25.9851 12.3004 32.8899C12.5721 33.5805 12.8598 34.2327 13.1555 34.8459C12.1695 36.3537 12.1975 38.5889 14.7432 41.1863C15.306 41.761 15.9514 42.2403 16.6492 42.6289C18.3103 48.3198 22.8974 51.5465 29.8835 51.5957C36.8188 51.6445 42.1742 47.5575 43.7502 41.9069C44.0196 41.6868 44.2758 41.4478 44.5163 41.1895C46.7719 38.7651 46.9462 36.6561 46.1991 35.1593C46.5145 34.5782 46.8242 33.9601 47.1208 33.305C50.1566 26.5866 51.2078 17.2715 48.2229 15.7423H48.2207ZM16.1005 39.7143C16.0789 39.6777 16.0579 39.6413 16.0374 39.6052L16.0991 39.6882L16.1005 39.7143Z" fill="white"/>
</svg>
