<svg width="17" height="16" viewBox="0 0 17 16" fill="none" xmlns="http://www.w3.org/2000/svg">
<path fill-rule="evenodd" clip-rule="evenodd" d="M0 14.2967C0 14.7737 0.169712 15.1744 0.509136 15.4987C0.84856 15.8422 1.26785 16.0092 1.767 15.9996C2.26615 15.9901 2.68544 15.8231 3.02487 15.4987L15.1949 3.86837L12.6523 1.48983L0.509136 13.0946C0.169712 13.4189 0 13.8196 0 14.2967ZM13.2475 0.921049L15.7901 3.29959L16.2025 2.90543C16.5619 2.58106 16.7366 2.18037 16.7266 1.70335C16.7166 1.22633 16.5419 0.82563 16.2025 0.501257C15.8631 0.176884 15.4438 0.00992716 14.9446 0.000386772C14.4455 -0.00915361 14.0262 0.157803 13.6868 0.501257L13.2475 0.921049Z" fill="#FF6C6A"/>
</svg>
