<svg width="10" height="17" viewBox="0 0 10 17" fill="none" xmlns="http://www.w3.org/2000/svg">
<path d="M1.98157 1.1594L9.74654 8.25175C9.83871 8.33618 9.90384 8.42765 9.94194 8.52615C9.98065 8.62466 10 8.7302 10 8.84277C10 8.95535 9.98065 9.06089 9.94194 9.1594C9.90384 9.2579 9.83871 9.34937 9.74654 9.4338L1.98157 16.5473C1.76651 16.7443 1.49769 16.8428 1.17511 16.8428C0.852533 16.8428 0.576036 16.7372 0.345621 16.5261C0.115207 16.3151 -8.86012e-07 16.0688 -8.61408e-07 15.7874C-8.36803e-07 15.5059 0.115207 15.2597 0.345621 15.0486L7.11982 8.84277L0.345622 2.63697C0.130569 2.43996 0.0230411 2.19736 0.0230411 1.90916C0.0230411 1.6204 0.138249 1.37048 0.368664 1.1594C0.599079 0.948313 0.867896 0.842773 1.17512 0.842773C1.48234 0.842773 1.75115 0.948313 1.98157 1.1594Z" fill="#113C35"/>
</svg>
