<svg width="172" height="273" viewBox="0 0 172 273" fill="none" xmlns="http://www.w3.org/2000/svg">
<ellipse cx="87" cy="264" rx="58" ry="9" fill="url(#paint0_radial_202_2228)"/>
<path fill-rule="evenodd" clip-rule="evenodd" d="M86.4774 249.924C85.689 249.968 84.8866 249.991 84.0701 249.991C83.0408 249.991 82.0323 249.956 81.0443 249.886C81.568 251.891 82.0659 253.927 82.5231 255.971C83.2331 259.121 84.3131 264.421 80.9131 266.081C80.1431 266.461 79.3631 266.541 78.8931 266.581L78.8798 266.582C72.9192 267.113 56.8207 268.547 53.5231 263.291C52.8131 262.151 52.4331 260.281 52.6031 258.591C52.7456 257.204 53.2312 256.196 53.3565 255.936L53.3731 255.901C54.2949 253.948 53.5171 245.865 48.3422 223.686C46.2059 218.679 44.4788 213.063 43.1201 206.931C34.9701 170.101 61.4001 158.391 83.9401 158.391C106.5 158.401 132.36 176.091 124.77 206.931C123.204 213.3 121.324 219.121 119.05 224.283C114.001 246.01 113.245 253.966 114.158 255.901C114.163 255.91 114.169 255.922 114.175 255.936C114.3 256.195 114.786 257.204 114.928 258.591C115.098 260.281 114.718 262.151 114.008 263.291C110.711 268.547 94.6124 267.113 88.6517 266.582L88.6385 266.581C88.1684 266.541 87.3885 266.461 86.6185 266.081C83.2185 264.421 84.2985 259.121 85.0085 255.971C85.4628 253.94 85.9572 251.917 86.4774 249.924Z" fill="url(#paint1_linear_202_2228)"/>
<path d="M161.991 2.30074C152.531 -2.01926 138.071 10.7507 127.701 19.9207C107.781 37.5207 98.5811 58.2907 94.2711 70.9707C90.8011 70.5007 87.2711 70.2407 83.7111 70.2407C80.1511 70.2407 76.9111 70.4807 73.5811 70.9107C69.8411 57.8007 62.0411 38.2807 45.0011 20.7507C35.3511 10.8207 21.9111 -3.00926 12.1411 0.580743C-2.91893 6.12074 -3.27893 50.9107 7.26107 84.5107C11.9311 99.3907 18.6511 110.271 23.5211 117.791L23.6411 117.991C27.9711 145.681 49.0411 165.511 82.6911 165.751C115.311 165.981 139.991 145.311 143.911 117.211C143.961 116.881 143.971 116.561 144.011 116.231C149.141 109.151 155.391 99.1507 160.501 86.3607C173.551 53.6507 176.591 8.96074 161.991 2.30074Z" fill="url(#paint2_linear_202_2228)"/>
<path d="M75.9937 135.131C76.0537 137.471 78.1237 139.451 80.3837 139.681C83.4837 139.991 86.1837 136.951 85.9137 134.641C85.5737 131.801 80.6837 129.691 77.9437 131.391C76.7237 132.151 75.9537 133.651 75.9937 135.131Z" fill="#231815"/>
<path d="M53.8715 120.151C53.9315 122.491 57.0615 123.251 59.3315 123.481C62.4315 123.791 65.1315 120.751 64.8615 118.441C64.5215 115.601 60.6415 115.271 57.9015 116.981C56.6815 117.741 53.8315 118.671 53.8715 120.151Z" fill="#231815"/>
<path d="M107.993 120.151C107.933 122.491 104.803 123.251 102.533 123.481C99.433 123.791 96.733 120.751 97.003 118.441C97.343 115.601 101.393 115.081 104.133 116.791C105.353 117.551 108.023 118.671 107.993 120.151Z" fill="#231815"/>
<path d="M82.1904 229.281C76.1404 229.281 71.2404 227.411 68.4504 226.021C67.9604 225.771 67.7504 225.171 68.0004 224.681C68.2504 224.191 68.8404 223.981 69.3404 224.231C72.9404 226.011 80.2704 228.661 88.9804 226.421C102.4 222.961 107.78 210.371 108.35 208.951C108.56 208.441 109.14 208.191 109.65 208.391C110.16 208.601 110.41 209.181 110.21 209.691C109.22 212.171 103.56 224.731 89.4804 228.361C86.9104 229.011 84.4704 229.281 82.1904 229.281Z" fill="#823737"/>
<path d="M151.501 39.3006C148.041 37.4006 140.111 39.1006 111.341 75.6806C111.171 75.9006 111.101 76.1606 111.131 76.4206C111.131 76.4406 111.121 76.4506 111.121 76.4706C111.141 76.7406 111.651 83.1906 117.091 85.9706C118.671 86.7806 120.401 87.1506 122.121 87.1506C125.821 87.1506 129.421 85.3806 131.111 82.3006C133.581 77.8206 131.751 71.6306 129.981 65.6406L129.681 64.6206C129.521 64.0906 128.971 63.7906 128.441 63.9406C127.911 64.1006 127.611 64.6506 127.761 65.1806L128.061 66.2106C129.711 71.8006 131.421 77.5906 129.361 81.3406C127.181 85.3106 121.621 86.0306 118.001 84.1806C114.081 82.1806 113.291 77.7806 113.151 76.6106C139.971 42.5606 148.091 39.7106 150.531 41.0506C151.631 41.6506 153.211 44.2006 151.401 54.4506C151.301 54.9906 151.671 55.5106 152.211 55.6106C152.751 55.7106 153.271 55.3406 153.371 54.8006C154.961 45.8106 154.361 40.8806 151.501 39.3006Z" fill="#823737"/>
<path d="M49.7738 73.1203C49.7738 73.0503 49.7638 72.9903 49.7438 72.9203C49.7238 72.8503 49.7038 72.7903 49.6838 72.7303C49.6738 72.7003 49.6738 72.6703 49.6538 72.6403C26.5538 32.2503 18.9537 29.4003 15.2537 30.7703C12.1837 31.9103 10.8737 36.6903 11.1337 45.8303C11.1537 46.3803 11.5937 46.8103 12.1637 46.8003C12.7137 46.7803 13.1537 46.3203 13.1337 45.7703C12.8437 35.3603 14.7737 33.0703 15.9537 32.6403C18.5737 31.6703 26.1937 35.6803 47.7637 73.3503C47.6237 74.5203 46.8337 78.9203 42.9137 80.9103C39.2937 82.7503 33.7437 82.0403 31.5537 78.0703C29.4937 74.3203 31.2037 68.5303 32.8537 62.9403L33.1537 61.9203C33.3137 61.3903 33.0037 60.8403 32.4737 60.6803C31.9437 60.5203 31.3837 60.8303 31.2337 61.3603L30.9337 62.3703C29.1637 68.3603 27.3337 74.5503 29.7937 79.0403C31.4837 82.1103 35.0837 83.8903 38.7837 83.8903C40.4937 83.8903 42.2338 83.5103 43.8138 82.7003C49.2537 79.9303 49.7637 73.4803 49.7837 73.2003C49.7837 73.1803 49.7738 73.1503 49.7738 73.1203Z" fill="#823737"/>
<path d="M91.4302 180.591L94.8102 166.731C95.1602 165.291 93.7602 163.951 91.9002 163.951H75.5201C73.6901 163.951 72.3002 165.251 72.6002 166.681L75.5402 180.541C75.7102 181.321 76.3602 181.951 77.2302 182.271C75.3102 192.271 73.0002 210.861 71.6602 221.451C75.1202 227.581 78.5502 232.921 82.3202 238.161C85.7002 233.631 90.9002 225.581 94.5502 220.311C93.3202 210.971 90.8002 192.781 89.4102 182.371C90.4302 182.111 91.2202 181.441 91.4302 180.591Z" fill="#2DDDC3"/>
<mask id="mask0_202_2228" style="mask-type:luminance" maskUnits="userSpaceOnUse" x="71" y="163" width="24" height="76">
<path d="M91.4302 180.591L94.8102 166.731C95.1602 165.291 93.7602 163.951 91.9002 163.951H75.5201C73.6901 163.951 72.3002 165.251 72.6002 166.681L75.5402 180.541C75.7102 181.321 76.3602 181.951 77.2302 182.271C75.3102 192.271 73.0002 210.861 71.6602 221.451C75.1202 227.581 78.5502 232.921 82.3202 238.161C85.7002 233.631 90.9002 225.581 94.5502 220.311C93.3202 210.971 90.8002 192.781 89.4102 182.371C90.4302 182.111 91.2202 181.441 91.4302 180.591Z" fill="white"/>
</mask>
<g mask="url(#mask0_202_2228)">
<mask id="mask1_202_2228" style="mask-type:luminance" maskUnits="userSpaceOnUse" x="69" y="163" width="31" height="81">
<path d="M90.4302 172.271C87.3902 165.251 85.5902 163.701 83.9402 163.641C77.2502 163.371 69.8202 187.131 69.2902 207.991C69.1702 212.841 68.4902 239.791 79.3302 243.341C83.3502 244.661 87.4302 242.261 88.5302 241.611C104.78 232.051 100.2 194.811 90.4302 172.271Z" fill="white"/>
</mask>
<g mask="url(#mask1_202_2228)">
<path d="M75.0901 172.051C74.8801 174.841 74.0301 175.931 73.2101 176.381C72.1301 176.971 71.2501 176.371 70.2901 177.131C69.2501 177.961 69.0801 179.631 69.3501 180.801C69.6801 182.271 70.7201 183.101 71.0401 183.341" stroke="white" stroke-width="2" stroke-miterlimit="10" stroke-linecap="round"/>
</g>
<mask id="mask2_202_2228" style="mask-type:luminance" maskUnits="userSpaceOnUse" x="69" y="163" width="31" height="81">
<path d="M90.4302 172.271C87.3902 165.251 85.5902 163.701 83.9402 163.641C77.2502 163.371 69.8202 187.131 69.2902 207.991C69.1702 212.841 68.4902 239.791 79.3302 243.341C83.3502 244.661 87.4302 242.261 88.5302 241.611C104.78 232.051 100.2 194.811 90.4302 172.271Z" fill="white"/>
</mask>
<g mask="url(#mask2_202_2228)">
<path d="M81.8801 174.121C81.8801 172.861 82.2901 171.521 83.3101 170.701C84.0801 170.081 84.8501 170.051 85.4201 170.031C85.8101 170.021 86.0901 170.011 86.3801 169.851C87.3301 169.331 87.6401 167.651 87.7401 166.321C87.7801 165.771 88.2601 165.361 88.8101 165.401C89.3601 165.441 89.7801 165.931 89.7301 166.471C89.5301 169.151 88.7401 170.831 87.3301 171.601C86.6201 171.981 85.9901 172.011 85.4901 172.031C85.0101 172.051 84.8101 172.061 84.5601 172.261C83.9101 172.781 83.7701 174.031 83.9701 174.931C84.2001 175.961 84.8901 176.601 85.2801 176.891C85.7201 177.221 85.8201 177.841 85.4901 178.291C85.1601 178.731 84.5301 178.831 84.0901 178.501C83.4801 178.041 82.3901 177.031 82.0201 175.381C81.9301 174.981 81.8801 174.561 81.8801 174.121Z" fill="white"/>
</g>
<mask id="mask3_202_2228" style="mask-type:luminance" maskUnits="userSpaceOnUse" x="69" y="163" width="31" height="81">
<path d="M90.4302 172.271C87.3902 165.251 85.5902 163.701 83.9402 163.641C77.2502 163.371 69.8202 187.131 69.2902 207.991C69.1702 212.841 68.4902 239.791 79.3302 243.341C83.3502 244.661 87.4302 242.261 88.5302 241.611C104.78 232.051 100.2 194.811 90.4302 172.271Z" fill="white"/>
</mask>
<g mask="url(#mask3_202_2228)">
<path d="M68.4302 193.751C68.4302 192.491 68.8402 191.151 69.8602 190.331C70.6302 189.711 71.4002 189.681 71.9702 189.661C72.3602 189.651 72.6402 189.641 72.9302 189.481C73.8702 188.961 74.1902 187.281 74.2902 185.951C74.3302 185.401 74.8102 184.991 75.3602 185.031C75.9102 185.071 76.3202 185.541 76.2802 186.101C76.0802 188.781 75.2902 190.461 73.8802 191.231C73.1702 191.611 72.5402 191.641 72.0402 191.661C71.5602 191.681 71.3602 191.691 71.1102 191.891C70.4602 192.411 70.3202 193.661 70.5202 194.561C70.7602 195.631 71.5202 196.281 71.8302 196.521C72.2702 196.851 72.3702 197.471 72.0402 197.921C71.7102 198.361 71.0802 198.461 70.6402 198.131C70.0302 197.681 68.9402 196.671 68.5602 195.011C68.4802 194.621 68.4302 194.191 68.4302 193.751Z" fill="white"/>
</g>
<mask id="mask4_202_2228" style="mask-type:luminance" maskUnits="userSpaceOnUse" x="69" y="163" width="31" height="81">
<path d="M90.4302 172.271C87.3902 165.251 85.5902 163.701 83.9402 163.641C77.2502 163.371 69.8202 187.131 69.2902 207.991C69.1702 212.841 68.4902 239.791 79.3302 243.341C83.3502 244.661 87.4302 242.261 88.5302 241.611C104.78 232.051 100.2 194.811 90.4302 172.271Z" fill="white"/>
</mask>
<g mask="url(#mask4_202_2228)">
<path d="M77.3203 203.081C77.3203 201.821 77.7303 200.481 78.7503 199.661C79.5203 199.041 80.2903 199.011 80.8603 198.991C81.2503 198.981 81.5203 198.971 81.8203 198.811C82.7703 198.291 83.0803 196.611 83.1803 195.281C83.2203 194.731 83.7003 194.321 84.2503 194.361C84.8003 194.401 85.2203 194.891 85.1703 195.431C84.9703 198.111 84.1803 199.791 82.7703 200.561C82.0603 200.941 81.4303 200.971 80.9303 200.991C80.4503 201.011 80.2503 201.021 80.0003 201.221C79.3403 201.751 79.2103 202.991 79.4103 203.891C79.6403 204.921 80.3303 205.561 80.7203 205.851C81.1603 206.181 81.2603 206.801 80.9303 207.251C80.6003 207.691 79.9703 207.791 79.5303 207.461C78.9103 207.011 77.8303 206.001 77.4503 204.331C77.3703 203.941 77.3203 203.511 77.3203 203.081Z" fill="white"/>
</g>
<mask id="mask5_202_2228" style="mask-type:luminance" maskUnits="userSpaceOnUse" x="69" y="163" width="31" height="81">
<path d="M90.4302 172.271C87.3902 165.251 85.5902 163.701 83.9402 163.641C77.2502 163.371 69.8202 187.131 69.2902 207.991C69.1702 212.841 68.4902 239.791 79.3302 243.341C83.3502 244.661 87.4302 242.261 88.5302 241.611C104.78 232.051 100.2 194.811 90.4302 172.271Z" fill="white"/>
</mask>
<g mask="url(#mask5_202_2228)">
<path d="M94.8003 182.191C94.5903 184.981 93.7403 186.071 92.9203 186.521C91.8403 187.111 90.9603 186.511 90.0003 187.271C88.9603 188.101 88.7903 189.771 89.0603 190.941C89.3903 192.411 90.4303 193.241 90.7503 193.481" stroke="white" stroke-width="2" stroke-miterlimit="10" stroke-linecap="round"/>
</g>
<mask id="mask6_202_2228" style="mask-type:luminance" maskUnits="userSpaceOnUse" x="69" y="163" width="31" height="81">
<path d="M90.4302 172.271C87.3902 165.251 85.5902 163.701 83.9402 163.641C77.2502 163.371 69.8202 187.131 69.2902 207.991C69.1702 212.841 68.4902 239.791 79.3302 243.341C83.3502 244.661 87.4302 242.261 88.5302 241.611C104.78 232.051 100.2 194.811 90.4302 172.271Z" fill="white"/>
</mask>
<g mask="url(#mask6_202_2228)">
<path d="M80.3501 182.111C80.1401 184.901 79.2901 185.991 78.4701 186.441C77.3901 187.031 76.5101 186.431 75.5501 187.191C74.5101 188.021 74.3401 189.691 74.6101 190.861C74.9401 192.331 75.9801 193.161 76.3001 193.401" stroke="white" stroke-width="2" stroke-miterlimit="10" stroke-linecap="round"/>
</g>
<mask id="mask7_202_2228" style="mask-type:luminance" maskUnits="userSpaceOnUse" x="69" y="163" width="31" height="81">
<path d="M90.4302 172.271C87.3902 165.251 85.5902 163.701 83.9402 163.641C77.2502 163.371 69.8202 187.131 69.2902 207.991C69.1702 212.841 68.4902 239.791 79.3302 243.341C83.3502 244.661 87.4302 242.261 88.5302 241.611C104.78 232.051 100.2 194.811 90.4302 172.271Z" fill="white"/>
</mask>
<g mask="url(#mask7_202_2228)">
<path d="M69.1902 220.411C69.1902 219.151 69.6002 217.811 70.6202 216.991C71.3902 216.371 72.1602 216.341 72.7302 216.321C73.1202 216.311 73.4002 216.301 73.6902 216.141C74.6402 215.631 74.9502 213.941 75.0502 212.611C75.0902 212.061 75.5702 211.651 76.1202 211.691C76.6702 211.731 77.0902 212.221 77.0402 212.761C76.8402 215.441 76.0502 217.121 74.6402 217.891C73.9302 218.271 73.3102 218.301 72.8002 218.321C72.3202 218.341 72.1202 218.351 71.8702 218.551C71.2102 219.071 71.0802 220.321 71.2802 221.221C71.5102 222.251 72.2002 222.891 72.5902 223.181C73.0302 223.511 73.1202 224.141 72.8002 224.581C72.4702 225.021 71.8402 225.121 71.4002 224.791C70.7902 224.331 69.7002 223.321 69.3302 221.671C69.2402 221.271 69.1902 220.851 69.1902 220.411Z" fill="white"/>
</g>
<mask id="mask8_202_2228" style="mask-type:luminance" maskUnits="userSpaceOnUse" x="69" y="163" width="31" height="81">
<path d="M90.4302 172.271C87.3902 165.251 85.5902 163.701 83.9402 163.641C77.2502 163.371 69.8202 187.131 69.2902 207.991C69.1702 212.841 68.4902 239.791 79.3302 243.341C83.3502 244.661 87.4302 242.261 88.5302 241.611C104.78 232.051 100.2 194.811 90.4302 172.271Z" fill="white"/>
</mask>
<g mask="url(#mask8_202_2228)">
<path d="M80.3203 224.851C80.3203 223.591 80.7303 222.251 81.7503 221.431C82.5203 220.811 83.2903 220.781 83.8603 220.761C84.2503 220.751 84.5303 220.741 84.8203 220.581C85.7603 220.061 86.0803 218.381 86.1803 217.051C86.2203 216.501 86.7003 216.091 87.2503 216.131C87.8003 216.171 88.2103 216.661 88.1703 217.201C87.9703 219.881 87.1803 221.561 85.7703 222.331C85.0603 222.711 84.4303 222.741 83.9303 222.761C83.4503 222.781 83.2503 222.791 83.0003 222.991C82.3503 223.511 82.2103 224.751 82.4103 225.661C82.6503 226.731 83.4103 227.381 83.7203 227.621C84.1603 227.951 84.2603 228.571 83.9303 229.021C83.6003 229.461 82.9703 229.561 82.5303 229.231C81.9203 228.781 80.8303 227.771 80.4503 226.111C80.3703 225.711 80.3203 225.281 80.3203 224.851Z" fill="white"/>
</g>
<mask id="mask9_202_2228" style="mask-type:luminance" maskUnits="userSpaceOnUse" x="69" y="163" width="31" height="81">
<path d="M90.4302 172.271C87.3902 165.251 85.5902 163.701 83.9402 163.641C77.2502 163.371 69.8202 187.131 69.2902 207.991C69.1702 212.841 68.4902 239.791 79.3302 243.341C83.3502 244.661 87.4302 242.261 88.5302 241.611C104.78 232.051 100.2 194.811 90.4302 172.271Z" fill="white"/>
</mask>
<g mask="url(#mask9_202_2228)">
<path d="M88.7502 208.811C88.7502 207.551 89.1602 206.211 90.1802 205.391C90.9502 204.771 91.7202 204.741 92.2902 204.721C92.6802 204.711 92.9602 204.701 93.2502 204.541C94.1902 204.021 94.5102 202.341 94.6102 201.011C94.6502 200.461 95.1302 200.051 95.6802 200.091C96.2302 200.131 96.6402 200.621 96.6002 201.161C96.4002 203.841 95.6102 205.521 94.2002 206.291C93.4902 206.671 92.8602 206.701 92.3602 206.721C91.8802 206.741 91.6802 206.751 91.4302 206.951C90.7802 207.471 90.6402 208.711 90.8402 209.621C91.0802 210.691 91.8402 211.341 92.1502 211.581C92.5902 211.911 92.6902 212.531 92.3602 212.981C92.0302 213.421 91.4002 213.521 90.9602 213.191C90.3502 212.741 89.2602 211.731 88.8802 210.071C88.8002 209.681 88.7502 209.251 88.7502 208.811Z" fill="white"/>
</g>
<mask id="mask10_202_2228" style="mask-type:luminance" maskUnits="userSpaceOnUse" x="69" y="163" width="31" height="81">
<path d="M90.4302 172.271C87.3902 165.251 85.5902 163.701 83.9402 163.641C77.2502 163.371 69.8202 187.131 69.2902 207.991C69.1702 212.841 68.4902 239.791 79.3302 243.341C83.3502 244.661 87.4302 242.261 88.5302 241.611C104.78 232.051 100.2 194.811 90.4302 172.271Z" fill="white"/>
</mask>
<g mask="url(#mask10_202_2228)">
<path d="M78.7903 244.821C78.7903 243.561 79.2003 242.221 80.2203 241.401C80.9903 240.781 81.7603 240.751 82.3303 240.731C82.7203 240.721 82.9903 240.711 83.2903 240.551C84.2303 240.031 84.5503 238.351 84.6503 237.021C84.6903 236.471 85.1703 236.061 85.7203 236.101C86.2703 236.141 86.6803 236.631 86.6403 237.171C86.4403 239.851 85.6503 241.531 84.2403 242.301C83.5303 242.681 82.9003 242.711 82.4003 242.731C81.9203 242.751 81.7203 242.761 81.4703 242.961C80.8103 243.481 80.6803 244.731 80.8803 245.631C81.1203 246.701 81.8803 247.351 82.1903 247.591C82.6303 247.921 82.7303 248.541 82.4003 248.991C82.0703 249.441 81.4403 249.531 81.0003 249.201C80.3903 248.751 79.3003 247.741 78.9203 246.081C78.8403 245.681 78.7903 245.261 78.7903 244.821Z" fill="white"/>
</g>
</g>
<path d="M116.352 157.36L110.742 174.08L108.882 180.07C107.212 185.45 100.342 187.01 96.5219 182.87L93.0119 177.96L82.1719 163.81" fill="white"/>
<path d="M50.1719 157.801L55.4119 174.081L57.2719 180.071C58.9419 185.451 65.8119 187.011 69.6319 182.871L72.9819 177.961L82.1819 163.811" fill="white"/>
<path d="M56.4998 190.501C51.8498 219.831 37.8798 210.011 31.0898 205.721C24.2998 201.441 24.3198 186.991 31.8998 174.981C39.4798 162.971 51.1298 156.701 57.9198 160.991C64.7098 165.281 58.7798 176.111 56.4998 190.501Z" fill="url(#paint3_linear_202_2228)"/>
<path d="M110.263 191.271C114.983 220.711 128.953 210.891 135.743 206.601C142.533 202.321 142.473 187.821 134.863 175.751C127.253 163.681 115.573 157.371 108.773 161.651C101.983 165.941 107.943 176.821 110.263 191.271Z" fill="url(#paint4_linear_202_2228)"/>
<path d="M107.841 160.2C107.951 160.15 108.071 160.13 108.201 160.13C108.791 160.12 109.371 160.16 109.941 160.26C113.031 160.79 115.051 162.72 116.201 164.24C116.531 164.68 116.451 165.31 116.001 165.64C115.561 165.97 114.931 165.89 114.601 165.44C113.671 164.2 112.041 162.64 109.601 162.23C109.151 162.15 108.691 162.12 108.231 162.13C107.681 162.14 107.221 161.7 107.211 161.15C107.211 160.72 107.471 160.35 107.841 160.2Z" fill="#823737"/>
<path d="M104.753 162.121C104.863 162.071 104.983 162.051 105.113 162.051C105.703 162.041 106.283 162.091 106.853 162.181C109.943 162.711 111.963 164.631 113.113 166.161C113.443 166.601 113.363 167.231 112.913 167.561C112.473 167.891 111.843 167.811 111.513 167.361C110.583 166.121 108.953 164.561 106.513 164.151C106.073 164.071 105.613 164.041 105.143 164.051C104.593 164.061 104.133 163.621 104.133 163.071C104.123 162.641 104.383 162.271 104.753 162.121Z" fill="#823737"/>
<path d="M55.1601 159.42C55.5501 159.5 55.8801 159.81 55.9501 160.22C56.0501 160.76 55.6901 161.28 55.1501 161.38C54.6901 161.46 54.2501 161.59 53.8201 161.75C51.5101 162.63 50.2101 164.48 49.5301 165.87C49.2901 166.37 48.6901 166.57 48.1901 166.33C47.6901 166.09 47.4901 165.49 47.7301 164.99C48.5701 163.27 50.1801 160.99 53.1101 159.87C53.6501 159.67 54.2101 159.51 54.7901 159.41C54.9201 159.39 55.0401 159.39 55.1601 159.42Z" fill="#823737"/>
<path d="M58.5703 160.711C58.9603 160.791 59.2903 161.101 59.3603 161.521C59.4603 162.061 59.1003 162.581 58.5503 162.681C58.1003 162.761 57.6503 162.881 57.2303 163.051C54.9203 163.931 53.6203 165.781 52.9403 167.171C52.7003 167.671 52.1003 167.871 51.6003 167.631C51.1003 167.391 50.9003 166.791 51.1403 166.291C51.9803 164.571 53.5903 162.291 56.5203 161.171C57.0603 160.961 57.6303 160.811 58.2003 160.711C58.3303 160.681 58.4503 160.681 58.5703 160.711Z" fill="#823737"/>
<path d="M70.5421 148.661C70.4021 147.561 75.1721 145.761 79.0321 145.331C81.6021 145.041 83.5621 145.391 84.1621 145.501C87.1721 146.091 91.3421 147.781 91.1821 148.821C90.8421 151.031 70.8321 150.861 70.5421 148.661Z" stroke="#823737" stroke-width="2" stroke-miterlimit="10" stroke-linecap="round"/>
<defs>
<radialGradient id="paint0_radial_202_2228" cx="0" cy="0" r="1" gradientUnits="userSpaceOnUse" gradientTransform="translate(87 264) scale(58 9)">
<stop stop-color="#5C5C5C"/>
<stop offset="0.635" stop-color="#5C5C5C"/>
</radialGradient>
<linearGradient id="paint1_linear_202_2228" x1="1.26063" y1="121.55" x2="128.144" y2="218.745" gradientUnits="userSpaceOnUse">
<stop stop-color="white"/>
<stop offset="1" stop-color="#FF6C6A"/>
</linearGradient>
<linearGradient id="paint2_linear_202_2228" x1="-81.9676" y1="-56.1368" x2="118.242" y2="148.323" gradientUnits="userSpaceOnUse">
<stop stop-color="white"/>
<stop offset="1" stop-color="#FF6C6A"/>
</linearGradient>
<linearGradient id="paint3_linear_202_2228" x1="9.40273" y1="142.313" x2="66.6983" y2="180.932" gradientUnits="userSpaceOnUse">
<stop stop-color="white"/>
<stop offset="1" stop-color="#FF6C6A"/>
</linearGradient>
<linearGradient id="paint4_linear_202_2228" x1="88.8747" y1="142.915" x2="146.376" y2="181.641" gradientUnits="userSpaceOnUse">
<stop stop-color="white"/>
<stop offset="1" stop-color="#FF6C6A"/>
</linearGradient>
</defs>
</svg>
