<svg width="324" height="324" viewBox="0 0 324 324" fill="none" xmlns="http://www.w3.org/2000/svg">
<rect width="324" height="324" rx="49" fill="#7AE2FF"/>
<ellipse cx="161.5" cy="131.5" rx="47.5" ry="50.5" fill="url(#paint0_linear_260_3074)"/>
<path d="M70 229.346C70 210.377 94.1201 195 123.874 195H199.126C228.88 195 253 210.377 253 229.346V273H161.5H70V229.346Z" fill="url(#paint1_linear_260_3074)"/>
<path fill-rule="evenodd" clip-rule="evenodd" d="M210.908 79.1206C201.801 67.8462 187.081 58.7397 163.099 59.0063C139.001 59.2743 123.869 68.5558 114.371 79.867C104.612 91.4889 100.633 105.521 100.02 114.681L83.3806 113.78C84.1497 102.28 88.9579 85.2495 101.071 70.8236C113.446 56.0871 133.271 44.3363 162.893 44.0069C192.633 43.6762 212.317 55.3531 224.392 70.3006C236.171 84.8831 240.505 102.256 240.964 113.966L224.742 119.895C224.372 110.448 220.31 90.7601 210.908 79.1206Z" fill="white"/>
<path fill-rule="evenodd" clip-rule="evenodd" d="M101.22 106.57C81.6695 107.036 66 119.799 66 135.476C66 151.153 81.6695 163.917 101.22 164.382V106.57ZM138.648 135.987C138.652 135.817 138.654 135.647 138.654 135.476C138.654 135.306 138.652 135.135 138.648 134.966V135.987Z" fill="#003D30"/>
<path fill-rule="evenodd" clip-rule="evenodd" d="M230.706 157.553C235.073 157.553 238.614 160.845 238.614 164.906C238.614 165.346 238.62 165.852 238.628 166.404C238.652 168.21 238.683 170.504 238.502 172.582C238.251 175.469 237.551 178.99 235.35 182.306C230.572 189.503 221.305 192.314 208.422 192.314H174.918L174.918 177.251H208.52C219.79 177.251 221.568 175.07 221.893 174.58C222.244 174.052 222.587 173.144 222.739 171.394C222.856 170.056 222.839 168.795 222.818 167.211C222.809 166.516 222.799 165.759 222.799 164.906C222.799 160.845 226.339 157.553 230.706 157.553Z" fill="#003D30"/>
<path fill-rule="evenodd" clip-rule="evenodd" d="M222.78 106.57C242.33 107.036 258 119.799 258 135.476C258 151.153 242.33 163.917 222.78 164.382V106.57ZM185.352 135.987C185.348 135.817 185.346 135.647 185.346 135.476C185.346 135.306 185.348 135.135 185.352 134.966V135.987Z" fill="#003D30"/>
<path fill-rule="evenodd" clip-rule="evenodd" d="M183.029 192.313V177.25H187.664V192.313H183.029Z" fill="white"/>
<defs>
<linearGradient id="paint0_linear_260_3074" x1="129.114" y1="92.4773" x2="198.326" y2="196.55" gradientUnits="userSpaceOnUse">
<stop stop-color="white"/>
<stop offset="1" stop-color="white" stop-opacity="0"/>
</linearGradient>
<linearGradient id="paint1_linear_260_3074" x1="51.5608" y1="175.69" x2="170.476" y2="323.296" gradientUnits="userSpaceOnUse">
<stop stop-color="white"/>
<stop offset="1" stop-color="white" stop-opacity="0"/>
</linearGradient>
</defs>
</svg>
