<svg width="324" height="324" viewBox="0 0 324 324" fill="none" xmlns="http://www.w3.org/2000/svg">
<rect width="324" height="324" rx="49" fill="#EDFF78"/>
<path fill-rule="evenodd" clip-rule="evenodd" d="M225.328 75.4777C224.269 69.7426 219.213 66.0442 214.034 67.217C208.855 68.3898 205.516 73.9897 206.575 79.7248L221.093 158.348L216.628 159.359L203.936 90.6262C202.877 84.8911 197.82 81.1927 192.641 82.3655C187.463 83.5383 184.123 89.1382 185.182 94.8733L197.874 163.606L193.409 164.618L186.196 125.555C185.137 119.82 180.08 116.122 174.902 117.295C169.723 118.467 166.383 124.067 167.442 129.802L177.304 183.207C177.311 183.247 177.319 183.286 177.326 183.325L186.854 234.923C189.497 249.236 202.117 258.467 215.042 255.54L275.747 241.792C276.586 241.758 277.442 241.647 278.308 241.453C284.131 240.147 288.74 235.215 290.117 228.815L302.691 170.397C304.217 163.308 299.936 156.292 293.427 155.216C288.285 154.366 283.289 157.536 281.35 162.878L270.95 191.538L263.066 148.843L263.065 148.843L251.469 86.0445C250.41 80.3095 245.353 76.611 240.175 77.7838C234.996 78.9566 231.656 84.5566 232.715 90.2916L244.312 153.09L239.847 154.101L225.328 75.4777ZM136.804 126.815C137.863 121.08 142.92 117.381 148.099 118.554C153.277 119.727 156.617 125.327 155.558 131.062L148.345 170.125L145.696 184.466L136.147 236.184C133.503 250.497 120.883 259.727 107.959 256.8L47.2639 243.055C46.421 243.021 45.5622 242.91 44.6921 242.715C38.869 241.409 34.2607 236.478 32.8831 230.077L20.3094 171.66C18.7835 164.571 23.0649 157.555 29.5735 156.478C34.7154 155.628 39.7119 158.798 41.6504 164.14L52.0502 192.801L59.9347 150.103L59.9353 150.103L71.5315 87.3051C72.5906 81.5701 77.6472 77.8717 82.8259 79.0445C88.0046 80.2173 91.3442 85.8172 90.2852 91.5522L80.3104 154.718L82.4761 155.208L97.6712 76.7382C98.7303 71.0032 103.787 67.3048 108.966 68.4776C114.144 69.6504 117.484 75.2503 116.425 80.9853L103.302 159.925L105.099 160.332L119.064 91.886C120.123 86.151 125.18 82.4526 130.359 83.6254C135.537 84.7982 138.877 90.3981 137.818 96.1332L126.486 165.175L128.27 165.579L136.804 126.815Z" fill="url(#paint0_linear_260_3075)"/>
<rect x="107" y="169.58" width="77.1865" height="77.1865" transform="rotate(-45 107 169.58)" fill="#007AFF"/>
<defs>
<linearGradient id="paint0_linear_260_3075" x1="108" y1="105" x2="373.422" y2="463.537" gradientUnits="userSpaceOnUse">
<stop stop-color="white"/>
<stop offset="1" stop-color="white" stop-opacity="0"/>
</linearGradient>
</defs>
</svg>
