<svg width="305" height="305" viewBox="0 0 305 305" fill="none" xmlns="http://www.w3.org/2000/svg">
<path d="M0 46.1265C0 20.6516 20.6516 0 46.1265 0H258.873C284.348 0 305 20.6516 305 46.1265V258.873C305 284.348 284.348 305 258.873 305H46.1265C20.6516 305 0 284.348 0 258.873V46.1265Z" fill="#FF9D79"/>
<path fill-rule="evenodd" clip-rule="evenodd" d="M155.5 213.666C170.414 200.483 179.8 181.324 179.8 160C179.8 138.676 170.414 119.517 155.5 106.334C168.397 94.9326 185.429 88 204.1 88C244.362 88 277 120.235 277 160C277 199.765 244.362 232 204.1 232C185.429 232 168.397 225.067 155.5 213.666ZM155.5 213.666C142.603 225.067 125.571 232 106.9 232C66.6384 232 34 199.765 34 160C34 120.235 66.6384 88 106.9 88C125.571 88 142.603 94.9326 155.5 106.334C140.586 119.517 131.2 138.676 131.2 160C131.2 181.324 140.586 200.483 155.5 213.666Z" fill="url(#paint0_linear_260_3076)"/>
<path fill-rule="evenodd" clip-rule="evenodd" d="M155.5 214.57C170.537 201.112 180.001 181.554 180.001 159.785C180.001 138.017 170.537 118.458 155.5 105C140.463 118.458 131 138.017 131 159.785C131 181.554 140.463 201.112 155.5 214.57Z" fill="#4BFFE4"/>
<defs>
<linearGradient id="paint0_linear_260_3076" x1="54.7485" y1="88" x2="204.044" y2="259.317" gradientUnits="userSpaceOnUse">
<stop stop-color="white"/>
<stop offset="1" stop-color="white" stop-opacity="0"/>
</linearGradient>
</defs>
</svg>
