<svg width="324" height="324" viewBox="0 0 324 324" fill="none" xmlns="http://www.w3.org/2000/svg">
<path d="M0 49C0 21.938 21.938 0 49 0H275C302.062 0 324 21.938 324 49V275C324 302.062 302.062 324 275 324H49C21.938 324 0 302.062 0 275V49Z" fill="#B17EFF"/>
<path d="M249 193C249 231.108 218.108 262 180 262C141.892 262 111 231.108 111 193C111 154.892 141.892 124 180 124C218.108 124 249 154.892 249 193Z" fill="url(#paint0_linear_260_3077)"/>
<path fill-rule="evenodd" clip-rule="evenodd" d="M239.895 181.808C232.504 206.546 202.633 221 174.64 221C161.147 221 147.846 218.389 136.938 213.008C127.096 217.889 114.351 219.958 103.559 219.958C82.5562 219.958 57 201.388 57 180.245C57 159.103 74.7371 136.597 95.7401 136.597C102.26 136.597 110.245 139.799 118.158 144.849C129.118 120.031 151.601 97 174.64 97C198.171 97 223.029 118.755 234.746 142.944C239.021 139.004 244.734 136.597 251.01 136.597C264.259 136.597 275 147.327 275 160.563C275 173.799 264.259 184.529 251.01 184.529C246.999 184.529 243.218 183.546 239.895 181.808Z" fill="#FFF5E1"/>
<defs>
<linearGradient id="paint0_linear_260_3077" x1="180" y1="124" x2="180" y2="262" gradientUnits="userSpaceOnUse">
<stop stop-color="white"/>
<stop offset="1" stop-color="white" stop-opacity="0"/>
</linearGradient>
</defs>
</svg>
