<svg width="324" height="324" viewBox="0 0 324 324" fill="none" xmlns="http://www.w3.org/2000/svg">
<rect width="324" height="324" rx="49" fill="#79B9FF"/>
<ellipse cx="161.5" cy="101.5" rx="47.5" ry="50.5" fill="url(#paint0_linear_260_3073)"/>
<path d="M70 198.346C70 179.377 94.1201 164 123.874 164H199.126C228.88 164 253 179.377 253 198.346V242L161.5 275.5L70 242V198.346Z" fill="url(#paint1_linear_260_3073)"/>
<path d="M162 202L119 163L205 163L162 202Z" fill="#747474"/>
<path d="M150.899 207.495C151.162 204.388 153.76 202 156.878 202H164.625C167.669 202 170.231 204.279 170.584 207.303L178.531 275.229C178.689 276.581 178.382 277.947 177.662 279.102L167.366 295.605C165.058 299.305 159.7 299.385 157.282 295.756L146.162 279.061C145.409 277.932 145.062 276.581 145.176 275.23L150.899 207.495Z" fill="#FFD56A"/>
<path d="M173.279 205.221C172.797 206.303 171.723 207 170.539 207L152.173 207C150.974 207 149.889 206.285 149.416 205.183L142.243 188.46C142.083 188.087 142 187.684 142 187.278L142 186C142 184.343 143.343 183 145 183L178 183C179.657 183 181 184.343 181 186L181 187.256C181 187.677 180.911 188.093 180.74 188.477L173.279 205.221Z" fill="#FFD56A"/>
<path d="M115.415 167.858C112.596 163.381 115.294 160.583 119.622 162.294L154.661 175.614C156.768 176.447 157.885 178.673 157.418 180.79C157.27 181.458 156.869 182.032 156.443 182.568L140.842 202.206C138.869 204.778 137.731 205.287 136.283 202.656L115.415 167.858Z" fill="white"/>
<path d="M207.344 167.858C210.163 163.381 207.466 160.583 203.138 162.294L168.098 175.614C165.991 176.447 164.875 178.673 165.342 180.79C165.489 181.458 165.891 182.032 166.316 182.568L181.917 202.206C183.89 204.778 185.029 205.287 186.477 202.656L207.344 167.858Z" fill="white"/>
<defs>
<linearGradient id="paint0_linear_260_3073" x1="129.114" y1="62.4773" x2="198.326" y2="166.55" gradientUnits="userSpaceOnUse">
<stop stop-color="white"/>
<stop offset="1" stop-color="white" stop-opacity="0"/>
</linearGradient>
<linearGradient id="paint1_linear_260_3073" x1="51.5608" y1="144.69" x2="170.476" y2="292.296" gradientUnits="userSpaceOnUse">
<stop stop-color="white"/>
<stop offset="1" stop-color="white" stop-opacity="0"/>
</linearGradient>
</defs>
</svg>
