<svg width="93" height="148" viewBox="0 0 93 148" fill="none" xmlns="http://www.w3.org/2000/svg">
<ellipse cx="44" cy="142" rx="27" ry="6" fill="#5C5C5C"/>
<path d="M72.0597 103.383C69.616 93.8546 63.3891 89.3155 61.8457 88.1098L61.2241 89.3423C56.7602 84.9747 50.3349 82.6436 44.3437 82.6436C38.8991 82.6436 33.0365 83.9244 28.6315 87.1291V87.1183C27.0882 88.3241 16.5473 93.8493 14.0983 103.378C13.7339 104.798 12.3567 110.076 15.84 118.41C16.0007 118.801 20.3521 124.648 23.546 123.587C24.95 123.12 25.5877 121.657 25.8717 120.328C28.0849 130.178 28.4011 133.924 27.951 134.889C27.9027 134.991 27.6187 135.548 27.5383 136.33C27.4472 137.236 27.6509 138.238 28.0313 138.849C29.7998 141.668 38.4382 140.896 41.6268 140.612C41.8786 140.591 42.2966 140.548 42.7092 140.344C44.5313 139.455 43.9525 136.614 43.572 134.926C43.3255 133.828 43.0576 132.734 42.7789 131.663C43.3094 131.7 43.8507 131.727 44.4026 131.727C44.8421 131.727 45.2654 131.711 45.6888 131.689C45.4101 132.756 45.1475 133.844 44.901 134.932C44.5205 136.62 43.9418 139.46 45.7638 140.35C46.1764 140.553 46.5891 140.591 46.8463 140.618C50.0348 140.902 58.6733 141.668 60.4417 138.854C60.8222 138.243 61.0258 137.241 60.9347 136.336C60.8543 135.553 60.5703 134.996 60.5221 134.894C60.1202 134.037 60.3292 130.95 61.9529 123.276C62.1458 123.404 62.3655 123.512 62.6013 123.592C65.7952 124.648 70.1412 118.806 70.3073 118.415C73.796 110.076 72.4134 104.803 72.049 103.383H72.0597Z" fill="url(#paint0_linear_733_3913)"/>
<path d="M44.917 122.931C41.6749 122.931 39.0491 121.929 37.554 121.184C37.2914 121.05 37.1788 120.729 37.3128 120.466C37.4468 120.203 37.763 120.091 38.0309 120.225C39.9601 121.179 43.8881 122.599 48.5557 121.398C55.7473 119.544 58.6303 112.797 58.9358 112.036C59.0483 111.763 59.3591 111.629 59.6324 111.736C59.9057 111.849 60.0397 112.16 59.9325 112.433C59.402 113.762 56.3689 120.493 48.8236 122.438C47.4518 122.792 46.1442 122.937 44.9224 122.937L44.917 122.931Z" fill="#823737"/>
<path d="M23.5194 125.064C23.4551 125.064 23.3908 125.054 23.3265 125.027C23.0317 124.914 22.7531 124.775 22.4905 124.609C21.0597 123.725 20.4488 122.358 20.1808 121.372C20.1058 121.088 20.2719 120.793 20.5613 120.718C20.8453 120.643 21.1401 120.809 21.2151 121.099C21.4294 121.903 21.9224 123.006 23.0532 123.703C23.2622 123.832 23.4819 123.939 23.7123 124.03C23.991 124.137 24.1249 124.448 24.0178 124.721C23.9374 124.936 23.7337 125.064 23.5194 125.064Z" fill="#823737"/>
<path d="M25.4376 124.732C25.3733 124.732 25.309 124.722 25.2447 124.695C24.9499 124.582 24.6659 124.443 24.4087 124.277C22.9832 123.393 22.367 122.026 22.099 121.04C22.024 120.756 22.1901 120.461 22.4795 120.386C22.7635 120.311 23.0583 120.477 23.1333 120.767C23.3476 121.57 23.8407 122.674 24.9714 123.371C25.175 123.5 25.4001 123.607 25.6305 123.698C25.9038 123.805 26.0431 124.116 25.936 124.389C25.8556 124.604 25.652 124.732 25.4376 124.732Z" fill="#823737"/>
<path d="M64.702 124.737C64.4876 124.737 64.284 124.608 64.2036 124.394C64.0964 124.121 64.2304 123.81 64.5091 123.703C64.7395 123.611 64.9646 123.499 65.1682 123.376C66.2936 122.679 66.7866 121.575 67.0063 120.771C67.0813 120.487 67.3761 120.316 67.6601 120.391C67.9441 120.466 68.1156 120.76 68.0406 121.044C67.7726 122.036 67.1617 123.402 65.7309 124.281C65.4683 124.442 65.1896 124.581 64.8949 124.699C64.8306 124.726 64.7663 124.737 64.702 124.737Z" fill="#823737"/>
<path d="M62.7782 124.406C62.5639 124.406 62.3602 124.277 62.2799 124.063C62.1727 123.784 62.312 123.479 62.5853 123.372C62.8157 123.28 63.0355 123.173 63.2445 123.045C64.3698 122.348 64.8628 121.244 65.0825 120.44C65.1576 120.156 65.4523 119.985 65.7363 120.06C66.0203 120.135 66.1918 120.429 66.1168 120.713C65.8489 121.705 65.2379 123.071 63.8071 123.95C63.5445 124.111 63.2605 124.256 62.9711 124.368C62.9068 124.395 62.8425 124.406 62.7782 124.406Z" fill="#823737"/>
<path d="M49.2844 96.7534L51.0957 89.3257C51.2832 88.554 50.533 87.8359 49.5363 87.8359H40.7585C39.7778 87.8359 39.0329 88.5326 39.1937 89.2989L40.7692 96.7266C40.8603 97.1446 41.2086 97.4822 41.6748 97.6537C40.6459 103.013 39.408 112.975 38.6899 118.65C40.5441 121.935 42.3822 124.797 44.4025 127.605C46.2138 125.178 49.0004 120.864 50.9564 118.039C50.2972 113.034 48.9468 103.286 48.2019 97.7073C48.7432 97.5679 49.1665 97.2142 49.279 96.7534H49.2844Z" fill="#2DDDC3"/>
<mask id="mask0_733_3913" style="mask-type:luminance" maskUnits="userSpaceOnUse" x="38" y="87" width="14" height="41">
<path d="M49.2839 96.7543L51.0952 89.3267C51.2828 88.555 50.5325 87.8369 49.5358 87.8369H40.758C39.7773 87.8369 39.0324 88.5336 39.1932 89.2999L40.7687 96.7275C40.8598 97.1455 41.2081 97.4832 41.6743 97.6546C40.6454 103.014 39.4075 112.976 38.6895 118.651C40.5436 121.936 42.3817 124.798 44.402 127.606C46.2133 125.179 48.9999 120.865 50.9559 118.04C50.2967 113.035 48.9463 103.287 48.2014 97.7082C48.7427 97.5689 49.166 97.2152 49.2786 96.7543H49.2839Z" fill="white"/>
</mask>
<g mask="url(#mask0_733_3913)">
<mask id="mask1_733_3913" style="mask-type:luminance" maskUnits="userSpaceOnUse" x="37" y="87" width="17" height="44">
<path d="M48.7486 92.293C47.1195 88.531 46.1549 87.7004 45.2707 87.6682C41.6856 87.5235 37.704 100.257 37.42 111.435C37.3557 114.035 36.9913 128.477 42.8056 130.38C44.9599 131.087 47.1463 129.801 47.7358 129.453C56.4386 124.335 53.9896 104.378 48.7486 92.293Z" fill="white"/>
</mask>
<g mask="url(#mask1_733_3913)">
<path d="M40.5282 92.1758C40.4157 93.6709 39.9601 94.2551 39.5207 94.4962C38.942 94.8124 38.4704 94.4909 37.9559 94.8982C37.3986 95.343 37.3075 96.2379 37.4522 96.8649C37.6291 97.6527 38.1864 98.0975 38.3579 98.2261" stroke="white" stroke-width="2" stroke-miterlimit="10" stroke-linecap="round"/>
<path d="M44.1667 93.2849C44.1667 92.6096 44.3865 91.8915 44.9331 91.4521C45.3457 91.1198 45.7583 91.1037 46.0638 91.093C46.2728 91.0877 46.4228 91.0823 46.5782 90.9966C47.0873 90.7179 47.2534 89.8176 47.307 89.1048C47.3285 88.8101 47.5857 88.5904 47.8804 88.6118C48.1752 88.6332 48.4002 88.8958 48.3735 89.1852C48.2663 90.6214 47.8429 91.5217 47.0873 91.9344C46.7069 92.138 46.3692 92.1541 46.1013 92.1648C45.8441 92.1756 45.7369 92.1809 45.6029 92.2881C45.2546 92.5668 45.1796 93.2366 45.2867 93.7189C45.41 94.2709 45.7798 94.6139 45.9888 94.7693C46.2245 94.9462 46.2781 95.2784 46.1013 95.5196C45.9244 95.7554 45.5868 95.809 45.3511 95.6321C45.0242 95.3856 44.44 94.8443 44.2418 93.9601C44.1935 93.7511 44.1667 93.5207 44.1667 93.2902V93.2849Z" fill="white"/>
<path d="M36.959 103.81C36.959 103.135 37.1787 102.417 37.7253 101.977C38.1379 101.645 38.5506 101.629 38.856 101.618C39.065 101.613 39.215 101.608 39.3705 101.522C39.8742 101.243 40.0457 100.343 40.0993 99.6302C40.1207 99.3355 40.3779 99.1158 40.6727 99.1372C40.9674 99.1586 41.1871 99.4105 41.1657 99.7106C41.0585 101.147 40.6351 102.047 39.8796 102.46C39.4991 102.663 39.1615 102.68 38.8935 102.69C38.6363 102.701 38.5291 102.706 38.3952 102.813C38.0468 103.092 37.9718 103.762 38.079 104.244C38.2076 104.818 38.6149 105.166 38.781 105.295C39.0168 105.472 39.0704 105.804 38.8935 106.045C38.7167 106.281 38.3791 106.334 38.1433 106.158C37.8164 105.916 37.2323 105.375 37.0286 104.485C36.9804 104.276 36.9536 104.046 36.9536 103.816L36.959 103.81Z" fill="white"/>
<path d="M41.7234 108.805C41.7234 108.13 41.9431 107.412 42.4897 106.973C42.9023 106.64 43.315 106.624 43.6204 106.614C43.8294 106.608 43.9741 106.603 44.1349 106.517C44.644 106.238 44.8101 105.338 44.8637 104.625C44.8851 104.331 45.1423 104.111 45.4371 104.132C45.7318 104.154 45.9569 104.416 45.9301 104.706C45.8229 106.142 45.3995 107.042 44.6439 107.455C44.2635 107.659 43.9259 107.675 43.6579 107.685C43.4007 107.696 43.2935 107.701 43.1596 107.809C42.8059 108.093 42.7362 108.757 42.8434 109.239C42.9666 109.791 43.3364 110.134 43.5454 110.29C43.7812 110.467 43.8348 110.799 43.6579 111.04C43.4811 111.276 43.1435 111.329 42.9077 111.153C42.5754 110.911 41.9967 110.37 41.793 109.475C41.7448 109.266 41.718 109.036 41.718 108.8L41.7234 108.805Z" fill="white"/>
<path d="M51.0961 97.6104C50.9835 99.1055 50.528 99.6897 50.0886 99.9308C49.5098 100.247 49.0383 99.9255 48.5238 100.333C47.9665 100.778 47.8754 101.672 48.0201 102.3C48.1969 103.087 48.7542 103.532 48.9257 103.661" stroke="white" stroke-width="2" stroke-miterlimit="10" stroke-linecap="round"/>
<path d="M43.3522 97.5713C43.2396 99.0665 42.7841 99.6506 42.3447 99.8917C41.766 100.208 41.2944 99.8864 40.7799 100.294C40.2226 100.738 40.1315 101.633 40.2762 102.26C40.453 103.048 41.0103 103.493 41.1818 103.622" stroke="white" stroke-width="2" stroke-miterlimit="10" stroke-linecap="round"/>
<path d="M37.3665 118.097C37.3665 117.422 37.5862 116.704 38.1328 116.265C38.5454 115.932 38.958 115.916 39.2635 115.906C39.4725 115.9 39.6225 115.895 39.7779 115.809C40.287 115.536 40.4531 114.63 40.5067 113.917C40.5282 113.623 40.7854 113.403 41.0801 113.424C41.3749 113.446 41.6 113.708 41.5732 113.998C41.466 115.434 41.0426 116.334 40.287 116.747C39.9066 116.951 39.5743 116.967 39.301 116.977C39.0438 116.988 38.9366 116.993 38.8026 117.101C38.4489 117.379 38.3793 118.049 38.4865 118.531C38.6097 119.083 38.9795 119.426 39.1885 119.582C39.4243 119.759 39.4725 120.096 39.301 120.332C39.1242 120.568 38.7865 120.621 38.5508 120.445C38.2239 120.198 37.6398 119.657 37.4415 118.773C37.3932 118.564 37.3665 118.333 37.3665 118.097Z" fill="white"/>
<path d="M43.3362 120.471C43.3362 119.796 43.5559 119.078 44.1025 118.639C44.5151 118.306 44.9277 118.29 45.2332 118.28C45.4422 118.274 45.5923 118.269 45.7477 118.183C46.2514 117.904 46.4229 117.004 46.4765 116.291C46.4979 115.997 46.7551 115.777 47.0499 115.798C47.3446 115.82 47.5643 116.082 47.5429 116.372C47.4357 117.808 47.0123 118.708 46.2567 119.121C45.8763 119.325 45.5387 119.341 45.2707 119.351C45.0135 119.362 44.9063 119.367 44.7723 119.475C44.424 119.753 44.349 120.418 44.4562 120.905C44.5848 121.479 44.9921 121.827 45.1582 121.956C45.394 122.133 45.4476 122.465 45.2707 122.706C45.0939 122.942 44.7563 122.995 44.5205 122.819C44.1936 122.577 43.6095 122.036 43.4058 121.147C43.3576 120.938 43.3308 120.707 43.3308 120.477L43.3362 120.471Z" fill="white"/>
<path d="M47.8535 111.882C47.8535 111.206 48.0732 110.488 48.6198 110.049C49.0325 109.717 49.4451 109.7 49.7505 109.69C49.9595 109.684 50.1096 109.679 50.265 109.593C50.7687 109.315 50.9402 108.414 50.9938 107.702C51.0152 107.407 51.2725 107.187 51.5672 107.208C51.8619 107.23 52.0816 107.493 52.0602 107.782C51.953 109.218 51.5297 110.118 50.7741 110.531C50.3936 110.735 50.056 110.751 49.788 110.762C49.5308 110.772 49.4236 110.778 49.2897 110.885C48.9414 111.163 48.8663 111.828 48.9735 112.316C49.1021 112.889 49.5094 113.237 49.6755 113.366C49.9113 113.543 49.9649 113.875 49.788 114.116C49.6112 114.352 49.2736 114.406 49.0378 114.229C48.7109 113.988 48.1268 113.446 47.9232 112.557C47.8749 112.348 47.8481 112.117 47.8481 111.887L47.8535 111.882Z" fill="white"/>
<path d="M42.511 131.178C42.511 130.503 42.7307 129.785 43.2773 129.346C43.6899 129.013 44.1026 128.997 44.408 128.987C44.617 128.981 44.7617 128.976 44.9225 128.89C45.4262 128.611 45.5977 127.711 45.6513 126.998C45.6727 126.704 45.9299 126.484 46.2247 126.505C46.5194 126.527 46.7391 126.789 46.7177 127.079C46.6105 128.515 46.1871 129.415 45.4315 129.828C45.0511 130.032 44.7135 130.048 44.4455 130.058C44.1883 130.069 44.0811 130.074 43.9471 130.182C43.5935 130.46 43.5238 131.13 43.631 131.613C43.7596 132.186 44.1669 132.534 44.333 132.663C44.5688 132.84 44.6224 133.172 44.4455 133.413C44.2687 133.654 43.9311 133.703 43.6953 133.526C43.3684 133.285 42.7843 132.743 42.5806 131.854C42.5324 131.645 42.5056 131.414 42.5056 131.184L42.511 131.178Z" fill="white"/>
</g>
</g>
<path d="M63.2282 84.3896L60.2219 93.3499L59.2251 96.56C58.3302 99.4432 54.6487 100.279 52.6016 98.0605L50.7206 95.4292L44.9116 87.8462" fill="white"/>
<path d="M27.7581 84.626L30.5661 93.3505L31.5628 96.5605C32.4578 99.4437 36.1393 100.28 38.1864 98.0611L39.9816 95.4298L44.9117 87.8468" fill="white"/>
<path d="M87.6861 1.29254C82.6166 -1.02255 74.8677 5.82092 69.3106 10.7352C58.6357 20.167 53.7056 31.2977 51.3959 38.093C49.5364 37.8411 47.6447 37.7018 45.737 37.7018C43.8292 37.7018 42.093 37.8304 40.3085 38.0608C38.3042 31.0351 34.1243 20.5743 24.9929 11.1799C19.8216 5.85844 12.6193 -1.5531 7.38366 0.370792C-0.68677 3.33969 -0.879691 27.3428 4.76854 45.3491C7.27113 53.3233 10.8723 59.154 13.482 63.184L13.5463 63.2911C15.8667 78.1303 27.1578 88.7572 45.1904 88.8858C62.671 89.0091 75.8966 77.932 77.9973 62.8731C78.0241 62.6963 78.0294 62.5248 78.0509 62.3479C80.8 58.5537 84.1493 53.1947 86.8876 46.3405C93.8863 28.8111 95.51 4.86166 87.6861 1.29254Z" fill="url(#paint1_linear_733_3913)"/>
<path d="M28.1546 63.8847C28.1868 65.1387 29.8641 65.546 31.0806 65.6693C32.7418 65.8354 34.1887 64.2063 34.044 62.9683C33.8618 61.4464 31.2413 60.3156 29.773 61.2266C29.1192 61.6339 28.1332 63.0916 28.1546 63.8847Z" fill="#231815"/>
<path d="M59.852 64.0722C59.8199 65.3262 58.1425 65.7335 56.9261 65.8568C55.2648 66.0229 53.8179 64.3938 53.9626 63.1558C54.1448 61.6339 56.7653 60.5031 58.2336 61.4141C58.8874 61.8214 59.8734 63.2791 59.852 64.0722Z" fill="#231815"/>
<path d="M82.0594 21.1217C80.2053 20.1034 75.9557 21.0145 60.5383 40.6178C60.4472 40.7357 60.4097 40.875 60.4257 41.0144C60.4257 41.0251 60.4257 41.0304 60.4257 41.0412C60.4365 41.1859 60.7098 44.6424 63.625 46.1322C64.4717 46.5663 65.3988 46.7646 66.3205 46.7646C68.3033 46.7646 70.2324 45.8161 71.1381 44.1655C72.4617 41.7646 71.4811 38.4474 70.5325 35.2373L70.3718 34.6907C70.286 34.4067 69.9913 34.2459 69.7073 34.3263C69.4233 34.412 69.2625 34.7068 69.3429 34.9908L69.5036 35.5428C70.3878 38.5385 71.3042 41.6414 70.2003 43.651C69.0321 45.7785 66.0525 46.1644 64.1126 45.173C62.012 44.1012 61.5886 41.7432 61.5136 41.1162C75.886 22.8687 80.2374 21.3414 81.545 22.0595C82.1345 22.381 82.9812 23.7476 82.0112 29.2406C81.9576 29.53 82.1559 29.8086 82.4453 29.8622C82.7346 29.9158 83.0133 29.7175 83.0669 29.4281C83.919 24.605 83.6028 21.963 82.0648 21.1217H82.0594Z" fill="#823737"/>
<path d="M27.5491 39.2451C27.5491 39.2076 27.5437 39.1754 27.533 39.1379C27.5223 39.1004 27.5115 39.0682 27.5008 39.0361C27.4955 39.02 27.4955 39.0039 27.4848 38.9878C15.1058 17.3427 11.0331 15.8154 9.0503 16.5496C7.40513 17.1605 6.70311 19.7221 6.84244 24.6203C6.85316 24.915 7.08896 25.1455 7.39441 25.1401C7.68915 25.1294 7.92493 24.8829 7.91421 24.5881C7.75881 19.0094 8.79307 17.7822 9.42541 17.5517C10.8294 17.0319 14.9129 19.1809 26.4719 39.3683C26.3969 39.9953 25.9736 42.3533 23.8729 43.4197C21.933 44.4058 18.9588 44.0253 17.7852 41.8978C16.6813 39.8882 17.5977 36.7853 18.4819 33.7896L18.6426 33.243C18.7284 32.9589 18.5623 32.6642 18.2782 32.5784C17.9942 32.4927 17.6941 32.6588 17.6137 32.9428L17.453 33.4841C16.5045 36.6942 15.5238 40.0114 16.8421 42.4176C17.7477 44.0628 19.6769 45.0167 21.6597 45.0167C22.576 45.0167 23.5085 44.8131 24.3552 44.379C27.2704 42.8946 27.5437 39.438 27.5544 39.2879C27.5544 39.2719 27.5491 39.2558 27.5491 39.2397V39.2451Z" fill="#823737"/>
<path d="M65.1468 70.5259C64.8575 70.4616 64.5681 70.6384 64.5038 70.9278C64.2358 72.08 57.8856 79.3576 50.828 78.6234C49.1346 78.4465 47.4787 77.9213 45.9086 77.0585L45.6835 76.9353L45.4477 77.0317C44.0169 77.6105 42.5217 77.991 41.0106 78.1571C36.7342 78.6394 33.1652 77.3533 30.9198 76.1957C30.6573 76.0618 30.3357 76.1636 30.1964 76.4262C30.0624 76.6888 30.1642 77.0103 30.4268 77.1496C30.6305 77.2568 30.8502 77.364 31.0752 77.4658C32.5864 79.0735 35.6892 82.3425 40.4532 83.5001C41.8948 83.8484 43.2773 84.0038 44.5956 84.0038C51.4496 84.0038 56.5137 79.8774 58.6144 77.8302C62.4888 75.6866 65.2647 72.3587 65.538 71.1743C65.6077 70.8849 65.4255 70.5955 65.1361 70.5312L65.1468 70.5259ZM40.7158 82.4551C37.6023 81.6994 35.223 79.9524 33.5778 78.4465C35.6839 79.1164 38.2561 79.5451 41.1392 79.2236C42.6611 79.0521 44.1723 78.6823 45.6245 78.1196C47.2536 78.9824 48.9685 79.5076 50.7208 79.6898C51.0959 79.7273 51.471 79.7488 51.8408 79.7488C53.0251 79.7488 54.1773 79.5558 55.2919 79.2343C52.098 81.5387 46.975 83.977 40.7158 82.4604V82.4551Z" fill="#823737"/>
<defs>
<linearGradient id="paint0_linear_733_3913" x1="-22.9312" y1="29.2216" x2="57.6615" y2="140.944" gradientUnits="userSpaceOnUse">
<stop stop-color="white"/>
<stop offset="1" stop-color="#FF6C6A"/>
</linearGradient>
<linearGradient id="paint1_linear_733_3913" x1="-43.0487" y1="-30.0243" x2="64.2442" y2="79.5449" gradientUnits="userSpaceOnUse">
<stop stop-color="white"/>
<stop offset="1" stop-color="#FF6C6A"/>
</linearGradient>
</defs>
</svg>
