<svg width="92" height="148" viewBox="0 0 92 148" fill="none" xmlns="http://www.w3.org/2000/svg">
<ellipse cx="43.1226" cy="141.94" rx="27" ry="6" fill="#5C5C5C"/>
<path d="M71.1822 103.323C68.7386 93.7951 62.5116 89.256 60.9683 88.0502L60.3466 89.2828C55.8827 84.9152 49.4574 82.584 43.4662 82.584C38.0217 82.584 32.1591 83.8648 27.7541 87.0695V87.0588C26.2107 88.2646 15.6699 93.7897 13.2209 103.318C12.8565 104.738 11.4793 110.017 14.9625 118.35C15.1233 118.741 19.4747 124.588 22.6685 123.527C24.0726 123.061 24.7103 121.598 24.9943 120.269C27.2075 130.119 27.5237 133.865 27.0735 134.829C27.0253 134.931 26.7413 135.488 26.6609 136.271C26.5698 137.176 26.7734 138.179 27.1539 138.789C28.9223 141.608 37.5608 140.837 40.7493 140.553C41.0012 140.531 41.4192 140.488 41.8318 140.285C43.6538 139.395 43.075 136.555 42.6946 134.867C42.4481 133.768 42.1801 132.675 41.9015 131.603C42.432 131.641 42.9732 131.667 43.5252 131.667C43.9646 131.667 44.388 131.651 44.8113 131.63C44.5327 132.696 44.2701 133.784 44.0236 134.872C43.6431 136.56 43.0643 139.4 44.8864 140.29C45.299 140.494 45.7116 140.531 45.9688 140.558C49.1574 140.842 57.7958 141.608 59.5642 138.795C59.9447 138.184 60.1484 137.182 60.0573 136.276C59.9769 135.494 59.6929 134.936 59.6446 134.835C59.2427 133.977 59.4517 130.89 61.0754 123.216C61.2684 123.345 61.4881 123.452 61.7239 123.532C64.9177 124.588 69.2638 118.747 69.4299 118.355C72.9185 110.017 71.5359 104.744 71.1715 103.323H71.1822Z" fill="url(#paint0_linear_1172_8507)"/>
<path d="M44.0396 122.872C40.7975 122.872 38.1717 121.869 36.6765 121.125C36.4139 120.991 36.3014 120.669 36.4354 120.406C36.5693 120.144 36.8855 120.031 37.1535 120.165C39.0826 121.119 43.0107 122.539 47.6783 121.339C54.8698 119.485 57.7529 112.738 58.0584 111.977C58.1709 111.703 58.4817 111.569 58.755 111.677C59.0283 111.789 59.1623 112.1 59.0551 112.373C58.5246 113.702 55.4915 120.433 47.9462 122.379C46.5743 122.732 45.2668 122.877 44.045 122.877L44.0396 122.872Z" fill="#823737"/>
<path d="M22.6419 125.005C22.5776 125.005 22.5133 124.994 22.449 124.967C22.1543 124.855 21.8756 124.715 21.613 124.549C20.1822 123.665 19.5713 122.298 19.3034 121.312C19.2284 121.028 19.3945 120.734 19.6839 120.659C19.9679 120.584 20.2626 120.75 20.3376 121.039C20.552 121.843 21.045 122.947 22.1757 123.644C22.3847 123.772 22.6044 123.879 22.8349 123.97C23.1135 124.078 23.2475 124.388 23.1403 124.662C23.0599 124.876 22.8563 125.005 22.6419 125.005Z" fill="#823737"/>
<path d="M24.5602 124.673C24.4959 124.673 24.4315 124.662 24.3672 124.635C24.0725 124.523 23.7885 124.383 23.5313 124.217C22.1058 123.333 21.4895 121.966 21.2216 120.98C21.1466 120.696 21.3127 120.402 21.6021 120.327C21.8861 120.252 22.1808 120.418 22.2559 120.707C22.4702 121.511 22.9632 122.615 24.0939 123.312C24.2976 123.44 24.5226 123.547 24.7531 123.638C25.0264 123.746 25.1657 124.056 25.0585 124.33C24.9781 124.544 24.7745 124.673 24.5602 124.673Z" fill="#823737"/>
<path d="M63.8246 124.677C63.6102 124.677 63.4066 124.549 63.3262 124.334C63.219 124.061 63.353 123.75 63.6316 123.643C63.8621 123.552 64.0871 123.439 64.2908 123.316C65.4161 122.619 65.9091 121.515 66.1289 120.712C66.2039 120.428 66.4986 120.256 66.7826 120.331C67.0667 120.406 67.2381 120.701 67.1631 120.985C66.8952 121.976 66.2843 123.343 64.8534 124.222C64.5909 124.383 64.3122 124.522 64.0175 124.64C63.9532 124.667 63.8889 124.677 63.8246 124.677Z" fill="#823737"/>
<path d="M61.9008 124.346C61.6864 124.346 61.4828 124.218 61.4024 124.003C61.2952 123.725 61.4346 123.419 61.7079 123.312C61.9383 123.221 62.158 123.114 62.367 122.985C63.4924 122.288 63.9854 121.184 64.2051 120.381C64.2801 120.097 64.5749 119.925 64.8589 120C65.1429 120.075 65.3144 120.37 65.2394 120.654C64.9714 121.645 64.3605 123.012 62.9297 123.891C62.6671 124.051 62.3831 124.196 62.0937 124.309C62.0294 124.336 61.9651 124.346 61.9008 124.346Z" fill="#823737"/>
<path d="M48.4069 96.6938L50.2182 89.2662C50.4058 88.4945 49.6556 87.7764 48.6588 87.7764H39.881C38.9003 87.7764 38.1555 88.473 38.3162 89.2394L39.8917 96.667C39.9828 97.085 40.3312 97.4226 40.7974 97.5941C39.7685 102.953 38.5306 112.916 37.8125 118.591C39.6667 121.876 41.5048 124.738 43.525 127.546C45.3363 125.118 48.1229 120.804 50.0789 117.98C49.4198 112.975 48.0693 103.226 47.3245 97.6477C47.8657 97.5084 48.2891 97.1547 48.4016 96.6938H48.4069Z" fill="#2DDDC3"/>
<mask id="mask0_1172_8507" style="mask-type:luminance" maskUnits="userSpaceOnUse" x="37" y="87" width="14" height="41">
<path d="M48.4065 96.6948L50.2178 89.2672C50.4053 88.4955 49.6551 87.7773 48.6583 87.7773H39.8805C38.8999 87.7773 38.155 88.474 38.3157 89.2404L39.8912 96.668C39.9824 97.086 40.3307 97.4236 40.7969 97.5951C39.768 102.954 38.5301 112.917 37.812 118.592C39.6662 121.877 41.5043 124.739 43.5246 127.547C45.3358 125.119 48.1224 120.805 50.0784 117.981C49.4193 112.975 48.0689 103.227 47.324 97.6487C47.8652 97.5093 48.2886 97.1556 48.4011 96.6948H48.4065Z" fill="white"/>
</mask>
<g mask="url(#mask0_1172_8507)">
<mask id="mask1_1172_8507" style="mask-type:luminance" maskUnits="userSpaceOnUse" x="36" y="87" width="17" height="44">
<path d="M47.8712 92.2335C46.2421 88.4714 45.2775 87.6408 44.3933 87.6086C40.8082 87.464 36.8266 100.197 36.5425 111.376C36.4782 113.975 36.1138 128.418 41.9282 130.32C44.0824 131.027 46.2689 129.741 46.8583 129.393C55.5611 124.275 53.1121 104.318 47.8712 92.2335Z" fill="white"/>
</mask>
<g mask="url(#mask1_1172_8507)">
<path d="M39.6507 92.1162C39.5382 93.6114 39.0827 94.1955 38.6433 94.4367C38.0645 94.7529 37.593 94.4313 37.0785 94.8386C36.5212 95.2834 36.4301 96.1784 36.5748 96.8054C36.7516 97.5931 37.3089 98.0379 37.4804 98.1666" stroke="white" stroke-width="2" stroke-miterlimit="10" stroke-linecap="round"/>
<path d="M43.2893 93.2253C43.2893 92.5501 43.509 91.832 44.0556 91.3925C44.4683 91.0603 44.8809 91.0442 45.1863 91.0335C45.3953 91.0281 45.5454 91.0227 45.7008 90.937C46.2099 90.6583 46.376 89.758 46.4296 89.0453C46.451 88.7505 46.7083 88.5308 47.003 88.5522C47.2977 88.5737 47.5228 88.8363 47.496 89.1256C47.3888 90.5619 46.9655 91.4622 46.2099 91.8748C45.8294 92.0785 45.4918 92.0945 45.2238 92.1053C44.9666 92.116 44.8594 92.1213 44.7255 92.2285C44.3772 92.5072 44.3021 93.1771 44.4093 93.6594C44.5326 94.2114 44.9023 94.5543 45.1113 94.7098C45.3471 94.8866 45.4007 95.2189 45.2238 95.46C45.047 95.6958 44.7094 95.7494 44.4736 95.5726C44.1467 95.326 43.5626 94.7848 43.3643 93.9005C43.3161 93.6915 43.2893 93.4611 43.2893 93.2307V93.2253Z" fill="white"/>
<path d="M36.0815 103.751C36.0815 103.075 36.3013 102.357 36.8479 101.918C37.2605 101.586 37.6731 101.57 37.9786 101.559C38.1876 101.553 38.3376 101.548 38.493 101.462C38.9967 101.184 39.1682 100.283 39.2218 99.5706C39.2433 99.2759 39.5005 99.0562 39.7952 99.0776C40.09 99.0991 40.3097 99.3509 40.2882 99.651C40.1811 101.087 39.7577 101.988 39.0021 102.4C38.6216 102.604 38.284 102.62 38.0161 102.631C37.7589 102.641 37.6517 102.647 37.5177 102.754C37.1694 103.033 37.0943 103.702 37.2015 104.185C37.3301 104.758 37.7374 105.107 37.9036 105.235C38.1393 105.412 38.1929 105.744 38.0161 105.985C37.8392 106.221 37.5016 106.275 37.2658 106.098C36.939 105.857 36.3548 105.316 36.1512 104.426C36.103 104.217 36.0762 103.986 36.0762 103.756L36.0815 103.751Z" fill="white"/>
<path d="M40.8459 108.746C40.8459 108.071 41.0656 107.352 41.6123 106.913C42.0249 106.581 42.4375 106.565 42.743 106.554C42.952 106.549 43.0967 106.543 43.2574 106.457C43.7665 106.179 43.9326 105.279 43.9862 104.566C44.0077 104.271 44.2649 104.051 44.5596 104.073C44.8544 104.094 45.0794 104.357 45.0526 104.646C44.9455 106.082 44.5221 106.983 43.7665 107.395C43.386 107.599 43.0484 107.615 42.7805 107.626C42.5233 107.636 42.4161 107.642 42.2821 107.749C41.9284 108.033 41.8588 108.698 41.9659 109.18C42.0892 109.732 42.459 110.075 42.6679 110.23C42.9037 110.407 42.9573 110.739 42.7805 110.981C42.6036 111.216 42.266 111.27 42.0302 111.093C41.698 110.852 41.1192 110.311 40.9156 109.416C40.8674 109.207 40.8406 108.976 40.8406 108.74L40.8459 108.746Z" fill="white"/>
<path d="M50.2186 97.5508C50.1061 99.0459 49.6506 99.6301 49.2111 99.8712C48.6324 100.187 48.1608 99.8659 47.6464 100.273C47.0891 100.718 46.9979 101.613 47.1426 102.24C47.3195 103.028 47.8768 103.473 48.0483 103.601" stroke="white" stroke-width="2" stroke-miterlimit="10" stroke-linecap="round"/>
<path d="M42.4747 97.5117C42.3622 99.0069 41.9067 99.591 41.4673 99.8322C40.8885 100.148 40.4169 99.8268 39.9025 100.234C39.3452 100.679 39.2541 101.574 39.3987 102.201C39.5756 102.989 40.1329 103.433 40.3044 103.562" stroke="white" stroke-width="2" stroke-miterlimit="10" stroke-linecap="round"/>
<path d="M36.489 118.038C36.489 117.363 36.7087 116.644 37.2553 116.205C37.668 115.873 38.0806 115.857 38.3861 115.846C38.595 115.841 38.7451 115.835 38.9005 115.749C39.4096 115.476 39.5757 114.571 39.6293 113.858C39.6507 113.563 39.908 113.343 40.2027 113.365C40.4974 113.386 40.7225 113.649 40.6957 113.938C40.5885 115.374 40.1652 116.275 39.4096 116.687C39.0291 116.891 38.6969 116.907 38.4236 116.918C38.1663 116.928 38.0592 116.934 37.9252 117.041C37.5715 117.32 37.5018 117.99 37.609 118.472C37.7323 119.024 38.102 119.367 38.311 119.522C38.5468 119.699 38.595 120.037 38.4236 120.273C38.2467 120.508 37.9091 120.562 37.6733 120.385C37.3464 120.139 36.7623 119.597 36.564 118.713C36.5158 118.504 36.489 118.274 36.489 118.038Z" fill="white"/>
<path d="M42.4587 120.412C42.4587 119.737 42.6784 119.018 43.225 118.579C43.6377 118.247 44.0503 118.231 44.3558 118.22C44.5648 118.215 44.7148 118.209 44.8702 118.124C45.3739 117.845 45.5454 116.945 45.599 116.232C45.6204 115.937 45.8777 115.717 46.1724 115.739C46.4672 115.76 46.6869 116.023 46.6654 116.312C46.5582 117.748 46.1349 118.649 45.3793 119.061C44.9988 119.265 44.6612 119.281 44.3933 119.292C44.136 119.303 44.0289 119.308 43.8949 119.415C43.5466 119.694 43.4716 120.358 43.5787 120.846C43.7073 121.419 44.1146 121.768 44.2807 121.896C44.5165 122.073 44.5701 122.405 44.3933 122.647C44.2164 122.882 43.8788 122.936 43.643 122.759C43.3161 122.518 42.732 121.977 42.5284 121.087C42.4802 120.878 42.4534 120.648 42.4534 120.417L42.4587 120.412Z" fill="white"/>
<path d="M46.9761 111.822C46.9761 111.147 47.1958 110.429 47.7424 109.989C48.155 109.657 48.5676 109.641 48.8731 109.63C49.0821 109.625 49.2321 109.619 49.3876 109.534C49.8913 109.255 50.0628 108.355 50.1163 107.642C50.1378 107.347 50.395 107.127 50.6897 107.149C50.9845 107.17 51.2042 107.433 51.1828 107.722C51.0756 109.159 50.6522 110.059 49.8966 110.472C49.5162 110.675 49.1785 110.691 48.9106 110.702C48.6534 110.713 48.5462 110.718 48.4122 110.825C48.0639 111.104 47.9889 111.768 48.0961 112.256C48.2247 112.829 48.6319 113.178 48.7981 113.306C49.0339 113.483 49.0874 113.816 48.9106 114.057C48.7338 114.292 48.3962 114.346 48.1604 114.169C47.8335 113.928 47.2494 113.387 47.0457 112.497C46.9975 112.288 46.9707 112.058 46.9707 111.827L46.9761 111.822Z" fill="white"/>
<path d="M41.6335 131.119C41.6335 130.444 41.8532 129.725 42.3999 129.286C42.8125 128.954 43.2251 128.938 43.5306 128.927C43.7396 128.922 43.8843 128.916 44.045 128.831C44.5488 128.552 44.7202 127.652 44.7738 126.939C44.7953 126.644 45.0525 126.424 45.3472 126.446C45.642 126.467 45.8617 126.73 45.8402 127.019C45.7331 128.455 45.3097 129.356 44.5541 129.768C44.1736 129.972 43.836 129.988 43.5681 129.999C43.3109 130.01 43.2037 130.015 43.0697 130.122C42.716 130.401 42.6464 131.071 42.7535 131.553C42.8821 132.126 43.2894 132.475 43.4555 132.603C43.6913 132.78 43.7449 133.112 43.5681 133.354C43.3912 133.595 43.0536 133.643 42.8178 133.466C42.4909 133.225 41.9068 132.684 41.7032 131.794C41.655 131.585 41.6282 131.355 41.6282 131.124L41.6335 131.119Z" fill="white"/>
</g>
</g>
<path d="M62.3508 84.3301L59.3444 93.2904L58.3477 96.5004C57.4528 99.3836 53.7712 100.22 51.7241 98.001L49.8432 95.3697L44.0342 87.7867" fill="white"/>
<path d="M26.8806 84.5664L29.6886 93.2909L30.6854 96.501C31.5803 99.3841 35.2619 100.22 37.3089 98.0015L39.1042 95.3702L44.0343 87.7872" fill="white"/>
<path d="M86.8086 1.23297C81.7392 -1.08213 73.9903 5.76135 68.4331 10.6756C57.7583 20.1075 52.8281 31.2382 50.5185 38.0334C48.659 37.7815 46.7673 37.6422 44.8595 37.6422C42.9518 37.6422 41.2155 37.7708 39.431 38.0013C37.4268 30.9756 33.2469 20.5148 24.1154 11.1204C18.9441 5.79887 11.7418 -1.61267 6.50622 0.311222C-1.56421 3.28012 -1.75713 27.2832 3.8911 45.2895C6.39368 53.2638 9.99483 59.0944 12.6046 63.1244L12.6689 63.2316C14.9893 78.0707 26.2804 88.6977 44.3129 88.8263C61.7935 88.9495 75.0192 77.8724 77.1198 62.8136C77.1466 62.6367 77.152 62.4652 77.1734 62.2884C79.9225 58.4942 83.2718 53.1352 86.0102 46.281C93.0088 28.7516 94.6326 4.80209 86.8086 1.23297Z" fill="url(#paint1_linear_1172_8507)"/>
<path d="M27.2772 63.8251C27.3094 65.0792 28.9867 65.4864 30.2031 65.6097C31.8644 65.7758 33.3113 64.1467 33.1666 62.9088C32.9844 61.3868 30.3639 60.256 28.8956 61.1671C28.2418 61.5744 27.2558 63.032 27.2772 63.8251Z" fill="#231815"/>
<path d="M58.9746 64.0126C58.9424 65.2667 57.2651 65.6739 56.0486 65.7972C54.3874 65.9633 52.9405 64.3342 53.0852 63.0963C53.2674 61.5743 55.8879 60.4435 57.3562 61.3546C58.01 61.7619 58.996 63.2195 58.9746 64.0126Z" fill="#231815"/>
<path d="M81.182 21.0621C79.3278 20.0439 75.0783 20.9549 59.6608 40.5582C59.5697 40.6761 59.5322 40.8155 59.5483 40.9548C59.5483 40.9655 59.5483 40.9709 59.5483 40.9816C59.559 41.1263 59.8323 44.5829 62.7475 46.0727C63.5942 46.5068 64.5213 46.705 65.443 46.705C67.4258 46.705 69.355 45.7565 70.2606 44.1059C71.5843 41.7051 70.6036 38.3878 69.6551 35.1778L69.4943 34.6311C69.4086 34.3471 69.1139 34.1863 68.8298 34.2667C68.5458 34.3525 68.3851 34.6472 68.4654 34.9313L68.6262 35.4832C69.5104 38.4789 70.4268 41.5818 69.3228 43.5914C68.1546 45.719 65.1751 46.1048 63.2352 45.1134C61.1345 44.0416 60.7112 41.6836 60.6361 41.0566C75.0086 22.8091 79.36 21.2818 80.6675 21.9999C81.257 22.3215 82.1037 23.688 81.1338 29.181C81.0802 29.4704 81.2784 29.7491 81.5678 29.8027C81.8572 29.8562 82.1359 29.658 82.1895 29.3686C83.0415 24.5455 82.7253 21.9035 81.1874 21.0621H81.182Z" fill="#823737"/>
<path d="M26.6716 39.1855C26.6716 39.148 26.6663 39.1158 26.6555 39.0783C26.6448 39.0408 26.6341 39.0086 26.6234 38.9765C26.618 38.9604 26.618 38.9443 26.6073 38.9283C14.2284 17.2831 10.1556 15.7558 8.17286 16.49C6.52769 17.1009 5.82567 19.6626 5.965 24.5607C5.97572 24.8555 6.21152 25.0859 6.51697 25.0805C6.81171 25.0698 7.04749 24.8233 7.03677 24.5286C6.88137 18.9498 7.91563 17.7226 8.54797 17.4922C9.95199 16.9723 14.0354 19.1213 25.5945 39.3088C25.5195 39.9358 25.0961 42.2937 22.9954 43.3602C21.0555 44.3462 18.0814 43.9658 16.9078 41.8382C15.8039 39.8286 16.7202 36.7257 17.6044 33.73L17.7652 33.1834C17.8509 32.8994 17.6848 32.6046 17.4008 32.5189C17.1168 32.4331 16.8167 32.5993 16.7363 32.8833L16.5755 33.4245C15.627 36.6346 14.6463 39.9518 15.9646 42.358C16.8703 44.0033 18.7995 44.9572 20.7822 44.9572C21.6986 44.9572 22.631 44.7535 23.4777 44.3194C26.393 42.835 26.6663 39.3784 26.677 39.2284C26.677 39.2123 26.6716 39.1962 26.6716 39.1801V39.1855Z" fill="#823737"/>
<path d="M64.2694 70.4663C63.98 70.402 63.6906 70.5788 63.6263 70.8682C63.3584 72.0204 57.0081 79.298 49.9505 78.5638C48.2571 78.387 46.6013 77.8618 45.0311 76.999L44.806 76.8757L44.5702 76.9722C43.1394 77.5509 41.6443 77.9314 40.1331 78.0976C35.8567 78.5799 32.2878 77.2937 30.0424 76.1362C29.7798 76.0022 29.4583 76.104 29.3189 76.3666C29.185 76.6292 29.2868 76.9507 29.5494 77.0901C29.753 77.1972 29.9727 77.3044 30.1978 77.4062C31.709 79.014 34.8118 82.283 39.5758 83.4405C41.0173 83.7889 42.3999 83.9443 43.7182 83.9443C50.5722 83.9443 55.6363 79.8178 57.7369 77.7707C61.6114 75.6271 64.3873 72.2991 64.6606 71.1148C64.7303 70.8254 64.5481 70.536 64.2587 70.4717L64.2694 70.4663ZM39.8384 82.3955C36.7249 81.6399 34.3456 79.8928 32.7004 78.387C34.8064 79.0568 37.3787 79.4855 40.2617 79.164C41.7836 78.9925 43.2948 78.6227 44.7471 78.06C46.3762 78.9229 48.091 79.448 49.8434 79.6302C50.2185 79.6678 50.5936 79.6892 50.9634 79.6892C52.1477 79.6892 53.2998 79.4963 54.4145 79.1747C51.2206 81.4791 46.0975 83.9175 39.8384 82.4009V82.3955Z" fill="#823737"/>
<path d="M41.1303 71.8645C41.1706 73.4399 42.6242 74.7709 44.2191 74.9252C46.3995 75.1374 48.3039 73.0862 48.1088 71.5365C47.8732 69.6268 44.4277 68.2057 42.4963 69.3503C41.635 69.8583 41.0966 70.8742 41.1235 71.8645H41.1303Z" fill="url(#paint2_radial_1172_8507)"/>
<defs>
<linearGradient id="paint0_linear_1172_8507" x1="-23.8087" y1="29.162" x2="56.7841" y2="140.884" gradientUnits="userSpaceOnUse">
<stop stop-color="white"/>
<stop offset="1" stop-color="#FF6C6A"/>
</linearGradient>
<linearGradient id="paint1_linear_1172_8507" x1="-43.9261" y1="-30.0838" x2="63.3668" y2="79.4853" gradientUnits="userSpaceOnUse">
<stop stop-color="white"/>
<stop offset="1" stop-color="#FF6C6A"/>
</linearGradient>
<radialGradient id="paint2_radial_1172_8507" cx="0" cy="0" r="1" gradientUnits="userSpaceOnUse" gradientTransform="translate(43.5644 70.634) rotate(76.1946) scale(4.43453 5.15195)">
<stop stop-color="#895E52"/>
<stop offset="1" stop-color="#231815"/>
</radialGradient>
</defs>
</svg>
