<svg width="96" height="141" viewBox="0 0 96 141" fill="none" xmlns="http://www.w3.org/2000/svg">
<path d="M73 136C73 138.761 61.8071 141 48 141C34.1929 141 23 138.761 23 136C23 133.239 34.1929 131 48 131C61.8071 131 73 133.239 73 136Z" fill="#5C5C5C"/>
<path d="M67.8872 86.1304C69.0566 86.7283 69.8654 86.5439 71.9158 86.3646C76.8149 85.9361 79.1228 84.2023 85.078 83.9034C86.3041 83.8436 88.9572 83.7091 90.0236 85.0742C91.8112 87.361 87.7878 92.0791 87.5508 92.3532C83.4553 97.0713 77.0313 97.9282 75.7691 98.0727C68.6136 98.8948 63.2354 95.7261 61.8032 94.8243" fill="url(#paint0_linear_733_3912)"/>
<path d="M68.2675 104.681C72.2334 88.4165 58.7034 79.0898 46.9103 79.0898C35.1173 79.0898 21.289 85.2584 25.5531 104.681C26.2594 107.898 27.1594 110.839 28.2685 113.47C30.984 125.191 31.3921 129.472 30.9107 130.5C30.8636 130.6 30.5863 131.148 30.5079 131.918C30.4189 132.809 30.6177 133.795 30.9892 134.396C32.7158 137.169 41.1498 136.41 44.2629 136.131C44.5088 136.11 44.9169 136.067 45.3198 135.867C47.0987 134.992 46.5336 132.197 46.1621 130.537C45.9215 129.456 45.6599 128.38 45.3878 127.326C45.9058 127.363 46.4342 127.389 46.9731 127.389C47.4021 127.389 47.8155 127.373 48.2288 127.352C47.9567 128.401 47.7004 129.472 47.4597 130.542C47.0882 132.203 46.5232 134.997 48.3021 135.872C48.7049 136.073 49.1078 136.11 49.3589 136.136C52.472 136.415 60.906 137.169 62.6326 134.401C63.0041 133.8 63.2029 132.814 63.114 131.923C63.0355 131.154 62.7582 130.605 62.7111 130.505C62.235 129.488 62.6274 125.28 65.2748 113.829C66.4625 111.108 67.4461 108.045 68.2675 104.692V104.681Z" fill="url(#paint1_linear_733_3912)"/>
<path d="M91.0651 1.97344C86.4966 -0.358809 79.0865 5.59964 73.7696 9.87804C63.2353 18.3566 58.2482 28.7395 55.9351 34.8128C53.4703 34.3745 50.927 34.1345 48.3523 34.1345C45.27 34.1345 42.2348 34.4736 39.32 35.0945C37.2529 28.8334 32.7367 18.3514 22.7414 9.45542C17.6077 4.89006 10.4593 -1.47015 5.74426 0.64818C-1.51931 3.91437 -0.116837 26.0525 6.29374 42.2843C9.08823 49.3593 12.5997 54.7177 15.2581 58.2657C15.2842 58.7614 15.3261 59.2622 15.3941 59.7683C17.8014 76.4958 29.1939 86.1275 47.7872 86.2579C65.6426 86.3831 79.0603 74.9358 81.3001 59.7683C81.5199 58.2866 81.5146 56.8309 81.3315 55.4117C83.6445 52.2655 86.214 48.2114 88.4642 43.26C95.6284 27.4664 98.1089 5.56834 91.0651 1.97344Z" fill="url(#paint2_linear_733_3912)"/>
<path d="M43.8869 69.4698C43.9214 70.7248 45.162 71.785 46.5232 71.908C48.3841 72.077 50.0095 70.443 49.8429 69.2086C49.6419 67.6873 46.7012 66.5554 45.0529 67.4671C44.3177 67.8717 43.8582 68.681 43.8812 69.4698H43.8869Z" fill="url(#paint3_radial_733_3912)"/>
<path d="M31.9371 61.3067C31.9683 62.8753 33.6691 63.3875 34.8981 63.5412C36.5782 63.7525 38.0457 61.7101 37.8953 60.167C37.7139 58.2654 35.0588 56.8505 33.5706 57.9901C32.9068 58.4959 31.9112 60.3207 31.932 61.3131L31.9371 61.3067Z" fill="#231815"/>
<path d="M62.9928 61.3067C62.9616 62.8753 61.2608 63.3875 60.0318 63.5412C58.3517 63.7525 56.8842 61.7101 57.0346 60.167C57.216 58.2654 59.871 56.8505 61.3593 57.9901C62.0231 58.4959 63.0187 60.3207 62.9979 61.3131L62.9928 61.3067Z" fill="#231815"/>
<path d="M31.1022 84.2255C29.8149 84.9127 27.889 85.3091 25.8815 85.5998C20.5331 86.3715 17.4477 84.7753 11.1236 82.9993C9.76481 82.6187 7.37924 82.2646 6.19922 83.8344C4.23253 86.4561 8.10462 92.4236 8.4009 92.7037C14.7812 98.6871 19.961 99.1416 21.3555 99.2685C30.6986 100.13 35.1377 96.5781 36.7111 95.5368" fill="url(#paint4_linear_733_3912)"/>
<path d="M61.6168 69.6555C61.4018 69.4735 61.0662 69.4937 60.8775 69.701C60.3322 70.3027 58.1825 72.037 55.3461 73.2706C51.8961 74.7773 48.6978 72.9925 48.3413 72.7852L48.0529 72.6184L47.5758 72.9268C46.6216 73.5487 45.8037 74.0847 44.2517 74.2667C39.5382 74.8178 34.9872 73.0279 32.6908 71.9105C32.4339 71.7841 32.1193 71.8853 31.9882 72.133C31.8571 72.3808 31.962 72.6841 32.2189 72.8105C34.3056 73.8268 38.196 75.379 42.4586 75.379C42.6998 75.379 42.941 75.3689 43.1874 75.3588C43.1926 75.4043 43.2031 75.4549 43.2241 75.5004C44.2989 77.6998 46.5692 79.0902 49.0072 79.0902C49.2169 79.0902 49.4266 79.0801 49.6416 79.0598C52.0691 78.8222 54.1664 77.2043 54.9895 74.9391C55.042 74.7875 55.0157 74.6358 54.9371 74.5094C55.215 74.4234 55.4981 74.3223 55.7865 74.201C58.8065 72.8813 61.0557 71.0561 61.6744 70.3735C61.8632 70.1611 61.8422 69.8426 61.6272 69.6606L61.6168 69.6555ZM49.5315 78.0486C47.3766 78.266 45.3056 77.1537 44.2832 75.2779C44.3146 75.2779 44.3461 75.2779 44.3776 75.2678C46.1392 75.0605 47.0987 74.4588 48.0896 73.8116C48.9233 74.2414 51.225 75.2273 53.9252 74.7521C53.1964 76.5621 51.4976 77.8565 49.5315 78.0486Z" fill="#823737"/>
<path d="M54.2382 117.315C53.2474 117.315 52.2566 117.034 51.4104 116.446C50.2906 115.671 49.5062 114.371 49.0521 113.42C48.082 114.548 46.5236 115.271 44.444 115.557C42.6018 115.817 40.6977 115.224 38.9483 113.857C36.4921 111.933 34.7427 108.807 34.3867 105.698C33.8345 100.841 36.8378 94.8351 42.1838 93.6339C45.765 92.8279 48.8818 94.5907 50.0532 95.3811C50.2906 95.5423 50.3525 95.8647 50.1925 96.1039C50.0326 96.3431 49.7126 96.4055 49.4753 96.2443C48.4123 95.5267 45.5999 93.9303 42.4057 94.6479C37.5963 95.7295 34.9079 101.174 35.4084 105.578C35.7283 108.376 37.3641 111.303 39.5779 113.035C40.6409 113.867 42.3283 114.803 44.2995 114.527C46.1263 114.273 47.4731 113.669 48.2936 112.728C48.5155 112.473 48.856 112.349 49.1863 112.395C49.5269 112.442 49.821 112.655 49.9758 112.973C50.3061 113.659 51.0079 114.912 51.9883 115.593C53.6602 116.748 56.034 116.42 57.3911 114.845C58.5367 113.519 58.707 111.543 57.8142 109.936C57.6749 109.686 57.7626 109.369 58.0155 109.229C58.2632 109.088 58.578 109.177 58.7173 109.431C59.8164 111.423 59.5997 113.872 58.1755 115.531C57.1641 116.706 55.6985 117.325 54.233 117.325L54.2382 117.315Z" fill="#823737"/>
<path d="M88.9405 91.0379C88.7874 91.0379 88.6342 90.9726 88.5286 90.847C88.3437 90.631 88.3807 90.3145 88.6131 90.1387C89.099 89.767 89.4053 89.2546 89.4265 88.7623C89.4423 88.4861 89.3578 88.3103 89.2839 88.2399C89.1571 88.1244 88.8032 88.0691 88.3648 88.1947C88.0796 88.2751 87.768 88.1746 87.5937 87.9385C87.4194 87.7024 87.4247 87.391 87.599 87.1599C87.9687 86.6777 88.1324 86.1603 88.0796 85.6328C88.0162 84.9547 87.525 83.8797 86.437 83.7039C85.613 83.5733 84.7468 83.9902 84.2978 84.7588C84.1552 84.9999 83.833 85.0853 83.5795 84.9497C83.326 84.814 83.2362 84.5076 83.3788 84.2665C84.0496 83.1312 85.3542 82.5033 86.6218 82.7143C88.1905 82.9705 89.025 84.3619 89.136 85.5424C89.1888 86.0799 89.0884 86.6124 88.8455 87.1147C89.3155 87.1147 89.7275 87.2503 90.0127 87.5116C90.3349 87.8029 90.504 88.2751 90.4775 88.8025C90.4406 89.5912 89.9969 90.3598 89.268 90.9173C89.1729 90.9927 89.0515 91.0279 88.9405 91.0279V91.0379Z" fill="#823737"/>
<path d="M7.18446 91.0379C7.33763 91.0379 7.49081 90.9726 7.59644 90.847C7.78131 90.631 7.74433 90.3145 7.51193 90.1387C7.02601 89.767 6.71966 89.2546 6.69854 88.7623C6.68269 88.4861 6.7672 88.3103 6.84115 88.2399C6.96791 88.1244 7.32179 88.0691 7.76018 88.1947C8.04539 88.2751 8.35702 88.1746 8.53132 87.9385C8.70562 87.7024 8.70034 87.391 8.52604 87.1599C8.15631 86.6777 7.99258 86.1603 8.0454 85.6328C8.10878 84.9547 8.59999 83.8797 9.68804 83.7039C10.512 83.5733 11.3782 83.9902 11.8272 84.7588C11.9698 84.9999 12.292 85.0853 12.5455 84.9497C12.799 84.814 12.8888 84.5076 12.7462 84.2665C12.0754 83.1312 10.7708 82.5033 9.50317 82.7143C7.93448 82.9705 7.09996 84.3619 6.98904 85.5424C6.93622 86.0799 7.03657 86.6124 7.27953 87.1147C6.80945 87.1147 6.39747 87.2503 6.11226 87.5116C5.79007 87.8029 5.62105 88.2751 5.64746 88.8025C5.68443 89.5912 6.1281 90.3598 6.85699 90.9173C6.95207 90.9927 7.07354 91.0279 7.18446 91.0279V91.0379Z" fill="#823737"/>
<path d="M29.5311 35.119C29.5311 35.083 29.5311 35.052 29.5205 35.016C29.5098 34.9799 29.4992 34.949 29.4885 34.9181C29.4832 34.9026 29.4832 34.8871 29.4725 34.8717C16.6021 13.1097 12.383 11.5741 10.332 12.3161C8.63265 12.9242 7.90816 15.4957 8.05199 20.4118C8.06264 20.6952 8.31835 20.9065 8.60069 20.9117C8.89368 20.9014 9.12808 20.6643 9.11742 20.3809C8.95228 14.7536 10.039 13.5168 10.7049 13.2798C12.1699 12.7542 16.4316 14.9082 28.4604 35.2376C28.3751 35.8662 27.9223 38.2779 25.7488 39.3446C23.4262 40.4835 20.4163 39.4374 19.3722 37.7832C18.3015 36.0775 19.2177 33.4597 19.889 31.5479C20.443 29.9658 20.8106 28.9197 20.0221 28.4869C19.4734 28.188 18.9407 28.5745 18.424 28.9507C17.838 29.3784 17.1028 29.9091 16.1173 29.9091H16.1067C14.988 29.9091 13.6136 29.2238 13.4591 28.322C13.2939 27.3841 14.3114 26.1009 16.0321 25.7557C16.3198 25.699 16.5062 25.4259 16.4476 25.1476C16.389 24.8693 16.112 24.6941 15.819 24.7456C13.4697 25.2146 12.1592 27.0594 12.4096 28.492C12.6706 29.9967 14.5298 30.9295 16.1067 30.9398H16.1226C17.4651 30.9398 18.4293 30.239 19.0686 29.77C19.1698 29.6979 19.2923 29.6051 19.3989 29.533C19.3296 29.9349 19.0792 30.6564 18.8821 31.2129C18.1416 33.3154 17.1295 36.2012 18.4613 38.3192C19.3829 39.7878 21.4605 40.8545 23.6073 40.8545C24.4916 40.8545 25.3919 40.6742 26.2283 40.2671C29.2115 38.8087 29.5258 35.32 29.5418 35.1706C29.5418 35.1551 29.5365 35.1396 29.5365 35.1242L29.5311 35.119Z" fill="#823737"/>
<path d="M85.3861 17.2326C83.4692 16.198 79.0777 17.1333 63.11 37.1096C63.0782 37.1514 63.0569 37.1984 63.041 37.2507C63.041 37.2611 63.0304 37.2716 63.0251 37.282C63.0092 37.3291 63.0092 37.3709 63.0092 37.4179C63.0092 37.4388 62.9985 37.4597 62.9985 37.4806C63.0092 37.6321 63.3225 41.1697 66.3015 42.6484C67.1351 43.0612 68.0273 43.2441 68.914 43.2441C71.054 43.2441 73.125 42.1625 74.0436 40.6733C75.3712 38.5257 74.3623 35.6047 73.6242 33.4728C73.4277 32.9085 73.1781 32.1822 73.1091 31.7694C73.2153 31.8425 73.3374 31.9313 73.4383 32.0097C74.0808 32.4852 75.042 33.1959 76.3907 33.1959C77.9572 33.1906 79.8105 32.2396 80.076 30.7138C80.3256 29.2612 79.0193 27.3906 76.6775 26.9151C76.3907 26.8576 76.1093 27.0405 76.0509 27.3226C75.9925 27.6048 76.1783 27.8817 76.4651 27.9392C78.1803 28.2841 79.1945 29.5904 79.0299 30.5414C78.8759 31.4558 77.5059 32.1456 76.3907 32.1508C75.4084 32.1299 74.6703 31.6126 74.0808 31.1789C73.5657 30.7975 73.0347 30.4056 72.4878 30.7086C71.7019 31.1475 72.0683 32.2083 72.6205 33.8124C73.2896 35.751 74.2083 38.4055 73.1356 40.135C72.1001 41.8124 69.0999 42.8679 66.7794 41.7183C64.6553 40.6628 64.1774 38.2801 64.0818 37.5903C78.9874 18.9674 83.5117 17.4103 84.8764 18.1523C85.4923 18.4867 86.3791 19.8818 85.3702 25.5042C85.3171 25.7864 85.5136 26.0581 85.8003 26.1104C86.0871 26.1626 86.3632 25.9693 86.4163 25.6871C87.2978 20.7806 86.9686 18.0948 85.3914 17.2378L85.3861 17.2326Z" fill="#823737"/>
<path d="M80.9209 84.0165C81.0556 83.9779 81.1795 83.9392 81.2872 83.9006C81.4488 83.8475 81.632 83.862 81.7721 83.9585C83.5768 85.19 86.2219 87.4261 87.5526 90.8984C87.7842 91.5021 87.9566 92.0913 88.0805 92.6515C88.1182 92.8254 88.0428 92.9992 87.8866 93.1007C87.7303 93.2069 87.5526 93.3131 87.364 93.429C86.8145 92.0092 86.2435 90.8695 85.3977 89.4882C84.0293 87.2522 82.4401 85.3156 80.9209 84.0165Z" fill="#0C1035"/>
<path d="M79.7315 84.0343C79.911 83.9813 80.0905 83.9231 80.27 83.8701C81.8257 85.2521 83.4847 87.4124 84.9044 89.938C85.7639 91.4682 86.335 92.7231 86.8953 94.3062C86.7267 94.4121 86.558 94.518 86.3894 94.6239C85.8183 93.009 85.2362 91.7329 84.3605 90.1815C82.7504 87.3223 81.2328 85.3103 79.7261 84.0343H79.7315Z" fill="#0C1035"/>
<path d="M81.4496 87.4031C80.8347 86.5147 79.896 85.3215 78.5312 84.0302C78.6391 83.9838 78.7902 83.9269 78.9628 83.8701C80.484 85.0581 82.0322 87.0363 83.6829 89.9236C84.5568 91.4525 85.134 92.6973 85.7004 94.3088C85.5332 94.4173 85.3768 94.5258 85.2473 94.6239C84.9884 94.0454 84.6431 93.312 84.2278 92.4649C83.1165 90.2026 82.453 88.8493 81.4442 87.3979L81.4496 87.4031Z" fill="#0C1035"/>
<path d="M70.2249 98.5881C69.8834 98.175 68.497 96.4626 67.2814 93.506C66.0206 90.4235 65.5434 87.4519 65.3877 85.0846C66.4626 85.3969 67.3517 85.5581 67.9545 85.6487C70.9683 86.097 73.5 85.7545 77.1015 85.2357C78.0509 85.0997 77.7395 85.1501 78.2367 85.0645H78.2468C79.5176 86.3186 80.3917 87.4871 80.9643 88.3534C81.9036 89.7637 82.5214 91.0884 83.5562 93.2945C83.943 94.1255 84.2645 94.8407 84.5056 95.3998C84.4654 95.43 84.4252 95.4603 84.39 95.4905C82.7977 96.9209 80.683 98.855 76.6243 99.9379C74.9667 100.381 73.4497 100.552 72.1689 100.598C71.5912 100.094 70.9131 99.4342 70.2199 98.5981L70.2249 98.5881Z" fill="white"/>
<path d="M66.5776 116.755C66.4234 117.113 66.1102 117.343 65.7672 117.325L53.144 116.731C52.7711 116.713 52.443 116.476 52.2441 116.131C54.4466 116.216 56.654 116.319 58.8714 116.422C61.397 116.543 63.9973 116.658 66.5825 116.755H66.5776Z" fill="#0C1035"/>
<path d="M67.7722 115.57C67.7408 115.755 67.7094 115.946 67.6781 116.131C64.9228 116.036 62.1465 115.916 59.454 115.797C57.0489 115.689 54.6492 115.588 52.2598 115.498C52.2546 115.438 52.2441 115.373 52.2441 115.313V115.301C52.2441 115.175 52.2441 115.056 52.2441 114.937C54.6335 115.02 57.0333 115.128 59.4383 115.235C62.1674 115.355 64.9803 115.48 67.7774 115.57H67.7722Z" fill="#0C1035"/>
<path d="M51.33 85.5599C51.4103 85.3391 51.5174 85.1387 51.6941 85.0155C52.8933 84.1936 54.1032 83.9881 54.8313 83.8649C56.796 83.5361 59.9064 83.1868 63.5522 82.6783C63.6539 82.6629 63.7503 82.6989 63.8145 82.7759C64.2696 83.3358 64.8692 84.3066 65.3028 84.7997C65.3082 84.7997 65.3189 84.7997 65.3242 84.8049C65.4902 87.2191 65.9934 90.2497 67.3425 93.3933C68.6381 96.4136 70.1157 98.1549 70.4797 98.5761C71.2185 99.4236 71.9413 100.097 72.5569 100.615C72.5301 100.615 72.498 100.615 72.4713 100.615C72.0109 102.629 71.422 104.802 70.6564 107.093C69.7891 109.707 68.8308 112.07 67.8672 114.181C67.8137 114.438 67.7655 114.685 67.7173 114.936C64.8317 114.854 61.9194 114.746 59.098 114.643C56.6247 114.551 54.1621 114.464 51.7101 114.387C51.6887 105.413 51.4692 96.5215 51.057 87.7225C51.0249 86.9879 51.0891 86.2534 51.3354 85.5548L51.33 85.5599Z" fill="url(#paint5_linear_733_3912)"/>
<path d="M78.5312 84.0635C78.7083 84.0007 78.9069 83.938 79.1269 83.8701C80.6133 85.1294 82.1105 87.1151 83.6989 89.9368C84.5574 91.4678 85.137 92.7271 85.7004 94.3208C85.5395 94.4254 85.3838 94.5246 85.239 94.6239C84.6701 92.9936 84.1013 91.7343 83.232 90.1876C81.59 87.2614 80.0499 85.2601 78.5366 84.0635H78.5312Z" fill="white"/>
<path d="M79.7261 84.0577C79.9348 83.9934 80.1381 83.9291 80.3249 83.8701C81.8741 85.3122 83.5002 87.4619 84.8901 89.9439C85.7526 91.4771 86.3294 92.7476 86.8953 94.3183C86.7415 94.4202 86.5821 94.5221 86.4228 94.6239C85.857 93.021 85.2801 91.7505 84.4121 90.2012C82.9783 87.6441 81.3028 85.4569 79.7316 84.0577H79.7261Z" fill="white"/>
<path d="M67.7774 115.549C67.7669 115.595 67.7616 115.642 67.7511 115.688C67.7458 115.852 67.7037 115.997 67.6405 116.131C64.9015 116.038 62.1467 115.922 59.4709 115.811C57.1217 115.712 54.783 115.613 52.4496 115.531C52.339 115.356 52.2705 115.158 52.2441 114.937C54.6513 115.024 57.069 115.123 59.4919 115.228C62.2046 115.345 65.0015 115.461 67.7774 115.554V115.549Z" fill="white"/>
<path d="M15.2036 84.0165C15.0689 83.9779 14.945 83.9392 14.8373 83.9006C14.6757 83.8475 14.4925 83.862 14.3524 83.9585C12.5477 85.19 9.90259 87.4261 8.57195 90.8984C8.3403 91.5021 8.1679 92.0913 8.044 92.6515C8.00629 92.8254 8.08171 92.9992 8.23794 93.1007C8.39417 93.2069 8.57195 93.3131 8.7605 93.429C9.30999 92.0092 9.88104 90.8695 10.7268 89.4882C12.0952 87.2522 13.6844 85.3156 15.2036 84.0165Z" fill="#0C1035"/>
<path d="M16.393 84.0343C16.2135 83.9813 16.034 83.9231 15.8545 83.8701C14.2988 85.2521 12.6398 87.4124 11.2201 89.938C10.3606 91.4682 9.7895 92.7231 9.22924 94.3062C9.39786 94.4121 9.56649 94.518 9.73511 94.6239C10.3063 93.009 10.8883 91.7329 11.764 90.1815C13.3741 87.3223 14.8917 85.3103 16.3984 84.0343H16.393Z" fill="#0C1035"/>
<path d="M14.6749 87.4031C15.2898 86.5147 16.2285 85.3215 17.5933 84.0302C17.4854 83.9838 17.3343 83.9269 17.1617 83.8701C15.6405 85.0581 14.0923 87.0363 12.4416 89.9236C11.5677 91.4525 10.9905 92.6973 10.4241 94.3088C10.5913 94.4173 10.7477 94.5258 10.8772 94.6239C11.1361 94.0454 11.4814 93.312 11.8967 92.4649C13.008 90.2026 13.6715 88.8493 14.6803 87.3979L14.6749 87.4031Z" fill="#0C1035"/>
<path d="M25.5973 98.434C25.9602 97.9892 27.4332 96.145 28.7248 92.961C30.0643 89.6414 30.5714 86.4412 30.7368 83.8918C29.5947 84.2281 28.65 84.4017 28.0096 84.4993C24.8074 84.9821 22.1175 84.6132 18.2909 84.0545C17.2822 83.9081 17.6131 83.9623 17.0847 83.8701H17.074C15.7238 85.2207 14.7951 86.4791 14.1867 87.4121C13.1887 88.9309 12.5322 90.3574 11.4328 92.7332C11.0218 93.6282 10.6803 94.3984 10.4241 95.0005C10.4668 95.0331 10.5095 95.0656 10.5468 95.0981C12.2387 96.6386 14.4856 98.7215 18.7979 99.8877C20.5591 100.365 22.1709 100.549 23.5318 100.598C24.1456 100.056 24.8661 99.3453 25.6026 98.4449L25.5973 98.434Z" fill="white"/>
<path d="M28.3525 116.755C28.5195 117.113 28.8588 117.343 29.2304 117.325L42.9055 116.731C43.3095 116.713 43.6649 116.476 43.8804 116.131C41.4944 116.216 39.103 116.319 36.7008 116.422C33.9647 116.543 31.1478 116.658 28.3471 116.755H28.3525Z" fill="#0C1035"/>
<path d="M28.3523 115.57C28.3837 115.755 28.4151 115.946 28.4464 116.131C31.2018 116.036 33.978 115.916 36.6706 115.797C39.0756 115.689 41.4754 115.588 43.8647 115.498C43.8699 115.438 43.8804 115.373 43.8804 115.313V115.301C43.8804 115.175 43.8804 115.056 43.8804 114.937C41.491 115.02 39.0913 115.128 36.6862 115.235C33.9571 115.355 31.1442 115.48 28.3471 115.57H28.3523Z" fill="#0C1035"/>
<path d="M44.7945 85.5599C44.7142 85.3391 44.6071 85.1387 44.4304 85.0155C43.2312 84.1936 42.0213 83.9881 41.2933 83.8649C39.3285 83.5361 36.2181 83.1868 32.5723 82.6783C32.4706 82.6629 32.3742 82.6989 32.31 82.7759C31.8549 83.3358 31.2553 84.3066 30.8217 84.7997C30.8163 84.7997 30.8056 84.7997 30.8003 84.8049C30.6343 87.2191 30.1311 90.2497 28.782 93.3933C27.4864 96.4136 26.0088 98.1549 25.6448 98.5761C24.906 99.4236 24.1833 100.097 23.5676 100.615C23.5944 100.615 23.6265 100.615 23.6532 100.615C24.1137 102.629 24.7025 104.802 25.4681 107.093C26.3354 109.707 27.2937 112.07 28.2573 114.181C28.3109 114.438 28.359 114.685 28.4072 114.936C31.2928 114.854 34.2051 114.746 37.0265 114.643C39.4998 114.551 41.9625 114.464 44.4144 114.387C44.4358 105.413 44.6553 96.5215 45.0675 87.7225C45.0996 86.9879 45.0354 86.2534 44.7891 85.5548L44.7945 85.5599Z" fill="url(#paint6_linear_733_3912)"/>
<path d="M17.5933 84.0635C17.4162 84.0007 17.2176 83.938 16.9976 83.8701C15.5112 85.1294 14.014 87.1151 12.4256 89.9368C11.5671 91.4678 10.9875 92.7271 10.4241 94.3208C10.585 94.4254 10.7407 94.5246 10.8856 94.6239C11.4544 92.9936 12.0232 91.7343 12.8925 90.1876C14.5345 87.2614 16.0746 85.2601 17.5879 84.0635H17.5933Z" fill="white"/>
<path d="M16.3984 84.0369C16.1897 83.9797 15.9864 83.9225 15.7996 83.8701C14.2504 85.1519 12.6243 87.0628 11.2344 89.2691C10.3719 90.6319 9.79508 91.7612 9.22924 93.1574C9.38306 93.248 9.54238 93.3385 9.70169 93.429C10.2675 92.0043 10.8444 90.8749 11.7124 89.4978C13.1462 87.2248 14.8218 85.2806 16.3929 84.0369H16.3984Z" fill="white"/>
<path d="M28.3471 115.549C28.3576 115.595 28.3629 115.642 28.3734 115.688C28.3787 115.852 28.4208 115.997 28.4841 116.131C31.2231 116.038 33.9778 115.922 36.6536 115.811C39.0029 115.712 41.3415 115.613 43.6749 115.531C43.7856 115.356 43.854 115.158 43.8804 114.937C41.4732 115.024 39.0555 115.123 36.6326 115.228C33.9199 115.345 31.123 115.461 28.3471 115.554V115.549Z" fill="white"/>
<path d="M28.3471 114.363C28.3783 114.554 28.4146 114.746 28.4458 114.937C31.22 114.844 34.0201 114.728 36.732 114.612C39.1217 114.508 41.5062 114.409 43.8804 114.322C43.8804 114.131 43.8804 113.934 43.8804 113.742C41.4958 113.829 39.1061 113.928 36.7112 114.032C33.9734 114.148 31.1473 114.27 28.3471 114.363Z" fill="white"/>
<path opacity="0.5" d="M52.6358 64.7511C52.4382 64.7511 52.2405 64.6957 52.0856 64.589C52.0696 64.5772 50.3013 63.4075 46.5564 63.5616C43.848 63.6723 43.3244 64.0714 42.9398 64.3638L42.8597 64.4231C42.5498 64.6562 42.0423 64.6562 41.7271 64.4231C41.4119 64.1939 41.4119 63.8185 41.7271 63.5854L41.7966 63.534C42.4804 63.0163 43.3992 62.5026 46.471 62.3762C50.0556 62.23 52.4328 63.1981 53.1914 63.7276C53.512 63.9528 53.5226 64.3282 53.2181 64.5653C53.0632 64.6878 52.8495 64.7511 52.6358 64.7511Z" fill="#231815"/>
<path d="M28.3606 73.105C22.7883 73.105 16.8238 71.0676 12.7999 66.5811C5.94907 58.9494 7.47713 52.6338 11.1954 49.2753C14.1904 46.5671 19.7169 46.12 28.5949 47.8679C41.2014 50.3474 43.8857 54.5544 44.8484 58.3397C44.8739 58.4413 44.8993 58.5328 44.9197 58.6243C45.154 59.4829 45.0725 60.1689 45.0012 60.7735L44.9706 61.0174C44.4256 65.9002 40.5189 68.8878 39.2353 69.8684C36.4797 71.9771 32.5271 73.1152 28.3606 73.1152V73.105ZM21.3519 51.4804C18.0207 51.4804 16.0241 52.583 15.3212 53.4925C14.3687 54.7221 12.861 58.167 16.075 63.6544C20.0582 70.4578 31.4677 69.8786 36.5765 66.6115C37.6818 65.9053 39.9331 64.8129 40.6106 61.6982L40.7634 60.6617C40.8143 60.2197 40.799 59.7726 40.7022 59.3356C40.6666 59.1679 40.6309 59.0206 40.6208 58.9698C40.2438 57.481 39.3168 54.4528 27.7392 52.1765C24.2196 51.4855 23.3384 51.4804 21.3519 51.4804Z" fill="url(#paint7_linear_733_3912)"/>
<path d="M56.0692 70.9251C54.7039 69.8995 50.5456 66.7802 49.9672 61.6681L49.9359 61.413C49.8578 60.7807 49.7692 60.0633 50.0193 59.1652C50.0453 59.0749 50.0714 58.9739 50.0975 58.8676C51.124 54.9087 53.9796 50.5141 67.403 47.9155C76.8504 46.0875 82.7388 46.5552 85.9227 49.3875C89.8778 52.9 91.5036 59.5053 84.2135 67.4869C79.9249 72.1792 73.5779 74.3101 67.6479 74.3101C63.2134 74.3101 59.0082 73.1197 56.0692 70.9144V70.9251ZM68.3097 52.4271C55.9858 54.8078 55.001 57.9749 54.5945 59.5319C54.5789 59.585 54.5476 59.7391 54.5059 59.9145C54.4017 60.3715 54.3809 60.8391 54.4382 61.3014L54.5997 62.3855C55.3188 65.643 57.7159 66.7855 58.8935 67.5241C64.3337 70.9357 76.4804 71.5468 80.7222 64.4314C84.1457 58.6923 82.5408 55.0894 81.5246 53.8034C80.7743 52.8522 78.6482 51.6991 75.1048 51.6991C72.9943 51.6991 72.0564 51.6991 68.3045 52.4271H68.3097Z" fill="url(#paint8_linear_733_3912)"/>
<defs>
<linearGradient id="paint0_linear_733_3912" x1="76.1688" y1="78.3923" x2="87.6658" y2="93.1005" gradientUnits="userSpaceOnUse">
<stop stop-color="white"/>
<stop offset="1" stop-color="#FF6C6A"/>
</linearGradient>
<linearGradient id="paint1_linear_733_3912" x1="-15.7916" y1="46.6168" x2="64.0484" y2="135.207" gradientUnits="userSpaceOnUse">
<stop stop-color="white"/>
<stop offset="1" stop-color="#FF6C6A"/>
</linearGradient>
<linearGradient id="paint2_linear_733_3912" x1="-35.6719" y1="-53.4125" x2="65.3548" y2="83.3459" gradientUnits="userSpaceOnUse">
<stop stop-color="white"/>
<stop offset="1" stop-color="#FF6C6A"/>
</linearGradient>
<radialGradient id="paint3_radial_733_3912" cx="0" cy="0" r="1" gradientUnits="userSpaceOnUse" gradientTransform="translate(45.9644 68.4897) rotate(75.2502) scale(3.5473 4.37866)">
<stop stop-color="#895E52"/>
<stop offset="1" stop-color="#231815"/>
</radialGradient>
<linearGradient id="paint4_linear_733_3912" x1="0.0438675" y1="73.6932" x2="9.28155" y2="92.1325" gradientUnits="userSpaceOnUse">
<stop stop-color="white"/>
<stop offset="1" stop-color="#FF6C6A"/>
</linearGradient>
<linearGradient id="paint5_linear_733_3912" x1="48.3889" y1="82.6664" x2="61.0353" y2="115.234" gradientUnits="userSpaceOnUse">
<stop stop-color="#232F9B"/>
<stop offset="1" stop-color="#0C1035"/>
</linearGradient>
<linearGradient id="paint6_linear_733_3912" x1="27.0403" y1="82.6748" x2="41.9228" y2="115.374" gradientUnits="userSpaceOnUse">
<stop stop-color="#232F9B"/>
<stop offset="1" stop-color="#0C1035"/>
</linearGradient>
<linearGradient id="paint7_linear_733_3912" x1="-13.4383" y1="19.048" x2="26.8039" y2="72.929" gradientUnits="userSpaceOnUse">
<stop stop-color="#AA3C2D"/>
<stop offset="1" stop-color="#441812"/>
</linearGradient>
<linearGradient id="paint8_linear_733_3912" x1="35.767" y1="27.0027" x2="70.7602" y2="73.4125" gradientUnits="userSpaceOnUse">
<stop stop-color="#AA3C2D"/>
<stop offset="1" stop-color="#441812"/>
</linearGradient>
</defs>
</svg>
