<svg width="153" height="253" viewBox="0 0 153 253" fill="none" xmlns="http://www.w3.org/2000/svg">
<ellipse cx="76.5" cy="242" rx="50.5" ry="11" fill="#5C5C5C"/>
<path fill-rule="evenodd" clip-rule="evenodd" d="M76.9502 223.372C76.203 223.416 75.4417 223.439 74.6659 223.439C73.9627 223.439 73.2703 223.42 72.5888 223.384C73.0234 225.064 73.437 226.767 73.8188 228.477C74.4501 231.282 75.4104 236.003 72.3872 237.482C71.7025 237.82 71.009 237.892 70.591 237.927L70.5793 237.928C65.2791 238.401 50.9646 239.679 48.0324 234.997C47.4011 233.981 47.0632 232.316 47.2144 230.81C47.3411 229.575 47.7728 228.677 47.8842 228.445L47.899 228.414C48.6771 226.763 48.0933 220.191 44.0954 202.627C41.6509 197.56 39.7375 191.694 38.2929 185.17C31.0539 152.438 54.5297 142.031 74.5504 142.031C94.5711 142.031 117.55 157.753 110.808 185.17H110.817C109.512 190.481 107.961 195.363 106.106 199.735C101.508 219.479 100.817 226.675 101.637 228.414C101.641 228.423 101.646 228.433 101.652 228.445C101.763 228.677 102.195 229.575 102.321 230.81C102.473 232.316 102.135 233.981 101.503 234.997C98.5713 239.679 84.2567 238.401 78.9566 237.928L78.9448 237.927C78.5269 237.892 77.8333 237.82 77.1486 237.482C74.1254 236.003 75.0857 231.282 75.717 228.477C76.0997 226.763 76.5144 225.056 76.9502 223.372Z" fill="url(#paint0_linear_130_1934)"/>
<path d="M144.359 2.05964C135.929 -1.80762 123.043 9.62407 113.801 17.8331C96.0496 33.5886 87.851 52.1819 84.0101 63.533C80.9178 63.1123 77.7721 62.8795 74.5995 62.8795C71.427 62.8795 68.5397 63.0944 65.5721 63.4793C62.2392 51.7432 55.2882 34.2689 40.1029 18.5761C31.5033 9.68673 19.5262 -2.69389 10.8196 0.519881C-2.60122 5.47929 -2.92204 45.5753 6.47074 75.654C10.6324 88.9746 16.621 98.7144 20.9609 105.446L21.0679 105.625C24.9266 130.413 43.7032 148.165 73.6905 148.38C102.76 148.586 124.754 130.082 128.247 104.927C128.292 104.632 128.301 104.345 128.336 104.05C132.908 97.7117 138.478 88.7597 143.031 77.3101C154.67 48.0282 157.37 8.02167 144.359 2.05964Z" fill="#FF6C6A"/>
<path d="M144.359 2.05964C135.929 -1.80762 123.043 9.62407 113.801 17.8331C96.0496 33.5886 87.851 52.1819 84.0101 63.533C80.9178 63.1123 77.7721 62.8795 74.5995 62.8795C71.427 62.8795 68.5397 63.0944 65.5721 63.4793C62.2392 51.7432 55.2882 34.2689 40.1029 18.5761C31.5033 9.68673 19.5262 -2.69389 10.8196 0.519881C-2.60122 5.47929 -2.92204 45.5753 6.47074 75.654C10.6324 88.9746 16.621 98.7144 20.9609 105.446L21.0679 105.625C24.9266 130.413 43.7032 148.165 73.6905 148.38C102.76 148.586 124.754 130.082 128.247 104.927C128.292 104.632 128.301 104.345 128.336 104.05C132.908 97.7117 138.478 88.7597 143.031 77.3101C154.67 48.0282 157.37 8.02167 144.359 2.05964Z" fill="url(#paint1_linear_130_1934)"/>
<path d="M47.3439 106.661C47.4005 108.782 50.3551 109.47 52.4979 109.679C55.4243 109.96 57.973 107.205 57.7181 105.112C57.3972 102.539 52.7811 100.627 50.1947 102.167C49.043 102.856 47.3061 105.32 47.3439 106.661Z" fill="#231815"/>
<path d="M97.5728 107.239C97.5224 109.359 94.8961 110.048 92.9914 110.256C90.3902 110.537 88.1247 107.782 88.3512 105.689C88.6365 103.116 92.7396 101.204 95.0387 102.744C96.0624 103.433 97.6063 105.898 97.5728 107.239Z" fill="#231815"/>
<path d="M73.2805 204.954C67.9237 204.954 63.5852 203.306 61.1148 202.082C60.681 201.861 60.495 201.333 60.7164 200.901C60.9377 200.469 61.4602 200.284 61.9029 200.504C65.0904 202.073 71.5805 204.408 79.2925 202.434C91.1748 199.385 95.9384 188.292 96.4431 187.041C96.629 186.592 97.1426 186.372 97.5941 186.548C98.0457 186.733 98.267 187.244 98.09 187.693C97.2134 189.878 92.2019 200.945 79.7352 204.143C77.4685 204.725 75.3081 204.963 73.2894 204.963L73.2805 204.954Z" fill="#823737"/>
<path d="M134.949 35.6733C131.845 33.972 124.732 35.4942 98.923 68.2499C98.7705 68.4469 98.7077 68.6798 98.7346 68.9126C98.7346 68.9305 98.7346 68.9394 98.7346 68.9574C98.7525 69.1991 99.21 74.9748 104.09 77.4642C105.507 78.1895 107.059 78.5208 108.602 78.5208C111.921 78.5208 115.151 76.9359 116.667 74.1779C118.883 70.1662 117.241 64.6234 115.653 59.2596L115.384 58.3462C115.241 57.8716 114.747 57.603 114.272 57.7373C113.796 57.8806 113.527 58.3731 113.662 58.8477L113.931 59.77C115.411 64.7756 116.945 69.9603 115.097 73.3182C113.141 76.8732 108.154 77.5179 104.906 75.8613C101.39 74.0704 100.681 70.1304 100.556 69.0827C124.615 38.5925 131.899 36.0405 134.088 37.2404C135.075 37.7776 136.492 40.061 134.868 49.2395C134.779 49.723 135.111 50.1886 135.595 50.2782C136.079 50.3677 136.546 50.0364 136.636 49.5529C138.062 41.4938 137.533 37.0792 134.958 35.6733H134.949Z" fill="#823737"/>
<path d="M74.6754 139.721C73.4039 139.721 70.6492 139.52 68.2564 138.982C64.7246 138.179 62.9323 136.838 62.9323 134.995C62.9323 133.936 63.5856 132.778 64.8659 131.555C67.6295 128.927 73.0331 126.318 74.746 126.446C76.1234 126.555 86.6039 130.542 86.6039 134.648C86.6039 139.264 74.7902 139.721 74.6754 139.721ZM74.5518 128.271C73.4834 128.271 68.7243 130.369 66.0667 132.905C64.8394 134.082 64.7069 134.757 64.7069 135.004C64.7069 136.746 70.711 137.905 74.6754 137.905C78.0659 137.905 84.8381 136.5 84.8381 134.657C84.8381 132.34 76.1411 128.407 74.6048 128.28C74.5871 128.28 74.5694 128.28 74.5518 128.28V128.271Z" fill="#823737"/>
<path d="M81.4789 161.389L84.491 149.037C84.8029 147.754 83.5553 146.56 81.8977 146.56H67.3006C65.6698 146.56 64.4311 147.718 64.6984 148.993L67.3184 161.344C67.4699 162.039 68.0492 162.601 68.8245 162.886C67.1134 171.798 65.0549 188.364 63.8607 197.802C66.9441 203.264 70.0008 208.023 73.3604 212.693C76.3725 208.656 81.0066 201.482 84.2593 196.786C83.1632 188.462 80.9174 172.252 79.6787 162.975C80.5788 162.743 81.2828 162.155 81.47 161.389H81.4789Z" fill="#2DDDC3"/>
<mask id="mask0_130_1934" style="mask-type:luminance" maskUnits="userSpaceOnUse" x="63" y="146" width="22" height="67">
<path d="M81.479 161.387L84.4911 149.035C84.803 147.752 83.5554 146.558 81.8978 146.558H67.3007C65.6699 146.558 64.4312 147.716 64.6985 148.991L67.3185 161.342C67.47 162.037 68.0493 162.599 68.8246 162.884C67.1136 171.796 65.055 188.362 63.8608 197.8C66.9442 203.262 70.0009 208.021 73.3606 212.691C76.3727 208.654 81.0067 201.48 84.2594 196.784C83.1633 188.46 80.9175 172.25 79.6788 162.973C80.5789 162.741 81.2829 162.153 81.4701 161.387H81.479Z" fill="white"/>
</mask>
<g mask="url(#mask0_130_1934)">
<mask id="mask1_130_1934" style="mask-type:luminance" maskUnits="userSpaceOnUse" x="61" y="146" width="28" height="72">
<path d="M80.5871 153.976C77.878 147.72 76.2739 146.338 74.8035 146.285C68.8417 146.044 62.2204 167.218 61.7481 185.808C61.6412 190.13 61.0352 214.147 70.7042 217.31C74.2867 218.487 77.9226 216.348 78.9028 215.769C93.3752 207.258 89.3026 174.071 80.5871 153.976Z" fill="white"/>
</mask>
<g mask="url(#mask1_130_1934)">
<path d="M66.9174 153.787C66.7303 156.273 65.9728 157.245 65.242 157.646C64.2796 158.171 63.4954 157.637 62.6398 158.314C61.713 159.054 61.5615 160.542 61.8022 161.585C62.0962 162.895 63.023 163.634 63.3082 163.848" stroke="white" stroke-width="2" stroke-miterlimit="10" stroke-linecap="round"/>
<path d="M72.9679 155.631C72.9679 154.509 73.3333 153.314 74.2423 152.584C74.9285 152.031 75.6146 152.004 76.1226 151.987C76.4701 151.978 76.7197 151.969 76.9781 151.826C77.8247 151.363 78.101 149.866 78.1901 148.68C78.2257 148.19 78.6535 147.825 79.1436 147.861C79.6338 147.896 80.008 148.333 79.9635 148.814C79.7852 151.202 79.0812 152.7 77.8247 153.386C77.192 153.724 76.6306 153.751 76.185 153.769C75.7572 153.787 75.579 153.796 75.3562 153.974C74.777 154.437 74.6522 155.551 74.8304 156.353C75.0354 157.271 75.6503 157.842 75.9978 158.1C76.3899 158.394 76.4791 158.947 76.185 159.348C75.8909 159.74 75.3295 159.829 74.9374 159.535C74.3938 159.125 73.4224 158.225 73.0927 156.754C73.0125 156.407 72.9679 156.024 72.9679 155.64V155.631Z" fill="white"/>
<path d="M60.9822 173.125C60.9822 172.002 61.3476 170.808 62.2565 170.077C62.9427 169.525 63.6289 169.498 64.1369 169.48C64.4844 169.471 64.7339 169.463 64.9924 169.32C65.8301 168.857 66.1152 167.359 66.2043 166.174C66.24 165.684 66.6677 165.319 67.1579 165.354C67.648 165.39 68.0134 165.809 67.9777 166.308C67.7995 168.696 67.0955 170.193 65.839 170.88C65.2062 171.218 64.6448 171.245 64.1992 171.263C63.7715 171.281 63.5933 171.289 63.3705 171.468C62.7912 171.931 62.6665 173.045 62.8447 173.847C63.0586 174.801 63.7359 175.38 64.0121 175.594C64.4042 175.888 64.4933 176.44 64.1992 176.841C63.9052 177.233 63.3437 177.323 62.9516 177.029C62.408 176.627 61.4367 175.727 61.098 174.248C61.0178 173.901 60.9733 173.517 60.9733 173.134L60.9822 173.125Z" fill="white"/>
<path d="M68.9044 181.439C68.9044 180.316 69.2698 179.122 70.1787 178.391C70.8649 177.839 71.5511 177.812 72.0591 177.794C72.4066 177.785 72.6473 177.776 72.9146 177.634C73.7612 177.17 74.0375 175.673 74.1266 174.488C74.1622 173.998 74.59 173.633 75.0801 173.668C75.5702 173.704 75.9445 174.14 75.9 174.622C75.7217 177.01 75.0177 178.507 73.7612 179.193C73.1285 179.532 72.5671 179.559 72.1215 179.577C71.6937 179.594 71.5155 179.603 71.2927 179.782C70.7045 180.254 70.5887 181.359 70.7669 182.161C70.9719 183.079 71.5868 183.649 71.9343 183.908C72.3264 184.202 72.4156 184.754 72.1215 185.155C71.8274 185.547 71.266 185.636 70.8738 185.342C70.3213 184.941 69.3589 184.041 69.0203 182.553C68.9401 182.205 68.8955 181.822 68.8955 181.43L68.9044 181.439Z" fill="white"/>
<path d="M65.0039 170.022C65.0039 168.899 65.3693 167.705 66.2782 166.974C66.9644 166.422 67.6506 166.395 68.1586 166.377C68.5061 166.368 68.7467 166.359 69.0141 166.217C69.8607 165.753 70.137 164.256 70.2261 163.071C70.2617 162.581 70.6895 162.215 71.1796 162.251C71.6697 162.287 72.044 162.723 71.9995 163.205C71.8212 165.593 71.1172 167.09 69.8607 167.776C69.228 168.115 68.6665 168.142 68.221 168.159C67.7932 168.177 67.615 168.186 67.3922 168.364C66.804 168.837 66.6882 169.942 66.8664 170.744C67.0714 171.662 67.6863 172.232 68.0338 172.49C68.4259 172.785 68.5151 173.337 68.221 173.738C67.9269 174.13 67.3654 174.219 66.9733 173.925C66.4208 173.524 65.4584 172.624 65.1197 171.136C65.0395 170.788 64.995 170.405 64.995 170.013L65.0039 170.022Z" fill="white"/>
<path d="M77.922 169.618C77.922 168.496 78.2873 167.301 79.1963 166.571C79.8825 166.018 80.5687 165.991 81.0767 165.974C81.4242 165.965 81.6648 165.956 81.9322 165.813C82.7788 165.35 83.055 163.853 83.1442 162.667C83.1798 162.177 83.6075 161.812 84.0977 161.847C84.5878 161.883 84.9621 162.32 84.9176 162.801C84.7393 165.189 84.0353 166.686 82.7788 167.373C82.1461 167.711 81.5846 167.738 81.1391 167.756C80.7113 167.774 80.5331 167.783 80.3103 167.961C79.7221 168.433 79.6063 169.538 79.7845 170.34C79.9895 171.258 80.6044 171.828 80.9519 172.087C81.344 172.381 81.4331 172.933 81.1391 173.335C80.845 173.727 80.2835 173.816 79.8914 173.522C79.3389 173.121 78.3765 172.221 78.0378 170.732C77.9576 170.385 77.9131 170.002 77.9131 169.609L77.922 169.618Z" fill="white"/>
<path d="M84.482 162.814C84.2948 165.3 83.5373 166.272 82.8066 166.673C81.8441 167.198 81.0599 166.664 80.2044 167.341C79.2776 168.081 79.1261 169.569 79.3667 170.612C79.6608 171.922 80.5876 172.661 80.8728 172.875" stroke="white" stroke-width="2" stroke-miterlimit="10" stroke-linecap="round"/>
<path d="M71.6044 162.753C71.4173 165.239 70.6598 166.21 69.929 166.611C68.9666 167.137 68.1824 166.602 67.3269 167.28C66.4001 168.019 66.2486 169.508 66.4892 170.55C66.7833 171.86 67.7101 172.6 67.9952 172.814" stroke="white" stroke-width="2" stroke-miterlimit="10" stroke-linecap="round"/>
<path d="M61.6597 196.884C61.6597 195.761 62.0251 194.567 62.934 193.836C63.6202 193.283 64.3064 193.257 64.8144 193.239C65.1619 193.23 65.4114 193.221 65.6699 193.078C66.5165 192.624 66.7927 191.118 66.8818 189.933C66.9175 189.442 67.3453 189.077 67.8354 189.113C68.3255 189.148 68.6998 189.585 68.6552 190.066C68.477 192.455 67.773 193.952 66.5165 194.638C65.8838 194.977 65.3312 195.003 64.8768 195.021C64.449 195.039 64.2708 195.048 64.048 195.226C63.4598 195.69 63.3439 196.803 63.5222 197.605C63.7271 198.523 64.3421 199.094 64.6896 199.352C65.0817 199.646 65.1619 200.208 64.8768 200.6C64.5827 200.992 64.0212 201.081 63.6291 200.787C63.0855 200.377 62.1142 199.477 61.7844 198.007C61.7042 197.659 61.6597 197.276 61.6597 196.884Z" fill="white"/>
<path d="M71.5781 200.84C71.5781 199.718 71.9435 198.523 72.8525 197.793C73.5386 197.24 74.2248 197.213 74.7328 197.196C75.0804 197.187 75.3299 197.178 75.5883 197.035C76.426 196.572 76.7112 195.075 76.8003 193.889C76.8359 193.399 77.2637 193.034 77.7538 193.07C78.2439 193.105 78.6093 193.542 78.5737 194.023C78.3954 196.411 77.6914 197.909 76.4349 198.595C75.8022 198.933 75.2408 198.96 74.7952 198.978C74.3674 198.996 74.1892 199.005 73.9664 199.183C73.3871 199.646 73.2624 200.751 73.4406 201.562C73.6545 202.516 74.3318 203.095 74.608 203.309C75.0001 203.603 75.0893 204.156 74.7952 204.557C74.5011 204.949 73.9397 205.038 73.5476 204.744C73.0039 204.343 72.0326 203.443 71.694 201.963C71.6138 201.616 71.5692 201.233 71.5692 200.849L71.5781 200.84Z" fill="white"/>
<path d="M79.0904 186.546C79.0904 185.423 79.4558 184.229 80.3648 183.498C81.051 182.945 81.7372 182.919 82.2451 182.901C82.5927 182.892 82.8422 182.883 83.1006 182.74C83.9383 182.277 84.2235 180.78 84.3126 179.595C84.3483 179.104 84.776 178.739 85.2662 178.775C85.7563 178.81 86.1217 179.247 86.086 179.728C85.9078 182.117 85.2038 183.614 83.9472 184.3C83.3145 184.639 82.7531 184.665 82.3075 184.683C81.8798 184.701 81.7015 184.71 81.4788 184.888C80.8995 185.352 80.7747 186.457 80.953 187.267C81.1669 188.221 81.8441 188.8 82.1204 189.014C82.5125 189.308 82.6016 189.861 82.3075 190.262C82.0134 190.654 81.452 190.743 81.0599 190.449C80.5163 190.048 79.5449 189.148 79.2063 187.669C79.1261 187.321 79.0815 186.938 79.0815 186.555L79.0904 186.546Z" fill="white"/>
<path d="M70.2141 218.637C70.2141 217.514 70.5795 216.32 71.4885 215.589C72.1747 215.036 72.8609 215.01 73.3688 214.992C73.7164 214.983 73.957 214.974 74.2243 214.831C75.062 214.368 75.3472 212.871 75.4363 211.686C75.4719 211.196 75.8997 210.83 76.3898 210.866C76.88 210.901 77.2453 211.338 77.2097 211.819C77.0315 214.208 76.3275 215.705 75.0709 216.391C74.4382 216.73 73.8768 216.756 73.4312 216.774C73.0034 216.792 72.8252 216.801 72.6024 216.979C72.0142 217.443 71.8984 218.557 72.0766 219.359C72.2905 220.312 72.9678 220.891 73.244 221.105C73.6362 221.399 73.7253 221.952 73.4312 222.353C73.1371 222.754 72.5757 222.834 72.1836 222.54C71.64 222.139 70.6686 221.239 70.33 219.76C70.2498 219.412 70.2052 219.029 70.2052 218.646L70.2141 218.637Z" fill="white"/>
</g>
</g>
<path d="M103.925 140.877L98.9023 155.428L97.2371 160.64C95.742 165.322 89.5916 166.68 86.1717 163.077L83.0293 158.804L73.3247 146.49" fill="white"/>
<path d="M45.0337 141.454L49.6648 155.507L51.3087 160.677C52.7846 165.321 58.8564 166.667 62.2325 163.094L65.1932 158.856L73.3243 146.642" fill="white"/>
<path d="M50.7682 170.12C46.6233 196.268 34.1706 187.514 28.1181 183.689C22.0656 179.873 22.0834 166.991 28.8401 156.284C35.5968 145.577 45.9815 139.988 52.034 143.812C58.0865 147.637 52.8006 157.283 50.7682 170.12Z" fill="url(#paint2_linear_130_1934)"/>
<path d="M98.2314 171.028C102.426 197.503 114.84 188.672 120.874 184.814C126.908 180.956 126.854 167.925 120.092 157.071C113.329 146.216 102.95 140.542 96.9073 144.391C90.8735 148.24 96.1697 158.024 98.2225 171.019L98.2314 171.028Z" fill="#FF6C6A"/>
<path d="M98.2314 171.028C102.426 197.503 114.84 188.672 120.874 184.814C126.908 180.956 126.854 167.925 120.092 157.071C113.329 146.216 102.95 140.542 96.9073 144.391C90.8735 148.24 96.1697 158.024 98.2225 171.019L98.2314 171.028Z" fill="url(#paint3_linear_130_1934)"/>
<path d="M44.4481 65.504C44.4481 65.4419 44.4392 65.3887 44.4212 65.3266C44.4033 65.2646 44.3854 65.2113 44.3675 65.1581C44.3586 65.1315 44.3586 65.1049 44.3406 65.0783C23.6536 29.2522 16.8475 26.7242 13.534 27.9394C10.7847 28.9506 9.61153 33.1905 9.84438 41.2977C9.86229 41.7856 10.2563 42.167 10.7668 42.1581C11.2593 42.1404 11.6534 41.7323 11.6355 41.2445C11.3758 32.0108 13.1041 29.9795 14.1609 29.5981C16.5072 28.7377 23.3312 32.2946 42.6481 65.708C42.5227 66.7458 41.8152 70.6487 38.3047 72.4138C35.0628 74.0459 30.0926 73.4161 28.1313 69.8947C26.2865 66.5684 27.8179 61.4327 29.2955 56.4743L29.5642 55.5696C29.7075 55.0995 29.4299 54.6116 28.9552 54.4697C28.4806 54.3278 27.9791 54.6028 27.8448 55.0729L27.5761 55.9687C25.991 61.2819 24.3521 66.7725 26.5552 70.7551C28.0686 73.4782 31.2926 75.0571 34.6061 75.0571C36.1375 75.0571 37.6957 74.72 39.1107 74.0015C43.9824 71.5445 44.4392 65.8234 44.4571 65.575C44.4571 65.5484 44.4481 65.5218 44.4481 65.4952V65.504Z" fill="#823737"/>
<path d="M50.299 141.104C50.1898 141.104 50.0807 141.122 49.9715 141.168C49.4712 141.359 48.9981 141.596 48.5523 141.878C46.1234 143.379 45.0863 145.699 44.6315 147.374C44.5041 147.856 44.7861 148.356 45.2774 148.484C45.7595 148.611 46.2599 148.329 46.3872 147.838C46.7511 146.473 47.588 144.598 49.5075 143.415C49.8623 143.197 50.2353 143.015 50.6265 142.86C51.0995 142.678 51.327 142.151 51.145 141.687C51.0086 141.323 50.6629 141.104 50.299 141.104Z" fill="#823737"/>
<path d="M96.493 141.893C96.6022 141.893 96.7113 141.911 96.8205 141.956C97.3208 142.148 97.7939 142.384 98.2396 142.666C100.669 144.168 101.706 146.488 102.161 148.162C102.288 148.645 102.006 149.145 101.515 149.272C101.032 149.4 100.532 149.118 100.405 148.626C100.041 147.261 99.2039 145.387 97.2845 144.204C96.9297 143.986 96.5567 143.804 96.1655 143.649C95.6924 143.467 95.465 142.939 95.647 142.475C95.7834 142.111 96.1291 141.893 96.493 141.893Z" fill="#823737"/>
<path d="M53.5651 141.668C53.4559 141.668 53.3468 141.686 53.2376 141.731C52.7373 141.922 52.2551 142.159 51.8185 142.441C49.3986 143.943 48.3524 146.263 47.8976 147.937C47.7702 148.419 48.0522 148.92 48.5435 149.047C49.0256 149.175 49.526 148.893 49.6533 148.401C50.0172 147.036 50.8542 145.162 52.7737 143.979C53.1193 143.761 53.5014 143.579 53.8926 143.424C54.3566 143.242 54.5931 142.714 54.4111 142.25C54.2747 141.886 53.929 141.668 53.5651 141.668Z" fill="#823737"/>
<path d="M93.2273 142.456C93.3364 142.456 93.4456 142.474 93.5547 142.52C94.0551 142.711 94.5372 142.948 94.9739 143.23C97.3937 144.731 98.4399 147.051 98.8948 148.726C99.0221 149.208 98.7401 149.709 98.2489 149.836C97.7667 149.963 97.2664 149.681 97.139 149.19C96.7751 147.825 95.9382 145.95 94.0187 144.768C93.673 144.549 93.2909 144.367 92.8998 144.212C92.4358 144.03 92.1993 143.503 92.3812 143.039C92.5177 142.675 92.8634 142.456 93.2273 142.456Z" fill="#823737"/>
<path d="M68.6383 118.34C68.6918 120.566 70.6199 122.447 72.7354 122.665C75.6275 122.965 78.1536 120.067 77.8947 117.877C77.5823 115.179 73.0121 113.171 70.4503 114.788C69.3077 115.506 68.5936 116.941 68.6293 118.34H68.6383Z" fill="url(#paint4_radial_130_1934)"/>
<defs>
<linearGradient id="paint0_linear_130_1934" x1="7.89898" y1="81.9129" x2="126.26" y2="195.586" gradientUnits="userSpaceOnUse">
<stop stop-color="white"/>
<stop offset="1" stop-color="#FF6C6A"/>
</linearGradient>
<linearGradient id="paint1_linear_130_1934" x1="-59.2215" y1="-92.5178" x2="117.92" y2="132.831" gradientUnits="userSpaceOnUse">
<stop stop-color="white"/>
<stop offset="1" stop-color="#FF6C6A"/>
</linearGradient>
<linearGradient id="paint2_linear_130_1934" x1="11.6039" y1="114.169" x2="66.8369" y2="160.747" gradientUnits="userSpaceOnUse">
<stop stop-color="white"/>
<stop offset="1" stop-color="#FF6C6A"/>
</linearGradient>
<linearGradient id="paint3_linear_130_1934" x1="82.0415" y1="114.386" x2="137.851" y2="160.863" gradientUnits="userSpaceOnUse">
<stop stop-color="white"/>
<stop offset="1" stop-color="#FF6C6A"/>
</linearGradient>
<radialGradient id="paint4_radial_130_1934" cx="0" cy="0" r="1" gradientUnits="userSpaceOnUse" gradientTransform="translate(71.8669 116.602) rotate(77.0103) scale(6.24447 6.85688)">
<stop stop-color="#895E52"/>
<stop offset="1" stop-color="#231815"/>
</radialGradient>
</defs>
</svg>
