<svg width="200" height="200" viewBox="0 0 200 200" fill="none" xmlns="http://www.w3.org/2000/svg">
<mask id="mask0_243_2479" style="mask-type:alpha" maskUnits="userSpaceOnUse" x="0" y="0" width="200" height="200">
<rect width="200" height="200" rx="27" fill="#D5F8F3"/>
</mask>
<g mask="url(#mask0_243_2479)">
<path d="M160.184 31.5384C152.76 28.1769 141.507 38.1049 133.38 45.2969C117.829 59.0554 110.639 75.3154 107.279 85.1652C104.544 84.7744 101.809 84.618 98.9955 84.618C96.3386 84.618 93.6816 84.7744 91.1028 85.1652C88.2113 74.9245 82.1159 59.6807 68.7529 45.9222C61.2509 38.1831 50.7011 27.317 43.0428 30.1312C31.2427 34.4308 31.0082 69.4524 39.2136 95.7186C42.8865 107.366 48.1223 115.887 51.9514 121.75L52.0296 121.907C55.3899 143.561 71.8788 159.039 98.2141 159.273C123.69 159.43 142.992 143.326 146.04 121.359C146.118 121.125 146.118 120.812 146.118 120.578C150.103 115.027 155.026 107.21 159.012 97.2039C169.171 71.6412 171.593 36.6978 160.184 31.5384Z" fill="url(#paint0_linear_243_2479)"/>
<path d="M93.292 135.307C93.3661 137.213 94.8481 138.87 96.5525 139.036C98.8497 139.285 100.85 136.799 100.628 134.893C100.406 132.573 96.7748 130.75 94.6999 132.241C93.8848 132.821 93.292 134.064 93.292 135.307Z" fill="#231815"/>
<path d="M73.0742 122.515C73.1576 124.421 75.7416 125.084 77.6588 125.25C80.2428 125.498 82.4934 123.013 82.2433 121.107C81.9933 118.787 77.9088 116.964 75.5749 118.455C74.5746 119.035 72.9909 121.273 73.0742 122.515Z" fill="#231815"/>
<path d="M119.944 122.858C119.86 124.526 117.276 125.106 115.359 125.251C112.775 125.468 110.525 123.293 110.775 121.626C111.025 119.596 115.109 118.001 117.443 119.306C118.443 119.813 120.027 121.771 119.944 122.858Z" fill="#231815"/>
<path d="M97.9708 208.908C93.2108 208.908 89.4652 207.415 87.2803 206.316C86.8901 206.158 86.734 205.687 86.9681 205.294C87.2022 204.902 87.5924 204.745 87.9826 204.902C90.7918 206.316 96.4882 208.358 103.277 206.63C113.733 203.881 117.947 194.062 118.415 192.884C118.572 192.491 119.04 192.255 119.43 192.412C119.82 192.57 120.054 193.041 119.898 193.434C119.118 195.397 114.748 205.216 103.745 208.122C101.716 208.672 99.7656 208.908 97.9708 208.908Z" fill="#823737"/>
<path d="M151.883 60.4038C149.196 58.9216 143.13 60.2477 121.02 88.7992C120.866 88.9552 120.866 89.1893 120.866 89.3453C120.866 89.5793 121.25 94.5719 125.472 96.7562C126.701 97.3803 128.006 97.6923 129.311 97.6923C132.152 97.6923 134.916 96.2881 136.221 93.9478C138.14 90.4374 136.681 85.6008 135.376 80.9203L135.146 80.1402C134.992 79.7501 134.608 79.5161 134.225 79.5941C133.841 79.7501 133.61 80.1402 133.687 80.5302L133.918 81.3103C135.146 85.6788 136.528 90.2034 134.916 93.0897C133.227 96.2101 129.004 96.7562 126.163 95.274C123.169 93.7138 122.555 90.2814 122.401 89.3453C142.977 62.8221 149.196 60.5598 151.115 61.5739C151.959 62.042 153.188 64.0702 151.806 72.0272C151.729 72.4172 152.036 72.8853 152.42 72.9633C152.804 73.0413 153.265 72.7293 153.341 72.3392C154.493 65.4744 154.032 61.5739 151.883 60.4038Z" fill="#823737"/>
<path d="M72.1171 86.4526V86.2984C72.1171 86.247 72.091 86.1956 72.0387 86.1441V86.067C53.9276 54.9126 47.9689 52.7534 45.068 53.7559C42.6375 54.6042 41.6183 58.3057 41.8535 65.4002C41.8535 65.7858 42.2455 66.1714 42.6375 66.1714C43.108 66.1714 43.4216 65.7858 43.4216 65.4002C43.1864 57.3803 44.676 55.6066 45.6169 55.2982C47.6553 54.527 53.614 57.6116 70.5491 86.684C70.4707 87.6093 69.8434 91.0024 66.7073 92.5447C63.8848 93.9328 59.4942 93.3929 57.7694 90.3855C56.1229 87.4551 57.4557 83.0596 58.7886 78.7411L59.0238 77.97C59.1806 77.5844 58.9454 77.1217 58.475 77.0446C58.0046 76.9675 57.6125 77.1988 57.5341 77.5844L57.2989 78.3555C55.8877 82.9824 54.4764 87.7636 56.4365 91.2337C57.7693 93.6243 60.5919 94.9352 63.4928 94.9352C64.8256 94.9352 66.1585 94.6268 67.4129 94.0099C71.7251 91.6964 72.1171 86.684 72.1171 86.4526Z" fill="#823737"/>
<path d="M127.622 132.635C127.225 132.558 126.75 132.788 126.67 133.247C126.274 134.931 116.834 145.263 106.443 144.268C103.905 144.039 101.526 143.273 99.1459 142.049L98.8286 141.896L98.5114 142.049C96.3697 142.891 94.1487 143.426 91.9277 143.656C85.5821 144.345 80.3469 142.508 77.0155 140.824C76.6189 140.671 76.1429 140.748 75.905 141.13C75.7463 141.513 75.8256 141.972 76.2223 142.125C76.5395 142.278 76.8568 142.431 77.1741 142.584C79.3951 144.881 83.9957 149.549 91.0552 151.233C93.1969 151.769 95.2592 151.922 97.1629 151.922C107.316 151.922 114.772 146.029 117.945 143.12C123.656 140.059 127.781 135.313 128.177 133.63C128.336 133.094 128.019 132.711 127.622 132.635ZM91.4518 149.626C86.8512 148.554 83.3611 146.029 80.9022 143.886C83.9957 144.804 87.8031 145.416 92.0864 145.034C94.3074 144.804 96.6077 144.268 98.7493 143.426C101.129 144.651 103.667 145.416 106.285 145.646C106.84 145.722 107.395 145.722 107.951 145.722C109.696 145.722 111.441 145.416 113.027 144.957C108.268 148.325 100.732 151.845 91.4518 149.626Z" fill="#823737"/>
<path fill-rule="evenodd" clip-rule="evenodd" d="M131.153 185.018C131.059 185.417 130.956 185.819 130.844 186.224C125.843 204.51 116.7 216.302 99.0389 216.302C86.4331 216.302 77.8484 210.33 72.2901 200.237C72.1272 202.429 71.4143 205.98 68.6205 206.912C63.9317 208.475 57.6019 199.957 57.3675 199.332C52.3158 187.208 54.2977 179.567 54.8576 177.408L54.8668 177.373C57.9877 165.297 69.9441 157.638 74.5248 154.704C75.2203 154.258 75.7457 153.922 76.0444 153.695L76.4645 157.915C82.8242 153.96 91.1482 152.38 98.8826 152.38C109.697 152.38 121.478 157.012 127.624 165.538C127.626 165.536 127.628 165.534 127.629 165.532C129.435 163.438 129.145 160.452 127.2 159.265C125.628 158.317 124.74 157.85 124.021 157.473C122.867 156.866 122.149 156.489 119.737 154.717C114.907 151.184 116.009 146.769 119.369 143.503C122.065 140.908 127.653 142.901 129.013 143.393C137.382 146.347 147.932 156.912 144.658 169.322C142.979 175.687 137.305 180.563 131.153 185.018Z" fill="#FF6C6A"/>
<path d="M80.3639 92.9382C92.5086 93.2975 104.661 93.6568 116.806 94.016C118.571 90.9355 121.245 85.103 119.224 79.7674C114.761 68.0338 89.3986 63.6996 80.8071 74.3707C76.0954 80.2261 77.8837 88.7798 78.6145 91.6387" fill="#2E3531"/>
<path d="M78.5859 92.1777C86.6071 97.3298 94.4266 99.1622 99.562 100.666C106.505 102.695 112.633 104.405 119.778 102.112C122.974 101.085 129.343 98.2994 129.133 95.9082C128.885 93.0734 120.484 92.909 78.5859 92.1777Z" fill="#424C46"/>
<path d="M104.154 170.532L106.811 159.669C107.124 158.575 105.952 157.481 104.545 157.481H91.7291C90.3225 157.481 89.2284 158.497 89.4629 159.591L91.7291 170.453C91.8854 171.079 92.3543 171.547 93.0576 171.782C91.5728 179.596 89.7754 194.131 88.6814 202.415C91.4165 207.181 94.0735 211.401 97.0431 215.465C99.7 211.948 103.764 205.619 106.577 201.555C105.639 194.288 103.607 180.065 102.591 171.938C103.373 171.704 103.998 171.235 104.154 170.532Z" fill="#2DDDC3"/>
<mask id="mask1_243_2479" style="mask-type:luminance" maskUnits="userSpaceOnUse" x="88" y="157" width="19" height="59">
<path d="M104.148 170.532L106.805 159.669C107.118 158.575 105.946 157.481 104.539 157.481H91.7232C90.3166 157.481 89.2226 158.497 89.457 159.591L91.7232 170.453C91.8795 171.079 92.3484 171.547 93.0517 171.782C91.567 179.596 89.7696 194.131 88.6755 202.415C91.4107 207.181 94.0676 211.401 97.0372 215.465C99.6942 211.948 103.758 205.619 106.571 201.555C105.633 194.288 103.601 180.065 102.586 171.938C103.367 171.704 103.992 171.235 104.148 170.532Z" fill="white"/>
</mask>
<g mask="url(#mask1_243_2479)">
<mask id="mask2_243_2479" style="mask-type:luminance" maskUnits="userSpaceOnUse" x="86" y="157" width="25" height="63">
<path d="M103.377 164.047C101.033 158.577 99.6263 157.326 98.2978 157.326C93.062 157.092 87.2792 175.69 86.8884 191.944C86.8103 195.695 86.2633 216.794 94.7031 219.529C97.8289 220.545 101.033 218.67 101.893 218.201C114.552 210.777 111.036 181.629 103.377 164.047Z" fill="white"/>
</mask>
<g mask="url(#mask2_243_2479)">
<path d="M91.4192 163.891C91.2629 166.079 90.5596 166.938 89.9345 167.251C89.0748 167.72 88.3715 167.251 87.6682 167.876C86.8868 168.501 86.7304 169.83 86.9649 170.767C87.1993 171.94 88.0589 172.565 88.2934 172.721" stroke="white" stroke-width="2" stroke-miterlimit="10" stroke-linecap="round"/>
</g>
<mask id="mask3_243_2479" style="mask-type:luminance" maskUnits="userSpaceOnUse" x="86" y="157" width="25" height="63">
<path d="M103.377 164.047C101.033 158.577 99.6263 157.326 98.2978 157.326C93.062 157.092 87.2792 175.69 86.8884 191.944C86.8103 195.695 86.2633 216.794 94.7031 219.529C97.8289 220.545 101.033 218.67 101.893 218.201C114.552 210.777 111.036 181.629 103.377 164.047Z" fill="white"/>
</mask>
<g mask="url(#mask3_243_2479)">
<path d="M96.731 165.453C96.731 164.437 97.0436 163.421 97.825 162.796C98.4502 162.327 98.9972 162.249 99.4661 162.249C99.7787 162.249 100.013 162.249 100.248 162.093C100.951 161.702 101.263 160.374 101.342 159.358C101.342 158.967 101.732 158.576 102.201 158.655C102.67 158.655 102.983 159.045 102.905 159.514C102.748 161.624 102.123 162.953 101.029 163.5C100.482 163.812 100.013 163.812 99.6224 163.812C99.2316 163.812 99.0754 163.812 98.9191 163.968C98.4502 164.359 98.2939 165.375 98.4502 166.078C98.6065 166.86 99.1535 167.407 99.4661 167.641C99.7787 167.876 99.8568 168.423 99.6224 168.735C99.3879 169.048 98.8409 169.126 98.5283 168.892C98.0595 168.501 97.1998 167.719 96.8873 166.469C96.731 166.156 96.731 165.844 96.731 165.453Z" fill="white"/>
</g>
<mask id="mask4_243_2479" style="mask-type:luminance" maskUnits="userSpaceOnUse" x="86" y="157" width="25" height="63">
<path d="M103.377 164.047C101.033 158.577 99.6263 157.326 98.2978 157.326C93.062 157.092 87.2792 175.69 86.8884 191.944C86.8103 195.695 86.2633 216.794 94.7031 219.529C97.8289 220.545 101.033 218.67 101.893 218.201C114.552 210.777 111.036 181.629 103.377 164.047Z" fill="white"/>
</mask>
<g mask="url(#mask4_243_2479)">
<path d="M86.1831 180.848C86.1831 179.832 86.4957 178.816 87.2772 178.191C87.9023 177.722 88.4493 177.644 88.9182 177.644C89.2308 177.644 89.4653 177.644 89.6997 177.487C90.403 177.097 90.7156 175.768 90.7938 174.752C90.7938 174.362 91.1845 173.971 91.6533 174.049C92.1222 174.049 92.4348 174.44 92.3567 174.909C92.2004 177.019 91.5752 178.347 90.4812 178.894C89.9341 179.207 89.4653 179.207 89.0745 179.207C88.6838 179.207 88.5275 179.207 88.3712 179.363C87.9023 179.754 87.746 180.77 87.9023 181.473C88.0586 182.332 88.6838 182.801 88.9182 183.036C89.2308 183.27 89.309 183.817 89.0745 184.13C88.8401 184.442 88.2931 184.52 87.9805 184.286C87.5116 183.895 86.652 183.114 86.3394 181.864C86.1831 181.473 86.1831 181.16 86.1831 180.848Z" fill="white"/>
</g>
<mask id="mask5_243_2479" style="mask-type:luminance" maskUnits="userSpaceOnUse" x="86" y="157" width="25" height="63">
<path d="M103.377 164.047C101.033 158.577 99.6263 157.326 98.2978 157.326C93.062 157.092 87.2792 175.69 86.8884 191.944C86.8103 195.695 86.2633 216.794 94.7031 219.529C97.8289 220.545 101.033 218.67 101.893 218.201C114.552 210.777 111.036 181.629 103.377 164.047Z" fill="white"/>
</mask>
<g mask="url(#mask5_243_2479)">
<path d="M93.1367 188.115C93.1367 187.099 93.4493 186.084 94.2308 185.458C94.8559 184.989 95.403 184.911 95.8718 184.911C96.1844 184.911 96.4189 184.911 96.6533 184.755C97.3566 184.364 97.6692 183.036 97.7473 182.02C97.7473 181.629 98.1381 181.239 98.607 181.317C99.0758 181.317 99.3884 181.707 99.3103 182.176C99.154 184.286 98.5288 185.615 97.4348 186.162C96.8877 186.474 96.4188 186.474 96.0281 186.474C95.6374 186.474 95.4811 186.474 95.3248 186.631C94.7778 187.021 94.6996 188.037 94.8559 188.74C95.0122 189.522 95.5593 190.069 95.8718 190.303C96.1844 190.538 96.2626 191.085 96.0281 191.397C95.7937 191.71 95.2467 191.788 94.9341 191.554C94.4652 191.163 93.6056 190.381 93.293 189.131C93.1367 188.819 93.1367 188.428 93.1367 188.115Z" fill="white"/>
</g>
<mask id="mask6_243_2479" style="mask-type:luminance" maskUnits="userSpaceOnUse" x="86" y="157" width="25" height="63">
<path d="M103.377 164.047C101.033 158.577 99.6263 157.326 98.2978 157.326C93.062 157.092 87.2792 175.69 86.8884 191.944C86.8103 195.695 86.2633 216.794 94.7031 219.529C97.8289 220.545 101.033 218.67 101.893 218.201C114.552 210.777 111.036 181.629 103.377 164.047Z" fill="white"/>
</mask>
<g mask="url(#mask6_243_2479)">
<path d="M106.812 171.783C106.656 173.971 105.952 174.831 105.327 175.143C104.468 175.612 103.764 175.143 103.061 175.769C102.28 176.394 102.123 177.722 102.358 178.66C102.592 179.832 103.452 180.457 103.686 180.614" stroke="white" stroke-width="2" stroke-miterlimit="10" stroke-linecap="round"/>
</g>
<mask id="mask7_243_2479" style="mask-type:luminance" maskUnits="userSpaceOnUse" x="86" y="157" width="25" height="63">
<path d="M103.377 164.047C101.033 158.577 99.6263 157.326 98.2978 157.326C93.062 157.092 87.2792 175.69 86.8884 191.944C86.8103 195.695 86.2633 216.794 94.7031 219.529C97.8289 220.545 101.033 218.67 101.893 218.201C114.552 210.777 111.036 181.629 103.377 164.047Z" fill="white"/>
</mask>
<g mask="url(#mask7_243_2479)">
<path d="M95.4805 171.705C95.3242 173.893 94.6209 174.753 93.9957 175.065C93.1361 175.534 92.4328 175.065 91.7295 175.69C90.948 176.316 90.7917 177.644 91.0262 178.582C91.2606 179.754 92.1202 180.379 92.3547 180.535" stroke="white" stroke-width="2" stroke-miterlimit="10" stroke-linecap="round"/>
</g>
<mask id="mask8_243_2479" style="mask-type:luminance" maskUnits="userSpaceOnUse" x="86" y="157" width="25" height="63">
<path d="M103.377 164.047C101.033 158.577 99.6263 157.326 98.2978 157.326C93.062 157.092 87.2792 175.69 86.8884 191.944C86.8103 195.695 86.2633 216.794 94.7031 219.529C97.8289 220.545 101.033 218.67 101.893 218.201C114.552 210.777 111.036 181.629 103.377 164.047Z" fill="white"/>
</mask>
<g mask="url(#mask8_243_2479)">
<path d="M86.8076 201.634C86.8076 200.618 87.1202 199.602 87.9017 198.977C88.5268 198.508 89.0739 198.43 89.5427 198.43C89.8553 198.43 90.0898 198.43 90.3242 198.274C91.0275 197.883 91.3401 196.554 91.4182 195.539C91.4182 195.148 91.809 194.757 92.2779 194.835C92.7467 194.835 93.0593 195.226 92.9812 195.695C92.8249 197.805 92.1997 199.133 91.1057 199.68C90.5586 199.993 90.0897 199.993 89.699 199.993C89.3083 199.993 89.152 199.993 88.9957 200.149C88.4487 200.54 88.3705 201.556 88.5268 202.259C88.6831 203.04 89.2302 203.587 89.5427 203.822C89.8553 204.056 89.9335 204.603 89.699 204.916C89.4646 205.228 88.9176 205.307 88.605 205.072C88.1361 204.681 87.2765 203.9 86.9639 202.65C86.8076 202.337 86.8076 202.025 86.8076 201.634Z" fill="white"/>
</g>
<mask id="mask9_243_2479" style="mask-type:luminance" maskUnits="userSpaceOnUse" x="86" y="157" width="25" height="63">
<path d="M103.377 164.047C101.033 158.577 99.6263 157.326 98.2978 157.326C93.062 157.092 87.2792 175.69 86.8884 191.944C86.8103 195.695 86.2633 216.794 94.7031 219.529C97.8289 220.545 101.033 218.67 101.893 218.201C114.552 210.777 111.036 181.629 103.377 164.047Z" fill="white"/>
</mask>
<g mask="url(#mask9_243_2479)">
<path d="M95.4819 205.15C95.4819 204.135 95.7945 203.119 96.576 202.494C97.2011 202.025 97.7482 201.947 98.2171 201.947C98.5296 201.947 98.7641 201.947 98.9985 201.79C99.7018 201.399 100.014 200.071 100.093 199.055C100.093 198.664 100.483 198.274 100.952 198.352C101.421 198.352 101.734 198.743 101.655 199.211C101.499 201.321 100.874 202.65 99.78 203.197C99.233 203.509 98.7641 203.509 98.3733 203.509C97.9826 203.509 97.8263 203.509 97.67 203.666C97.2011 204.056 97.0448 205.072 97.2011 205.776C97.3574 206.635 97.9826 207.104 98.2171 207.338C98.5296 207.573 98.6078 208.12 98.3733 208.432C98.1389 208.745 97.5919 208.823 97.2793 208.589C96.8104 208.198 95.9508 207.417 95.6382 206.166C95.5601 205.776 95.4819 205.463 95.4819 205.15Z" fill="white"/>
</g>
<mask id="mask10_243_2479" style="mask-type:luminance" maskUnits="userSpaceOnUse" x="86" y="157" width="25" height="63">
<path d="M103.377 164.047C101.033 158.577 99.6263 157.326 98.2978 157.326C93.062 157.092 87.2792 175.69 86.8884 191.944C86.8103 195.695 86.2633 216.794 94.7031 219.529C97.8289 220.545 101.033 218.67 101.893 218.201C114.552 210.777 111.036 181.629 103.377 164.047Z" fill="white"/>
</mask>
<g mask="url(#mask10_243_2479)">
<path d="M102.046 192.568C102.046 191.553 102.358 190.537 103.14 189.911C103.765 189.443 104.312 189.364 104.781 189.364C105.094 189.364 105.328 189.364 105.562 189.208C106.266 188.817 106.578 187.489 106.657 186.473C106.657 186.082 107.047 185.692 107.516 185.77C107.985 185.77 108.298 186.161 108.219 186.629C108.063 188.739 107.438 190.068 106.344 190.615C105.797 190.927 105.328 190.927 104.937 190.927C104.547 190.927 104.39 190.927 104.234 191.084C103.765 191.474 103.609 192.49 103.765 193.194C103.921 194.053 104.547 194.522 104.781 194.756C105.094 194.991 105.172 195.538 104.937 195.85C104.703 196.163 104.156 196.241 103.843 196.007C103.374 195.616 102.515 194.835 102.202 193.584C102.124 193.272 102.046 192.959 102.046 192.568Z" fill="white"/>
</g>
</g>
<path d="M118.769 153.76L119.947 165.497L118.481 170.065C117.17 174.177 111.925 175.319 108.917 172.197L106.218 168.466L97.8877 157.654" fill="white"/>
<path d="M73.071 152.841L77.0912 165.397L78.5601 170.019C79.8744 174.179 85.1315 175.335 88.1466 172.176L90.7751 168.402L97.8877 157.463" fill="white"/>
<path d="M127.624 159.193C127.624 159.193 127.624 159.193 127.616 159.193C126.897 158.724 126.131 158.318 125.396 157.865C124.638 157.396 123.958 156.841 123.294 156.239C123.106 156.067 122.919 155.887 122.731 155.708C121.934 155.379 121.199 154.856 120.559 154.356C120.043 153.949 119.574 153.48 119.105 153.027C118.886 152.816 118.675 152.597 118.464 152.378C117.893 151.831 117.385 151.214 117.003 150.495C112.118 147.892 106.561 146.407 100.645 146.407C81.3877 146.407 65.7178 162.077 65.7178 181.334C65.7178 200.591 81.3877 216.261 100.645 216.261C119.902 216.261 135.572 200.591 135.572 181.334C135.572 172.933 132.579 165.227 127.624 159.201V159.193ZM119.722 165.547C118.058 164.265 115.705 164.109 113.853 165.313C112.751 166.032 111.711 166.719 110.688 167.392C107.53 169.463 104.506 171.456 100.535 173.894L86.9835 164.547C85.8503 163.765 84.5138 163.507 83.2556 163.718C87.7338 159.295 93.8767 156.559 100.653 156.559C108.32 156.559 115.174 160.061 119.722 165.539V165.547ZM75.8856 181.326C75.8856 176.934 77.0345 172.816 79.0509 169.236C79.1994 170.666 79.9418 172.026 81.2157 172.909L95.2835 182.608V202.03C95.2835 203.538 95.9478 204.89 96.9951 205.82C85.0687 204.046 75.8934 193.737 75.8934 181.326H75.8856ZM103.638 205.906C104.74 204.976 105.444 203.585 105.444 202.03V182.804C109.742 180.17 112.931 178.075 116.268 175.879C117.276 175.215 118.308 174.535 119.402 173.824C121.426 172.503 122.192 169.994 121.387 167.821C123.927 171.714 125.412 176.348 125.412 181.334C125.412 193.98 115.885 204.429 103.638 205.914V205.906Z" fill="url(#paint1_linear_243_2479)"/>
<path d="M65.0555 204.312C64.9787 204.312 64.9019 204.312 64.7484 204.244C64.2876 204.108 63.9037 203.904 63.5197 203.7C61.4465 202.546 60.6018 200.848 60.2178 199.625C60.141 199.285 60.3714 198.878 60.7554 198.81C61.1393 198.742 61.6 198.946 61.6768 199.285C61.984 200.304 62.6751 201.731 64.2876 202.614C64.5948 202.749 64.9019 202.885 65.2091 203.021C65.593 203.157 65.8234 203.565 65.6698 203.904C65.6698 204.176 65.3627 204.312 65.0555 204.312Z" fill="#823737"/>
<path d="M67.8128 204.313C67.736 204.313 67.6593 204.313 67.5057 204.234C67.045 204.075 66.661 203.837 66.2771 203.6C64.2038 202.253 63.3591 200.271 62.9752 198.845C62.8984 198.449 63.1287 197.973 63.5127 197.894C63.8966 197.815 64.3574 198.053 64.4341 198.449C64.7413 199.637 65.4324 201.302 67.0449 202.332C67.3521 202.49 67.6593 202.649 67.9664 202.807C68.3504 202.966 68.5807 203.441 68.4271 203.837C68.4271 204.154 68.12 204.313 67.8128 204.313Z" fill="#823737"/>
<path d="M126.301 146.453C126.429 146.686 126.414 146.976 126.173 147.144C125.895 147.396 125.39 147.377 125.096 147.144C124.833 146.963 124.539 146.724 124.313 146.602C122.77 145.717 121.045 145.75 119.893 145.917C119.517 145.995 119.125 145.717 119.042 145.401C118.96 145.084 119.238 144.684 119.645 144.671C121.038 144.484 123.161 144.432 125.096 145.595C125.458 145.808 125.819 146.021 126.143 146.318C126.241 146.35 126.271 146.408 126.309 146.466L126.301 146.453Z" fill="#823737"/>
<path d="M128.139 150.758C128.267 151.068 128.252 151.456 128.011 151.679C127.733 152.015 127.228 151.989 126.935 151.679C126.671 151.438 126.408 151.197 126.152 150.956C124.608 149.777 122.884 149.82 121.731 150.044C121.355 150.147 120.963 149.777 120.881 149.355C120.798 148.933 121.076 148.4 121.483 148.382C122.876 148.133 124.999 148.064 126.935 149.613C127.296 149.897 127.657 150.182 127.981 150.578C128.079 150.621 128.109 150.698 128.147 150.776L128.139 150.758Z" fill="#823737"/>
</g>
<defs>
<linearGradient id="paint0_linear_243_2479" x1="-33.2647" y1="-12.7285" x2="100.706" y2="159.227" gradientUnits="userSpaceOnUse">
<stop offset="0.0558162" stop-color="#FAC8C7"/>
<stop offset="1" stop-color="#FF6C6A"/>
</linearGradient>
<linearGradient id="paint1_linear_243_2479" x1="80.2389" y1="155.965" x2="100.646" y2="216.261" gradientUnits="userSpaceOnUse">
<stop stop-color="#823737"/>
<stop offset="1" stop-color="#232400"/>
</linearGradient>
</defs>
</svg>
