<svg width="150" height="198" viewBox="0 0 150 198" fill="none" xmlns="http://www.w3.org/2000/svg">
<path d="M143.336 2.61939C136.076 -0.881663 124.3 8.06287 115.85 14.4854C99.1093 27.2129 91.1838 42.7993 87.5079 51.9161C83.5909 51.2582 79.5491 50.8979 75.4575 50.8979C70.5591 50.8979 65.7356 51.407 61.1034 52.3391C57.8184 42.9403 50.6413 27.2051 34.757 13.851C26.5986 6.99767 15.2384 -2.54995 7.75367 0.629979C-3.78949 5.53302 -1.56069 38.7656 8.62689 63.132C13.0679 73.7527 18.6482 81.7965 22.8729 87.1225C22.9145 87.8666 22.981 88.6185 23.0891 89.3782C26.9147 114.489 45.0195 128.947 74.5676 129.143C102.943 129.331 124.266 112.147 127.826 89.3782C128.175 87.1538 128.167 84.9686 127.876 82.8382C131.552 78.1153 135.635 72.0296 139.211 64.5967C150.579 40.8882 154.53 8.01587 143.336 2.61939Z" fill="url(#paint0_linear_279_2559)"/>
<path d="M71.1842 103.406C71.2341 105.325 73.0304 106.947 75.0014 107.135C77.6959 107.393 80.0494 104.895 79.8083 103.007C79.5172 100.681 75.2592 98.9498 72.8724 100.344C71.8245 100.963 71.1509 102.192 71.1842 103.406Z" fill="#231815"/>
<path d="M47.7321 96.4206C47.782 98.3396 50.5098 98.9661 52.4807 99.1541C55.1753 99.4126 57.5288 96.9141 57.2876 95.0265C56.9965 92.7003 52.7386 90.9693 50.3517 92.3635C49.2956 92.9822 47.6988 95.2145 47.7321 96.4206Z" fill="#231815"/>
<path d="M99.9631 96.4206C99.9133 98.3396 97.1855 98.9661 95.2145 99.1541C92.52 99.4126 90.1664 96.9141 90.4076 95.0265C90.6987 92.7003 94.9567 90.9693 97.3435 92.3635C98.3997 92.9822 99.9964 95.2145 99.9631 96.4206Z" fill="#231815"/>
<path d="M106.153 132.331C108.074 133.216 109.371 132.887 112.673 132.495C120.557 131.571 124.183 128.736 133.78 127.968C135.751 127.811 140.026 127.467 141.822 129.558C144.833 133.059 138.604 140.68 138.229 141.118C131.876 148.739 121.563 150.408 119.534 150.697C108.032 152.35 99.1838 147.643 96.822 146.288" fill="#FF6C6A"/>
<path d="M140.219 138.393C139.978 138.401 139.728 138.307 139.562 138.119C139.263 137.79 139.304 137.297 139.654 137.015C140.402 136.412 140.851 135.597 140.859 134.829C140.868 134.399 140.726 134.125 140.61 134.023C140.402 133.85 139.845 133.78 139.163 133.999C138.714 134.14 138.223 133.999 137.94 133.639C137.658 133.286 137.641 132.793 137.907 132.425C138.464 131.65 138.689 130.843 138.581 130.02C138.439 128.963 137.616 127.318 135.895 127.091C134.589 126.927 133.25 127.624 132.585 128.838C132.377 129.221 131.869 129.37 131.462 129.174C131.054 128.979 130.896 128.501 131.104 128.117C132.102 126.316 134.115 125.274 136.119 125.54C138.606 125.861 139.986 127.992 140.227 129.825C140.335 130.655 140.211 131.493 139.861 132.292C140.602 132.268 141.259 132.464 141.724 132.856C142.248 133.294 142.539 134.023 142.523 134.845C142.506 136.075 141.857 137.297 140.735 138.197C140.585 138.33 140.402 138.385 140.219 138.393Z" fill="#823737"/>
<path d="M45.6103 60.0148C45.6103 59.96 45.602 59.913 45.5937 59.8582C45.5771 59.8033 45.5604 59.7564 45.5438 59.7094C45.5355 59.6859 45.5355 59.6624 45.5189 59.6389C25.4348 26.5629 18.8399 24.2367 15.6464 25.3567C12.9934 26.2809 11.8624 30.1893 12.0869 37.6613C12.1036 38.0921 12.5028 38.4132 12.9435 38.4211C13.4009 38.4054 13.7669 38.0451 13.7502 37.6143C13.4924 29.0614 15.189 27.1817 16.2285 26.8214C18.5155 26.0225 25.1686 29.2964 43.9471 60.195C43.814 61.1505 43.1071 64.816 39.714 66.4373C36.0881 68.1683 31.3893 66.5783 29.7593 64.0641C28.0877 61.4716 29.5181 57.4928 30.566 54.587C31.4309 52.1825 32.0047 50.5925 30.7739 49.9346C29.9173 49.4803 29.0857 50.0678 28.279 50.6395C27.3642 51.2896 26.2165 52.0963 24.678 52.0963H24.6613C22.9149 52.0885 20.7693 51.0546 20.5281 49.684C20.2703 48.2585 21.8587 46.3082 24.5449 45.7835C24.994 45.6973 25.2851 45.2822 25.1936 44.8592C25.1021 44.4363 24.6697 44.17 24.2123 44.2483C20.5447 44.9611 18.4989 47.765 18.8898 49.9424C19.2973 52.2295 22.1997 53.6471 24.6613 53.6628H24.6863C26.782 53.6628 28.2873 52.5976 29.2853 51.8849C29.4433 51.7752 29.6345 51.6342 29.8009 51.5246C29.6928 52.1355 29.3019 53.232 28.9942 54.0779C27.8382 57.2735 26.2581 61.6596 28.3372 64.8787C29.7759 67.1109 33.0193 68.7322 36.3708 68.7322C37.7514 68.7322 39.1568 68.4581 40.4625 67.8393C45.1197 65.6228 45.6103 60.3203 45.6353 60.0931C45.627 60.0618 45.6187 60.0383 45.6103 60.0148Z" fill="#823737"/>
<path d="M134.669 26.4443C131.666 24.8935 124.789 26.2955 99.7813 56.2385C99.7314 56.3012 99.6981 56.3717 99.6732 56.45C99.6648 56.4657 99.6565 56.4813 99.6482 56.497C99.6233 56.5675 99.6233 56.6301 99.6233 56.7006C99.6233 56.732 99.6066 56.7633 99.6066 56.7946C99.6233 57.0218 100.114 62.3243 104.779 64.5408C106.085 65.1596 107.482 65.4337 108.871 65.4337C112.223 65.4337 115.466 63.8124 116.905 61.5802C118.984 58.3611 117.404 53.9828 116.248 50.7872C115.94 49.9413 115.549 48.8526 115.441 48.2339C115.607 48.3435 115.799 48.4767 115.957 48.5942C116.963 49.3069 118.468 50.3721 120.581 50.3721C123.034 50.3643 125.936 48.9388 126.352 46.6517C126.743 44.4744 124.697 41.6704 121.03 40.9576C120.581 40.8715 120.14 41.1456 120.048 41.5686C119.957 41.9915 120.248 42.4066 120.697 42.4928C123.383 43.0097 124.972 44.9678 124.714 46.3933C124.473 47.7639 122.327 48.7978 120.581 48.8056C119.042 48.7743 117.886 47.9989 116.963 47.3488C116.156 46.7771 115.325 46.1896 114.468 46.6439C113.237 47.3018 113.811 48.8918 114.676 51.2963C115.724 54.2021 117.163 58.181 115.483 60.7735C113.861 63.2876 109.162 64.8698 105.528 63.1467C102.201 61.5645 101.453 57.993 101.303 56.9591C124.647 29.0447 131.733 26.7106 133.87 27.8228C134.835 28.3241 136.224 30.4153 134.644 38.8429C134.56 39.2659 134.868 39.6731 135.317 39.7515C135.766 39.8298 136.199 39.54 136.282 39.117C137.662 31.7468 137.147 27.721 134.669 26.4443Z" fill="#823737"/>
<path d="M109.52 159.353C104.172 179.835 94.4255 193.079 75.672 193.079C56.9185 193.079 46.4565 179.929 41.6164 159.353C34.8385 130.507 56.8187 121.335 75.5639 121.335C94.3174 121.335 115.824 135.198 109.52 159.353Z" fill="#FF6C6A"/>
<path opacity="0.5" d="M83.9824 100.256C83.6746 100.256 83.3669 100.147 83.1258 99.9351C83.1008 99.9116 80.3481 97.5932 74.5183 97.8987C70.3019 98.118 69.4869 98.9091 68.8881 99.4886L68.7633 99.6061C68.281 100.068 67.4909 100.068 67.0003 99.6061C66.5096 99.1519 66.5096 98.4078 67.0003 97.9457L67.1084 97.8439C68.1729 96.8178 69.6033 95.7996 74.3852 95.549C79.9655 95.2592 83.6663 97.1781 84.8473 98.2276C85.3462 98.6741 85.3629 99.4182 84.8888 99.8881C84.6393 100.131 84.315 100.256 83.9824 100.256Z" fill="#231815"/>
<path d="M45.1632 112.734C36.065 112.734 26.3265 109.593 19.7566 102.677C8.57102 90.9126 11.0659 81.177 17.1369 75.9998C22.027 71.8252 31.0502 71.136 45.5457 73.8303C66.1288 77.6525 70.5116 84.1376 72.0834 89.9727C72.1249 90.1294 72.1665 90.2704 72.1998 90.4113C72.5823 91.7272 72.4493 92.7845 72.3329 93.7244L72.2913 94.1004C71.4014 101.627 65.0227 106.233 62.927 107.744C58.4195 110.971 51.966 112.734 45.1632 112.734ZM33.7198 79.3912C28.2809 79.3912 25.0209 81.0909 23.8732 82.4928C22.318 84.3883 19.8564 89.6986 25.104 98.1575C31.6074 108.645 50.2362 107.752 58.5775 102.716C60.3822 101.627 64.058 99.9433 65.1641 95.1421L65.4136 93.5443C65.4968 92.855 65.4718 92.1658 65.3138 91.4922C65.2556 91.2337 65.1974 91.0066 65.1807 90.9283C64.5653 88.6334 63.0517 83.9653 44.1486 80.4564C38.4019 79.3912 36.9549 79.3912 33.7198 79.3912Z" fill="#441812"/>
<path d="M89.9434 109.28C87.7645 107.769 81.1281 103.171 80.2049 95.6365L80.155 95.2606C80.0303 94.3285 79.8889 93.2711 80.2881 91.9475C80.3297 91.8143 80.3713 91.6655 80.4129 91.5089C82.0512 85.6738 86.6086 79.1964 108.032 75.3664C123.109 72.6721 132.507 73.3613 137.588 77.536C143.9 82.7131 146.495 92.4487 134.86 104.213C128.016 111.129 117.887 114.27 108.422 114.27C101.345 114.285 94.6339 112.523 89.9434 109.28ZM109.479 82.0161C89.8104 85.525 88.2386 90.193 87.5899 92.4879C87.565 92.5662 87.5151 92.7934 87.4485 93.0518C87.2822 93.7254 87.2489 94.4147 87.3404 95.0961L87.5982 96.7017C88.7459 101.503 92.5714 103.187 94.4509 104.276C103.133 109.304 122.519 110.205 129.288 99.7172C134.752 91.2582 132.191 85.9479 130.569 84.0525C129.371 82.6505 125.978 80.9509 120.323 80.9509C116.963 80.9509 115.466 80.9509 109.479 82.0161Z" fill="#441812"/>
<path d="M28.7532 167.537C28.7283 167.827 28.7449 167.968 28.7699 168.297C28.7948 168.626 28.9279 169.025 29.1857 169.339C32.4457 173.404 36.7287 174.876 41.8433 173.56C42.7331 173.333 43.3652 173.161 44.1802 172.847C44.4297 172.753 44.5627 172.558 44.6542 172.331C44.754 172.103 44.8538 171.931 44.9702 171.696C42.5418 171.837 41.9098 172.174 39.2153 172.683C34.8492 173.498 31.506 171.015 28.7532 167.537Z" fill="#0C1035"/>
<path d="M28.3252 163.762C28.3501 164.38 28.4167 164.976 28.5331 165.563C31.1777 170.051 34.3878 172.855 39.2363 171.923C42.172 171.359 42.5213 171.328 44.9746 170.787C44.8998 170.482 44.8915 170.169 44.958 169.816C42.5213 170.419 42.1554 170.27 39.2945 171.03C34.0302 172.424 31.0114 168.453 28.3252 163.762Z" fill="#0C1035"/>
<path d="M35.2354 168.619C33.306 167.608 29.4888 162.345 28.0999 159.917C28.0168 160.309 28.0916 161.021 28.1498 161.491C30.3371 166.136 34.0628 171.971 39.3105 170.013C42.0798 168.979 42.5538 169.59 44.9656 168.901C44.8908 168.642 44.9573 168.251 44.9656 167.961C43.9843 167.843 43.2774 168.164 42.2794 168.023C39.6015 167.648 38.379 170.264 35.2354 168.619Z" fill="#0C1035"/>
<path d="M46.065 153.925C46.4226 152.273 48.011 146.108 48.0776 142.568C48.1441 139.028 47.4954 133.044 47.8114 129.112C45.8571 129.856 44.2104 130.593 42.1979 131.486C32.1184 135.966 28.5424 145.404 27.7939 154.842C27.5943 157.332 28.0351 158.491 28.0351 159.494C28.0434 160.496 28.0683 159.792 28.0766 159.807C29.4987 162.47 33.2993 167.585 35.2287 168.619C38.3723 170.303 39.5948 167.647 42.2644 168.031C43.2624 168.172 43.9942 167.882 44.934 167.953C45.0088 167.961 44.9506 167.765 44.9506 167.694C45.1585 164.24 45.1169 160.41 44.8009 157.097C44.6678 155.742 44.2687 157.857 44.4766 158.092C45.2749 155.883 45.3415 157.262 46.065 153.925Z" fill="white"/>
<path d="M44.7369 175.746C45.1777 176.302 45.1029 176.568 46.0426 176.741C54.6002 178.276 62.6754 177.532 71.208 176.553C72.2226 176.435 72.1228 176.24 72.7715 175.746C68.3555 175.981 64.3387 176.96 59.8894 177.172C54.8247 177.407 49.7684 176.647 44.7369 175.746Z" fill="#0C1035"/>
<path d="M44.8175 174.327C44.7925 174.554 44.7676 174.782 44.7593 175.017C49.7907 175.808 54.8803 176.646 59.945 176.411C64.4775 176.199 68.5774 175.212 73.0517 174.97C73.0517 174.876 73.0683 174.821 73.0683 174.727C73.0683 174.711 73.0683 174.766 73.0683 174.695C73.0683 174.625 73.0517 174.359 73.06 174.257C68.6273 174.5 64.5856 175.463 60.0947 175.69C54.9884 175.956 49.8905 175.017 44.8175 174.327Z" fill="#0C1035"/>
<path d="M72.4762 128.391C72.3764 128.047 72.1851 127.702 71.944 127.545C70.289 126.488 68.9667 126.01 66.9874 125.673C61.6399 124.749 56.2343 124.593 50.7538 124.906C50.6041 124.914 50.4461 124.976 50.3463 125.156C49.5728 126.472 48.8493 127.843 47.8513 129.041C47.843 129.057 47.8098 129.081 47.8098 129.096C47.5104 133.059 48.1507 139.02 48.0842 142.568C48.0177 146.116 46.4292 152.272 46.0716 153.933C45.3398 157.277 45.2982 155.875 44.4666 158.107C44.5248 157.982 44.4998 158.06 44.5497 158.115C44.2587 160.809 43.2607 165.18 43.9925 167.451C44.8325 170.044 44.741 170.357 44.9822 172.644C45.0071 172.902 44.8408 173.302 44.8824 173.623C49.972 174.132 55.0284 175.244 60.1347 174.962C64.6089 174.712 68.634 173.78 73.0417 173.513C72.5178 159.564 72.1186 145.685 72.8837 131.743C72.9419 130.569 72.7922 129.472 72.4762 128.391Z" fill="#0C1035"/>
<path d="M28.141 161.491C28.1493 162.274 28.1992 163.019 28.324 163.755C31.0101 168.446 34.029 172.425 39.2933 171.023C42.1541 170.263 42.52 170.412 44.9567 169.809C44.8819 169.527 44.8819 169.245 44.9484 168.893C42.5367 169.582 42.071 168.971 39.2933 170.005C34.0623 171.979 30.3282 166.136 28.141 161.491Z" fill="white"/>
<path d="M28.5344 165.557C28.5511 166.23 28.6342 166.872 28.7506 167.538C31.5034 171.016 34.8549 173.499 39.2127 172.676C41.9072 172.167 42.5392 171.83 44.9676 171.689C44.9593 171.384 44.9094 171.11 44.9843 170.789C42.5226 171.329 42.1816 171.36 39.2459 171.924C34.3892 172.849 31.179 170.052 28.5344 165.557Z" fill="white"/>
<path d="M44.7601 175.018C44.7352 175.104 44.7601 175.08 44.7352 175.206C44.7102 175.331 44.6853 175.589 44.7518 175.746C49.75 176.655 54.8313 177.414 59.8876 177.179C64.3286 176.976 68.3704 175.989 72.7531 175.754C72.9111 175.503 73.0026 175.26 73.0525 174.979C68.5866 175.213 64.4783 176.2 59.9459 176.42C54.8812 176.647 49.7915 175.817 44.7601 175.018Z" fill="white"/>
<path d="M44.8761 173.607C44.8512 173.842 44.8262 174.085 44.8179 174.327C49.8993 175.009 54.9972 175.956 60.0952 175.69C64.5943 175.455 68.6278 174.5 73.0604 174.249C73.0438 173.991 73.0355 173.74 73.0438 173.489C68.6361 173.756 64.611 174.695 60.1367 174.938C55.0222 175.228 49.9741 174.116 44.8761 173.607Z" fill="white"/>
<path d="M128.528 127.106C128.736 127.043 128.927 126.98 129.093 126.918C129.343 126.831 129.626 126.855 129.842 127.012C132.628 129.009 136.711 132.635 138.765 138.267C139.123 139.246 139.389 140.201 139.58 141.11C139.639 141.392 139.522 141.674 139.281 141.838C139.04 142.011 138.765 142.183 138.474 142.371C137.626 140.068 136.745 138.22 135.439 135.98C133.326 132.353 130.873 129.212 128.528 127.106Z" fill="#0C1035"/>
<path d="M126.795 127.624C127.07 127.545 127.344 127.459 127.618 127.381C129.997 129.425 132.533 132.621 134.704 136.357C136.018 138.62 136.891 140.477 137.748 142.818C137.49 142.975 137.232 143.132 136.974 143.288C136.101 140.899 135.211 139.012 133.872 136.717C131.419 132.488 129.099 129.511 126.795 127.624Z" fill="#0C1035"/>
<path d="M129.707 133.264C128.759 131.916 127.312 130.107 125.208 128.149C125.374 128.079 125.607 127.992 125.873 127.906C128.218 129.708 130.605 132.707 133.15 137.086C134.497 139.404 135.387 141.292 136.26 143.735C136.002 143.9 135.761 144.064 135.561 144.213C135.162 143.336 134.63 142.224 133.99 140.939C132.285 137.517 131.254 135.464 129.707 133.264Z" fill="#0C1035"/>
<path d="M111.91 149.194C111.345 148.552 109.05 145.889 107.037 141.291C104.95 136.498 104.16 131.877 103.902 128.195C105.682 128.681 107.154 128.932 108.151 129.073C113.141 129.77 117.333 129.237 123.296 128.43C124.867 128.219 124.352 128.297 125.175 128.164C125.183 128.164 125.192 128.156 125.192 128.156C127.296 130.107 128.743 131.924 129.691 133.271C131.246 135.464 132.269 137.524 133.982 140.954C134.623 142.247 135.155 143.359 135.554 144.228C135.496 144.275 135.421 144.322 135.363 144.369C132.726 146.594 129.225 149.601 122.506 151.285C119.761 151.974 117.25 152.241 115.129 152.311C114.181 151.52 113.058 150.494 111.91 149.194Z" fill="white"/>
<path d="M107.085 176.442C106.828 176.905 106.304 177.202 105.73 177.179L84.6146 176.411C83.9909 176.388 83.442 176.082 83.1093 175.636C86.7935 175.745 90.486 175.879 94.1951 176.012C98.4115 176.161 102.769 176.317 107.085 176.442Z" fill="#0C1035"/>
<path d="M107.46 174.923C107.41 175.166 107.36 175.416 107.311 175.659C102.928 175.534 98.5118 175.377 94.2289 175.221C90.4033 175.08 86.5861 174.947 82.7855 174.829C82.7772 174.751 82.7606 174.665 82.7606 174.586V174.093C86.5612 174.202 90.3784 174.343 94.2039 174.484C98.5368 174.641 103.011 174.806 107.46 174.923Z" fill="#0C1035"/>
<path d="M82.1707 129.347C82.2955 129.01 82.4618 128.704 82.7362 128.516C84.5991 127.263 86.4786 126.95 87.6096 126.762C90.6618 126.261 95.5019 125.728 101.157 124.953C101.315 124.929 101.465 124.984 101.565 125.101C102.271 125.955 103.203 127.435 103.877 128.187C103.885 128.187 103.901 128.195 103.91 128.195C104.168 131.876 104.949 136.497 107.045 141.291C109.058 145.896 111.353 148.551 111.918 149.194C113.066 150.486 114.189 151.512 115.145 152.303C115.104 152.303 115.054 152.311 115.012 152.311C114.297 155.381 113.382 158.694 112.193 162.188C110.846 166.174 109.357 169.777 107.86 172.996C107.777 173.388 107.702 173.764 107.627 174.148C103.145 174.022 98.6205 173.858 94.2378 173.701C90.3956 173.56 86.5701 173.427 82.7612 173.309C82.7279 159.626 82.3869 146.069 81.7466 132.652C81.68 131.532 81.7882 130.404 82.1707 129.347Z" fill="#0C1035"/>
<path d="M125.874 127.914C126.149 127.82 126.457 127.726 126.798 127.624C129.101 129.512 131.421 132.488 133.883 136.717C135.214 139.012 136.112 140.9 136.985 143.289C136.736 143.445 136.494 143.594 136.27 143.743C135.388 141.299 134.507 139.412 133.16 137.093C130.606 132.715 128.22 129.707 125.874 127.914Z" fill="white"/>
<path d="M127.621 127.381C127.937 127.287 128.245 127.193 128.528 127.106C130.873 129.213 133.334 132.354 135.439 135.98C136.744 138.221 137.617 140.077 138.474 142.372C138.241 142.52 138 142.669 137.759 142.818C136.902 140.476 136.029 138.62 134.715 136.356C132.536 132.62 130 129.425 127.621 127.381Z" fill="white"/>
<path d="M107.302 175.667C107.286 175.73 107.277 175.792 107.261 175.855C107.253 176.074 107.186 176.27 107.086 176.45C102.762 176.325 98.4122 176.168 94.1874 176.02C90.4783 175.886 86.7858 175.753 83.1017 175.644C82.927 175.409 82.8189 175.142 82.7773 174.845C86.5779 174.962 90.3952 175.095 94.2207 175.236C98.512 175.385 102.928 175.542 107.302 175.667Z" fill="white"/>
<path d="M107.618 174.148C107.568 174.406 107.51 174.665 107.46 174.923C103.019 174.798 98.5367 174.641 94.1956 174.484C90.37 174.343 86.5528 174.21 82.7522 174.093C82.7522 173.834 82.7439 173.568 82.7439 173.31C86.5611 173.427 90.3867 173.56 94.2205 173.701C98.6116 173.858 103.136 174.022 107.618 174.148Z" fill="white"/>
<path d="M75.3738 119.58C73.1367 119.58 68.5128 118.491 68.5128 115.107C68.5128 112.82 70.7749 110.674 71.4735 110.071C72.014 109.601 73.9102 108.082 75.4404 108.184C77.4197 108.332 81.9189 111.896 81.9189 114.959C81.9189 118.021 78.0185 119.58 75.3738 119.58ZM75.2657 109.758C74.7917 109.758 73.7189 110.259 72.6045 111.238C71.1325 112.515 70.1844 114.042 70.1844 115.123C70.1844 117.175 73.5692 118.029 75.3822 118.029C77.0288 118.029 80.2639 117.105 80.2639 114.982C80.2639 112.664 76.3302 109.844 75.3156 109.766C75.299 109.758 75.2824 109.758 75.2657 109.758Z" fill="#823737"/>
<path d="M21.1091 138.871C22.6227 138.033 24.1363 137.203 25.6499 136.365C34.7813 137.015 45.7756 138.495 57.9009 141.675C66.999 144.056 74.9578 146.923 81.6941 149.781C83.7233 148.45 86.6756 146.539 90.3016 144.33C94.8257 141.565 102.286 137.038 112.373 132.096C115.592 130.514 119.999 128.446 125.364 126.198C127.609 126.347 129.854 126.496 132.091 126.637C115.292 136.075 98.4849 145.505 81.6858 154.943L21.1008 138.871H21.1091Z" fill="white"/>
<path d="M17.9 137.876C16.3449 137.633 15.1473 139.153 15.8376 140.484C19.5883 147.737 23.339 156.619 26.0917 167.005C27.6468 172.871 28.6698 178.385 29.3184 183.429C29.4182 184.205 30.017 184.831 30.8237 184.996C36.72 186.217 42.7494 187.565 48.9202 189.061C59.5735 191.637 69.6862 194.426 79.2335 197.316L85.8616 196.564L115.709 179.121C116.092 178.894 116.383 178.55 116.533 178.142C122.437 161.467 128.342 144.784 134.255 128.109C134.804 126.559 133.09 125.157 131.544 125.877C116.108 133.067 100.349 141.855 84.9718 148.755C84.7389 148.857 84.4894 148.912 84.2399 148.928C82.7347 149.006 81.3625 149.202 79.8489 149.272C79.7075 149.272 79.5578 149.272 79.4164 149.249C58.825 146.257 38.4665 141.103 17.9 137.876Z" fill="#281915"/>
<path d="M77.7341 153.361C76.5365 158.186 70.715 188.121 79.9629 192.123C80.8028 192.484 83.3061 192.726 84.6034 192.538C85.485 185.959 85.3768 181.111 86.1919 171.501C86.7823 164.483 86.8988 160.998 87.3562 154.951C94.9573 148.763 100.521 144.252 107.673 142.756C114.825 141.26 117.536 143.085 118.119 148.615C119.108 157.974 115.266 176.905 97.4523 185.771" stroke="#514E4D" stroke-width="2" stroke-miterlimit="10" stroke-linecap="round"/>
<defs>
<linearGradient id="paint0_linear_279_2559" x1="-97.6562" y1="-148.659" x2="94.5313" y2="120.873" gradientUnits="userSpaceOnUse">
<stop stop-color="white"/>
<stop offset="1" stop-color="#FF6C6A"/>
</linearGradient>
</defs>
</svg>
