<svg width="169" height="263" viewBox="0 0 169 263" fill="none" xmlns="http://www.w3.org/2000/svg">
<ellipse cx="84.5" cy="252" rx="50.5" ry="11" fill="#5C5C5C"/>
<path d="M121.428 157.893C123.798 157.49 124.754 156.319 127.508 153.771C134.085 147.699 135.425 142.556 143.67 135.51C145.366 134.058 149.039 130.919 152.14 131.772C157.34 133.196 156.946 144.692 156.918 145.366C156.421 156.947 148.139 165.342 146.49 166.953C137.112 176.116 125.737 177.353 122.636 177.587" fill="url(#paint0_linear_130_1933)"/>
<path d="M154.651 146.041C154.379 146.041 154.098 145.938 153.91 145.713C153.573 145.32 153.62 144.73 154.014 144.392C154.857 143.671 155.363 142.697 155.372 141.778C155.372 141.263 155.222 140.935 155.091 140.813C154.857 140.607 154.229 140.523 153.461 140.785C152.955 140.954 152.402 140.785 152.083 140.354C151.765 139.933 151.746 139.342 152.046 138.902C152.674 137.975 152.927 137.01 152.805 136.026C152.646 134.761 151.718 132.793 149.779 132.522C148.308 132.325 146.799 133.159 146.05 134.611C145.816 135.07 145.244 135.248 144.785 135.014C144.326 134.78 144.148 134.208 144.382 133.749C145.506 131.594 147.774 130.348 150.032 130.667C152.833 131.051 154.388 133.599 154.66 135.792C154.782 136.785 154.641 137.787 154.248 138.743C155.082 138.715 155.822 138.949 156.346 139.417C156.937 139.942 157.265 140.813 157.246 141.797C157.227 143.268 156.496 144.73 155.232 145.807C155.063 145.948 154.857 146.023 154.651 146.032V146.041Z" fill="#823737"/>
<path fill-rule="evenodd" clip-rule="evenodd" d="M117.059 208.987C119.631 203.649 121.702 197.477 123.386 190.629H123.376C130.488 161.725 106.25 145.151 85.1314 145.151C64.0133 145.151 39.2506 156.122 46.8864 190.629C48.5738 198.246 50.8677 205.011 53.8571 210.724C48.1122 218.17 45.1917 220.968 43.8228 221.361L43.7913 221.37C43.529 221.443 42.4879 221.735 41.3868 222.522C40.0564 223.478 38.9509 224.949 38.5855 226.205C36.9177 231.976 48.3575 242.844 52.5736 246.845C52.9109 247.163 53.4637 247.679 54.232 248.007C57.6236 249.431 60.7529 245.252 62.5705 242.713C65.9955 237.959 69.1455 232.998 71.8536 228.45C75.8292 230.102 80.2827 230.973 85.2532 230.973C88.6764 230.973 91.8333 230.557 94.7458 229.756C94.8893 233.183 95.1233 236.742 95.4845 240.286C95.7937 243.303 96.3933 248.335 99.9068 248.803C100.703 248.906 101.415 248.747 101.846 248.644L101.878 248.636C107.346 247.337 122.049 243.845 123.423 238.206C123.723 236.988 123.508 235.208 122.852 233.756C122.33 232.59 121.614 231.844 121.409 231.631C121.394 231.615 121.381 231.602 121.372 231.592C120.158 230.313 118.706 224.513 117.059 208.987Z" fill="url(#paint1_linear_130_1933)"/>
<path d="M140.953 137.131C141.206 137.01 141.272 136.813 141.553 136.682C141.834 136.55 141.984 136.344 142.424 136.532C148.055 138.968 152.234 143.474 155.485 148.712C156.047 149.62 156.703 151.138 157.162 152.216C157.302 152.544 157.265 152.947 157.049 153.246C156.834 153.546 156.571 153.883 156.328 154.165C154.819 151.588 153.011 148.674 151.231 146.398C148.355 142.715 145.179 139.052 140.953 137.131Z" fill="#0C1035"/>
<path d="M139.182 138.471C139.473 138.275 139.754 138.059 140.035 137.844C144.485 139.774 147.577 143.156 150.556 147.044C152.365 149.396 154.164 152.328 155.672 154.98C155.438 155.28 155.204 155.57 154.96 155.833C153.423 153.247 151.456 150.117 149.769 147.803C146.678 143.531 143.858 140.57 139.182 138.471Z" fill="#0C1035"/>
<path d="M144.129 144.261C142.358 142.434 140.025 141.001 137.514 140.158C137.711 139.886 137.973 139.671 138.198 139.408C143.258 140.86 146.05 144.28 149.104 148.618C150.716 150.914 152.814 154.137 154.295 156.722C154.098 157.069 153.864 157.35 153.676 157.669C152.805 156.395 151.915 155.036 151.062 153.781C148.776 150.436 147.024 147.241 144.138 144.261H144.129Z" fill="#0C1035"/>
<path d="M127.077 176.754C125.943 175.236 122.983 170.261 121.418 166.701C119.853 163.141 116.687 156.498 116.134 151.991C117.305 151.841 118.739 151.626 119.863 151.195C125.484 149.04 130.797 145.311 135.256 141.882C136.437 140.973 136.868 140.645 137.346 140.28C137.824 139.914 137.458 140.186 137.477 140.186C140.082 140.973 142.358 142.435 144.138 144.262C147.033 147.241 148.785 150.445 151.062 153.781C151.915 155.036 152.852 156.385 153.648 157.669C153.714 157.772 153.573 157.819 153.498 157.95C149.863 164.387 146.312 169.127 140.438 174.131C138.039 176.173 134.141 178.909 131.284 180.783C129.241 178.862 129.363 179.799 127.077 176.745V176.754Z" fill="white"/>
<path d="M120.819 214.165C120.341 214.699 120.097 215.092 119.245 215.045C111.459 214.614 103.42 214.277 95.6249 214.033C94.6974 214.005 94.4444 213.64 93.8635 213.087C98.0797 213.2 102.24 213.284 106.446 213.453C111.234 213.64 116.012 213.93 120.819 214.165Z" fill="#0C1035"/>
<path d="M121.278 212.272C121.212 212.582 121.147 212.891 121.081 213.191C116.228 212.966 111.356 212.666 106.503 212.469C102.165 212.301 97.8455 212.216 93.5076 212.085C93.4982 211.973 93.4795 211.898 93.4795 211.776C93.4795 211.757 93.4795 211.823 93.4795 211.738C93.4795 211.654 93.4795 211.307 93.4795 211.167C97.8174 211.279 102.146 211.373 106.493 211.542C111.421 211.738 116.35 212.038 121.278 212.263V212.272Z" fill="#0C1035"/>
<path d="M92.2146 158.24C92.2896 157.828 92.4864 157.425 92.7206 157.229C94.3133 155.87 96.0935 154.989 97.9486 154.258C102.942 152.282 107.767 150.323 112.883 148.768C113.024 148.731 113.22 148.749 113.342 148.881C114.279 149.855 115.104 150.998 116.059 151.935C116.069 151.944 116.106 151.963 116.115 151.972C116.696 156.516 119.844 163.131 121.418 166.701C122.992 170.261 125.953 175.236 127.077 176.754C129.354 179.818 129.27 178.862 131.256 180.811C131.106 180.717 131.134 180.811 131.04 180.858C130.029 185.777 128.445 191.801 127.171 196.382C125.719 201.601 123.939 205.246 121.812 209.884C121.568 210.408 121.662 210.783 121.475 211.308C116.509 211.073 111.525 210.774 106.549 210.577C102.193 210.399 97.8268 210.314 93.4701 210.183C94.2103 193.975 94.6038 178.122 92.2053 162.044C92.0085 160.705 91.9804 159.515 92.2053 158.24H92.2146Z" fill="url(#paint2_linear_130_1933)"/>
<path d="M138.198 139.409C138.526 139.109 138.845 138.781 139.182 138.472C143.867 140.561 146.678 143.522 149.769 147.794C151.446 150.118 153.414 153.238 154.96 155.824C154.744 156.142 154.529 156.442 154.295 156.723C152.814 154.128 150.716 150.905 149.104 148.619C146.05 144.281 143.258 140.861 138.198 139.409Z" fill="white"/>
<path d="M140.025 137.843C140.335 137.618 140.653 137.384 140.953 137.141C145.169 139.061 148.355 142.725 151.222 146.407C153.002 148.684 154.81 151.597 156.318 154.174C156.112 154.464 155.887 154.727 155.663 154.98C154.145 152.328 152.346 149.396 150.547 147.044C147.558 143.156 144.476 139.773 140.025 137.843Z" fill="white"/>
<path d="M121.081 213.19C121.062 213.321 121.053 213.274 121.034 213.443C121.015 213.612 120.931 213.968 120.819 214.155C116.031 213.93 111.234 213.64 106.456 213.443C102.258 213.274 98.0796 213.19 93.8822 213.078C93.6855 212.769 93.5731 212.45 93.5168 212.085C97.8548 212.206 102.174 212.291 106.512 212.469C111.365 212.665 116.237 212.965 121.09 213.181L121.081 213.19Z" fill="white"/>
<path d="M121.484 211.298C121.418 211.626 121.343 211.944 121.278 212.272C116.35 212.048 111.421 211.738 106.493 211.551C102.146 211.382 97.8267 211.289 93.4794 211.167C93.4794 210.839 93.47 210.52 93.4794 210.192C97.836 210.314 102.202 210.408 106.559 210.577C111.534 210.773 116.509 211.073 121.484 211.298Z" fill="white"/>
<path d="M47.1019 155.045C44.7315 154.642 43.7758 153.471 41.0213 150.922C34.4441 144.851 33.1043 139.707 24.8595 132.662C23.1636 131.209 19.4909 128.071 16.3897 128.923C11.1898 130.347 11.5834 141.843 11.6115 142.518C12.108 154.098 20.3904 162.493 22.0393 164.105C31.4179 173.268 42.7921 174.504 45.8933 174.739" fill="url(#paint3_linear_130_1933)"/>
<path d="M13.8695 143.193C14.1412 143.193 14.4222 143.09 14.6096 142.865C14.9469 142.472 14.9001 141.881 14.5066 141.544C13.6633 140.823 13.1574 139.848 13.148 138.93C13.148 138.415 13.2979 138.087 13.4291 137.965C13.6633 137.759 14.2911 137.675 15.0593 137.937C15.5653 138.106 16.1181 137.937 16.4366 137.506C16.7552 137.084 16.7739 136.494 16.4741 136.054C15.8464 135.126 15.5934 134.161 15.7152 133.177C15.8745 131.913 16.802 129.945 18.7414 129.673C20.2124 129.477 21.7208 130.311 22.4704 131.763C22.7046 132.222 23.2761 132.4 23.7352 132.166C24.1943 131.931 24.3723 131.36 24.1381 130.901C23.0138 128.746 20.7464 127.5 18.4885 127.818C15.6871 128.202 14.1318 130.751 13.8601 132.943C13.7383 133.936 13.8788 134.939 14.2723 135.895C13.4385 135.866 12.6983 136.101 12.1736 136.569C11.5834 137.094 11.2555 137.965 11.2742 138.949C11.2929 140.42 12.0237 141.881 13.2886 142.959C13.4572 143.099 13.6633 143.174 13.8695 143.184V143.193Z" fill="#823737"/>
<path d="M27.5671 134.283C27.3142 134.161 27.2486 133.964 26.9675 133.833C26.6864 133.702 26.5365 133.496 26.0962 133.683C20.4653 136.119 16.2867 140.626 13.0356 145.863C12.4734 146.772 11.8176 148.29 11.3585 149.367C11.2179 149.695 11.2554 150.098 11.4709 150.398C11.6864 150.698 11.9487 151.035 12.1923 151.316C13.7008 148.74 15.509 145.826 17.2892 143.549C20.1655 139.867 23.3416 136.204 27.5671 134.283Z" fill="#0C1035"/>
<path d="M29.3474 135.623C29.057 135.426 28.7759 135.21 28.4948 134.995C24.0445 136.925 20.9526 140.307 17.9732 144.196C16.165 146.547 14.3661 149.48 12.8577 152.131C13.0919 152.431 13.3261 152.722 13.5697 152.984C15.1063 150.398 17.0738 147.269 18.7602 144.954C21.8521 140.682 24.6722 137.721 29.3474 135.623Z" fill="#0C1035"/>
<path d="M24.3911 141.413C26.1619 139.586 28.4948 138.153 31.0058 137.309C30.809 137.038 30.5467 136.822 30.3218 136.56C25.2625 138.012 22.4705 141.432 19.4161 145.77C17.8046 148.065 15.7059 151.288 14.2256 153.874C14.4223 154.221 14.6566 154.502 14.844 154.821C15.7153 153.546 16.6054 152.188 17.458 150.932C19.744 147.587 21.4961 144.393 24.3818 141.413H24.3911Z" fill="#0C1035"/>
<path d="M41.4429 173.906C42.5766 172.388 45.5372 167.413 47.1019 163.853C48.6665 160.292 51.8333 153.649 52.3861 149.143C51.215 148.993 49.7815 148.777 48.6572 148.346C43.0357 146.191 37.7234 142.463 33.2636 139.033C32.0831 138.125 31.6521 137.797 31.1743 137.431C30.6965 137.066 31.0619 137.338 31.0431 137.338C28.4385 138.125 26.1618 139.586 24.3817 141.413C21.4866 144.393 19.7345 147.597 17.4578 150.932C16.6052 152.188 15.6683 153.537 14.8719 154.821C14.8064 154.924 14.9469 154.97 15.0219 155.102C18.6571 161.538 22.208 166.279 28.0825 171.282C30.481 173.325 34.3786 176.061 37.2362 177.934C39.2786 176.014 39.1568 176.951 41.4429 173.896V173.906Z" fill="white"/>
<path d="M47.7015 211.316C48.1794 211.85 48.423 212.244 49.2756 212.197C57.0613 211.766 65.1001 211.429 72.8952 211.185C73.8228 211.157 74.0758 210.791 74.6566 210.239C70.4405 210.351 66.2806 210.435 62.0738 210.604C57.2862 210.791 52.5079 211.082 47.7015 211.316Z" fill="#0C1035"/>
<path d="M47.2518 209.424C47.3174 209.733 47.383 210.042 47.4486 210.342C52.3018 210.117 57.1738 209.817 62.027 209.621C66.3649 209.452 70.6841 209.368 75.0221 209.237C75.0314 209.124 75.0502 209.049 75.0502 208.927C75.0502 208.909 75.0502 208.974 75.0502 208.89C75.0502 208.806 75.0502 208.459 75.0502 208.318C70.7122 208.431 66.3837 208.525 62.0364 208.693C57.1082 208.89 52.18 209.19 47.2518 209.415V209.424Z" fill="#0C1035"/>
<path d="M76.3056 155.391C76.2307 154.979 76.0339 154.576 75.7997 154.379C74.2069 153.021 72.4268 152.14 70.5717 151.409C65.5779 149.432 60.1344 148.57 55.0189 147.024C54.8783 146.987 54.6816 147.006 54.5598 147.137C53.6229 148.111 53.4261 148.149 52.4611 149.086C52.4517 149.095 52.4142 149.114 52.4049 149.123C51.824 153.667 48.6759 160.282 47.1019 163.851C45.5279 167.412 42.5672 172.387 41.4429 173.905C39.1662 176.968 39.2505 176.013 37.2643 177.962C37.4142 177.868 37.3861 177.962 37.4798 178.008C38.4916 182.927 40.075 188.952 41.3492 193.533C42.8015 198.752 44.5816 202.396 46.7084 207.034C46.952 207.559 46.8583 207.934 47.0457 208.458C52.0114 208.224 56.9958 207.924 61.9708 207.727C66.3274 207.549 70.6935 207.465 75.0501 207.334C74.31 191.125 73.9165 175.273 76.315 159.195C76.5117 157.855 76.5398 156.665 76.315 155.391H76.3056Z" fill="url(#paint4_linear_130_1933)"/>
<path d="M30.3217 136.56C29.9938 136.26 29.6753 135.932 29.338 135.623C24.6534 137.713 21.8426 140.673 18.7508 144.945C17.0737 147.269 15.1062 150.389 13.5603 152.975C13.7758 153.293 13.9913 153.593 14.2255 153.874C15.7058 151.279 17.8045 148.056 19.416 145.77C22.4704 141.432 25.2624 138.012 30.3217 136.56Z" fill="white"/>
<path d="M28.4946 134.996C28.1855 134.771 27.8669 134.536 27.5671 134.293C23.351 136.214 20.1655 139.877 17.2985 143.559C15.5183 145.836 13.7101 148.75 12.2017 151.326C12.4078 151.617 12.6326 151.879 12.8575 152.132C14.3753 149.48 16.1742 146.548 17.9731 144.196C20.9618 140.308 24.0443 136.926 28.4946 134.996Z" fill="white"/>
<path d="M47.4393 210.342C47.458 210.473 47.4674 210.427 47.4861 210.595C47.5049 210.764 47.5892 211.12 47.7016 211.307C52.4893 211.082 57.2863 210.792 62.0646 210.595C66.262 210.427 70.4406 210.342 74.638 210.23C74.8348 209.921 74.9472 209.602 75.0034 209.237C70.6655 209.358 66.3463 209.443 62.0084 209.621C57.1551 209.818 52.2832 210.117 47.4299 210.333L47.4393 210.342Z" fill="white"/>
<path d="M47.0457 208.45C47.1112 208.777 47.1862 209.096 47.2518 209.424C52.18 209.199 57.1081 208.89 62.0363 208.703C66.3836 208.534 70.7028 208.44 75.0501 208.318C75.0501 207.99 75.0595 207.672 75.0501 207.344C70.6934 207.466 66.3274 207.559 61.9707 207.728C56.9957 207.925 52.0207 208.225 47.0457 208.45Z" fill="white"/>
<path d="M161.481 3.13335C153.301 -1.05468 140.035 9.64497 130.516 17.3277C111.656 32.5527 102.727 51.1974 98.5855 62.1031C94.1727 61.3161 89.6192 60.8852 85.0096 60.8852C79.4912 60.8852 74.0571 61.4942 68.8384 62.6091C65.1376 51.3661 57.052 32.5433 39.1569 16.5688C29.9657 8.37076 17.1675 -3.0503 8.73521 0.753594C-4.2692 6.61872 -1.75826 46.3722 9.71897 75.5199C14.7221 88.2245 21.0088 97.8467 25.7684 104.218C25.8152 105.108 25.8902 106.007 26.012 106.916C30.3218 136.954 50.7185 154.249 84.0071 154.484C115.975 154.708 139.997 134.152 144.007 106.916C144.401 104.255 144.391 101.641 144.063 99.0928C148.205 93.4432 152.805 86.1633 156.834 77.2719C169.66 48.9113 174.101 9.58873 161.49 3.13335H161.481Z" fill="url(#paint5_linear_130_1933)"/>
<path d="M51.3932 71.8001C51.3932 71.7345 51.3932 71.6782 51.3744 71.6127C51.3557 71.5471 51.337 71.4909 51.3182 71.4346C51.3088 71.4065 51.3088 71.3784 51.2901 71.3503C28.6636 31.7841 21.2338 29.0015 17.6361 30.3413C14.6473 31.4469 13.3731 36.1221 13.626 45.0603C13.6448 45.5756 14.0945 45.9598 14.5911 45.9691C15.1064 45.9504 15.5186 45.5194 15.4999 45.0041C15.2094 34.7729 17.1207 32.5243 18.2919 32.0934C20.8684 31.1377 28.3638 35.054 49.5193 72.0155C49.3694 73.1586 48.5731 77.5433 44.7504 79.4828C40.6655 81.5534 35.3719 79.6514 33.5355 76.6439C31.6523 73.5427 33.2638 68.7831 34.4443 65.3071C35.4187 62.4308 36.0652 60.5289 34.6786 59.7419C33.7135 59.1985 32.7766 59.9011 31.8678 60.5851C30.8372 61.3627 29.5443 62.3277 27.811 62.3277H27.7922C25.8247 62.3277 23.4075 61.0817 23.1358 59.4421C22.8453 57.7369 24.6348 55.4039 27.6611 54.7762C28.167 54.6731 28.4949 54.1765 28.3919 53.6706C28.2888 53.1647 27.8016 52.8461 27.2863 52.9398C23.1545 53.7924 20.8497 57.1466 21.29 59.7512C21.7491 62.487 25.019 64.1828 27.7922 64.2016H27.8203C30.1814 64.2016 31.8772 62.9274 33.0015 62.0748C33.1795 61.9436 33.395 61.775 33.5824 61.6438C33.4606 62.3746 33.0202 63.6863 32.6736 64.6982C31.3713 68.5208 29.5911 73.7676 31.9334 77.6183C33.5543 80.2885 37.2082 82.228 40.984 82.228C42.5393 82.228 44.1227 81.9001 45.5937 81.1599C50.8404 78.5084 51.3932 72.1654 51.4213 71.8937C51.4213 71.8656 51.4119 71.8375 51.4119 71.8094L51.3932 71.8001Z" fill="#823737"/>
<path d="M151.727 31.6339C148.345 29.7788 140.597 31.4558 112.424 67.2743C112.368 67.3493 112.33 67.4336 112.302 67.5273C112.302 67.5461 112.283 67.5648 112.274 67.5835C112.246 67.6679 112.246 67.7428 112.246 67.8271C112.246 67.8646 112.227 67.9021 112.227 67.9396C112.246 68.2113 112.799 74.5542 118.055 77.2057C119.526 77.9458 121.1 78.2738 122.664 78.2738C126.44 78.2738 130.094 76.3344 131.715 73.6641C134.057 69.8134 132.277 64.576 130.975 60.7533C130.628 59.7415 130.188 58.4391 130.066 57.699C130.253 57.8301 130.469 57.9894 130.647 58.13C131.781 58.9826 133.476 60.2568 135.856 60.2568C138.62 60.2474 141.89 58.5422 142.358 55.8064C142.799 53.2018 140.494 49.8476 136.362 48.995C135.856 48.8919 135.36 49.2199 135.256 49.7258C135.153 50.2318 135.481 50.7283 135.987 50.8314C139.014 51.4497 140.803 53.792 140.513 55.4972C140.241 57.1368 137.824 58.3736 135.856 58.383C134.123 58.3455 132.82 57.4179 131.781 56.6402C130.872 55.9563 129.935 55.2536 128.97 55.7971C127.583 56.5841 128.23 58.486 129.204 61.3624C130.384 64.8383 132.005 69.5979 130.113 72.6991C128.286 75.7066 122.992 77.5992 118.898 75.538C115.15 73.6454 114.307 69.373 114.138 68.1363C140.438 34.7444 148.42 31.9524 150.828 33.2828C151.915 33.8824 153.48 36.384 151.699 46.4653C151.606 46.9712 151.952 47.4585 152.458 47.5522C152.964 47.6459 153.451 47.2992 153.545 46.7933C155.1 37.9956 154.519 33.1798 151.737 31.6432L151.727 31.6339Z" fill="#823737"/>
<path opacity="0.5" d="M92.402 115.976C92.0554 115.976 91.7087 115.845 91.437 115.592C91.4089 115.563 88.3077 112.79 81.7399 113.156C76.9897 113.418 76.0716 114.364 75.397 115.058L75.2564 115.198C74.713 115.751 73.823 115.751 73.2702 115.198C72.7174 114.655 72.7174 113.765 73.2702 113.212L73.392 113.09C74.5912 111.863 76.2027 110.645 81.59 110.345C87.8767 109.998 92.046 112.294 93.3764 113.549C93.9386 114.083 93.9573 114.973 93.4233 115.535C93.1516 115.826 92.7768 115.976 92.402 115.976Z" fill="#231815"/>
<path d="M48.6666 130.901C38.4168 130.901 27.4455 127.144 20.0438 118.871C7.4423 104.799 10.2531 93.1529 17.0925 86.9599C22.6016 81.9661 32.7672 81.1416 49.0976 84.3646C72.2863 88.9368 77.2239 96.6945 78.9947 103.675C79.0415 103.862 79.0883 104.031 79.1258 104.199C79.5568 105.783 79.4069 107.047 79.2757 108.162L79.2195 108.612C78.217 117.616 71.0308 123.125 68.6698 124.933C63.6011 128.821 56.3306 130.92 48.6666 130.92V130.901ZM35.7747 91.0261C29.6472 91.0261 25.9745 93.0592 24.6816 94.7363C22.9295 97.0037 20.1563 103.356 26.0682 113.475C33.3949 126.02 54.3818 124.952 63.7791 118.928C65.8122 117.625 69.9534 115.611 71.1995 109.868L71.4806 107.956C71.5743 107.141 71.5462 106.317 71.3681 105.511C71.3026 105.202 71.237 104.93 71.2182 104.836C70.5249 102.091 68.8197 96.5071 47.5236 92.3097C41.0495 91.0355 39.4286 91.0261 35.7747 91.0261Z" fill="url(#paint6_linear_130_1933)"/>
<path d="M53.3607 113.756C52.9765 113.756 52.6111 113.521 52.48 113.137C52.302 112.65 52.5549 112.116 53.0515 111.938C54.8129 111.31 58.9072 110.195 63.1327 109.98C64.6505 109.905 65.8498 110.008 66.8242 110.092C65.1471 108.678 63.4419 107.713 61.7273 107.216C54.7379 105.183 49.0977 105.052 47.8422 105.23C47.3082 105.314 46.8585 104.949 46.7835 104.433C46.7086 103.918 47.0646 103.45 47.5799 103.375C49.182 103.14 55.1127 103.337 62.2614 105.417C64.6599 106.12 67.0303 107.591 69.2883 109.793C69.6818 110.177 69.8036 110.748 69.5881 111.245C69.3726 111.76 68.876 112.079 68.2951 112.069C67.8173 112.06 67.3207 112.013 66.7773 111.966C65.7936 111.882 64.6786 111.779 63.2264 111.854C59.2164 112.051 55.2251 113.147 53.6792 113.699C53.5762 113.737 53.4731 113.756 53.3607 113.756Z" fill="#231815"/>
<path d="M116.125 114.224C116.022 114.224 115.909 114.206 115.806 114.168C114.26 113.615 110.269 112.519 106.259 112.322C104.807 112.247 103.692 112.35 102.708 112.435C102.165 112.482 101.668 112.528 101.19 112.538C100.609 112.538 100.113 112.229 99.8972 111.713C99.6911 111.217 99.8035 110.645 100.197 110.261C102.464 108.059 104.825 106.588 107.224 105.886C114.373 103.806 120.294 103.609 121.905 103.843C122.421 103.918 122.767 104.396 122.702 104.902C122.636 105.408 122.149 105.773 121.643 105.698C120.378 105.52 114.747 105.651 107.758 107.685C106.053 108.181 104.338 109.146 102.661 110.561C103.636 110.477 104.835 110.383 106.353 110.449C110.569 110.655 114.672 111.779 116.434 112.407C116.921 112.585 117.174 113.119 117.005 113.606C116.865 113.99 116.509 114.224 116.125 114.224Z" fill="#231815"/>
<path d="M78.5357 133.487C72.1834 133.487 66.3933 131.088 63.2827 129.524C62.8236 129.289 62.6363 128.727 62.8705 128.268C63.1047 127.809 63.6669 127.622 64.1259 127.856C67.5082 129.561 74.2353 132.306 81.1778 131.463C83.4358 131.191 84.6444 130.376 86.0404 129.43L86.8274 128.896L87.3427 129.205C87.8581 129.524 92.5333 132.231 97.5739 129.945C101.753 128.053 104.919 125.411 105.725 124.492C106.072 124.099 106.662 124.061 107.046 124.408C107.44 124.745 107.477 125.345 107.13 125.729C106.203 126.778 102.839 129.617 98.3515 131.65C93.2641 133.955 88.5233 131.95 86.9024 131.107C85.497 132.053 83.998 133.009 81.4027 133.318C80.4377 133.431 79.482 133.487 78.5357 133.487Z" fill="#823737"/>
<path d="M88.242 139.183C84.5599 139.183 81.1402 137.019 79.5193 133.571C79.3038 133.103 79.5006 132.55 79.969 132.325C80.4375 132.1 80.9903 132.306 81.2151 132.775C82.6299 135.792 85.7685 137.609 89.0009 137.263C91.9428 136.963 94.4819 134.92 95.4844 132.063C95.653 131.576 96.1871 131.313 96.6743 131.491C97.1615 131.66 97.4144 132.194 97.2458 132.681C96.009 136.223 92.8423 138.752 89.1789 139.127C88.8604 139.155 88.5418 139.174 88.2233 139.174L88.242 139.183Z" fill="#823737"/>
<path d="M99.1195 126.77C96.6648 124.961 89.1882 119.462 88.1482 110.449L88.092 109.999C87.9514 108.884 87.7922 107.619 88.2419 106.036C88.2887 105.876 88.3356 105.698 88.3824 105.511C90.2281 98.5309 95.3624 90.7826 119.497 86.2011C136.484 82.9781 147.071 83.8025 152.795 88.7963C159.907 94.9893 162.83 106.635 149.722 120.708C142.012 128.981 130.6 132.738 119.938 132.738C111.965 132.738 104.404 130.639 99.1195 126.751V126.77ZM121.128 94.1555C98.9696 98.3529 97.1988 103.937 96.468 106.682C96.4399 106.776 96.3837 107.048 96.3087 107.357C96.1213 108.162 96.0839 108.987 96.1869 109.802L96.4774 111.713C97.7703 117.457 102.08 119.471 104.198 120.773C113.979 126.788 135.819 127.866 143.445 115.321C149.601 105.202 146.715 98.8494 144.888 96.5821C143.539 94.905 139.716 92.8719 133.345 92.8719C129.551 92.8719 127.864 92.8719 121.118 94.1555H121.128Z" fill="url(#paint7_linear_130_1933)"/>
<path d="M78.781 121.835C78.8369 124.157 80.8487 126.12 83.0562 126.347C86.0739 126.66 88.7097 123.636 88.4396 121.351C88.1136 118.536 83.3449 116.441 80.6718 118.128C79.4796 118.877 78.7345 120.375 78.7717 121.835H78.781Z" fill="url(#paint8_radial_130_1933)"/>
<defs>
<linearGradient id="paint0_linear_130_1933" x1="107.684" y1="102.971" x2="164.084" y2="156.729" gradientUnits="userSpaceOnUse">
<stop stop-color="white"/>
<stop offset="1" stop-color="#FF6C6A"/>
</linearGradient>
<linearGradient id="paint1_linear_130_1933" x1="5.04711" y1="80.5021" x2="132.39" y2="211.148" gradientUnits="userSpaceOnUse">
<stop stop-color="white"/>
<stop offset="1" stop-color="#FF6C6A"/>
</linearGradient>
<linearGradient id="paint2_linear_130_1933" x1="124.925" y1="148.751" x2="94.9072" y2="210.758" gradientUnits="userSpaceOnUse">
<stop stop-color="#232F9B"/>
<stop offset="1" stop-color="#0C1035"/>
</linearGradient>
<linearGradient id="paint3_linear_130_1933" x1="-2.14966" y1="100.122" x2="54.2505" y2="153.881" gradientUnits="userSpaceOnUse">
<stop stop-color="white"/>
<stop offset="1" stop-color="#FF6C6A"/>
</linearGradient>
<linearGradient id="paint4_linear_130_1933" x1="70.1423" y1="147.007" x2="40.9822" y2="208.327" gradientUnits="userSpaceOnUse">
<stop stop-color="#232F9B"/>
<stop offset="1" stop-color="#0C1035"/>
</linearGradient>
<linearGradient id="paint5_linear_130_1933" x1="-65.4146" y1="-96.3235" x2="116.158" y2="148.737" gradientUnits="userSpaceOnUse">
<stop stop-color="white"/>
<stop offset="1" stop-color="#FF6C6A"/>
</linearGradient>
<linearGradient id="paint6_linear_130_1933" x1="-13.0647" y1="47.4791" x2="48.9941" y2="128.111" gradientUnits="userSpaceOnUse">
<stop stop-color="#AA3C2D"/>
<stop offset="1" stop-color="#441812"/>
</linearGradient>
<linearGradient id="paint7_linear_130_1933" x1="62.6165" y1="49.329" x2="123.972" y2="132.31" gradientUnits="userSpaceOnUse">
<stop stop-color="#AA3C2D"/>
<stop offset="1" stop-color="#441812"/>
</linearGradient>
<radialGradient id="paint8_radial_130_1933" cx="0" cy="0" r="1" gradientUnits="userSpaceOnUse" gradientTransform="translate(82.15 120.021) rotate(77.0103) scale(6.51576 7.15477)">
<stop stop-color="#895E52"/>
<stop offset="1" stop-color="#231815"/>
</radialGradient>
</defs>
</svg>
