<svg width="150" height="216" viewBox="0 0 150 216" fill="none" xmlns="http://www.w3.org/2000/svg">
<path fill-rule="evenodd" clip-rule="evenodd" d="M36.6347 170.61C36.8349 172.879 37.2059 175.278 37.7638 177.813C42.8401 200.831 53.7804 215.534 73.5603 215.534C90.2058 215.534 100.095 205.059 106.15 188.074C106.936 188.677 107.843 189.196 108.831 189.628C112.682 191.291 117.759 187.002 118.984 185.952C126.598 179.563 133.512 164.334 125.198 152.607C120.022 145.295 109.524 142.61 99.5695 140.064L99.5694 140.064C98.9196 139.898 98.2721 139.733 97.6285 139.566L98.3797 143.968C91.3222 138.346 82.1112 135.366 73.4728 135.366C61.0383 135.366 47.2429 139.448 40.5477 150.566C39.463 149.265 39.4646 147.629 39.9178 145.421C40.6228 143.726 40.97 142.694 41.2416 141.887C41.7624 140.339 42.0056 139.616 43.9613 136.625C47.6372 131.024 44.749 126.823 39.9353 124.723C36.0843 123.06 31.0081 127.348 29.7828 128.398C22.1683 134.787 15.2541 150.016 23.5687 161.743C26.5401 165.941 31.2652 168.614 36.6347 170.61ZM110.296 170.709C110.438 168.445 110.361 166.28 110.089 164.216C111.777 165.873 112.143 168.364 110.844 170.023C110.65 170.269 110.467 170.497 110.296 170.709Z" fill="url(#paint0_linear_279_2560)"/>
<path d="M141.524 2.00163C133.227 -1.7711 120.651 9.37162 111.568 17.4435C94.1889 32.8854 86.1543 51.1349 82.3989 62.2776C79.3422 61.839 76.2856 61.6635 73.1415 61.6635C70.1722 61.6635 67.2029 61.839 64.3208 62.2776C61.0895 50.784 54.2775 33.6751 39.3434 18.2332C30.9594 9.5471 19.1693 -2.64848 10.6106 0.510084C-2.57673 5.33567 -2.83873 44.6423 6.3313 74.1223C10.436 87.1952 16.2873 96.7587 20.5667 103.339L20.654 103.515C24.4094 127.818 42.8368 145.19 72.2682 145.453C100.739 145.629 122.31 127.555 125.716 102.9C125.804 102.637 125.804 102.286 125.804 102.023C130.258 95.7936 135.76 87.0198 140.214 75.7893C151.654 47.099 154.275 7.88008 141.524 2.00163Z" fill="url(#paint1_linear_279_2560)"/>
<path d="M71.8123 200C66.3632 200 62.0754 198.352 59.5742 197.138C59.1275 196.964 58.9489 196.444 59.2169 196.01C59.4848 195.577 59.9315 195.403 60.3781 195.663C63.594 197.225 70.115 199.48 77.8867 197.572C89.8568 194.536 94.6805 183.607 95.2165 182.393C95.3952 181.959 95.9311 181.699 96.3778 181.873C96.8244 182.046 97.0924 182.567 96.9138 183C96.0205 185.169 91.018 196.01 78.4226 199.22C76.0107 199.74 73.8668 200 71.8123 200Z" fill="#823737"/>
<path d="M136.965 32.2473C133.894 30.6416 126.962 32.0783 101.691 63.0088C101.515 63.1779 101.515 63.4314 101.515 63.6004V63.6849C101.515 63.9384 101.954 69.3471 106.78 71.7133C108.184 72.3894 109.676 72.7275 111.167 72.7275C114.414 72.7275 117.573 71.2063 119.065 68.671C121.258 64.8681 119.591 59.6284 118.099 54.5579L117.836 53.7128C117.661 53.2902 117.222 53.0367 116.783 53.1212C116.344 53.2902 116.081 53.7128 116.169 54.1353L116.432 54.9804C117.836 59.713 119.416 64.6145 117.573 67.7414C115.642 71.1218 110.816 71.7133 107.57 70.1077C104.148 68.4175 103.446 64.699 103.27 63.6849C126.786 34.8671 133.894 32.5008 136.088 33.5995C137.053 34.1065 138.457 36.3038 136.877 44.9238C136.79 45.3463 137.141 45.8534 137.579 45.9379C138.018 46.0224 138.545 45.6843 138.632 45.2618C140.036 37.7404 139.51 33.5995 136.965 32.2473Z" fill="#823737"/>
<path d="M43.9394 63.0946V62.9195C43.9394 62.8611 43.9107 62.8027 43.8531 62.7443V62.6567C23.9267 27.2777 17.3708 24.8257 14.1791 25.9641C11.5049 26.9274 10.3835 31.1309 10.6423 39.1875C10.6423 39.7129 11.0736 40.0632 11.5049 40.0632C12.0225 40.0632 12.3676 39.6253 12.3676 39.1875C12.1088 30.08 13.7478 28.0658 14.7829 27.7156C17.0257 26.8398 23.5816 30.3427 42.2142 63.3573C42.1279 64.4082 41.4378 68.2613 37.9873 70.0128C34.8819 71.5891 30.0513 70.9761 28.1535 67.5608C26.342 64.233 27.8084 59.2414 29.2749 54.3374L29.5337 53.4617C29.7062 53.0238 29.4474 52.4984 28.9298 52.4108C28.4123 52.3233 27.981 52.586 27.8947 53.0238L27.6359 53.8996C26.0832 59.1539 24.5305 64.5833 26.687 68.5241C28.1535 71.2388 31.2589 72.7275 34.4506 72.7275C35.9171 72.7275 37.3835 72.3772 38.7637 71.6767C43.5081 69.0495 43.9394 63.4449 43.9394 63.0946C43.9394 63.153 43.9394 63.153 43.9394 63.0946Z" fill="#823737"/>
<path d="M78.8845 158.262L81.763 146.341C82.1017 145.14 80.8317 143.939 79.3078 143.939H65.4231C63.8991 143.939 62.7139 145.054 62.9678 146.255L65.4231 158.176C65.5924 158.862 66.1004 159.377 66.8623 159.634C65.2537 168.21 63.3065 184.162 62.1212 193.253C65.0844 198.485 67.963 203.116 71.1801 207.576C74.0587 203.716 78.4612 196.77 81.509 192.31C80.4931 184.334 78.2918 168.725 77.1912 159.806C78.0378 159.634 78.6305 159.034 78.8845 158.262Z" fill="#2DDDC3"/>
<mask id="mask0_279_2560" style="mask-type:luminance" maskUnits="userSpaceOnUse" x="61" y="142" width="22" height="66">
<path d="M79.1664 157.505L82.1421 145.34C82.4922 144.115 81.1794 142.89 79.604 142.89H65.2504C63.675 142.89 62.4497 144.027 62.7123 145.253L65.2504 157.418C65.4254 158.118 65.9506 158.643 66.7383 158.906C65.0753 167.658 63.0623 183.937 61.837 193.214C64.9003 198.552 67.876 203.278 71.2019 207.829C74.1776 203.891 78.7288 196.802 81.8796 192.251C80.8293 184.112 78.5537 168.183 77.4159 159.081C78.2912 158.906 78.9038 158.293 79.1664 157.505Z" fill="white"/>
</mask>
<g mask="url(#mask0_279_2560)">
<mask id="mask1_279_2560" style="mask-type:luminance" maskUnits="userSpaceOnUse" x="59" y="142" width="28" height="71">
<path d="M78.2961 150.241C75.6704 144.115 74.095 142.714 72.6072 142.714C66.7432 142.452 60.2666 163.282 59.829 181.486C59.7414 185.687 59.1288 209.317 68.6687 212.38C72.1696 213.518 75.758 211.418 76.7207 210.892C90.8117 202.578 86.7857 170.021 78.2961 150.241Z" fill="white"/>
</mask>
<g mask="url(#mask1_279_2560)">
<path d="M64.8191 150.065C64.6441 152.516 63.8564 153.479 63.1562 153.829C62.1935 154.354 61.4058 153.829 60.6181 154.529C59.7429 155.229 59.5678 156.717 59.8304 157.767C60.093 159.08 61.0557 159.78 61.3183 159.955" stroke="white" stroke-width="2" stroke-miterlimit="10" stroke-linecap="round"/>
</g>
<mask id="mask2_279_2560" style="mask-type:luminance" maskUnits="userSpaceOnUse" x="59" y="142" width="28" height="71">
<path d="M78.2961 150.241C75.6704 144.115 74.095 142.714 72.6072 142.714C66.7432 142.452 60.2666 163.282 59.829 181.486C59.7414 185.687 59.1288 209.317 68.6687 212.38C72.1696 213.518 75.758 211.418 76.7207 210.892C90.8117 202.578 86.7857 170.021 78.2961 150.241Z" fill="white"/>
</mask>
<g mask="url(#mask2_279_2560)">
<path d="M70.7675 151.904C70.7675 150.766 71.1175 149.628 71.9928 148.928C72.6929 148.403 73.3056 148.316 73.8307 148.316C74.1808 148.316 74.4434 148.316 74.7059 148.141C75.4936 147.703 75.8437 146.215 75.9313 145.077C75.9313 144.552 76.3689 144.202 76.894 144.29C77.4191 144.29 77.7692 144.727 77.6817 145.252C77.5066 147.616 76.8065 149.103 75.5812 149.716C74.9685 150.066 74.4434 150.066 74.0058 150.066C73.5682 150.066 73.3931 150.066 73.2181 150.241C72.6929 150.679 72.5179 151.816 72.6929 152.604C72.868 153.479 73.4806 154.092 73.8307 154.355C74.1808 154.617 74.2683 155.142 74.0058 155.58C73.7432 155.93 73.1306 156.017 72.7805 155.755C72.2553 155.317 71.2926 154.442 70.9425 153.042C70.855 152.604 70.7675 152.254 70.7675 151.904Z" fill="white"/>
</g>
<mask id="mask3_279_2560" style="mask-type:luminance" maskUnits="userSpaceOnUse" x="59" y="142" width="28" height="71">
<path d="M78.2961 150.241C75.6704 144.115 74.095 142.714 72.6072 142.714C66.7432 142.452 60.2666 163.282 59.829 181.486C59.7414 185.687 59.1288 209.317 68.6687 212.38C72.1696 213.518 75.758 211.418 76.7207 210.892C90.8117 202.578 86.7857 170.021 78.2961 150.241Z" fill="white"/>
</mask>
<g mask="url(#mask3_279_2560)">
<path d="M59.0413 169.058C59.0413 167.921 59.3913 166.783 60.2666 166.083C60.9667 165.558 61.5794 165.47 62.1045 165.47C62.4546 165.47 62.7172 165.47 62.9797 165.295C63.7674 164.857 64.1175 163.37 64.2051 162.232C64.2051 161.707 64.6427 161.357 65.1678 161.444C65.6929 161.444 66.043 161.882 65.9555 162.407C65.7805 164.77 65.0803 166.258 63.855 166.87C63.2423 167.22 62.7172 167.22 62.2796 167.22C61.842 167.22 61.6669 167.22 61.4919 167.395C60.9667 167.833 60.7917 168.971 60.9667 169.758C61.1418 170.721 61.842 171.246 62.1045 171.509C62.4546 171.771 62.5421 172.297 62.2796 172.734C62.017 173.084 61.4044 173.172 61.0543 172.909C60.5291 172.559 59.5664 171.596 59.2163 170.196C59.0413 169.846 59.0413 169.408 59.0413 169.058Z" fill="white"/>
</g>
<mask id="mask4_279_2560" style="mask-type:luminance" maskUnits="userSpaceOnUse" x="59" y="142" width="28" height="71">
<path d="M78.2961 150.241C75.6704 144.115 74.095 142.714 72.6072 142.714C66.7432 142.452 60.2666 163.282 59.829 181.486C59.7414 185.687 59.1288 209.317 68.6687 212.38C72.1696 213.518 75.758 211.418 76.7207 210.892C90.8117 202.578 86.7857 170.021 78.2961 150.241Z" fill="white"/>
</mask>
<g mask="url(#mask4_279_2560)">
<path d="M66.8302 177.198C66.8302 176.06 67.1803 174.922 68.0555 174.222C68.7557 173.697 69.3683 173.61 69.8935 173.61C70.2436 173.61 70.5061 173.61 70.7687 173.435C71.5564 172.997 71.9065 171.509 71.994 170.371C71.994 169.846 72.4316 169.496 72.9567 169.584C73.4819 169.584 73.832 170.021 73.7444 170.546C73.5694 172.909 72.8692 174.397 71.6439 175.01C71.0313 175.36 70.5061 175.36 70.0685 175.36C69.6309 175.36 69.4559 175.36 69.2808 175.535C68.6682 175.973 68.5806 177.11 68.7557 177.898C68.9307 178.773 69.5434 179.386 69.8935 179.649C70.2436 179.911 70.3311 180.436 70.0685 180.874C69.806 181.224 69.1933 181.311 68.8432 181.049C68.3181 180.699 67.3553 179.736 67.0052 178.336C66.8302 177.986 66.8302 177.636 66.8302 177.198Z" fill="white"/>
</g>
<mask id="mask5_279_2560" style="mask-type:luminance" maskUnits="userSpaceOnUse" x="59" y="142" width="28" height="71">
<path d="M78.2961 150.241C75.6704 144.115 74.095 142.714 72.6072 142.714C66.7432 142.452 60.2666 163.282 59.829 181.486C59.7414 185.687 59.1288 209.317 68.6687 212.38C72.1696 213.518 75.758 211.418 76.7207 210.892C90.8117 202.578 86.7857 170.021 78.2961 150.241Z" fill="white"/>
</mask>
<g mask="url(#mask5_279_2560)">
<path d="M82.0611 158.906C81.886 161.357 81.0983 162.32 80.3982 162.67C79.4354 163.195 78.6477 162.67 77.86 163.37C76.9848 164.07 76.8098 165.558 77.0723 166.608C77.3349 167.921 78.2976 168.621 78.5602 168.796" stroke="white" stroke-width="2" stroke-miterlimit="10" stroke-linecap="round"/>
</g>
<mask id="mask6_279_2560" style="mask-type:luminance" maskUnits="userSpaceOnUse" x="59" y="142" width="28" height="71">
<path d="M78.2961 150.241C75.6704 144.115 74.095 142.714 72.6072 142.714C66.7432 142.452 60.2666 163.282 59.829 181.486C59.7414 185.687 59.1288 209.317 68.6687 212.38C72.1696 213.518 75.758 211.418 76.7207 210.892C90.8117 202.578 86.7857 170.021 78.2961 150.241Z" fill="white"/>
</mask>
<g mask="url(#mask6_279_2560)">
<path d="M69.4541 158.906C69.2791 161.357 68.4914 162.32 67.7912 162.67C66.8285 163.195 66.0408 162.67 65.2531 163.37C64.3779 164.07 64.2028 165.558 64.4654 166.608C64.728 167.921 65.6907 168.621 65.9533 168.796" stroke="white" stroke-width="2" stroke-miterlimit="10" stroke-linecap="round"/>
</g>
<mask id="mask7_279_2560" style="mask-type:luminance" maskUnits="userSpaceOnUse" x="59" y="142" width="28" height="71">
<path d="M78.2961 150.241C75.6704 144.115 74.095 142.714 72.6072 142.714C66.7432 142.452 60.2666 163.282 59.829 181.486C59.7414 185.687 59.1288 209.317 68.6687 212.38C72.1696 213.518 75.758 211.418 76.7207 210.892C90.8117 202.578 86.7857 170.021 78.2961 150.241Z" fill="white"/>
</mask>
<g mask="url(#mask7_279_2560)">
<path d="M59.6508 192.425C59.6508 191.288 60.0008 190.15 60.8761 189.45C61.5762 188.925 62.1889 188.837 62.714 188.837C63.0641 188.837 63.3267 188.837 63.5892 188.662C64.3769 188.225 64.727 186.737 64.8146 185.599C64.8146 185.074 65.2522 184.724 65.7773 184.811C66.3024 184.811 66.6525 185.249 66.565 185.774C66.3899 188.137 65.6898 189.625 64.4645 190.237C63.8518 190.588 63.3267 190.588 62.8891 190.588C62.4515 190.588 62.2764 190.588 62.1014 190.763C61.4887 191.2 61.4012 192.338 61.5762 193.126C61.7513 194.001 62.3639 194.613 62.714 194.876C63.0641 195.139 63.1516 195.751 62.8891 196.101C62.6265 196.451 62.0138 196.539 61.6638 196.276C61.1386 195.839 60.1759 194.964 59.8258 193.563C59.7383 193.126 59.6508 192.776 59.6508 192.425Z" fill="white"/>
</g>
<mask id="mask8_279_2560" style="mask-type:luminance" maskUnits="userSpaceOnUse" x="59" y="142" width="28" height="71">
<path d="M78.2961 150.241C75.6704 144.115 74.095 142.714 72.6072 142.714C66.7432 142.452 60.2666 163.282 59.829 181.486C59.7414 185.687 59.1288 209.317 68.6687 212.38C72.1696 213.518 75.758 211.418 76.7207 210.892C90.8117 202.578 86.7857 170.021 78.2961 150.241Z" fill="white"/>
</mask>
<g mask="url(#mask8_279_2560)">
<path d="M69.4557 196.277C69.4557 195.139 69.8058 194.002 70.681 193.301C71.3812 192.776 71.9938 192.689 72.519 192.689C72.869 192.689 73.1316 192.689 73.3942 192.514C74.1819 192.076 74.532 190.588 74.6195 189.45C74.6195 188.925 75.0571 188.575 75.5822 188.663C76.1074 188.663 76.4574 189.1 76.3699 189.626C76.1949 191.989 75.4947 193.476 74.2694 194.089C73.6567 194.439 73.1316 194.439 72.694 194.439C72.2564 194.439 72.0813 194.439 71.9063 194.614C71.3812 195.052 71.2061 196.19 71.3812 196.977C71.5562 197.94 72.2564 198.465 72.519 198.728C72.869 198.99 72.9566 199.515 72.694 199.953C72.4314 200.303 71.8188 200.39 71.4687 200.128C70.9436 199.778 69.9808 198.815 69.6307 197.415C69.4557 197.065 69.4557 196.627 69.4557 196.277Z" fill="white"/>
<path d="M63.2097 165.769C63.2097 164.631 63.5598 163.494 64.435 162.794C65.1352 162.268 65.7479 162.181 66.273 162.181C66.6231 162.181 66.8856 162.181 67.1482 162.006C67.9359 161.568 68.286 160.08 68.3735 158.943C68.3735 158.418 68.8111 158.067 69.3363 158.155C69.8614 158.155 70.2115 158.593 70.124 159.118C69.9489 161.481 69.2487 162.969 68.0234 163.581C67.4108 163.931 66.8856 163.931 66.448 163.931C66.0104 163.931 65.8354 163.931 65.6603 164.106C65.1352 164.544 64.9602 165.682 65.1352 166.469C65.3102 167.432 66.0104 167.957 66.273 168.22C66.6231 168.482 66.7106 169.007 66.448 169.445C66.1855 169.795 65.5728 169.883 65.2227 169.62C64.6976 169.27 63.7349 168.307 63.3848 166.907C63.2097 166.557 63.2097 166.119 63.2097 165.769Z" fill="white"/>
<path d="M76.0853 165.769C76.0853 164.631 76.4354 163.494 77.3106 162.794C78.0108 162.268 78.6235 162.181 79.1486 162.181C79.4987 162.181 79.7612 162.181 80.0238 162.006C80.8115 161.568 81.1616 160.08 81.2491 158.943C81.2491 158.418 81.6867 158.067 82.2119 158.155C82.737 158.155 83.0871 158.593 82.9996 159.118C82.8245 161.481 82.1243 162.969 80.899 163.581C80.2864 163.931 79.7613 163.931 79.3236 163.931C78.886 163.931 78.711 163.931 78.5359 164.106C78.0108 164.544 77.8358 165.682 78.0108 166.469C78.1859 167.432 78.886 167.957 79.1486 168.22C79.4987 168.482 79.5862 169.007 79.3236 169.445C79.0611 169.795 78.4484 169.883 78.0983 169.62C77.5732 169.27 76.6105 168.307 76.2604 166.907C76.0853 166.557 76.0853 166.119 76.0853 165.769Z" fill="white"/>
</g>
<mask id="mask9_279_2560" style="mask-type:luminance" maskUnits="userSpaceOnUse" x="59" y="142" width="28" height="71">
<path d="M78.2961 150.241C75.6704 144.115 74.095 142.714 72.6072 142.714C66.7432 142.452 60.2666 163.282 59.829 181.486C59.7414 185.687 59.1288 209.317 68.6687 212.38C72.1696 213.518 75.758 211.418 76.7207 210.892C90.8117 202.578 86.7857 170.021 78.2961 150.241Z" fill="white"/>
</mask>
<g mask="url(#mask9_279_2560)">
<path d="M76.8071 182.273C76.8071 181.135 77.1572 179.998 78.0324 179.297C78.7326 178.772 79.3453 178.685 79.8704 178.685C80.2205 178.685 80.4831 178.685 80.7456 178.51C81.5333 178.072 81.8834 176.584 81.9709 175.447C81.9709 174.921 82.4085 174.571 82.9337 174.659C83.4588 174.659 83.8089 175.097 83.7214 175.622C83.5463 177.985 82.8461 179.473 81.6208 180.085C81.0082 180.435 80.483 180.435 80.0454 180.435C79.6078 180.435 79.4328 180.435 79.2577 180.61C78.7326 181.048 78.5576 182.186 78.7326 182.973C78.9077 183.936 79.6078 184.461 79.8704 184.724C80.2205 184.986 80.308 185.511 80.0454 185.949C79.7829 186.299 79.1702 186.387 78.8201 186.124C78.295 185.774 77.3323 184.811 76.9822 183.411C76.8071 182.973 76.8071 182.623 76.8071 182.273Z" fill="white"/>
</g>
<mask id="mask10_279_2560" style="mask-type:luminance" maskUnits="userSpaceOnUse" x="59" y="142" width="28" height="71">
<path d="M78.2961 150.241C75.6704 144.115 74.095 142.714 72.6072 142.714C66.7432 142.452 60.2666 163.282 59.829 181.486C59.7414 185.687 59.1288 209.317 68.6687 212.38C72.1696 213.518 75.758 211.418 76.7207 210.892C90.8117 202.578 86.7857 170.021 78.2961 150.241Z" fill="white"/>
</mask>
<g mask="url(#mask10_279_2560)">
<path d="M68.0536 213.78C68.0536 212.642 68.4037 211.504 69.2789 210.804C69.9791 210.279 70.5917 210.192 71.1169 210.192C71.4669 210.192 71.7295 210.192 71.9921 210.017C72.7798 209.579 73.1299 208.091 73.2174 206.953C73.2174 206.428 73.655 206.078 74.1801 206.166C74.7053 206.166 75.0553 206.603 74.9678 207.128C74.7928 209.492 74.0926 210.979 72.8673 211.592C72.2546 211.942 71.7295 211.942 71.2919 211.942C70.8543 211.942 70.6793 211.942 70.5042 212.117C69.8916 212.555 69.804 213.692 69.9791 214.48C70.1541 215.443 70.8543 215.968 71.1169 216.231C71.4669 216.493 71.5545 217.018 71.2919 217.456C71.0293 217.893 70.4167 217.893 70.0666 217.631C69.5415 217.281 68.5787 216.318 68.2286 214.918C68.1411 214.48 68.0536 214.13 68.0536 213.78Z" fill="white"/>
</g>
</g>
<path d="M81.9896 131.818C81.4693 131.818 80.949 131.818 80.4286 131.728C78.0005 131.46 75.5723 130.653 73.3175 129.488C71.2362 130.294 69.1549 130.832 67.0737 131.101C60.6563 131.818 55.3664 129.846 51.9843 128.054C51.5507 127.875 51.3772 127.247 51.6374 126.889C51.8975 126.53 52.4179 126.261 52.8515 126.53C55.9734 128.233 61.0032 130.026 66.9869 129.398C69.0682 129.129 71.1495 128.592 73.1441 127.785L73.491 127.606L73.8379 127.785C76.0059 129.04 78.3473 129.757 80.6888 130.026C90.4882 131.101 99.4205 120.615 99.7673 118.912C99.8541 118.464 100.374 118.106 100.808 118.195C101.242 118.285 101.588 118.823 101.502 119.271C100.721 121.87 91.9625 131.818 81.9896 131.818Z" fill="#823737"/>
<path d="M59.7884 112.122C59.6206 112.122 59.4528 112.037 59.2849 111.953C58.4459 111.28 57.5229 110.691 56.5999 110.101C52.3206 107.492 47.2861 106.229 41.7481 106.229C41.2447 106.229 40.9091 105.893 40.9091 105.388C40.9091 104.883 41.2447 104.546 41.7481 104.546H41.9999C47.7895 104.546 52.9918 105.893 57.439 108.586C58.4459 109.176 59.3689 109.849 60.2918 110.522C60.6275 110.775 60.7114 111.364 60.4597 111.701C60.2918 112.037 60.0401 112.122 59.7884 112.122Z" fill="#231815"/>
<path d="M84.2401 112.122C83.9694 112.122 83.6986 112.037 83.5181 111.781C83.2474 111.441 83.2474 110.845 83.6986 110.59C84.6913 109.91 85.684 109.229 86.767 108.633C91.6403 105.826 97.3258 104.465 103.643 104.55C104.185 104.55 104.545 104.975 104.545 105.4C104.545 105.911 104.185 106.251 103.643 106.251H103.372C97.5063 106.251 92.272 107.527 87.6695 110.165C86.6768 110.76 85.6841 111.356 84.7816 112.037C84.6011 112.037 84.4206 112.122 84.2401 112.122Z" fill="#231815"/>
<path d="M73.4169 131.818C68.762 131.818 64.1934 131.56 59.7109 131.009C59.2799 130.935 59.0213 130.751 59.1075 130.567C59.1937 130.383 59.7109 130.273 60.1419 130.31C64.5382 130.825 69.1068 131.082 73.6755 131.082C78.2442 131.082 82.7267 130.788 85.3127 130.53C85.7437 130.494 86.261 130.604 86.3472 130.788C86.4334 130.972 86.1748 131.193 85.7437 131.229C82.3819 131.56 77.727 131.781 73.6755 131.818H73.4169Z" fill="#823737"/>
<path d="M65.1592 119.486C65.2507 121.853 67.0815 123.912 69.1869 124.221C72.0246 124.53 74.4961 121.442 74.2215 119.074C73.9469 116.192 69.4615 114.03 66.8984 115.78C65.8 116.398 65.0677 117.942 65.1592 119.486Z" fill="#231815"/>
<path d="M101.515 137.879L96.5533 151.511L94.8698 156.408C93.3635 160.816 87.3383 162.041 83.8827 158.694L80.7815 154.694L71.2122 143.103" fill="white"/>
<path d="M43.9395 137.879L48.3575 151.378L49.9717 156.347C51.4161 160.819 57.1935 162.062 60.507 158.666L63.3957 154.608L71.2122 142.848" fill="white"/>
<path d="M105.354 189.394C105.018 189.394 104.682 189.207 104.598 188.834C104.43 188.368 104.682 187.808 105.102 187.621C105.438 187.435 105.858 187.248 106.11 187.061C107.874 185.848 108.63 183.889 108.966 182.489C109.05 182.023 109.554 181.743 109.974 181.836C110.394 181.93 110.73 182.489 110.562 182.956C110.142 184.635 109.218 187.061 106.95 188.554C106.53 188.834 106.11 189.114 105.606 189.301C105.606 189.394 105.438 189.394 105.354 189.394Z" fill="#823737"/>
<path d="M101.011 189.394C100.591 189.394 100.171 189.207 100.066 188.834C99.8558 188.368 100.171 187.808 100.696 187.621L101.956 187.061C104.161 185.848 105.106 183.889 105.526 182.489C105.631 182.023 106.261 181.743 106.786 181.836C107.311 181.93 107.731 182.489 107.521 182.956C106.996 184.635 105.841 187.061 103.006 188.554C102.481 188.834 101.956 189.114 101.326 189.301C101.326 189.301 101.221 189.394 101.011 189.394Z" fill="#823737"/>
<path d="M28.8026 131.052C28.8026 130.966 28.8026 130.879 28.883 130.706C29.0437 130.195 29.2702 129.771 29.504 129.338C30.8045 127.044 32.6529 126.161 33.9753 125.771C34.3406 125.693 34.7716 125.97 34.8374 126.412C34.9032 126.853 34.6694 127.355 34.2968 127.433C33.1935 127.745 31.6374 128.464 30.6438 130.247L30.1762 131.269C30.0227 131.693 29.5771 131.944 29.2118 131.754C28.9926 131.659 28.7807 131.39 28.788 131.044L28.8026 131.052Z" fill="#823737"/>
<path d="M28.8026 134.083C28.8026 133.996 28.8026 133.91 28.883 133.736C29.0437 133.226 29.2702 132.801 29.504 132.368C30.8045 130.074 32.6529 129.191 33.9753 128.801C34.3406 128.723 34.7716 129 34.8374 129.442C34.9032 129.883 34.6694 130.386 34.2968 130.464C33.1935 130.775 31.6374 131.494 30.6438 133.278L30.1762 134.299C30.0227 134.723 29.5771 134.975 29.2118 134.784C28.9926 134.689 28.7807 134.42 28.788 134.074L28.8026 134.083Z" fill="#823737"/>
<path d="M43.9395 53.6051C44.192 58.7522 45.5069 67.6851 52.1335 73.939C52.7691 74.545 53.4309 75.0896 54.1014 75.5903C58.9429 74.2815 65.6827 72.9991 73.7723 73.1133C81.2522 73.2099 87.5218 74.466 92.1282 75.7572C94.1397 71.9451 96.2122 67.2459 97.8667 61.7035C98.8332 58.4536 99.5211 55.3969 100 52.6125C96.6563 49.7667 89.394 44.4175 78.8576 42.854C60.0401 40.0696 46.2122 51.6376 43.9482 53.6051H43.9395Z" fill="url(#paint2_linear_279_2560)"/>
<path d="M68.5188 55.3727V58.7241C66.8883 58.8473 65.2578 58.9704 63.6364 59.0936C63.691 60.0699 63.7457 61.0463 63.8003 62.0227C65.1576 61.9963 66.5239 61.9787 67.8812 61.9523C68.0543 63.5269 68.2273 65.1014 68.3913 66.6671C69.6757 66.6231 70.9601 66.5879 72.2536 66.544V61.9875C73.9115 62.0403 75.5693 62.1019 77.2272 62.1546C77.2454 61.0551 77.2545 59.9468 77.2727 58.8473C75.6149 58.7505 73.957 58.6537 72.2991 58.557C72.2445 57.2639 72.1807 55.9621 72.1261 54.669C70.9237 54.6251 69.7212 54.5899 68.528 54.5459V55.3727H68.5188Z" fill="#E90020"/>
<path fill-rule="evenodd" clip-rule="evenodd" d="M97.6071 54.2144C93.7254 51.718 81.4868 44.613 65.7555 47.3487C56.728 48.9243 50.1079 53.104 46.3695 55.9462C46.1051 56.1473 45.742 56.0753 45.5585 55.7853C45.3751 55.4954 45.4408 55.0974 45.7053 54.8963C49.5317 51.9872 56.3157 47.7023 65.5726 46.0869L65.5729 46.0868C81.7047 43.2814 94.2349 50.5643 98.1969 53.1123C98.4745 53.2909 98.5676 53.6823 98.4047 53.9866C98.2418 54.291 97.8848 54.3929 97.6071 54.2144Z" fill="#606060"/>
<path d="M42.4243 139.394C48.2819 139.394 53.0304 134.985 53.0304 129.546C53.0304 124.107 48.2819 119.697 42.4243 119.697C36.5667 119.697 31.8182 124.107 31.8182 129.546C31.8182 134.985 36.5667 139.394 42.4243 139.394Z" fill="white"/>
<path d="M41.6667 136.364C45.4323 136.364 48.4849 133.311 48.4849 129.546C48.4849 125.78 45.4323 122.728 41.6667 122.728C37.9011 122.728 34.8485 125.78 34.8485 129.546C34.8485 133.311 37.9011 136.364 41.6667 136.364Z" fill="#606060"/>
<path d="M43.1818 134.848C46.1106 134.848 48.4848 132.474 48.4848 129.545C48.4848 126.616 46.1106 124.242 43.1818 124.242C40.253 124.242 37.8788 126.616 37.8788 129.545C37.8788 132.474 40.253 134.848 43.1818 134.848Z" fill="black"/>
<defs>
<linearGradient id="paint0_linear_279_2560" x1="-11.1203" y1="88.0289" x2="74.3854" y2="215.532" gradientUnits="userSpaceOnUse">
<stop stop-color="#FFBFBE"/>
<stop offset="1" stop-color="#FF6C6A"/>
</linearGradient>
<linearGradient id="paint1_linear_279_2560" x1="-63.7712" y1="-32.6003" x2="75.7995" y2="144.826" gradientUnits="userSpaceOnUse">
<stop stop-color="#FFC6C6"/>
<stop offset="1" stop-color="#FF6C6A"/>
</linearGradient>
<linearGradient id="paint2_linear_279_2560" x1="46.8874" y1="51.943" x2="91.7746" y2="75.4672" gradientUnits="userSpaceOnUse">
<stop stop-color="white"/>
<stop offset="1" stop-color="#EAFBF9"/>
</linearGradient>
</defs>
</svg>
