<svg width="200" height="200" viewBox="0 0 200 200" fill="none" xmlns="http://www.w3.org/2000/svg">
<mask id="mask0_243_2433" style="mask-type:alpha" maskUnits="userSpaceOnUse" x="0" y="0" width="200" height="200">
<rect width="200" height="200" rx="27" fill="#D5F8F3"/>
</mask>
<g mask="url(#mask0_243_2433)">
<path d="M130.182 156.025C131.998 157.039 133.183 156.701 136.342 156.447C143.844 155.686 147.398 152.811 156.559 152.304C158.455 152.219 162.482 151.966 164.141 154.249C166.905 158.139 160.745 166.172 160.35 166.595C154.111 174.629 144.239 176.066 142.265 176.32C131.287 177.758 123.074 172.346 120.863 170.823" fill="#FF6C6A"/>
<path d="M132.54 184.78C138.476 161.182 118.246 147.62 100.672 147.62C83.0975 147.62 62.3989 156.585 68.8037 184.78C69.8192 189.454 71.2251 193.745 72.8654 197.576C76.927 214.585 77.5519 220.791 76.8489 222.324C76.7708 222.477 76.3802 223.243 76.224 224.392C76.0678 225.695 76.3802 227.151 76.927 227.993C79.5045 232.054 92.0799 230.905 96.7664 230.522C97.1569 230.522 97.7037 230.445 98.3286 230.139C100.984 228.836 100.125 224.775 99.5783 222.4C99.1877 220.868 98.7972 219.259 98.4066 217.726C99.1877 217.803 99.9688 217.803 100.75 217.803C101.375 217.803 102 217.803 102.624 217.726L101.453 222.324C100.906 224.775 100.047 228.836 102.703 230.062C103.327 230.369 103.874 230.445 104.265 230.445C108.873 230.828 121.527 231.978 124.104 227.917C124.651 227.074 124.963 225.618 124.807 224.316C124.651 223.166 124.26 222.4 124.182 222.247C123.479 220.791 124.026 214.662 128.01 198.035C129.806 194.128 131.29 189.684 132.54 184.78Z" fill="url(#paint0_linear_243_2433)"/>
<path d="M164.42 30.9265C157.67 27.4513 146.653 36.3323 138.74 42.6648C123.146 55.1753 115.698 70.6204 112.284 79.5786C108.638 78.9608 104.837 78.5747 101.035 78.5747C96.4576 78.5747 91.9579 79.1152 87.6133 79.9647C84.5876 70.6977 77.8379 55.1753 63.0197 42.047C55.4166 35.2511 44.7878 25.9068 37.8054 28.9958C27.0215 33.861 29.1162 66.6047 38.6588 90.6219C42.7707 101.125 48.0463 109.002 51.9254 114.253C52.003 115.025 52.003 115.72 52.1581 116.492C55.7269 141.282 72.6399 155.491 100.182 155.723C126.637 155.878 146.576 138.965 149.834 116.492C150.145 114.33 150.145 112.168 149.912 110.083C153.325 105.449 157.127 99.4256 160.463 92.0891C171.169 68.6126 174.893 36.255 164.42 30.9265Z" fill="url(#paint1_linear_243_2433)"/>
<path d="M94.2378 131.876C94.3267 134.039 96.1928 135.768 98.3255 136.028C101.169 136.287 103.746 133.52 103.48 131.444C103.213 128.849 98.5921 126.947 96.1039 128.504C94.9487 129.195 94.2378 130.493 94.2378 131.876Z" fill="#231815"/>
<path d="M76.8738 119.546C76.9542 121.399 79.5263 121.918 81.4554 122.14C84.0275 122.362 86.3585 119.99 86.1174 118.211C85.8763 115.987 81.6965 114.357 79.4459 115.691C78.401 116.284 76.8738 118.434 76.8738 119.546Z" fill="#231815"/>
<path d="M122.02 119.546C121.96 121.399 120.031 121.918 118.584 122.14C116.655 122.362 114.907 119.99 115.088 118.211C115.268 115.987 118.403 114.357 120.091 115.691C120.875 116.284 122.02 118.434 122.02 119.546Z" fill="#231815"/>
<path d="M76.3221 153.433C74.3728 154.479 71.4099 155.042 68.3689 155.525C60.1818 156.732 55.5034 154.238 45.8348 151.583C43.7295 151.02 40.1428 150.456 38.3494 152.87C35.3864 156.893 41.2344 165.904 41.7022 166.387C51.4488 175.478 59.3241 176.202 61.5073 176.363C75.7763 177.651 82.56 172.26 84.9771 170.651" fill="#FF6C6A"/>
<path d="M121.77 131.632C121.461 131.29 120.921 131.375 120.69 131.717C119.918 132.743 116.755 135.65 112.512 137.788C107.421 140.353 102.715 137.36 102.175 136.933L101.712 136.676L101.018 137.189C99.6293 138.215 98.395 139.156 96.1578 139.498C89.2148 140.438 82.5032 137.36 79.1089 135.479C78.7231 135.308 78.2603 135.479 78.106 135.821C77.9517 136.163 78.0288 136.762 78.4146 136.933C81.5003 138.643 87.209 141.293 93.4577 141.293H94.5377C94.5377 141.379 94.5377 141.464 94.6149 141.55C96.2349 145.226 99.5522 147.621 103.101 147.621C103.409 147.621 103.718 147.621 104.026 147.535C107.575 147.108 110.661 144.371 111.895 140.524C111.972 140.267 111.972 140.011 111.818 139.84C112.204 139.669 112.667 139.498 113.052 139.327C117.527 137.104 120.844 134.026 121.693 132.829C122.155 132.487 122.078 131.974 121.77 131.632ZM104.026 145.825C100.864 146.167 97.7778 144.286 96.3121 141.122H96.4664C99.0893 140.78 100.478 139.754 101.944 138.643C103.178 139.327 106.572 141.037 110.507 140.267C109.427 143.345 106.881 145.483 104.026 145.825Z" fill="#823737"/>
<path d="M110.736 204.344C109.241 204.344 107.746 203.954 106.409 203.017C104.679 201.846 103.499 199.895 102.791 198.49C101.296 200.207 98.936 201.3 95.7894 201.69C92.9574 202.08 90.0468 201.222 87.3722 199.115C83.5963 196.227 80.9217 191.545 80.4497 186.862C79.5844 179.604 84.2256 170.551 92.3281 168.756C97.756 167.585 102.555 170.16 104.285 171.409C104.679 171.643 104.757 172.112 104.521 172.502C104.285 172.892 103.813 172.97 103.42 172.736C101.768 171.643 97.52 169.224 92.6428 170.317C85.3269 171.955 81.2363 180.072 81.9443 186.706C82.4163 190.92 84.9336 195.291 88.3162 197.866C89.9682 199.115 92.4854 200.52 95.5534 200.129C98.3067 199.739 100.431 198.803 101.611 197.398C101.925 197.008 102.476 196.852 102.948 196.93C103.499 197.008 103.892 197.32 104.128 197.788C104.6 198.803 105.701 200.676 107.196 201.69C109.713 203.407 113.332 202.939 115.456 200.598C117.186 198.647 117.501 195.681 116.085 193.261C115.849 192.871 116.006 192.403 116.4 192.169C116.793 191.935 117.265 192.091 117.501 192.481C119.153 195.447 118.838 199.115 116.636 201.612C115.22 203.407 112.938 204.344 110.736 204.344Z" fill="#823737"/>
<path d="M161.617 164.984C161.386 164.984 161.155 164.9 161.001 164.647C160.77 164.31 160.77 163.719 161.155 163.466C161.848 162.876 162.309 161.949 162.309 161.19C162.309 160.768 162.232 160.431 162.078 160.347C161.924 160.178 161.386 160.094 160.77 160.263C160.386 160.431 159.924 160.263 159.616 159.841C159.385 159.419 159.385 158.914 159.616 158.576C160.155 157.733 160.386 156.89 160.309 156.047C160.232 154.951 159.462 153.096 157.924 152.843C156.692 152.59 155.461 153.349 154.769 154.614C154.538 155.035 154.077 155.204 153.692 154.951C153.307 154.698 153.153 154.192 153.384 153.771C154.384 151.831 156.231 150.82 158.077 151.157C160.386 151.578 161.617 153.939 161.771 155.878C161.847 156.806 161.694 157.649 161.309 158.492C162.001 158.492 162.617 158.745 163.002 159.166C163.463 159.672 163.694 160.431 163.694 161.359C163.617 162.708 163.002 163.972 161.924 164.9C162.001 164.9 161.771 164.984 161.617 164.984Z" fill="#823737"/>
<path d="M74.523 81.1368V80.9831C74.523 80.9319 74.4962 80.8807 74.4427 80.8295V80.7527C55.0194 48.3349 48.6787 46.0303 45.6288 47.1058C43.0604 48.0276 41.9368 51.8686 42.1776 59.1664C42.1776 59.5505 42.5789 59.9346 42.9802 59.9346C43.4618 59.9346 43.7828 59.5505 43.7828 59.1664C43.542 50.7931 45.1472 48.9495 46.1906 48.5654C48.438 47.7972 54.8589 51.0236 72.9177 81.2904C72.7572 82.2122 72.1151 85.8227 68.8244 87.4359C65.2929 89.126 60.7982 87.5896 59.193 85.1314C57.5878 82.5963 58.9522 78.6785 59.9956 75.8362C60.7982 73.4548 61.3601 71.9184 60.1562 71.3039C59.3535 70.843 58.5509 71.4575 57.7483 71.9953C56.8654 72.6098 55.7418 73.4548 54.297 73.4548C52.6116 73.4548 50.5248 72.4562 50.284 71.0734C50.0432 69.6907 51.5682 67.7702 54.1365 67.2325C54.5378 67.1556 54.8589 66.7716 54.7786 66.3106C54.6984 65.8497 54.2971 65.6193 53.8155 65.6961C50.284 66.3875 48.2774 69.153 48.6787 71.3039C49.08 73.5316 51.8892 74.9144 54.2168 74.9912C56.2233 74.9912 57.6681 73.9157 58.6312 73.2244C58.7917 73.1476 58.9522 72.9939 59.1127 72.8403C59.0325 73.4548 58.6312 74.5303 58.3101 75.3753C57.1865 78.5249 55.6615 82.8268 57.668 85.9764C59.0325 88.1273 62.1627 89.7405 65.4534 89.7405C66.8179 89.7405 68.1021 89.5101 69.3862 88.8955C74.0414 86.6677 74.523 81.444 74.523 81.1368C74.6032 81.2136 74.523 81.2136 74.523 81.1368Z" fill="#823737"/>
<path d="M155.69 54.2737C152.903 52.7098 146.478 54.1173 123.255 83.9872C123.178 84.0654 123.178 84.1436 123.178 84.2218V84.6127C123.178 84.8473 123.642 90.1645 127.977 92.3539C129.216 92.9794 130.454 93.214 131.77 93.214C134.867 93.214 137.886 91.5719 139.279 89.3825C141.214 86.1766 139.743 81.7978 138.66 78.5918C138.35 77.7317 138.04 76.637 137.886 76.0114C138.04 76.0896 138.195 76.246 138.35 76.4024C139.279 77.1062 140.672 78.2009 142.685 78.2009C144.93 78.2009 147.639 76.7934 148.026 74.4476C148.413 72.2582 146.478 69.4432 143.072 68.7395C142.685 68.6613 142.221 68.8958 142.143 69.365C142.066 69.8342 142.298 70.2251 142.762 70.3033C145.239 70.8507 146.71 72.8055 146.478 74.213C146.246 75.6205 144.233 76.637 142.608 76.637C141.214 76.637 140.13 75.8551 139.279 75.1513C138.505 74.604 137.731 73.9784 136.957 74.4476C135.796 75.0731 136.337 76.7152 137.112 79.061C138.118 81.9541 139.434 85.942 137.886 88.5224C136.415 91.0246 132.003 92.5884 128.597 90.8682C125.5 89.3043 124.804 85.7074 124.649 84.6909C146.401 56.8541 152.98 54.5083 154.993 55.603C155.922 56.0721 157.16 58.1834 155.69 66.6282C155.612 67.0192 155.922 67.4884 156.309 67.5666C156.696 67.6448 157.16 67.332 157.238 66.941C158.476 59.5908 158.012 55.5248 155.69 54.2737Z" fill="#823737"/>
<path d="M52.1694 153.414C52.0145 153.336 51.7822 153.259 51.6273 153.259C51.395 153.181 51.1626 153.181 50.9303 153.336C48.3748 155.272 44.5027 158.912 42.6442 164.488C42.3344 165.417 42.0246 166.424 41.8698 167.275C41.7923 167.585 41.9472 167.817 42.1795 167.972C42.4119 168.127 42.6442 168.282 42.9539 168.514C43.7283 166.269 44.5802 164.41 45.8192 162.164C47.6778 158.602 50.001 155.505 52.1694 153.414Z" fill="#0C1035"/>
<path d="M53.7947 153.956C53.5624 153.879 53.2526 153.801 53.0203 153.724C50.7745 155.737 48.4513 158.912 46.4378 162.629C45.1988 164.875 44.4244 166.733 43.5725 168.979C43.8048 169.134 44.0371 169.289 44.2695 169.444C45.1213 167.121 45.8957 165.185 47.1348 162.939C49.458 158.757 51.6264 155.814 53.7947 153.956Z" fill="#0C1035"/>
<path d="M51.0832 159.531C51.935 158.215 53.3289 156.434 55.265 154.498C55.1101 154.421 54.8777 154.343 54.6454 154.266C52.4771 156.047 50.2313 158.989 47.8306 163.326C46.5916 165.649 45.7397 167.508 44.9653 169.908C45.1977 170.063 45.43 170.218 45.5849 170.373C45.9721 169.521 46.4367 168.437 47.0562 167.121C48.6825 163.713 49.6118 161.7 51.0832 159.531Z" fill="#0C1035"/>
<path d="M67.6594 175.252C68.2015 174.632 70.2924 171.999 72.2284 167.43C74.1644 162.707 74.9388 158.138 75.1712 154.498C73.5449 154.963 72.151 155.195 71.2217 155.35C66.5753 156.047 62.7032 155.505 57.1275 154.73C55.6561 154.498 56.1208 154.575 55.3464 154.498C53.4103 156.434 52.0164 158.215 51.1645 159.532C49.6932 161.7 48.7639 163.713 47.1376 167.121C46.5181 168.437 46.0535 169.521 45.6663 170.373C45.7437 170.45 45.8211 170.45 45.8211 170.528C48.2992 172.696 51.5517 175.716 57.8244 177.343C60.38 178.04 62.7032 178.272 64.7167 178.349C65.5685 177.575 66.5753 176.568 67.6594 175.252Z" fill="white"/>
<path d="M71.8391 200.73C71.9166 200.962 71.9166 201.194 71.994 201.427C76.0984 201.272 80.2027 201.117 84.1522 200.962C87.7145 200.807 91.2767 200.73 94.839 200.575V200.343V199.878C91.2767 199.955 87.7145 200.11 84.1522 200.265C80.1253 200.42 75.9435 200.575 71.8391 200.73Z" fill="#0C1035"/>
<path d="M95.38 155.66C95.2251 155.35 95.1477 155.04 94.8379 154.808C93.1342 153.569 91.3531 153.259 90.2689 153.104C87.4036 152.64 82.912 152.098 77.6461 151.323C77.4912 151.323 77.3363 151.323 77.2589 151.478C76.6393 152.33 75.7101 153.801 75.0905 154.498C74.8582 158.138 74.1612 162.707 72.1478 167.431C70.2892 171.999 68.1209 174.632 67.5788 175.252C66.4946 176.568 65.4879 177.575 64.5586 178.349H64.7135C65.4104 181.37 66.2623 184.699 67.3465 188.107C68.5855 192.056 69.9794 195.618 71.3734 198.793C71.4508 199.181 71.5283 199.568 71.6057 199.955C75.7875 199.8 79.9693 199.645 84.0736 199.49C87.6359 199.335 91.1982 199.258 94.7605 199.103C94.7605 185.551 95.0702 172.154 95.6898 158.912C95.8446 157.828 95.6898 156.744 95.38 155.66Z" fill="url(#paint2_linear_243_2433)"/>
<path d="M54.65 154.267C54.4176 154.189 54.1079 154.112 53.7981 153.957C51.6298 155.816 49.4614 158.758 47.2157 162.94C45.9766 165.186 45.1247 167.044 44.3503 169.445C44.5827 169.6 44.815 169.755 45.0473 169.909C45.8992 167.509 46.6736 165.65 47.9126 163.327C50.2358 158.991 52.4816 156.048 54.65 154.267Z" fill="white"/>
<path d="M53.0256 153.724C52.7158 153.646 52.4061 153.569 52.1737 153.491C50.0054 155.582 47.6822 158.68 45.7462 162.242C44.5071 164.488 43.7327 166.269 42.8809 168.592C43.1132 168.747 43.3455 168.902 43.5778 169.056C44.3522 166.733 45.2041 164.875 46.4431 162.706C48.4566 158.912 50.7798 155.737 53.0256 153.724Z" fill="white"/>
<path d="M71.6807 199.954C71.7581 200.187 71.7581 200.496 71.8356 200.729C75.9399 200.574 80.1217 200.419 84.1486 200.264C87.7109 200.109 91.2732 200.032 94.8355 199.877V199.103C91.2732 199.257 87.7109 199.335 84.1486 199.49C80.0443 199.645 75.8625 199.799 71.6807 199.954Z" fill="white"/>
<path d="M149.511 153.414C149.666 153.336 149.898 153.259 150.053 153.259C150.285 153.181 150.518 153.181 150.75 153.336C153.306 155.272 157.178 158.912 159.036 164.488C159.346 165.417 159.656 166.424 159.811 167.275C159.888 167.585 159.733 167.817 159.501 167.972C159.269 168.127 159.036 168.282 158.726 168.514C157.952 166.269 157.1 164.41 155.861 162.164C154.003 158.602 151.679 155.505 149.511 153.414Z" fill="#0C1035"/>
<path d="M147.883 153.956C148.115 153.879 148.425 153.801 148.657 153.724C150.903 155.737 153.226 158.912 155.24 162.629C156.479 164.875 157.253 166.733 158.105 168.979C157.873 169.134 157.641 169.289 157.408 169.444C156.556 167.121 155.782 165.185 154.543 162.939C152.22 158.757 150.051 155.814 147.883 153.956Z" fill="#0C1035"/>
<path d="M150.595 159.454C149.744 158.138 148.35 156.357 146.414 154.421C146.568 154.343 146.801 154.266 147.033 154.188C149.201 155.97 151.447 158.912 153.848 163.249C155.087 165.572 155.939 167.431 156.713 169.831C156.481 169.986 156.249 170.141 156.094 170.296C155.706 169.444 155.242 168.36 154.622 167.043C152.996 163.713 152.067 161.7 150.595 159.454Z" fill="#0C1035"/>
<path d="M134.024 175.252C133.482 174.632 131.391 171.999 129.455 167.43C127.519 162.707 126.745 158.138 126.513 154.498C128.139 154.963 129.533 155.195 130.462 155.35C135.109 156.047 138.981 155.505 144.556 154.73C146.028 154.498 145.563 154.575 146.338 154.498C148.274 156.434 149.667 158.215 150.519 159.532C151.991 161.7 152.92 163.713 154.546 167.121C155.166 168.437 155.63 169.521 156.018 170.373C155.94 170.45 155.863 170.45 155.863 170.528C153.385 172.696 150.132 175.716 143.859 177.343C141.304 178.04 138.981 178.272 136.967 178.349C136.193 177.575 135.109 176.491 134.024 175.252Z" fill="white"/>
<path d="M129.919 200.652C129.842 200.884 129.842 201.116 129.764 201.349C125.66 201.194 121.556 201.039 117.606 200.884C114.044 200.729 110.482 200.652 106.919 200.497V200.264V199.8C110.482 199.877 114.044 200.032 117.606 200.187C121.556 200.419 125.738 200.574 129.919 200.652Z" fill="#0C1035"/>
<path d="M106.377 155.66C106.532 155.35 106.609 155.04 106.919 154.808C108.623 153.569 110.404 153.259 111.488 153.104C114.353 152.64 118.845 152.098 124.111 151.323C124.266 151.323 124.421 151.323 124.498 151.478C125.118 152.33 126.047 153.801 126.666 154.498C126.899 158.138 127.596 162.707 129.609 167.431C131.468 171.999 133.636 174.632 134.178 175.252C135.262 176.568 136.269 177.575 137.198 178.349H137.044C136.347 181.37 135.495 184.699 134.411 188.107C133.171 192.056 131.778 195.618 130.384 198.793C130.306 199.181 130.229 199.568 130.151 199.955C125.969 199.8 121.788 199.645 117.683 199.49C114.121 199.335 110.559 199.258 106.997 199.103C106.997 185.551 106.687 172.154 106.067 158.912C105.912 157.828 105.99 156.667 106.377 155.66Z" fill="url(#paint3_linear_243_2433)"/>
<path d="M147.033 154.189C147.265 154.111 147.575 154.034 147.885 153.879C150.053 155.737 152.221 158.68 154.467 162.862C155.706 165.108 156.558 166.966 157.332 169.367C157.1 169.522 156.868 169.676 156.635 169.831C155.784 167.431 155.009 165.572 153.77 163.249C151.447 158.99 149.201 155.97 147.033 154.189Z" fill="white"/>
<path d="M148.661 153.645C148.971 153.568 149.28 153.491 149.513 153.413C151.681 155.504 154.004 158.602 155.94 162.164C157.179 164.409 157.954 166.191 158.806 168.514C158.573 168.669 158.341 168.823 158.109 168.978C157.334 166.655 156.482 164.797 155.243 162.628C153.23 158.834 150.907 155.736 148.661 153.645Z" fill="white"/>
<path d="M130.074 199.878C129.997 200.111 129.997 200.42 129.919 200.653C125.815 200.498 121.633 200.343 117.606 200.188C114.044 200.033 110.482 199.956 106.919 199.801V199.026C110.482 199.181 114.044 199.259 117.606 199.414C121.633 199.646 125.892 199.801 130.074 199.878Z" fill="white"/>
<path opacity="0.5" d="M108.075 124.469C107.766 124.469 107.533 124.41 107.301 124.235C107.301 124.235 104.744 122.482 99.3212 122.716C95.3701 122.891 94.5954 123.475 94.0531 123.885L93.8981 124.001C93.4333 124.352 92.7361 124.352 92.2712 124.001C91.8064 123.651 91.8064 123.125 92.2712 122.774L92.3487 122.716C93.3558 121.956 94.6729 121.196 99.1662 121.021C104.357 120.787 107.843 122.248 108.928 123.008C109.393 123.359 109.393 123.885 109.005 124.235C108.695 124.352 108.385 124.469 108.075 124.469Z" fill="#231815"/>
<path d="M72.6817 137.203C64.3451 137.203 55.3201 134.069 49.2779 127.174C39.0292 115.421 41.3237 105.627 46.8305 100.455C51.343 96.3027 59.6031 95.5975 72.9876 98.2615C91.9554 102.101 95.9325 108.604 97.3857 114.402C97.4622 114.559 97.4622 114.716 97.4622 114.872C97.8446 116.204 97.6916 117.223 97.6151 118.163L97.5386 118.555C96.6973 126.077 90.8846 130.699 88.8961 132.188C84.8425 135.479 78.8768 137.203 72.6817 137.203ZM62.1271 103.825C57.1557 103.825 54.0963 105.548 53.1021 106.959C51.6489 108.839 49.4309 114.167 54.2493 122.629C60.215 133.128 77.3472 132.188 84.9954 127.174C86.6781 126.077 90.0433 124.431 91.0376 119.573L91.267 118.006C91.3435 117.301 91.3435 116.596 91.1906 115.969C91.1141 115.734 91.1141 115.499 91.0376 115.421C90.5022 113.148 89.049 108.447 71.6874 104.921C66.4101 103.825 65.1099 103.825 62.1271 103.825Z" fill="url(#paint4_linear_243_2433)"/>
<path d="M114.96 133.491C112.972 132.046 106.857 127.557 106.016 120.254L105.939 119.874C105.786 118.961 105.71 117.972 106.092 116.679C106.169 116.527 106.169 116.375 106.245 116.223C107.774 110.517 111.902 104.279 131.625 100.552C145.462 97.9653 154.1 98.5738 158.763 102.682C164.573 107.702 166.943 117.135 156.241 128.622C149.972 135.317 140.646 138.36 131.931 138.36C125.433 138.36 119.317 136.61 114.96 133.491ZM132.925 107.018C114.807 110.441 113.431 114.929 112.819 117.211C112.819 117.288 112.743 117.516 112.666 117.744C112.514 118.429 112.514 119.037 112.59 119.722L112.819 121.243C113.89 125.884 117.406 127.557 119.088 128.622C127.038 133.491 144.927 134.404 151.119 124.21C156.164 115.994 153.794 110.821 152.265 108.996C151.195 107.626 148.061 105.953 142.863 105.953C139.805 105.953 138.429 105.953 132.925 107.018Z" fill="url(#paint5_linear_243_2433)"/>
<path d="M49.0914 138.71C49.0914 134.319 46.4228 130.556 42.6007 128.863L40.8242 140.244L35.6717 139.466L37.4712 127.941C31.6881 128.259 27.0969 132.952 27.0969 138.717C27.0969 142.352 28.9272 145.556 31.7265 147.514C31.6342 147.786 31.5573 148.065 31.5112 148.352L29.081 163.935C28.6581 166.625 30.5422 169.141 33.28 169.557C36.0177 169.972 38.5786 168.121 39.0016 165.431L41.4318 149.849C41.4779 149.561 41.4933 149.274 41.4856 148.987C45.8999 147.582 49.0914 143.516 49.0914 138.71Z" fill="#2DDDC3"/>
<path d="M161.96 157.973L155.288 144.861L155.832 144.58C156.459 144.254 156.542 143.23 155.998 142.426L149.848 133.32C149.425 132.69 148.745 132.41 148.254 132.668L145.7 133.98C145.186 134.246 145.027 134.99 145.314 135.726L149.379 145.901C149.727 146.773 150.581 147.274 151.193 146.963L151.79 146.659L158.462 159.771C157.638 160.636 157.525 162.26 158.288 163.755L165.443 177.815C166.342 179.575 168.103 180.478 169.38 179.818L171.752 178.604C173.029 177.951 173.339 175.986 172.44 174.226L165.285 160.166C164.521 158.671 163.146 157.813 161.968 157.98L161.96 157.973ZM166.902 174.317C167.038 174.582 166.992 174.878 166.796 174.977C166.599 175.075 166.335 174.939 166.199 174.673L161 164.46C160.864 164.195 160.91 163.899 161.106 163.8C161.303 163.701 161.567 163.838 161.703 164.104L166.902 174.317ZM169.788 172.837C169.924 173.103 169.879 173.399 169.682 173.497C169.486 173.596 169.221 173.459 169.085 173.194L163.887 162.981C163.751 162.715 163.796 162.419 163.993 162.32C164.189 162.222 164.453 162.358 164.589 162.624L169.788 172.837Z" fill="#3F8278"/>
</g>
<defs>
<linearGradient id="paint0_linear_243_2433" x1="20.9821" y1="107.637" x2="98.4378" y2="232.314" gradientUnits="userSpaceOnUse">
<stop stop-color="#FFB7B7"/>
<stop offset="1" stop-color="#FF6C6A"/>
</linearGradient>
<linearGradient id="paint1_linear_243_2433" x1="-10.6686" y1="-5.90346" x2="122.061" y2="148.174" gradientUnits="userSpaceOnUse">
<stop stop-color="#FFD7D7"/>
<stop offset="1" stop-color="#FF6C6A"/>
</linearGradient>
<linearGradient id="paint2_linear_243_2433" x1="54.3909" y1="136.402" x2="88.6713" y2="199.888" gradientUnits="userSpaceOnUse">
<stop stop-color="#232F9B"/>
<stop offset="1" stop-color="#0C1035"/>
</linearGradient>
<linearGradient id="paint3_linear_243_2433" x1="94.5747" y1="140.959" x2="127.716" y2="199.888" gradientUnits="userSpaceOnUse">
<stop stop-color="#232F9B"/>
<stop offset="1" stop-color="#0C1035"/>
</linearGradient>
<linearGradient id="paint4_linear_243_2433" x1="46.8852" y1="100.791" x2="86.4451" y2="134.006" gradientUnits="userSpaceOnUse">
<stop stop-color="#441812"/>
<stop offset="1" stop-color="#142116"/>
</linearGradient>
<linearGradient id="paint5_linear_243_2433" x1="110.616" y1="110.642" x2="140.554" y2="135.508" gradientUnits="userSpaceOnUse">
<stop stop-color="#441812"/>
<stop offset="1" stop-color="#142116"/>
</linearGradient>
</defs>
</svg>
