<svg width="178" height="307" viewBox="0 0 178 307" fill="none" xmlns="http://www.w3.org/2000/svg">
<mask id="path-1-inside-1_1313_12007" fill="white">
<path fill-rule="evenodd" clip-rule="evenodd" d="M132.396 66.7918C143.148 57.2208 158.139 43.8925 167.947 48.4014C183.084 55.3526 179.943 101.997 166.402 136.137C161.105 149.486 154.625 159.923 149.306 167.313C149.288 167.46 149.276 167.605 149.264 167.75C149.248 167.944 149.232 168.138 149.202 168.336C146.726 186.207 136.257 201.2 120.804 210.131L123.272 212.188C123.329 212.233 123.389 212.279 123.452 212.328C126.472 214.67 135.59 221.74 139.965 238.717H139.945L139.956 238.757C140.637 241.398 143.105 250.967 136.763 266.054C136.459 266.766 128.518 277.389 122.681 275.469C122.25 275.322 121.849 275.128 121.496 274.894C118.529 288.85 118.147 294.463 118.882 296.023C118.886 296.032 118.892 296.043 118.898 296.057C119.021 296.31 119.496 297.293 119.636 298.644C119.802 300.292 119.43 302.114 118.735 303.225C115.504 308.342 99.7184 306.948 93.892 306.431L93.8471 306.427C93.3748 306.378 92.6444 306.303 91.914 305.944C88.5846 304.326 89.6422 299.161 90.3374 296.091C90.7879 294.113 91.2677 292.134 91.7769 290.195C91.0033 290.234 90.2297 290.263 89.4268 290.263C88.4181 290.263 87.4291 290.214 86.4597 290.146C86.9689 292.095 87.4585 294.083 87.9089 296.081C88.6042 299.151 89.6618 304.317 86.3324 305.934C85.5784 306.305 84.8146 306.383 84.3544 306.422L84.3416 306.423C78.505 306.94 62.7404 308.338 59.5113 303.215C58.8161 302.104 58.444 300.282 58.6104 298.635C58.75 297.283 59.2255 296.3 59.3481 296.047C59.3546 296.034 59.36 296.022 59.3644 296.013C60.187 294.259 59.6092 287.446 55.565 269.533C55.046 271.95 53.8808 274.611 51.3152 275.459C45.479 277.389 37.5276 266.756 37.2339 266.044C30.8942 250.95 33.3657 241.366 34.0434 238.738L34.0514 238.707C37.351 225.93 48.6896 217.111 55.5489 212.481C38.2917 204.158 27.5146 188.491 24.5103 169.15L24.3859 168.941C19.3368 161.092 12.3698 149.737 7.52805 134.206C-3.3995 99.1368 -3.02625 52.3884 12.5875 46.6061C22.7167 42.8592 36.6508 57.2938 46.6556 67.658L46.6557 67.658C64.3222 85.9545 72.409 106.328 76.2865 120.011C79.739 119.562 83.0981 119.312 86.789 119.312C90.4799 119.312 94.1397 119.583 97.7373 120.074C102.206 106.839 111.744 85.1613 132.396 66.7918Z"/>
</mask>
<path fill-rule="evenodd" clip-rule="evenodd" d="M132.396 66.7918C143.148 57.2208 158.139 43.8925 167.947 48.4014C183.084 55.3526 179.943 101.997 166.402 136.137C161.105 149.486 154.625 159.923 149.306 167.313C149.288 167.46 149.276 167.605 149.264 167.75C149.248 167.944 149.232 168.138 149.202 168.336C146.726 186.207 136.257 201.2 120.804 210.131L123.272 212.188C123.329 212.233 123.389 212.279 123.452 212.328C126.472 214.67 135.59 221.74 139.965 238.717H139.945L139.956 238.757C140.637 241.398 143.105 250.967 136.763 266.054C136.459 266.766 128.518 277.389 122.681 275.469C122.25 275.322 121.849 275.128 121.496 274.894C118.529 288.85 118.147 294.463 118.882 296.023C118.886 296.032 118.892 296.043 118.898 296.057C119.021 296.31 119.496 297.293 119.636 298.644C119.802 300.292 119.43 302.114 118.735 303.225C115.504 308.342 99.7184 306.948 93.892 306.431L93.8471 306.427C93.3748 306.378 92.6444 306.303 91.914 305.944C88.5846 304.326 89.6422 299.161 90.3374 296.091C90.7879 294.113 91.2677 292.134 91.7769 290.195C91.0033 290.234 90.2297 290.263 89.4268 290.263C88.4181 290.263 87.4291 290.214 86.4597 290.146C86.9689 292.095 87.4585 294.083 87.9089 296.081C88.6042 299.151 89.6618 304.317 86.3324 305.934C85.5784 306.305 84.8146 306.383 84.3544 306.422L84.3416 306.423C78.505 306.94 62.7404 308.338 59.5113 303.215C58.8161 302.104 58.444 300.282 58.6104 298.635C58.75 297.283 59.2255 296.3 59.3481 296.047C59.3546 296.034 59.36 296.022 59.3644 296.013C60.187 294.259 59.6092 287.446 55.565 269.533C55.046 271.95 53.8808 274.611 51.3152 275.459C45.479 277.389 37.5276 266.756 37.2339 266.044C30.8942 250.95 33.3657 241.366 34.0434 238.738L34.0514 238.707C37.351 225.93 48.6896 217.111 55.5489 212.481C38.2917 204.158 27.5146 188.491 24.5103 169.15L24.3859 168.941C19.3368 161.092 12.3698 149.737 7.52805 134.206C-3.3995 99.1368 -3.02625 52.3884 12.5875 46.6061C22.7167 42.8592 36.6508 57.2938 46.6556 67.658L46.6557 67.658C64.3222 85.9545 72.409 106.328 76.2865 120.011C79.739 119.562 83.0981 119.312 86.789 119.312C90.4799 119.312 94.1397 119.583 97.7373 120.074C102.206 106.839 111.744 85.1613 132.396 66.7918Z" fill="white"/>
<path d="M167.947 48.4014L167.738 48.8557L167.739 48.8557L167.947 48.4014ZM132.396 66.7918L132.729 67.1654L132.729 67.1652L132.396 66.7918ZM166.402 136.137L166.867 136.321L166.867 136.321L166.402 136.137ZM149.306 167.313L148.9 167.021L148.825 167.125L148.81 167.253L149.306 167.313ZM149.264 167.75L148.766 167.708V167.708L149.264 167.75ZM149.202 168.336L148.708 168.261L148.707 168.267L149.202 168.336ZM120.804 210.131L120.554 209.698L119.934 210.057L120.484 210.515L120.804 210.131ZM123.272 212.188L122.952 212.572L122.958 212.578L122.965 212.583L123.272 212.188ZM123.452 212.328L123.145 212.723H123.145L123.452 212.328ZM139.965 238.717V239.217H140.61L140.449 238.592L139.965 238.717ZM139.945 238.717V238.217H139.3L139.461 238.842L139.945 238.717ZM139.956 238.757L140.44 238.632L140.44 238.632L139.956 238.757ZM136.763 266.054L137.223 266.25L137.224 266.248L136.763 266.054ZM122.681 275.469L122.521 275.942L122.525 275.944L122.681 275.469ZM121.496 274.894L121.773 274.477L121.16 274.07L121.007 274.79L121.496 274.894ZM118.882 296.023L118.43 296.236L118.43 296.238L118.882 296.023ZM118.898 296.057L119.348 295.839L118.898 296.057ZM119.636 298.644L120.133 298.594L120.133 298.593L119.636 298.644ZM118.735 303.225L119.158 303.492L119.159 303.49L118.735 303.225ZM93.892 306.431L93.8404 306.929L93.8479 306.93L93.892 306.431ZM93.8471 306.427L93.8987 305.929L93.8983 305.929L93.8471 306.427ZM91.914 305.944L92.1344 305.495L92.1325 305.494L91.914 305.944ZM90.3374 296.091L89.8499 295.98L89.8498 295.981L90.3374 296.091ZM91.7769 290.195L92.2605 290.322L92.434 289.661L91.7517 289.695L91.7769 290.195ZM86.4597 290.146L86.4948 289.647L85.7998 289.598L85.9759 290.272L86.4597 290.146ZM87.9089 296.081L87.4212 296.191L87.4213 296.192L87.9089 296.081ZM86.3324 305.934L86.1139 305.485L86.1119 305.486L86.3324 305.934ZM84.3544 306.422L84.3122 305.923L84.3113 305.924L84.3544 306.422ZM84.3416 306.423L84.2986 305.925L84.2975 305.925L84.3416 306.423ZM59.5113 303.215L59.0875 303.48L59.0883 303.482L59.5113 303.215ZM58.6104 298.635L58.1131 298.583L58.113 298.584L58.6104 298.635ZM59.3481 296.047L59.7982 296.265L59.7982 296.265L59.3481 296.047ZM59.3644 296.013L59.816 296.228L59.8171 296.225L59.3644 296.013ZM55.565 269.533L56.0528 269.423L55.0762 269.428L55.565 269.533ZM51.3152 275.459L51.1583 274.984L51.1582 274.984L51.3152 275.459ZM37.2339 266.044L37.696 265.853L37.6949 265.851L37.2339 266.044ZM34.0434 238.738L34.5275 238.863L34.5275 238.863L34.0434 238.738ZM34.0514 238.707L33.5673 238.582L33.5672 238.582L34.0514 238.707ZM55.5489 212.481L55.8286 212.896L56.5498 212.409L55.7661 212.031L55.5489 212.481ZM24.5103 169.15L25.0044 169.073L24.9895 168.977L24.9398 168.894L24.5103 169.15ZM24.3859 168.941L24.8154 168.685L24.811 168.678L24.8064 168.671L24.3859 168.941ZM7.52805 134.206L7.05068 134.355L7.0507 134.355L7.52805 134.206ZM12.5875 46.6061L12.414 46.1372L12.4138 46.1373L12.5875 46.6061ZM46.6556 67.658L47.0231 67.3187L47.0154 67.3107L46.6556 67.658ZM46.6557 67.658L46.2882 67.9973L46.296 68.0054L46.6557 67.658ZM76.2865 120.011L75.8055 120.148L75.9231 120.563L76.351 120.507L76.2865 120.011ZM97.7373 120.074L97.6697 120.569L98.0789 120.625L98.211 120.234L97.7373 120.074ZM168.156 47.9471C167.315 47.5606 166.44 47.2992 165.536 47.15L165.373 48.1366C166.193 48.2721 166.983 48.5083 167.738 48.8557L168.156 47.9471ZM160.158 47.4161C158.524 47.7924 156.844 48.4075 155.143 49.2009L155.565 50.1072C157.219 49.3357 158.833 48.7476 160.383 48.3906L160.158 47.4161ZM150.51 51.7373C149.057 52.6386 147.6 53.6327 146.152 54.6868L146.741 55.4953C148.173 54.4527 149.609 53.4729 151.037 52.587L150.51 51.7373ZM141.988 57.8858C140.621 58.9858 139.273 60.1136 137.959 61.2399L138.61 61.9992C139.918 60.8779 141.257 59.757 142.615 58.6649L141.988 57.8858ZM134.017 64.6827C133.352 65.2716 132.7 65.8517 132.064 66.4183L132.729 67.1652C133.365 66.5986 134.016 66.0192 134.68 65.4312L134.017 64.6827ZM132.064 66.4182C131.389 67.0186 130.726 67.6225 130.074 68.2295L130.756 68.9612C131.402 68.3593 132.06 67.7606 132.729 67.1654L132.064 66.4182ZM126.223 71.9875C124.949 73.2889 123.724 74.6004 122.548 75.9183L123.294 76.5843C124.46 75.2776 125.674 73.9773 126.937 72.687L126.223 71.9875ZM119.057 80.0114C117.906 81.4249 116.807 82.841 115.757 84.2552L116.56 84.8512C117.601 83.4487 118.691 82.0444 119.833 80.6429L119.057 80.0114ZM112.646 88.6471C111.622 90.163 110.652 91.6712 109.734 93.1658L110.586 93.6892C111.497 92.2065 112.459 90.7106 113.475 89.207L112.646 88.6471ZM107.016 97.8104C106.12 99.4208 105.282 101.007 104.5 102.562L105.393 103.012C106.169 101.469 107 99.8947 107.89 98.2969L107.016 97.8104ZM102.182 107.415C101.411 109.119 100.707 110.771 100.064 112.358L100.991 112.734C101.629 111.158 102.327 109.519 103.093 107.827L102.182 107.415ZM98.1478 117.376C97.833 118.252 97.5387 119.099 97.2636 119.914L98.211 120.234C98.4842 119.425 98.7763 118.584 99.0889 117.715L98.1478 117.376ZM97.8048 119.578C96.8948 119.454 95.9806 119.344 95.0629 119.249L94.9595 120.243C95.8664 120.338 96.77 120.447 97.6697 120.569L97.8048 119.578ZM89.5521 118.862C88.6334 118.829 87.7122 118.812 86.789 118.812V119.812C87.7001 119.812 88.6093 119.829 89.5163 119.861L89.5521 118.862ZM86.789 118.812C85.8884 118.812 85.0072 118.827 84.1394 118.856L84.1727 119.855C85.0293 119.827 85.8994 119.812 86.789 119.812V118.812ZM78.8524 119.211C77.9766 119.299 77.1022 119.401 76.2221 119.515L76.351 120.507C77.2222 120.394 78.087 120.293 78.9523 120.206L78.8524 119.211ZM76.7676 119.875C76.5437 119.085 76.3057 118.272 76.0528 117.439L75.0959 117.73C75.347 118.557 75.5832 119.363 75.8055 120.148L76.7676 119.875ZM74.4847 112.605C73.9519 111.063 73.3698 109.47 72.7332 107.834L71.8013 108.196C72.433 109.82 73.0107 111.401 73.5395 112.932L74.4847 112.605ZM70.7972 103.133C70.138 101.617 69.4323 100.075 68.6763 98.5103L67.7759 98.9454C68.5259 100.497 69.2262 102.028 69.8802 103.532L70.7972 103.133ZM66.3723 93.979C65.589 92.513 64.7607 91.0337 63.8847 89.5454L63.0229 90.0526C63.8918 91.5288 64.7133 92.9961 65.4903 94.4502L66.3723 93.979ZM61.2138 85.2172C60.3082 83.8164 59.3587 82.4115 58.3631 81.0063L57.5471 81.5844C58.5343 82.9778 59.4759 84.371 60.374 85.7602L61.2138 85.2172ZM55.3357 76.9219C54.3118 75.6008 53.2451 74.2824 52.1337 72.97L51.3705 73.6162C52.4724 74.9175 53.5301 76.2246 54.5453 77.5345L55.3357 76.9219ZM48.7624 69.1599C48.1907 68.5414 47.6084 67.9249 47.0154 67.3107L46.296 68.0054C46.884 68.6143 47.4613 69.2255 48.0281 69.8387L48.7624 69.1599ZM47.0231 67.3189L47.0231 67.3189L46.2883 67.9972L46.2883 67.9972L47.0231 67.3189ZM47.023 67.3188L47.023 67.3188L46.2882 67.9971L46.2882 67.9971L47.023 67.3188ZM47.0154 67.3107C46.4233 66.6973 45.817 66.0693 45.1984 65.4314L44.4805 66.1276C45.0982 66.7645 45.7037 67.3917 46.2959 68.0052L47.0154 67.3107ZM41.5269 61.6981C40.301 60.4747 39.0426 59.2474 37.7622 58.0462L37.078 58.7755C38.3491 59.968 39.6 61.1879 40.8206 62.406L41.5269 61.6981ZM33.8515 54.5384C32.4873 53.3767 31.1092 52.2741 29.7289 51.2644L29.1385 52.0715C30.4952 53.0639 31.8539 54.1507 33.2032 55.2997L33.8515 54.5384ZM25.3003 48.3812C23.6636 47.4601 22.0342 46.7185 20.4326 46.2185L20.1346 47.1731C21.6539 47.6474 23.2184 48.3571 24.8099 49.2527L25.3003 48.3812ZM15.0881 45.5425C14.1754 45.6223 13.2821 45.8161 12.414 46.1372L12.761 47.0751C13.5414 46.7864 14.347 46.6111 15.1752 46.5387L15.0881 45.5425ZM12.4138 46.1373C11.5798 46.4461 10.7896 46.8651 10.0429 47.385L10.6144 48.2057C11.2958 47.7312 12.0112 47.3527 12.7611 47.075L12.4138 46.1373ZM6.38549 51.1846C5.46461 52.5227 4.64338 54.0689 3.91749 55.793L4.83913 56.181C5.54394 54.507 6.33412 53.0231 7.20926 51.7515L6.38549 51.1846ZM2.2324 60.6913C1.78877 62.2767 1.40095 63.96 1.06764 65.7282L2.05034 65.9135C2.37895 64.1702 2.76044 62.5152 3.19541 60.9608L2.2324 60.6913ZM0.282883 70.832C0.080376 72.4898 -0.0822364 74.2031 -0.205659 75.9636L0.791892 76.0335C0.914201 74.2889 1.07523 72.5928 1.2755 70.9533L0.282883 70.832ZM-0.451872 81.1002C-0.497278 82.7863 -0.510437 84.5056 -0.491853 86.2519L0.508091 86.2412C0.489634 84.507 0.502712 82.8002 0.547765 81.1271L-0.451872 81.1002ZM-0.349226 91.3901C-0.273992 93.0854 -0.170785 94.7995 -0.0400156 96.5269L0.957131 96.4515C0.82713 94.7341 0.724553 93.0305 0.64979 91.3457L-0.349226 91.3901ZM0.424178 101.646C0.603143 103.342 0.80768 105.046 1.03742 106.753L2.02849 106.62C1.80001 104.922 1.59662 103.228 1.41866 101.541L0.424178 101.646ZM1.79526 111.837C2.07185 113.528 2.3728 115.217 2.69776 116.899L3.67961 116.71C3.35648 115.037 3.05721 113.357 2.78214 111.676L1.79526 111.837ZM3.74715 121.934C4.12337 123.614 4.5237 125.282 4.94779 126.934L5.91638 126.686C5.49492 125.044 5.09699 123.386 4.72298 121.716L3.74715 121.934ZM6.30846 131.896C6.54976 132.721 6.79718 133.541 7.05068 134.355L8.00541 134.057C7.75368 133.249 7.50796 132.435 7.26828 131.615L6.30846 131.896ZM7.0507 134.355C7.29463 135.137 7.54393 135.909 7.79809 136.67L8.74664 136.354C8.49457 135.599 8.24731 134.833 8.00539 134.057L7.0507 134.355ZM9.42829 141.249C10.0159 142.801 10.6212 144.305 11.2391 145.762L12.1597 145.372C11.5468 143.927 10.9463 142.435 10.3635 140.895L9.42829 141.249ZM13.2218 150.198C13.9317 151.709 14.6503 153.162 15.3705 154.559L16.2593 154.1C15.5444 152.714 14.8312 151.272 14.1269 149.773L13.2218 150.198ZM17.6716 158.837C18.4965 160.311 19.3133 161.711 20.1114 163.04L20.9687 162.526C20.1752 161.204 19.3635 159.812 18.5442 158.349L17.6716 158.837ZM22.6618 167.17C23.1083 167.875 23.5436 168.556 23.9654 169.212L24.8064 168.671C24.3856 168.016 23.9516 167.338 23.5068 166.635L22.6618 167.17ZM23.9564 169.197L23.9875 169.249L24.8465 168.737L24.8154 168.685L23.9564 169.197ZM24.0497 169.354L24.0808 169.406L24.9398 168.894L24.9087 168.842L24.0497 169.354ZM24.0162 169.227C24.1361 169.998 24.2683 170.764 24.4127 171.524L25.3951 171.338C25.2528 170.589 25.1226 169.834 25.0044 169.073L24.0162 169.227ZM25.4408 176.071C25.8402 177.586 26.2909 179.075 26.7924 180.534L27.7381 180.209C27.2447 178.773 26.801 177.308 26.4078 175.816L25.4408 176.071ZM28.4751 184.884C29.0956 186.32 29.769 187.723 30.4944 189.09L31.3778 188.622C30.665 187.278 30.0032 185.899 29.3931 184.487L28.4751 184.884ZM32.8495 193.12C33.6917 194.433 34.5869 195.707 35.534 196.939L36.3269 196.33C35.3971 195.12 34.5183 193.869 33.6911 192.58L32.8495 193.12ZM38.5358 200.516C39.5849 201.661 40.685 202.763 41.8353 203.819L42.5115 203.082C41.3826 202.046 40.3029 200.964 39.2733 199.84L38.5358 200.516ZM45.4076 206.825C46.6326 207.769 47.905 208.666 49.2239 209.515L49.765 208.674C48.4697 207.84 47.2205 206.959 46.0179 206.033L45.4076 206.825ZM53.2491 211.875C53.9326 212.239 54.6268 212.592 55.3317 212.931L55.7661 212.031C55.0732 211.697 54.3909 211.35 53.7193 210.993L53.2491 211.875ZM55.2691 212.067C54.5238 212.57 53.7253 213.123 52.8897 213.724L53.4742 214.536C54.3002 213.941 55.0902 213.394 55.8286 212.896L55.2691 212.067ZM48.2985 217.292C46.8754 218.491 45.4287 219.807 44.0186 221.241L44.7316 221.942C46.1168 220.534 47.5399 219.238 48.9426 218.057L48.2985 217.292ZM40.1677 225.621C38.987 227.138 37.884 228.754 36.9054 230.469L37.7739 230.965C38.7263 229.296 39.8021 227.719 40.9569 226.235L40.1677 225.621ZM34.4363 235.778C34.1058 236.69 33.8144 237.625 33.5673 238.582L34.5355 238.832C34.7745 237.907 35.0564 237.002 35.3765 236.118L34.4363 235.778ZM33.5672 238.582L33.5652 238.59L34.5336 238.84L34.5356 238.832L33.5672 238.582ZM33.5612 238.606L33.5592 238.613L34.5275 238.863L34.5296 238.855L33.5612 238.606ZM33.5592 238.613C33.4286 239.12 33.2288 239.894 33.0382 240.919L34.0214 241.102C34.2054 240.112 34.398 239.365 34.5275 238.863L33.5592 238.613ZM32.5256 245.622C32.4729 247.02 32.4963 248.597 32.6459 250.346L33.6422 250.261C33.4963 248.554 33.4737 247.018 33.5249 245.66L32.5256 245.622ZM33.3005 255.015C33.5792 256.458 33.9427 257.985 34.409 259.594L35.3694 259.315C34.9116 257.736 34.5552 256.238 34.2823 254.825L33.3005 255.015ZM35.8993 264.05C36.1703 264.766 36.461 265.495 36.7729 266.238L37.6949 265.851C37.3876 265.119 37.1013 264.401 36.8347 263.696L35.8993 264.05ZM36.7717 266.235C36.8081 266.323 36.8743 266.432 36.9387 266.533C37.0105 266.644 37.1051 266.783 37.2196 266.943C37.4489 267.264 37.7647 267.681 38.1516 268.16L38.9294 267.531C38.553 267.066 38.2494 266.664 38.0332 266.362C37.9249 266.21 37.8402 266.086 37.7799 265.992C37.7122 265.886 37.6935 265.847 37.696 265.854L36.7717 266.235ZM41.2076 271.501C42.2757 272.53 43.4799 273.55 44.7416 274.374L45.2883 273.537C44.0949 272.758 42.9401 271.782 41.9015 270.781L41.2076 271.501ZM49.0452 276.142C49.8631 276.246 50.681 276.195 51.4721 275.934L51.1582 274.984C50.5293 275.192 49.8645 275.238 49.1722 275.15L49.0452 276.142ZM51.4721 275.934C52.1698 275.703 52.7735 275.35 53.2933 274.912L52.6489 274.148C52.2205 274.509 51.7277 274.796 51.1583 274.984L51.4721 275.934ZM55.5086 271.542C55.7422 270.91 55.9195 270.264 56.0539 269.638L55.0762 269.428C54.9498 270.017 54.7848 270.616 54.5707 271.195L55.5086 271.542ZM55.0773 269.643C55.2467 270.394 55.41 271.124 55.5673 271.836L56.5438 271.62C56.3861 270.907 56.2225 270.175 56.0528 269.423L55.0773 269.643ZM56.5109 276.212C56.8407 277.785 57.1355 279.245 57.3978 280.599L58.3796 280.409C58.1162 279.049 57.8203 277.584 57.4896 276.007L56.5109 276.212ZM58.2001 284.997C58.4858 286.686 58.7027 288.148 58.8593 289.408L59.8517 289.285C59.6928 288.007 59.4736 286.53 59.186 284.831L58.2001 284.997ZM59.186 293.809C59.1772 294.871 59.0596 295.485 58.9117 295.801L59.8171 296.225C60.0616 295.704 60.177 294.906 60.186 293.818L59.186 293.809ZM58.9129 295.798C58.912 295.8 58.9109 295.802 58.9097 295.805L59.8111 296.238C59.8127 296.235 59.8144 296.231 59.816 296.228L58.9129 295.798ZM58.9021 295.821C58.9008 295.823 58.8995 295.826 58.8981 295.829L59.7982 296.265C59.7996 296.262 59.801 296.259 59.8023 296.256L58.9021 295.821ZM58.8981 295.829C58.8474 295.934 58.7364 296.163 58.6125 296.489L59.5473 296.844C59.6557 296.559 59.752 296.36 59.7982 296.265L58.8981 295.829ZM58.2191 297.871C58.1756 298.095 58.1389 298.333 58.1131 298.583L59.1078 298.686C59.1304 298.467 59.1625 298.258 59.2007 298.061L58.2191 297.871ZM58.113 298.584C58.071 298.999 58.0613 299.422 58.0803 299.842L59.0793 299.796C59.0624 299.422 59.0712 299.048 59.1079 298.685L58.113 298.584ZM58.5387 302.307C58.6872 302.735 58.8706 303.134 59.0875 303.48L59.9352 302.95C59.7655 302.679 59.6124 302.351 59.4835 301.979L58.5387 302.307ZM59.0883 303.482C59.4973 304.131 60.0746 304.671 60.7662 305.122L61.3122 304.284C60.7121 303.893 60.2497 303.449 59.9343 302.949L59.0883 303.482ZM64.9314 306.719C66.2708 307.017 67.7412 307.212 69.261 307.332L69.3396 306.335C67.8514 306.218 66.4298 306.028 65.1487 305.743L64.9314 306.719ZM73.6006 307.493C75.0811 307.496 76.5468 307.453 77.9298 307.387L77.8822 306.388C76.5118 306.454 75.063 306.496 73.6025 306.493L73.6006 307.493ZM82.243 307.105C83.0501 307.039 83.7735 306.975 84.3858 306.921L84.2975 305.925C83.685 305.979 82.9652 306.043 82.1623 306.108L82.243 307.105ZM84.3846 306.921L84.3878 306.921L84.3018 305.924L84.2986 305.925L84.3846 306.921ZM84.3942 306.92L84.3974 306.92L84.3113 305.924L84.3082 305.924L84.3942 306.92ZM84.3965 306.92C84.5429 306.908 84.7269 306.891 84.934 306.861L84.7934 305.871C84.6145 305.897 84.4527 305.912 84.3122 305.923L84.3965 306.92ZM86.0237 306.603C86.1972 306.543 86.3748 306.471 86.5528 306.383L86.1119 305.486C85.9737 305.554 85.834 305.611 85.6953 305.659L86.0237 306.603ZM86.5509 306.384C87.5482 305.9 88.1988 305.131 88.5952 304.221L87.6784 303.821C87.3648 304.541 86.8703 305.117 86.1139 305.485L86.5509 306.384ZM88.9229 298.643C88.7748 297.672 88.5726 296.748 88.3966 295.971L87.4213 296.192C87.5965 296.966 87.7919 297.86 87.9344 298.794L88.9229 298.643ZM88.3967 295.971C88.2843 295.473 88.1695 294.975 88.0526 294.478L87.0792 294.707C87.1954 295.201 87.3095 295.696 87.4212 296.191L88.3967 295.971ZM87.325 291.503C87.1992 291.006 87.072 290.512 86.9435 290.02L85.9759 290.272C86.1038 290.762 86.2305 291.254 86.3556 291.748L87.325 291.503ZM86.4246 290.645C86.6721 290.662 86.9212 290.678 87.1719 290.693L87.2294 289.694C86.9836 289.68 86.7387 289.664 86.4948 289.647L86.4246 290.645ZM88.6732 290.754C88.9229 290.76 89.1741 290.763 89.4268 290.763V289.763C89.182 289.763 88.9383 289.76 88.6954 289.755L88.6732 290.754ZM89.4268 290.763C89.6273 290.763 89.8259 290.761 90.0229 290.758L90.0062 289.758C89.8143 289.761 89.6213 289.763 89.4268 289.763V290.763ZM91.2108 290.722C91.4085 290.713 91.6054 290.704 91.8021 290.694L91.7517 289.695C91.5572 289.705 91.363 289.714 91.1686 289.723L91.2108 290.722ZM91.2933 290.068C91.1649 290.557 91.0383 291.048 90.9137 291.542L91.8832 291.787C92.0071 291.296 92.1329 290.808 92.2605 290.322L91.2933 290.068ZM90.1929 294.498C90.0767 294.992 89.9624 295.486 89.8499 295.98L90.825 296.202C90.9369 295.71 91.0507 295.218 91.1663 294.727L90.1929 294.498ZM89.8498 295.981C89.6737 296.758 89.4716 297.682 89.3234 298.652L90.312 298.803C90.4544 297.87 90.6498 296.975 90.8251 296.201L89.8498 295.981ZM89.6511 304.23C90.0476 305.141 90.6982 305.909 91.6955 306.394L92.1325 305.494C91.376 305.127 90.8816 304.551 90.5679 303.831L89.6511 304.23ZM91.6936 306.393C91.8683 306.479 92.0422 306.55 92.212 306.609L92.5406 305.664C92.4055 305.617 92.2695 305.562 92.1344 305.495L91.6936 306.393ZM93.2772 306.862C93.4741 306.891 93.6522 306.909 93.7958 306.924L93.8983 305.929C93.7536 305.915 93.5953 305.898 93.4223 305.873L93.2772 306.862ZM93.7954 306.924L93.8067 306.925L93.91 305.931L93.8987 305.929L93.7954 306.924ZM93.8291 306.928L93.8404 306.929L93.9437 305.934L93.9324 305.933L93.8291 306.928ZM93.8479 306.93C94.4599 306.984 95.1836 307.048 95.9916 307.113L96.0721 306.116C95.2685 306.051 94.5483 305.988 93.9362 305.933L93.8479 306.93ZM100.307 307.395C101.69 307.46 103.156 307.503 104.637 307.5L104.635 306.5C103.174 306.503 101.725 306.461 100.354 306.396L100.307 307.395ZM108.979 307.338C110.499 307.218 111.97 307.024 113.31 306.726L113.093 305.749C111.811 306.034 110.389 306.224 108.9 306.341L108.979 307.338ZM117.477 305.131C118.17 304.681 118.748 304.14 119.158 303.492L118.312 302.958C117.997 303.458 117.534 303.902 116.932 304.293L117.477 305.131ZM119.159 303.49C119.376 303.144 119.559 302.745 119.708 302.317L118.763 301.989C118.634 302.36 118.481 302.689 118.311 302.96L119.159 303.49ZM120.166 299.851C120.185 299.432 120.175 299.009 120.133 298.594L119.138 298.695C119.175 299.058 119.184 299.432 119.167 299.806L120.166 299.851ZM120.133 298.593C120.107 298.343 120.071 298.104 120.027 297.88L119.046 298.071C119.084 298.268 119.116 298.477 119.139 298.696L120.133 298.593ZM119.634 296.499C119.51 296.173 119.399 295.944 119.348 295.839L118.448 296.274C118.494 296.37 118.591 296.569 118.699 296.854L119.634 296.499ZM119.348 295.839C119.347 295.836 119.346 295.833 119.344 295.831L118.444 296.266C118.445 296.269 118.447 296.272 118.448 296.274L119.348 295.839ZM119.337 295.815C119.335 295.812 119.334 295.81 119.333 295.808L118.43 296.238C118.432 296.241 118.434 296.244 118.435 296.248L119.337 295.815ZM119.334 295.81C119.166 295.452 119.04 294.714 119.062 293.395L118.062 293.378C118.04 294.711 118.155 295.653 118.43 296.236L119.334 295.81ZM119.558 288.125C119.769 286.624 120.053 284.88 120.42 282.863L119.436 282.684C119.067 284.711 118.781 286.468 118.567 287.985L119.558 288.125ZM121.439 277.617C121.61 276.778 121.792 275.906 121.986 274.998L121.007 274.79C120.814 275.7 120.631 276.575 120.459 277.416L121.439 277.617ZM121.22 275.31C121.321 275.377 121.425 275.441 121.531 275.501L122.024 274.631C121.937 274.582 121.854 274.53 121.773 274.477L121.22 275.31ZM122.183 275.816C122.294 275.861 122.406 275.903 122.521 275.942L122.842 274.995C122.746 274.963 122.653 274.928 122.561 274.89L122.183 275.816ZM122.525 275.944C123.316 276.204 124.134 276.254 124.951 276.149L124.824 275.157C124.131 275.246 123.467 275.201 122.838 274.994L122.525 275.944ZM129.253 274.379C130.514 273.555 131.718 272.536 132.786 271.507L132.092 270.787C131.054 271.787 129.899 272.763 128.706 273.542L129.253 274.379ZM135.842 268.167C136.229 267.689 136.544 267.273 136.774 266.953C136.889 266.793 136.984 266.655 137.056 266.543C137.12 266.443 137.186 266.336 137.223 266.25L136.303 265.858C136.304 265.854 136.284 265.895 136.216 266C136.155 266.094 136.07 266.218 135.962 266.37C135.745 266.672 135.441 267.073 135.064 267.538L135.842 268.167ZM137.224 266.248C137.536 265.506 137.827 264.776 138.098 264.06L137.162 263.706C136.896 264.411 136.609 265.129 136.302 265.86L137.224 266.248ZM139.589 259.606C140.056 257.998 140.42 256.471 140.699 255.029L139.717 254.839C139.444 256.252 139.087 257.749 138.629 259.327L139.589 259.606ZM141.354 250.361C141.504 248.613 141.527 247.037 141.474 245.639L140.475 245.677C140.526 247.035 140.504 248.57 140.358 250.276L141.354 250.361ZM140.961 240.937C140.77 239.914 140.571 239.14 140.44 238.632L139.471 238.882C139.601 239.386 139.794 240.133 139.978 241.12L140.961 240.937ZM140.44 238.632L140.437 238.622L139.469 238.872L139.471 238.882L140.44 238.632ZM140.432 238.602L140.429 238.592L139.461 238.842L139.464 238.852L140.432 238.602ZM139.945 239.217H139.95V238.217H139.945V239.217ZM139.96 239.217H139.965V238.217H139.96V239.217ZM140.449 238.592C140.221 237.708 139.981 236.851 139.729 236.02L138.772 236.31C139.02 237.128 139.256 237.971 139.481 238.842L140.449 238.592ZM137.956 230.991C137.246 229.24 136.487 227.63 135.703 226.152L134.82 226.621C135.588 228.069 136.332 229.647 137.03 231.367L137.956 230.991ZM132.939 221.58C131.825 219.958 130.709 218.562 129.645 217.365L128.898 218.029C129.936 219.197 131.026 220.56 132.114 222.146L132.939 221.58ZM125.829 213.609C124.991 212.888 124.28 212.337 123.758 211.933L123.145 212.723C123.666 213.126 124.359 213.665 125.177 214.368L125.829 213.609ZM123.758 211.933C123.743 211.921 123.728 211.909 123.713 211.898L123.1 212.688C123.115 212.7 123.13 212.711 123.145 212.723L123.758 211.933ZM123.623 211.828C123.608 211.817 123.593 211.805 123.579 211.794L122.965 212.583C122.98 212.595 122.995 212.606 123.01 212.618L123.623 211.828ZM123.592 211.804L122.975 211.29L122.335 212.058L122.952 212.572L123.592 211.804ZM121.741 210.261L121.124 209.747L120.484 210.515L121.101 211.029L121.741 210.261ZM121.054 210.564C121.819 210.122 122.571 209.666 123.311 209.195L122.774 208.351C122.046 208.814 121.306 209.264 120.554 209.698L121.054 210.564ZM127.635 206.172C129.038 205.097 130.387 203.966 131.678 202.781L131.002 202.044C129.733 203.209 128.407 204.321 127.027 205.378L127.635 206.172ZM135.401 199.04C136.587 197.735 137.711 196.379 138.769 194.975L137.97 194.373C136.931 195.753 135.827 197.085 134.661 198.368L135.401 199.04ZM141.747 190.616C142.669 189.121 143.524 187.58 144.306 185.999L143.41 185.555C142.641 187.109 141.802 188.622 140.896 190.091L141.747 190.616ZM146.424 181.163C147.051 179.529 147.605 177.857 148.084 176.152L147.121 175.882C146.651 177.557 146.106 179.199 145.491 180.805L146.424 181.163ZM149.277 171.011C149.436 170.149 149.576 169.28 149.698 168.404L148.707 168.267C148.588 169.128 148.45 169.982 148.293 170.83L149.277 171.011ZM149.697 168.41C149.705 168.356 149.712 168.303 149.719 168.25L148.726 168.129C148.72 168.174 148.715 168.218 148.708 168.261L149.697 168.41ZM149.75 167.94C149.754 167.89 149.759 167.84 149.763 167.791L148.766 167.708C148.762 167.758 148.758 167.805 148.754 167.853L149.75 167.94ZM149.763 167.791C149.766 167.755 149.769 167.719 149.772 167.683L148.775 167.598C148.772 167.635 148.769 167.672 148.766 167.708L149.763 167.791ZM149.791 167.474C149.795 167.44 149.799 167.406 149.803 167.373L148.81 167.253C148.805 167.292 148.801 167.331 148.797 167.37L149.791 167.474ZM149.712 167.605C150.135 167.017 150.566 166.409 151.003 165.783L150.182 165.211C149.749 165.833 149.321 166.436 148.9 167.021L149.712 167.605ZM153.504 162.076C154.29 160.873 155.088 159.613 155.891 158.296L155.037 157.775C154.24 159.083 153.447 160.334 152.667 161.53L153.504 162.076ZM158.162 154.445C158.88 153.182 159.599 151.876 160.313 150.525L159.429 150.058C158.719 151.399 158.006 152.696 157.293 153.95L158.162 154.445ZM162.342 146.541C162.985 145.229 163.622 143.881 164.248 142.496L163.337 142.084C162.715 143.459 162.083 144.798 161.444 146.101L162.342 146.541ZM166.026 138.394C166.309 137.711 166.59 137.02 166.867 136.321L165.938 135.952C165.662 136.646 165.384 137.333 165.102 138.011L166.026 138.394ZM166.867 136.321C167.181 135.529 167.49 134.73 167.793 133.925L166.857 133.573C166.556 134.373 166.25 135.166 165.938 135.952L166.867 136.321ZM169.524 129.08C170.071 127.465 170.596 125.831 171.098 124.185L170.141 123.893C169.643 125.53 169.121 127.154 168.577 128.759L169.524 129.08ZM172.524 119.243C172.974 117.59 173.402 115.928 173.805 114.263L172.833 114.028C172.432 115.684 172.007 117.336 171.559 118.98L172.524 119.243ZM174.943 109.25C175.301 107.565 175.633 105.881 175.939 104.203L174.956 104.024C174.651 105.692 174.321 107.367 173.965 109.043L174.943 109.25ZM176.787 99.1334C177.048 97.4206 177.28 95.7191 177.482 94.0341L176.489 93.9147C176.288 95.5892 176.058 97.2804 175.799 98.9831L176.787 99.1334ZM178.011 88.921C178.16 87.181 178.277 85.4654 178.358 83.7806L177.359 83.7323C177.278 85.4041 177.163 87.1071 177.014 88.8352L178.011 88.921ZM178.499 78.6397C178.508 76.8749 178.474 75.1542 178.397 73.4858L177.398 73.5322C177.474 75.1822 177.508 76.8856 177.499 78.6345L178.499 78.6397ZM177.998 68.3373C177.798 66.549 177.538 64.8412 177.214 63.2269L176.234 63.4234C176.551 65.0061 176.807 66.6852 177.004 68.4482L177.998 68.3373ZM175.902 58.2157C175.307 56.442 174.605 54.8384 173.787 53.4347L172.923 53.9381C173.7 55.2721 174.376 56.8113 174.954 58.5335L175.902 58.2157ZM170.426 49.3705C169.72 48.7956 168.964 48.3181 168.156 47.947L167.739 48.8557C168.465 49.1895 169.15 49.621 169.794 50.1456L170.426 49.3705ZM167.947 48.4014L167.53 49.3099L167.53 49.3101L167.947 48.4014ZM132.396 66.7918L133.061 67.539L133.061 67.5387L132.396 66.7918ZM166.402 136.137L167.332 136.506L167.332 136.505L166.402 136.137ZM149.306 167.313L148.495 166.729L148.344 166.938L148.313 167.193L149.306 167.313ZM149.264 167.75L148.268 167.667V167.667L149.264 167.75ZM149.202 168.336L148.214 168.187L148.212 168.198L149.202 168.336ZM120.804 210.131L120.304 209.265L119.064 209.982L120.164 210.899L120.804 210.131ZM123.272 212.188L122.631 212.956L122.645 212.967L122.658 212.978L123.272 212.188ZM123.452 212.328L122.839 213.118V213.118L123.452 212.328ZM139.965 238.717V239.717H141.255L140.933 238.467L139.965 238.717ZM139.945 238.717V237.717H138.654L138.977 238.967L139.945 238.717ZM139.956 238.757L140.924 238.507L140.924 238.507L139.956 238.757ZM136.763 266.054L137.682 266.447L137.684 266.442L136.763 266.054ZM122.681 275.469L122.36 276.416L122.369 276.419L122.681 275.469ZM121.496 274.894L122.049 274.06L120.824 273.247L120.518 274.686L121.496 274.894ZM118.882 296.023L117.977 296.449L117.979 296.453L118.882 296.023ZM118.898 296.057L119.798 295.621L119.798 295.621L118.898 296.057ZM119.636 298.644L120.631 298.544L120.631 298.542L119.636 298.644ZM118.735 303.225L119.581 303.759L119.583 303.756L118.735 303.225ZM93.892 306.431L93.7887 307.426L93.7962 307.427L93.8037 307.428L93.892 306.431ZM93.8471 306.427L93.9504 305.432L93.9495 305.432L93.8471 306.427ZM91.914 305.944L92.3548 305.047L92.3511 305.045L91.914 305.944ZM90.3374 296.091L89.3624 295.869L89.3621 295.87L90.3374 296.091ZM91.7769 290.195L92.7441 290.449L93.0911 289.127L91.7266 289.196L91.7769 290.195ZM86.4597 290.146L86.5299 289.148L85.14 289.051L85.4922 290.399L86.4597 290.146ZM87.9089 296.081L86.9334 296.301L86.9336 296.302L87.9089 296.081ZM86.3324 305.934L85.8953 305.035L85.8915 305.037L86.3324 305.934ZM84.3544 306.422L84.27 305.425L84.2683 305.425L84.3544 306.422ZM84.3416 306.423L84.2556 305.427L84.2533 305.427L84.3416 306.423ZM59.5113 303.215L58.6636 303.746L58.6654 303.749L59.5113 303.215ZM58.6104 298.635L57.6157 298.532L57.6155 298.534L58.6104 298.635ZM59.3481 296.047L60.2483 296.483L60.2483 296.482L59.3481 296.047ZM59.3644 296.013L60.2675 296.443L60.2698 296.438L59.3644 296.013ZM55.565 269.533L56.5405 269.313L54.5873 269.323L55.565 269.533ZM51.3152 275.459L51.0014 274.509L51.0013 274.509L51.3152 275.459ZM37.2339 266.044L38.1582 265.663L38.1559 265.657L37.2339 266.044ZM34.0434 238.738L35.0117 238.988L35.0117 238.988L34.0434 238.738ZM34.0514 238.707L33.0832 238.457L33.083 238.457L34.0514 238.707ZM55.5489 212.481L56.1084 213.31L57.5506 212.336L55.9833 211.58L55.5489 212.481ZM24.5103 169.15L25.4985 168.996L25.4687 168.805L25.3693 168.638L24.5103 169.15ZM24.3859 168.941L25.2449 168.429L25.2362 168.414L25.2269 168.4L24.3859 168.941ZM7.52805 134.206L6.57332 134.503L6.57336 134.504L7.52805 134.206ZM12.5875 46.6061L12.2405 45.6682L12.2402 45.6684L12.5875 46.6061ZM46.6556 67.658L47.3904 66.9797L47.3829 66.9715L47.3751 66.9634L46.6556 67.658ZM46.6557 67.658L45.9209 68.3363L45.9285 68.3446L45.9363 68.3527L46.6557 67.658ZM76.2865 120.011L75.3244 120.284L75.5597 121.114L76.4154 121.003L76.2865 120.011ZM97.7373 120.074L97.6022 121.065L98.4205 121.176L98.6847 120.394L97.7373 120.074ZM168.365 47.4928C167.482 47.0868 166.563 46.8128 165.618 46.6567L165.292 48.63C166.07 48.7585 166.816 48.9821 167.53 49.3099L168.365 47.4928ZM160.046 46.9289C158.37 47.3149 156.656 47.9433 154.931 48.7478L155.776 50.5603C157.407 49.7998 158.987 49.2252 160.495 48.8779L160.046 46.9289ZM150.246 51.3125C148.781 52.2215 147.313 53.2227 145.858 54.2826L147.035 55.8995C148.459 54.8627 149.885 53.8901 151.3 53.0119L150.246 51.3125ZM141.674 57.4962C140.302 58.6002 138.951 59.7314 137.634 60.8602L138.935 62.3789C140.241 61.26 141.576 60.1426 142.928 59.0545L141.674 57.4962ZM133.685 64.3084C133.02 64.8978 132.368 65.4783 131.732 66.0449L133.061 67.5387C133.698 66.972 134.348 66.393 135.012 65.8054L133.685 64.3084ZM131.732 66.0446C131.054 66.6475 130.388 67.254 129.734 67.8636L131.097 69.327C131.74 68.7278 132.395 68.1316 133.061 67.539L131.732 66.0446ZM125.865 71.6377C124.586 72.9447 123.356 74.2618 122.175 75.5852L123.667 76.9173C124.828 75.6162 126.037 74.3215 127.295 73.0367L125.865 71.6377ZM118.67 79.6957C117.514 81.1151 116.41 82.5371 115.356 83.9572L116.962 85.1493C117.998 83.7526 119.084 82.3542 120.22 80.9586L118.67 79.6957ZM112.232 88.3672C111.203 89.8893 110.23 91.4035 109.308 92.9041L111.012 93.9509C111.919 92.4742 112.877 90.9844 113.889 89.487L112.232 88.3672ZM106.58 97.5672C105.679 99.1839 104.838 100.777 104.053 102.338L105.84 103.237C106.613 101.7 107.441 100.132 108.327 98.5402L106.58 97.5672ZM101.727 107.208C100.952 108.92 100.245 110.578 99.6006 112.171L101.454 112.921C102.09 111.352 102.786 109.719 103.549 108.033L101.727 107.208ZM97.6773 117.207C97.3613 118.086 97.0659 118.936 96.7898 119.754L98.6847 120.394C98.9569 119.588 99.248 118.75 99.5594 117.884L97.6773 117.207ZM97.8724 119.083C96.9572 118.958 96.0377 118.847 95.1146 118.751L94.9079 120.741C95.8093 120.834 96.7076 120.943 97.6022 121.065L97.8724 119.083ZM89.57 118.362C88.6455 118.329 87.7183 118.312 86.789 118.312V120.312C87.694 120.312 88.5973 120.328 89.4984 120.361L89.57 118.362ZM86.789 118.312C85.8829 118.312 84.9961 118.327 84.1227 118.356L84.1893 120.355C85.0403 120.327 85.9049 120.312 86.789 120.312V118.312ZM78.8024 118.714C77.9215 118.802 77.0422 118.905 76.1576 119.02L76.4154 121.003C77.2822 120.89 78.1421 120.79 79.0023 120.704L78.8024 118.714ZM77.2486 119.739C77.0239 118.945 76.7851 118.13 76.5312 117.294L74.6175 117.875C74.8676 118.699 75.1029 119.502 75.3244 120.284L77.2486 119.739ZM74.9573 112.442C74.4225 110.894 73.8381 109.294 73.1991 107.652L71.3353 108.378C71.9646 109.995 72.5401 111.57 73.067 113.095L74.9573 112.442ZM71.2557 102.933C70.594 101.412 69.8854 99.8633 69.1265 98.2928L67.3257 99.163C68.0727 100.709 68.7702 102.233 69.4217 103.731L71.2557 102.933ZM66.8133 93.7433C66.0269 92.2715 65.1952 90.7862 64.3156 89.2918L62.592 90.3063C63.4573 91.7763 64.2755 93.2376 65.0493 94.6859L66.8133 93.7433ZM61.6337 84.9458C60.7243 83.5391 59.7708 82.1284 58.771 80.7173L57.1391 81.8735C58.1222 83.261 59.0598 84.6482 59.9541 86.0316L61.6337 84.9458ZM55.7309 76.6156C54.7027 75.2889 53.6314 73.9649 52.5152 72.6469L50.9889 73.9393C52.0861 75.235 53.1392 76.5365 54.1502 77.8408L55.7309 76.6156ZM49.1296 68.8205C48.5554 68.1994 47.9706 67.5802 47.3751 66.9634L45.9363 68.3527C46.5217 68.959 47.0965 69.5675 47.6609 70.1781L49.1296 68.8205ZM47.3905 66.9798L47.3905 66.9797L45.9209 68.3363L45.9209 68.3363L47.3905 66.9798ZM47.3904 66.9797L47.3904 66.9797L45.9208 68.3363L45.9208 68.3363L47.3904 66.9797ZM47.3751 66.9634C46.7831 66.3501 46.1763 65.7216 45.5573 65.0833L44.1216 66.4757C44.7388 67.1121 45.3439 67.7389 45.9362 68.3525L47.3751 66.9634ZM41.8801 61.3442C40.6515 60.1181 39.3893 58.8871 38.1044 57.6815L36.7359 59.1401C38.0024 60.3283 39.2495 61.5445 40.4674 62.7599L41.8801 61.3442ZM34.1757 54.1577C32.804 52.9897 31.4162 51.8791 30.0241 50.8608L28.8433 52.475C30.1883 53.4589 31.5371 54.5377 32.879 55.6804L34.1757 54.1577ZM25.5455 47.9455C23.8862 47.0117 22.2243 46.2541 20.5817 45.7412L19.9856 47.6503C21.4638 48.1118 22.9958 48.8055 24.5647 49.6884L25.5455 47.9455ZM15.0446 45.0444C14.0897 45.1279 13.1525 45.3309 12.2405 45.6682L12.9344 47.544C13.671 47.2715 14.4327 47.1055 15.2188 47.0368L15.0446 45.0444ZM12.2402 45.6684C11.3642 45.9928 10.5366 46.432 9.75723 46.9747L10.9001 48.616C11.5489 48.1642 12.2268 47.8061 12.9348 47.5439L12.2402 45.6684ZM5.97361 50.9011C5.02985 52.2725 4.19311 53.8498 3.45667 55.5989L5.29995 56.375C5.99421 54.7261 6.76887 53.2734 7.62115 52.035L5.97361 50.9011ZM1.7509 60.5566C1.30294 62.1574 0.911953 63.855 0.576296 65.6356L2.54168 66.0061C2.86794 64.2753 3.24627 62.6345 3.67691 61.0956L1.7509 60.5566ZM-0.213428 70.7714C-0.41705 72.4383 -0.580455 74.1602 -0.704435 75.9286L1.29067 76.0685C1.41242 74.3318 1.57266 72.6443 1.77182 71.0139L-0.213428 70.7714ZM-0.951691 81.0867C-0.997272 82.7794 -1.01047 84.505 -0.991824 86.2572L1.00806 86.2359C0.98967 84.5076 1.00271 82.8071 1.04758 81.1405L-0.951691 81.0867ZM-0.848735 91.4122C-0.773265 93.1129 -0.669742 94.8322 -0.538589 96.5647L1.4557 96.4137C1.32609 94.7015 1.22383 93.003 1.1493 91.3236L-0.848735 91.4122ZM-0.0730624 101.698C0.106407 103.399 0.311514 105.108 0.541891 106.82L2.52402 106.553C2.29618 104.86 2.09335 103.171 1.9159 101.488L-0.0730624 101.698ZM1.30182 111.918C1.57918 113.614 1.88096 115.307 2.20684 116.994L4.17054 116.615C3.84832 114.947 3.54989 113.272 3.27558 111.595L1.30182 111.918ZM3.25924 122.044C3.63656 123.728 4.03809 125.402 4.4635 127.059L6.40068 126.561C5.98053 124.925 5.58381 123.272 5.21089 121.607L3.25924 122.044ZM5.82855 132.036C6.07066 132.864 6.31893 133.687 6.57332 134.503L8.48277 133.908C8.23194 133.103 7.98706 132.292 7.74819 131.475L5.82855 132.036ZM6.57336 134.504C6.81829 135.289 7.06861 136.064 7.32382 136.829L9.22092 136.196C8.96988 135.443 8.72365 134.681 8.48273 133.908L6.57336 134.504ZM8.96067 141.426C9.55067 142.985 10.1584 144.495 10.7788 145.958L12.62 145.177C12.0096 143.737 11.4116 142.251 10.8311 140.718L8.96067 141.426ZM12.7693 150.411C13.4819 151.927 14.2032 153.386 14.9261 154.788L16.7038 153.871C15.9914 152.49 15.281 151.053 14.5794 149.56L12.7693 150.411ZM17.2353 159.082C18.0629 160.56 18.8824 161.965 19.6827 163.298L21.3974 162.268C20.6062 160.95 19.797 159.563 18.9805 158.105L17.2353 159.082ZM22.2393 167.437C22.6866 168.144 23.1227 168.826 23.5449 169.482L25.2269 168.4C24.8065 167.746 24.3732 167.069 23.9292 166.368L22.2393 167.437ZM23.5269 169.453L23.558 169.505L25.276 168.481L25.2449 168.429L23.5269 169.453ZM23.6202 169.61L23.6513 169.662L25.3693 168.638L25.3382 168.586L23.6202 169.61ZM23.5222 169.303C23.6429 170.081 23.776 170.852 23.9215 171.618L25.8863 171.244C25.7451 170.501 25.6158 169.752 25.4985 168.996L23.5222 169.303ZM24.9573 176.198C25.3597 177.725 25.814 179.226 26.3195 180.696L28.2109 180.046C27.7216 178.623 27.2815 177.169 26.8913 175.688L24.9573 176.198ZM28.0161 185.082C28.6419 186.53 29.321 187.945 30.0527 189.325L31.8195 188.388C31.1131 187.056 30.457 185.689 29.8521 184.289L28.0161 185.082ZM32.4286 193.39C33.2785 194.715 34.1817 196 35.1376 197.244L36.7233 196.025C35.8023 194.827 34.9315 193.588 34.112 192.31L32.4286 193.39ZM38.167 200.853C39.2259 202.009 40.3362 203.122 41.4971 204.187L42.8496 202.714C41.7313 201.687 40.6619 200.616 39.642 199.502L38.167 200.853ZM45.1024 207.221C46.3386 208.173 47.6226 209.079 48.9534 209.935L50.0356 208.253C48.7521 207.427 47.5144 206.554 46.3231 205.637L45.1024 207.221ZM53.014 212.317C53.7034 212.684 54.4036 213.039 55.1144 213.382L55.9833 211.58C55.2964 211.249 54.62 210.906 53.9543 210.551L53.014 212.317ZM54.9894 211.652C54.2406 212.158 53.4378 212.713 52.5975 213.319L53.7665 214.942C54.5877 214.35 55.3735 213.806 56.1084 213.31L54.9894 211.652ZM47.9764 216.91C46.5432 218.117 45.0847 219.444 43.6621 220.89L45.088 222.293C46.4608 220.897 47.8722 219.612 49.2647 218.44L47.9764 216.91ZM39.7731 225.314C38.5795 226.848 37.4628 228.484 36.4712 230.221L38.2081 231.212C39.1475 229.567 40.2096 228.01 41.3515 226.542L39.7731 225.314ZM33.9662 235.607C33.6305 236.534 33.3344 237.484 33.0832 238.457L35.0196 238.957C35.2545 238.048 35.5317 237.158 35.8466 236.289L33.9662 235.607ZM33.083 238.457L33.081 238.465L35.0177 238.964L35.0197 238.957L33.083 238.457ZM33.077 238.481L33.075 238.489L35.0117 238.988L35.0137 238.98L33.077 238.481ZM33.0751 238.488C32.9438 238.997 32.7405 239.785 32.5466 240.827L34.5129 241.193C34.6937 240.221 34.8827 239.488 35.0117 238.988L33.0751 238.488ZM32.0259 245.604C31.9725 247.021 31.9963 248.619 32.1477 250.389L34.1404 250.218C33.9962 248.533 33.9741 247.017 34.0245 245.679L32.0259 245.604ZM32.8095 255.109C33.0911 256.568 33.4582 258.11 33.9287 259.733L35.8497 259.176C35.396 257.611 35.0433 256.128 34.7733 254.73L32.8095 255.109ZM35.4317 264.227C35.7047 264.948 35.9977 265.684 36.3119 266.432L38.1559 265.657C37.8509 264.931 37.5668 264.218 37.3023 263.519L35.4317 264.227ZM36.3096 266.426C36.3654 266.561 36.4554 266.705 36.518 266.803C36.5956 266.924 36.6952 267.069 36.8128 267.234C37.0486 267.564 37.3705 267.989 37.7627 268.474L39.3183 267.217C38.9472 266.758 38.6497 266.364 38.44 266.071C38.3348 265.924 38.255 265.806 38.2006 265.722C38.1311 265.613 38.1363 265.61 38.1582 265.663L36.3096 266.426ZM40.8607 271.861C41.9435 272.905 43.1724 273.947 44.4682 274.793L45.5617 273.118C44.4024 272.361 43.2724 271.408 42.2484 270.421L40.8607 271.861ZM48.9818 276.638C49.8624 276.75 50.7568 276.697 51.6291 276.408L51.0013 274.509C50.4534 274.691 49.8652 274.735 49.2357 274.654L48.9818 276.638ZM51.629 276.408C52.3909 276.157 53.0501 275.771 53.6155 275.295L52.3268 273.765C51.9439 274.088 51.5067 274.342 51.0014 274.509L51.629 276.408ZM55.9776 271.715C56.2209 271.057 56.4044 270.388 56.5427 269.743L54.5873 269.323C54.465 269.893 54.3062 270.469 54.1018 271.021L55.9776 271.715ZM54.5896 269.754C54.7588 270.503 54.922 271.233 55.0791 271.944L57.032 271.512C56.8741 270.798 56.7103 270.065 56.5405 269.313L54.5896 269.754ZM56.0216 276.314C56.3509 277.885 56.6452 279.343 56.9069 280.694L58.8704 280.314C58.6065 278.952 58.3102 277.484 57.979 275.904L56.0216 276.314ZM57.7071 285.081C57.9918 286.764 58.2076 288.219 58.3631 289.47L60.3479 289.223C60.1879 287.937 59.9675 286.453 59.679 284.747L57.7071 285.081ZM58.686 293.805C58.6773 294.854 58.5586 295.376 58.459 295.589L60.2698 296.438C60.5626 295.813 60.6768 294.924 60.6859 293.822L58.686 293.805ZM58.4614 295.584C58.4608 295.585 58.46 295.586 58.459 295.589L60.2618 296.454C60.2636 296.451 60.2656 296.447 60.2675 296.443L58.4614 295.584ZM58.452 295.603C58.4507 295.606 58.4494 295.608 58.448 295.611L60.2483 296.482C60.2497 296.48 60.2511 296.477 60.2525 296.474L58.452 295.603ZM58.448 295.611C58.3951 295.721 58.2767 295.965 58.1451 296.312L60.0147 297.022C60.1154 296.757 60.2042 296.573 60.2483 296.483L58.448 295.611ZM57.7282 297.775C57.6821 298.013 57.6432 298.266 57.6157 298.532L59.6051 298.737C59.6261 298.534 59.6559 298.34 59.6916 298.156L57.7282 297.775ZM57.6155 298.534C57.571 298.975 57.5608 299.422 57.5808 299.864L59.5787 299.774C59.5629 299.422 59.5713 299.072 59.6054 298.735L57.6155 298.534ZM58.0664 302.471C58.2247 302.927 58.4231 303.361 58.6636 303.746L60.359 302.685C60.213 302.451 60.0749 302.158 59.9558 301.815L58.0664 302.471ZM58.6654 303.749C59.1211 304.471 59.7559 305.061 60.4932 305.541L61.5852 303.866C61.0309 303.504 60.6259 303.108 60.3573 302.682L58.6654 303.749ZM64.8227 307.207C66.1913 307.512 67.6861 307.709 69.2218 307.83L69.3788 305.837C67.9066 305.721 66.5093 305.534 65.2574 305.255L64.8227 307.207ZM73.5996 307.993C75.0902 307.996 76.5643 307.953 77.9535 307.887L77.8584 305.889C76.4943 305.954 75.054 305.996 73.6034 305.993L73.5996 307.993ZM82.2833 307.603C83.0926 307.537 83.8177 307.473 84.4299 307.419L84.2533 305.427C83.6408 305.481 82.9227 305.545 82.122 305.609L82.2833 307.603ZM84.4276 307.419L84.4308 307.419L84.2588 305.426L84.2556 305.427L84.4276 307.419ZM84.4372 307.418L84.4404 307.418L84.2683 305.425L84.2652 305.426L84.4372 307.418ZM84.4387 307.418C84.588 307.405 84.7831 307.388 85.0043 307.356L84.7231 305.376C84.5583 305.4 84.4076 305.414 84.27 305.425L84.4387 307.418ZM86.188 307.076C86.3788 307.009 86.5753 306.929 86.7733 306.832L85.8915 305.037C85.7732 305.095 85.6525 305.144 85.531 305.187L86.188 307.076ZM86.7694 306.834C87.8871 306.291 88.6158 305.426 89.0536 304.42L87.22 303.622C86.9478 304.247 86.5314 304.726 85.8953 305.035L86.7694 306.834ZM89.4172 298.567C89.2662 297.578 89.0607 296.639 88.8842 295.86L86.9336 296.302C87.1085 297.074 87.3005 297.954 87.4401 298.869L89.4172 298.567ZM88.8844 295.861C88.7717 295.361 88.6565 294.862 88.5393 294.364L86.5925 294.822C86.7084 295.314 86.8221 295.807 86.9334 296.301L88.8844 295.861ZM87.8097 291.38C87.6836 290.882 87.556 290.386 87.4272 289.893L85.4922 290.399C85.6198 290.887 85.7461 291.378 85.8709 291.871L87.8097 291.38ZM86.3895 291.144C86.6388 291.161 86.8901 291.177 87.1431 291.192L87.2582 289.195C87.0147 289.181 86.772 289.166 86.5299 289.148L86.3895 291.144ZM88.662 291.254C88.9152 291.26 89.1701 291.263 89.4268 291.263V289.263C89.186 289.263 88.946 289.26 88.7066 289.255L88.662 291.254ZM89.4268 291.263C89.6303 291.263 89.8317 291.261 90.0313 291.258L89.9979 289.258C89.8086 289.261 89.6184 289.263 89.4268 289.263V291.263ZM91.232 291.221C91.4312 291.213 91.6296 291.203 91.8272 291.193L91.7266 289.196C91.5331 289.206 91.3402 289.215 91.1474 289.223L91.232 291.221ZM90.8097 289.941C90.6809 290.431 90.5539 290.924 90.4289 291.419L92.368 291.909C92.4915 291.42 92.6169 290.933 92.7441 290.449L90.8097 289.941ZM89.7062 294.384C89.5898 294.878 89.4751 295.374 89.3624 295.869L91.3125 296.313C91.4242 295.822 91.5377 295.332 91.653 294.842L89.7062 294.384ZM89.3621 295.87C89.1857 296.649 88.9802 297.588 88.8292 298.577L90.8063 298.879C90.9459 297.964 91.1379 297.084 91.3127 296.312L89.3621 295.87ZM89.1927 304.43C89.6306 305.435 90.3593 306.301 91.4769 306.844L92.3511 305.045C91.715 304.736 91.2986 304.256 91.0264 303.631L89.1927 304.43ZM91.4732 306.842C91.6678 306.937 91.8605 307.016 92.0477 307.081L92.7048 305.192C92.5872 305.151 92.4701 305.103 92.3548 305.047L91.4732 306.842ZM93.2047 307.357C93.4135 307.388 93.6016 307.407 93.7446 307.422L93.9495 305.432C93.8042 305.417 93.6558 305.402 93.4948 305.378L93.2047 307.357ZM93.7438 307.421L93.755 307.423L93.9616 305.433L93.9504 305.432L93.7438 307.421ZM93.7775 307.425L93.7887 307.426L93.9953 305.437L93.9841 305.436L93.7775 307.425ZM93.8037 307.428C94.4157 307.482 95.1412 307.546 95.9513 307.611L96.1123 305.618C95.3109 305.553 94.5925 305.49 93.9803 305.435L93.8037 307.428ZM100.283 307.894C101.673 307.96 103.147 308.003 104.639 308L104.634 306C103.183 306.003 101.742 305.961 100.378 305.897L100.283 307.894ZM109.018 307.837C110.554 307.716 112.049 307.518 113.418 307.214L112.984 305.261C111.732 305.54 110.334 305.727 108.861 305.843L109.018 307.837ZM117.75 305.55C118.488 305.07 119.124 304.482 119.581 303.759L117.89 302.691C117.621 303.117 117.215 303.512 116.66 303.874L117.75 305.55ZM119.583 303.756C119.823 303.371 120.022 302.937 120.18 302.481L118.291 301.825C118.171 302.168 118.033 302.461 117.887 302.695L119.583 303.756ZM120.666 299.874C120.686 299.432 120.675 298.985 120.631 298.544L118.641 298.745C118.675 299.082 118.684 299.432 118.668 299.784L120.666 299.874ZM120.631 298.542C120.603 298.276 120.564 298.023 120.518 297.785L118.555 298.166C118.59 298.35 118.62 298.544 118.641 298.747L120.631 298.542ZM120.101 296.321C119.97 295.975 119.851 295.73 119.798 295.621L117.998 296.492C118.042 296.583 118.131 296.767 118.232 297.032L120.101 296.321ZM119.798 295.621C119.797 295.618 119.796 295.615 119.794 295.613L117.994 296.484C117.995 296.486 117.997 296.489 117.998 296.492L119.798 295.621ZM119.787 295.598C119.786 295.596 119.785 295.594 119.785 295.593L117.979 296.453C117.981 296.457 117.983 296.46 117.985 296.464L119.787 295.598ZM119.787 295.597C119.671 295.351 119.54 294.716 119.562 293.403L117.563 293.37C117.54 294.71 117.65 295.753 117.977 296.449L119.787 295.597ZM120.053 288.194C120.263 286.701 120.546 284.964 120.912 282.952L118.944 282.594C118.574 284.626 118.287 286.391 118.072 287.916L120.053 288.194ZM121.929 277.717C122.1 276.88 122.282 276.008 122.475 275.102L120.518 274.686C120.325 275.597 120.142 276.474 119.969 277.316L121.929 277.717ZM120.944 275.727C121.054 275.8 121.168 275.87 121.285 275.936L122.271 274.196C122.194 274.153 122.12 274.107 122.049 274.06L120.944 275.727ZM121.994 276.279C122.114 276.328 122.236 276.374 122.36 276.416L123.003 274.522C122.916 274.492 122.832 274.461 122.75 274.427L121.994 276.279ZM122.369 276.419C123.241 276.705 124.135 276.758 125.015 276.645L124.76 274.661C124.13 274.742 123.542 274.699 122.994 274.519L122.369 276.419ZM129.527 274.798C130.822 273.952 132.05 272.91 133.133 271.867L131.745 270.426C130.721 271.413 129.592 272.366 128.433 273.124L129.527 274.798ZM136.231 268.482C136.623 267.997 136.944 267.573 137.18 267.244C137.298 267.08 137.398 266.935 137.475 266.815C137.539 266.717 137.627 266.577 137.682 266.447L135.843 265.662C135.863 265.614 135.866 265.621 135.796 265.728C135.741 265.814 135.661 265.931 135.555 266.078C135.345 266.372 135.047 266.765 134.676 267.224L136.231 268.482ZM137.684 266.442C137.999 265.694 138.292 264.959 138.565 264.238L136.695 263.529C136.43 264.228 136.146 264.941 135.841 265.667L137.684 266.442ZM140.069 259.746C140.54 258.123 140.908 256.581 141.19 255.124L139.226 254.744C138.956 256.142 138.603 257.624 138.148 259.188L140.069 259.746ZM141.852 250.404C142.004 248.635 142.028 247.038 141.974 245.62L139.975 245.696C140.026 247.034 140.004 248.548 139.859 250.233L141.852 250.404ZM141.452 240.845C141.259 239.805 141.055 239.018 140.924 238.507L138.987 239.007C139.117 239.508 139.306 240.242 139.486 241.212L141.452 240.845ZM140.924 238.507L140.921 238.497L138.985 238.997L138.987 239.007L140.924 238.507ZM140.916 238.477L140.913 238.467L138.977 238.967L138.979 238.977L140.916 238.477ZM139.945 239.717H139.95V237.717H139.945V239.717ZM139.96 239.717H139.965V237.717H139.96V239.717ZM140.933 238.467C140.704 237.577 140.461 236.713 140.207 235.875L138.293 236.455C138.539 237.266 138.774 238.103 138.996 238.966L140.933 238.467ZM138.42 230.803C137.702 229.036 136.937 227.41 136.145 225.918L134.378 226.855C135.139 228.288 135.875 229.851 136.567 231.555L138.42 230.803ZM133.351 221.297C132.225 219.657 131.096 218.244 130.019 217.032L128.524 218.361C129.549 219.514 130.626 220.862 131.702 222.429L133.351 221.297ZM126.155 213.23C125.306 212.5 124.587 211.943 124.064 211.538L122.839 213.118C123.359 213.521 124.044 214.053 124.851 214.747L126.155 213.23ZM124.064 211.538C124.049 211.526 124.034 211.514 124.02 211.503L122.794 213.083C122.809 213.095 122.824 213.106 122.839 213.118L124.064 211.538ZM123.93 211.433C123.915 211.422 123.9 211.41 123.886 211.399L122.658 212.978C122.673 212.989 122.688 213.001 122.703 213.013L123.93 211.433ZM123.912 211.42L123.295 210.906L122.015 212.442L122.631 212.956L123.912 211.42ZM122.061 209.877L121.444 209.363L120.164 210.899L120.781 211.414L122.061 209.877ZM121.305 210.997C122.075 210.552 122.833 210.091 123.579 209.617L122.505 207.929C121.784 208.389 121.05 208.834 120.304 209.265L121.305 210.997ZM127.939 206.569C129.354 205.485 130.714 204.344 132.016 203.149L130.664 201.676C129.406 202.83 128.091 203.933 126.723 204.981L127.939 206.569ZM135.771 199.376C136.967 198.06 138.101 196.692 139.168 195.276L137.571 194.072C136.541 195.44 135.446 196.76 134.291 198.031L135.771 199.376ZM142.172 190.879C143.103 189.37 143.965 187.816 144.754 186.221L142.962 185.334C142.2 186.873 141.368 188.372 140.47 189.829L142.172 190.879ZM146.891 181.342C147.524 179.693 148.083 178.007 148.565 176.288L146.64 175.747C146.174 177.407 145.634 179.035 145.024 180.626L146.891 181.342ZM149.769 171.102C149.929 170.233 150.071 169.356 150.193 168.473L148.212 168.198C148.094 169.052 147.957 169.899 147.802 170.739L149.769 171.102ZM150.191 168.485C150.2 168.425 150.208 168.367 150.215 168.31L148.23 168.069C148.225 168.109 148.219 168.148 148.214 168.187L150.191 168.485ZM150.248 167.983C150.253 167.932 150.257 167.881 150.261 167.832L148.268 167.667C148.264 167.716 148.26 167.763 148.256 167.81L150.248 167.983ZM150.261 167.832C150.264 167.796 150.267 167.76 150.27 167.725L148.277 167.555C148.274 167.593 148.271 167.631 148.268 167.667L150.261 167.832ZM150.289 167.526C150.292 167.494 150.295 167.463 150.299 167.432L148.313 167.193C148.308 167.236 148.304 167.277 148.299 167.318L150.289 167.526ZM150.118 167.897C150.543 167.307 150.975 166.697 151.413 166.069L149.772 164.925C149.34 165.545 148.914 166.146 148.495 166.729L150.118 167.897ZM153.923 162.35C154.711 161.142 155.512 159.878 156.318 158.557L154.611 157.515C153.815 158.818 153.026 160.065 152.248 161.256L153.923 162.35ZM158.596 154.692C159.317 153.425 160.038 152.114 160.755 150.759L158.987 149.824C158.28 151.16 157.569 152.453 156.858 153.703L158.596 154.692ZM162.791 146.761C163.437 145.445 164.075 144.091 164.703 142.702L162.881 141.878C162.261 143.248 161.632 144.583 160.995 145.881L162.791 146.761ZM166.488 138.586C166.772 137.9 167.054 137.207 167.332 136.506L165.473 135.768C165.199 136.459 164.921 137.143 164.64 137.819L166.488 138.586ZM167.332 136.505C167.647 135.711 167.957 134.909 168.261 134.102L166.389 133.397C166.089 134.194 165.784 134.984 165.473 135.768L167.332 136.505ZM169.997 129.241C170.546 127.62 171.073 125.982 171.576 124.33L169.663 123.748C169.166 125.38 168.646 126.999 168.103 128.599L169.997 129.241ZM173.006 119.374C173.458 117.717 173.887 116.051 174.291 114.381L172.347 113.91C171.947 115.562 171.524 117.209 171.077 118.848L173.006 119.374ZM175.432 109.354C175.791 107.664 176.124 105.976 176.431 104.293L174.464 103.934C174.16 105.598 173.831 107.268 173.476 108.939L175.432 109.354ZM177.282 99.2086C177.543 97.4907 177.775 95.784 177.978 94.0937L175.993 93.8551C175.792 95.5242 175.562 97.2103 175.304 98.908L177.282 99.2086ZM178.509 88.9639C178.659 87.2179 178.776 85.4961 178.857 83.8047L176.86 83.7081C176.779 85.3734 176.664 87.0702 176.516 88.7923L178.509 88.9639ZM178.999 78.6423C179.008 76.8695 178.974 75.1402 178.896 73.4627L176.898 73.5554C176.975 75.1961 177.008 76.891 176.999 78.6319L178.999 78.6423ZM178.495 68.2818C178.294 66.481 178.031 64.7588 177.705 63.1287L175.744 63.5216C176.057 65.0886 176.311 66.7532 176.507 68.5037L178.495 68.2818ZM176.376 58.0568C175.773 56.2574 175.057 54.6215 174.219 53.183L172.491 54.1898C173.248 55.489 173.911 56.9959 174.479 58.6923L176.376 58.0568ZM170.742 48.9829C170.005 48.383 169.213 47.8824 168.365 47.4926L167.53 49.3101C168.216 49.6252 168.865 50.0337 169.478 50.5332L170.742 48.9829Z" fill="black" mask="url(#path-1-inside-1_1313_12007)"/>
<path d="M86.35 42.4211C85.0486 42.4211 83.9511 41.9588 83.0575 41.0342C82.1617 40.1096 81.7681 39.0219 81.8765 37.7711C82.0392 35.4868 82.5814 33.5018 83.5033 31.8158C84.4251 30.1298 85.8891 28.3895 87.8954 26.5947C90.1186 24.6368 91.8126 22.9367 92.9773 21.4944C94.1442 20.0543 94.7277 18.4096 94.7277 16.5605C94.7277 14.3307 93.9826 12.4816 92.4925 11.0132C91.0003 9.54474 88.9257 8.81053 86.2687 8.81053C84.5335 8.81053 83.0564 9.17709 81.8375 9.91021C80.6164 10.6455 79.6262 11.557 78.8671 12.6447C78.1079 13.7325 77.1731 14.4667 76.0626 14.8474C74.9499 15.2281 73.8785 15.2009 72.8482 14.7658C71.601 14.2219 70.7476 13.3246 70.2877 12.0737C69.8257 10.8228 69.9201 9.65351 70.5708 8.56579C72.1433 6.11842 74.258 4.07895 76.915 2.44737C79.572 0.815789 82.6899 0 86.2687 0C91.9622 0 96.3414 1.59133 99.4061 4.774C102.469 7.95449 104 11.7746 104 16.2342C104 18.9535 103.418 21.2791 102.253 23.2108C101.086 25.1405 99.2554 27.3289 96.7611 29.7763C94.9174 31.5167 93.6161 32.9307 92.8569 34.0184C92.0978 35.1061 91.5827 36.357 91.3115 37.7711C91.0946 39.1307 90.5253 40.2456 89.6035 41.1158C88.6817 41.986 87.5972 42.4211 86.35 42.4211ZM86.2687 62C84.4793 62 82.948 61.3615 81.6748 60.0845C80.3995 58.8054 79.7618 57.2684 79.7618 55.4737C79.7618 53.6789 80.3995 52.142 81.6748 50.8628C82.948 49.5859 84.4793 48.9474 86.2687 48.9474C88.0581 48.9474 89.5905 49.5859 90.8658 50.8628C92.139 52.142 92.7756 53.6789 92.7756 55.4737C92.7756 57.2684 92.139 58.8054 90.8658 60.0845C89.5905 61.3615 88.0581 62 86.2687 62Z" fill="#2DDDC3"/>
</svg>
