<svg width="178" height="301" viewBox="0 0 178 301" fill="none" xmlns="http://www.w3.org/2000/svg">
<path d="M88.35 42.4211C87.0486 42.4211 85.9511 41.9588 85.0575 41.0342C84.1617 40.1096 83.7681 39.0219 83.8765 37.7711C84.0392 35.4868 84.5814 33.5018 85.5033 31.8158C86.4251 30.1298 87.8891 28.3895 89.8954 26.5947C92.1186 24.6368 93.8126 22.9367 94.9773 21.4944C96.1442 20.0543 96.7277 18.4096 96.7277 16.5605C96.7277 14.3307 95.9826 12.4816 94.4925 11.0132C93.0003 9.54474 90.9257 8.81053 88.2687 8.81053C86.5335 8.81053 85.0564 9.17709 83.8375 9.91021C82.6164 10.6455 81.6262 11.557 80.8671 12.6447C80.1079 13.7325 79.1731 14.4667 78.0626 14.8474C76.9499 15.2281 75.8785 15.2009 74.8482 14.7658C73.601 14.2219 72.7476 13.3246 72.2877 12.0737C71.8257 10.8228 71.9201 9.65351 72.5708 8.56579C74.1433 6.11842 76.258 4.07895 78.915 2.44737C81.572 0.815789 84.6899 0 88.2687 0C93.9622 0 98.3414 1.59133 101.406 4.774C104.469 7.95449 106 11.7746 106 16.2342C106 18.9535 105.418 21.2791 104.253 23.2108C103.086 25.1405 101.255 27.3289 98.7611 29.7763C96.9174 31.5167 95.6161 32.9307 94.8569 34.0184C94.0978 35.1061 93.5827 36.357 93.3115 37.7711C93.0946 39.1307 92.5253 40.2456 91.6035 41.1158C90.6817 41.986 89.5972 42.4211 88.35 42.4211ZM88.2687 62C86.4793 62 84.948 61.3615 83.6748 60.0845C82.3995 58.8054 81.7618 57.2684 81.7618 55.4737C81.7618 53.6789 82.3995 52.142 83.6748 50.8628C84.948 49.5859 86.4793 48.9474 88.2687 48.9474C90.0581 48.9474 91.5905 49.5859 92.8658 50.8628C94.139 52.142 94.7756 53.6789 94.7756 55.4737C94.7756 57.2684 94.139 58.8054 92.8658 60.0845C91.5905 61.3615 90.0581 62 88.2687 62Z" fill="#2DDDC3"/>
<ellipse cx="89" cy="292" rx="58" ry="9" fill="url(#paint0_radial_711_2672)"/>
<mask id="path-3-inside-1_711_2672" fill="white">
<path fill-rule="evenodd" clip-rule="evenodd" d="M132.396 51.7918C143.148 42.2208 158.139 28.8925 167.947 33.4014C183.084 40.3526 179.943 86.9966 166.402 121.137C161.105 134.486 154.625 144.923 149.306 152.313C149.288 152.46 149.276 152.605 149.264 152.75C149.248 152.944 149.232 153.138 149.202 153.336C146.726 171.207 136.257 186.2 120.804 195.131L123.272 197.188C123.329 197.233 123.389 197.279 123.452 197.328C126.472 199.67 135.59 206.74 139.965 223.717H139.945L139.955 223.757C140.637 226.398 143.105 235.967 136.763 251.054C136.459 251.766 128.518 262.389 122.681 260.469C122.25 260.322 121.849 260.128 121.496 259.894C118.529 273.85 118.147 279.463 118.882 281.023C118.886 281.032 118.892 281.043 118.898 281.057C119.021 281.31 119.496 282.293 119.636 283.644C119.802 285.292 119.43 287.114 118.735 288.225C115.504 293.342 99.7184 291.948 93.892 291.431L93.8471 291.427C93.3748 291.378 92.6444 291.303 91.914 290.944C88.5846 289.326 89.6422 284.161 90.3374 281.091C90.7879 279.113 91.2677 277.134 91.7769 275.195C91.0033 275.234 90.2297 275.263 89.4267 275.263C88.4181 275.263 87.4291 275.214 86.4597 275.146C86.9689 277.095 87.4585 279.083 87.9089 281.081C88.6042 284.151 89.6618 289.317 86.3324 290.934C85.5784 291.305 84.8146 291.383 84.3543 291.422L84.3416 291.423C78.505 291.94 62.7404 293.338 59.5113 288.215C58.8161 287.104 58.444 285.282 58.6104 283.635C58.75 282.283 59.2255 281.3 59.3481 281.047C59.3546 281.034 59.36 281.022 59.3644 281.013C60.187 279.259 59.6092 272.446 55.565 254.533C55.046 256.95 53.8808 259.611 51.3152 260.459C45.479 262.389 37.5276 251.756 37.2339 251.044C30.8942 235.95 33.3657 226.366 34.0434 223.738L34.0514 223.707C37.351 210.93 48.6896 202.111 55.5489 197.481C38.2917 189.158 27.5146 173.491 24.5103 154.15L24.3859 153.941C19.3369 146.092 12.3698 134.737 7.52804 119.206C-3.3995 84.1368 -3.02625 37.3884 12.5875 31.6061C22.7167 27.8592 36.6508 42.2938 46.6556 52.658L46.6557 52.658C64.3222 70.9545 72.409 91.328 76.2865 105.011C79.739 104.562 83.0981 104.312 86.789 104.312C90.4799 104.312 94.1397 104.583 97.7373 105.074C102.206 91.8394 111.744 70.1613 132.396 51.7918Z"/>
</mask>
<path fill-rule="evenodd" clip-rule="evenodd" d="M132.396 51.7918C143.148 42.2208 158.139 28.8925 167.947 33.4014C183.084 40.3526 179.943 86.9966 166.402 121.137C161.105 134.486 154.625 144.923 149.306 152.313C149.288 152.46 149.276 152.605 149.264 152.75C149.248 152.944 149.232 153.138 149.202 153.336C146.726 171.207 136.257 186.2 120.804 195.131L123.272 197.188C123.329 197.233 123.389 197.279 123.452 197.328C126.472 199.67 135.59 206.74 139.965 223.717H139.945L139.955 223.757C140.637 226.398 143.105 235.967 136.763 251.054C136.459 251.766 128.518 262.389 122.681 260.469C122.25 260.322 121.849 260.128 121.496 259.894C118.529 273.85 118.147 279.463 118.882 281.023C118.886 281.032 118.892 281.043 118.898 281.057C119.021 281.31 119.496 282.293 119.636 283.644C119.802 285.292 119.43 287.114 118.735 288.225C115.504 293.342 99.7184 291.948 93.892 291.431L93.8471 291.427C93.3748 291.378 92.6444 291.303 91.914 290.944C88.5846 289.326 89.6422 284.161 90.3374 281.091C90.7879 279.113 91.2677 277.134 91.7769 275.195C91.0033 275.234 90.2297 275.263 89.4267 275.263C88.4181 275.263 87.4291 275.214 86.4597 275.146C86.9689 277.095 87.4585 279.083 87.9089 281.081C88.6042 284.151 89.6618 289.317 86.3324 290.934C85.5784 291.305 84.8146 291.383 84.3543 291.422L84.3416 291.423C78.505 291.94 62.7404 293.338 59.5113 288.215C58.8161 287.104 58.444 285.282 58.6104 283.635C58.75 282.283 59.2255 281.3 59.3481 281.047C59.3546 281.034 59.36 281.022 59.3644 281.013C60.187 279.259 59.6092 272.446 55.565 254.533C55.046 256.95 53.8808 259.611 51.3152 260.459C45.479 262.389 37.5276 251.756 37.2339 251.044C30.8942 235.95 33.3657 226.366 34.0434 223.738L34.0514 223.707C37.351 210.93 48.6896 202.111 55.5489 197.481C38.2917 189.158 27.5146 173.491 24.5103 154.15L24.3859 153.941C19.3369 146.092 12.3698 134.737 7.52804 119.206C-3.3995 84.1368 -3.02625 37.3884 12.5875 31.6061C22.7167 27.8592 36.6508 42.2938 46.6556 52.658L46.6557 52.658C64.3222 70.9545 72.409 91.328 76.2865 105.011C79.739 104.562 83.0981 104.312 86.789 104.312C90.4799 104.312 94.1397 104.583 97.7373 105.074C102.206 91.8394 111.744 70.1613 132.396 51.7918Z" fill="#D9D9D9"/>
<path d="M167.947 33.4014L167.738 33.8557L167.739 33.8557L167.947 33.4014ZM132.396 51.7918L132.729 52.1654L132.729 52.1652L132.396 51.7918ZM166.402 121.137L166.867 121.321L166.867 121.321L166.402 121.137ZM149.306 152.313L148.9 152.021L148.825 152.125L148.81 152.253L149.306 152.313ZM149.264 152.75L149.763 152.791V152.791L149.264 152.75ZM149.202 153.336L148.708 153.261L148.707 153.267L149.202 153.336ZM120.804 195.131L120.554 194.698L119.934 195.057L120.484 195.515L120.804 195.131ZM123.272 197.188L122.952 197.572L122.958 197.578L122.965 197.583L123.272 197.188ZM123.452 197.328L123.758 196.933L123.758 196.933L123.452 197.328ZM139.965 223.717V224.217H140.61L140.449 223.592L139.965 223.717ZM139.945 223.717V223.217H139.3L139.461 223.842L139.945 223.717ZM139.955 223.757L139.471 223.882L139.471 223.882L139.955 223.757ZM136.763 251.054L137.223 251.25L137.224 251.248L136.763 251.054ZM122.681 260.469L122.521 260.942L122.525 260.944L122.681 260.469ZM121.496 259.894L121.773 259.477L121.16 259.07L121.007 259.79L121.496 259.894ZM118.882 281.023L118.43 281.236L118.43 281.238L118.882 281.023ZM118.898 281.057L118.448 281.274H118.448L118.898 281.057ZM119.636 283.644L120.133 283.594L120.133 283.593L119.636 283.644ZM118.735 288.225L119.158 288.492L119.159 288.49L118.735 288.225ZM93.892 291.431L93.8404 291.929L93.8479 291.93L93.892 291.431ZM93.8471 291.427L93.8987 290.929L93.8983 290.929L93.8471 291.427ZM91.914 290.944L92.1344 290.495L92.1325 290.494L91.914 290.944ZM90.3374 281.091L89.8499 280.98L89.8498 280.981L90.3374 281.091ZM91.7769 275.195L92.2605 275.322L92.434 274.661L91.7517 274.695L91.7769 275.195ZM86.4597 275.146L86.4948 274.647L85.7998 274.598L85.9759 275.272L86.4597 275.146ZM87.9089 281.081L87.4212 281.191L87.4213 281.192L87.9089 281.081ZM86.3324 290.934L86.1139 290.485L86.1119 290.486L86.3324 290.934ZM84.3543 291.422L84.3122 290.923L84.3113 290.924L84.3543 291.422ZM84.3416 291.423L84.2986 290.925L84.2975 290.925L84.3416 291.423ZM59.5113 288.215L59.0875 288.48L59.0883 288.482L59.5113 288.215ZM58.6104 283.635L58.1131 283.583L58.113 283.584L58.6104 283.635ZM59.3481 281.047L59.7982 281.265L59.7982 281.265L59.3481 281.047ZM59.3644 281.013L59.816 281.228L59.8171 281.225L59.3644 281.013ZM55.565 254.533L56.0528 254.423L55.0762 254.428L55.565 254.533ZM51.3152 260.459L51.1583 259.984L51.1582 259.984L51.3152 260.459ZM37.2339 251.044L37.696 250.853L37.6949 250.851L37.2339 251.044ZM34.0434 223.738L34.5275 223.863L34.5275 223.863L34.0434 223.738ZM34.0514 223.707L33.5673 223.582L33.5672 223.582L34.0514 223.707ZM55.5489 197.481L55.8286 197.896L56.5498 197.409L55.7661 197.031L55.5489 197.481ZM24.5103 154.15L25.0044 154.073L24.9895 153.977L24.9398 153.894L24.5103 154.15ZM24.3859 153.941L24.8154 153.685L24.811 153.678L24.8064 153.671L24.3859 153.941ZM7.52804 119.206L7.05068 119.355L7.0507 119.355L7.52804 119.206ZM12.5875 31.6061L12.414 31.1372L12.4138 31.1373L12.5875 31.6061ZM46.6556 52.658L46.2958 53.0053L46.3021 53.0115L46.6556 52.658ZM46.6557 52.658L47.0154 52.3107L47.0093 52.3045L46.6557 52.658ZM76.2865 105.011L75.8055 105.148L75.9231 105.563L76.351 105.507L76.2865 105.011ZM97.7373 105.074L97.6697 105.569L98.0789 105.625L98.211 105.234L97.7373 105.074ZM168.156 32.9471C167.315 32.5606 166.44 32.2992 165.536 32.15L165.374 33.1366C166.193 33.2721 166.983 33.5083 167.738 33.8557L168.156 32.9471ZM160.158 32.4161C158.524 32.7924 156.844 33.4075 155.143 34.2009L155.565 35.1072C157.219 34.3357 158.833 33.7476 160.383 33.3906L160.158 32.4161ZM150.51 36.7373C149.057 37.6386 147.6 38.6327 146.152 39.6868L146.741 40.4953C148.173 39.4527 149.609 38.4729 151.037 37.587L150.51 36.7373ZM141.988 42.8858C140.621 43.9858 139.273 45.1136 137.959 46.2399L138.609 46.9992C139.918 45.8779 141.257 44.757 142.615 43.6649L141.988 42.8858ZM134.017 49.6827C133.352 50.2716 132.7 50.8517 132.064 51.4183L132.729 52.1652C133.365 51.5986 134.016 51.0192 134.68 50.4312L134.017 49.6827ZM132.064 51.4182C131.389 52.0186 130.726 52.6225 130.074 53.2295L130.756 53.9612C131.402 53.3593 132.06 52.7606 132.729 52.1654L132.064 51.4182ZM126.223 56.9875C124.949 58.2889 123.724 59.6004 122.548 60.9183L123.294 61.5843C124.46 60.2776 125.674 58.9773 126.937 57.687L126.223 56.9875ZM119.057 65.0114C117.906 66.4249 116.807 67.841 115.757 69.2552L116.56 69.8512C117.601 68.4488 118.691 67.0445 119.833 65.6429L119.057 65.0114ZM112.646 73.6471C111.622 75.163 110.652 76.6712 109.734 78.1658L110.586 78.6892C111.497 77.2065 112.459 75.7106 113.475 74.207L112.646 73.6471ZM107.016 82.8104C106.12 84.4208 105.282 86.0074 104.5 87.5624L105.393 88.0119C106.169 86.4689 107 84.8947 107.89 83.2969L107.016 82.8104ZM102.182 92.4147C101.411 94.1193 100.707 95.7712 100.064 97.3584L100.991 97.7336C101.629 96.1582 102.327 94.5188 103.093 92.8271L102.182 92.4147ZM98.1478 102.376C97.833 103.252 97.5387 104.099 97.2636 104.914L98.211 105.234C98.4842 104.425 98.7763 103.584 99.0889 102.715L98.1478 102.376ZM97.8048 104.578C96.8948 104.454 95.9806 104.344 95.0629 104.249L94.9596 105.243C95.8664 105.338 96.77 105.447 97.6697 105.569L97.8048 104.578ZM89.5521 103.862C88.6334 103.829 87.7122 103.812 86.789 103.812V104.812C87.7001 104.812 88.6093 104.829 89.5163 104.861L89.5521 103.862ZM86.789 103.812C85.8884 103.812 85.0072 103.827 84.1394 103.856L84.1727 104.855C85.0293 104.827 85.8994 104.812 86.789 104.812V103.812ZM78.8524 104.211C77.9766 104.299 77.1022 104.401 76.2221 104.515L76.351 105.507C77.2222 105.394 78.087 105.293 78.9523 105.206L78.8524 104.211ZM76.7676 104.875C76.5437 104.085 76.3057 103.272 76.0528 102.439L75.0959 102.73C75.347 103.557 75.5832 104.363 75.8055 105.148L76.7676 104.875ZM74.4847 97.605C73.9519 96.0627 73.3698 94.4695 72.7332 92.8338L71.8013 93.1965C72.433 94.8197 73.0107 96.4008 73.5395 97.9315L74.4847 97.605ZM70.7972 88.1328C70.138 86.6174 69.4323 85.0746 68.6763 83.5103L67.7759 83.9454C68.5259 85.4974 69.2262 87.028 69.8802 88.5317L70.7972 88.1328ZM66.3723 78.979C65.589 77.513 64.7607 76.0337 63.8847 74.5454L63.0229 75.0526C63.8918 76.5288 64.7133 77.9961 65.4903 79.4502L66.3723 78.979ZM61.2138 70.2172C60.3082 68.8164 59.3587 67.4115 58.3631 66.0063L57.5471 66.5844C58.5343 67.9778 59.4759 69.371 60.374 70.7602L61.2138 70.2172ZM55.3357 61.9219C54.3118 60.6008 53.2451 59.2824 52.1337 57.97L51.3705 58.6162C52.4724 59.9175 53.5301 61.2246 54.5453 62.5345L55.3357 61.9219ZM48.7624 54.1599C48.1907 53.5414 47.6084 52.9249 47.0154 52.3107L46.296 53.0054C46.884 53.6143 47.4613 54.2255 48.0281 54.8387L48.7624 54.1599ZM47.0093 52.3045L47.0092 52.3045L46.3021 53.0116L46.3021 53.0116L47.0093 52.3045ZM47.0092 52.3044L47.0092 52.3044L46.3021 53.0115L46.3021 53.0116L47.0092 52.3044ZM47.0154 52.3107C46.4233 51.6974 45.817 51.0693 45.1984 50.4315L44.4805 51.1276C45.0982 51.7645 45.7037 52.3918 46.2959 53.0053L47.0154 52.3107ZM41.527 46.6981C40.301 45.4747 39.0426 44.2474 37.7623 43.0462L37.078 43.7755C38.3491 44.968 39.6 46.1879 40.8206 47.406L41.527 46.6981ZM33.8515 39.5384C32.4873 38.3767 31.1092 37.2741 29.7289 36.2644L29.1385 37.0715C30.4952 38.0639 31.8539 39.1507 33.2032 40.2997L33.8515 39.5384ZM25.3003 33.3812C23.6636 32.4601 22.0342 31.7185 20.4326 31.2185L20.1346 32.1731C21.6539 32.6474 23.2184 33.3571 24.8099 34.2527L25.3003 33.3812ZM15.0881 30.5425C14.1754 30.6223 13.2821 30.8161 12.414 31.1372L12.761 32.0751C13.5414 31.7864 14.347 31.6111 15.1752 31.5387L15.0881 30.5425ZM12.4138 31.1373C11.5798 31.4461 10.7896 31.8651 10.0429 32.385L10.6144 33.2057C11.2958 32.7312 12.0112 32.3527 12.7611 32.075L12.4138 31.1373ZM6.38549 36.1846C5.4646 37.5227 4.64338 39.0689 3.91749 40.793L4.83913 41.181C5.54394 39.507 6.33412 38.0231 7.20926 36.7515L6.38549 36.1846ZM2.2324 45.6913C1.78877 47.2767 1.40095 48.96 1.06764 50.7282L2.05034 50.9135C2.37895 49.1702 2.76044 47.5152 3.19541 45.9608L2.2324 45.6913ZM0.282883 55.832C0.080376 57.4898 -0.0822365 59.2031 -0.205659 60.9636L0.791892 61.0335C0.914201 59.2889 1.07523 57.5928 1.2755 55.9533L0.282883 55.832ZM-0.451872 66.1002C-0.497277 67.7863 -0.510437 69.5056 -0.491852 71.2519L0.508091 71.2412C0.489634 69.507 0.502712 67.8002 0.547765 66.1271L-0.451872 66.1002ZM-0.349226 76.3901C-0.273992 78.0854 -0.170785 79.7995 -0.0400156 81.5269L0.957131 81.4515C0.82713 79.7341 0.724553 78.0305 0.64979 76.3457L-0.349226 76.3901ZM0.424178 86.6458C0.603143 88.3422 0.80768 90.0464 1.03742 91.7534L2.02849 91.62C1.80001 89.9224 1.59662 88.2278 1.41866 86.5409L0.424178 86.6458ZM1.79526 96.8375C2.07185 98.5282 2.3728 100.217 2.69776 101.899L3.67961 101.71C3.35648 100.037 3.05721 98.3575 2.78214 96.676L1.79526 96.8375ZM3.74715 106.934C4.12337 108.614 4.5237 110.282 4.94779 111.934L5.91638 111.686C5.49492 110.044 5.09699 108.386 4.72298 106.716L3.74715 106.934ZM6.30846 116.896C6.54976 117.721 6.79718 118.541 7.05068 119.355L8.00541 119.057C7.75368 118.249 7.50796 117.435 7.26828 116.615L6.30846 116.896ZM7.0507 119.355C7.29463 120.137 7.54393 120.909 7.79809 121.67L8.74664 121.354C8.49457 120.599 8.24731 119.833 8.00539 119.057L7.0507 119.355ZM9.42829 126.249C10.0159 127.801 10.6212 129.305 11.2391 130.762L12.1597 130.372C11.5468 128.927 10.9463 127.435 10.3635 125.895L9.42829 126.249ZM13.2218 135.198C13.9317 136.709 14.6503 138.162 15.3705 139.559L16.2593 139.1C15.5444 137.714 14.8312 136.272 14.1269 134.773L13.2218 135.198ZM17.6716 143.837C18.4965 145.311 19.3133 146.711 20.1114 148.04L20.9687 147.526C20.1752 146.204 19.3635 144.812 18.5442 143.349L17.6716 143.837ZM22.6618 152.17C23.1083 152.875 23.5436 153.556 23.9654 154.212L24.8064 153.671C24.3856 153.016 23.9516 152.338 23.5068 151.635L22.6618 152.17ZM23.9564 154.197L23.9875 154.249L24.8465 153.737L24.8154 153.685L23.9564 154.197ZM24.0497 154.354L24.0808 154.406L24.9398 153.894L24.9087 153.842L24.0497 154.354ZM24.0162 154.227C24.1361 154.998 24.2683 155.764 24.4127 156.524L25.3951 156.338C25.2528 155.589 25.1226 154.834 25.0044 154.073L24.0162 154.227ZM25.4408 161.071C25.8402 162.586 26.2909 164.075 26.7924 165.534L27.7381 165.209C27.2447 163.773 26.801 162.308 26.4078 160.816L25.4408 161.071ZM28.4751 169.884C29.0956 171.32 29.769 172.723 30.4944 174.09L31.3778 173.622C30.665 172.278 30.0032 170.899 29.3931 169.487L28.4751 169.884ZM32.8495 178.12C33.6917 179.433 34.5869 180.707 35.534 181.939L36.3269 181.33C35.3971 180.12 34.5183 178.869 33.6911 177.58L32.8495 178.12ZM38.5358 185.516C39.5849 186.661 40.685 187.763 41.8352 188.819L42.5115 188.082C41.3825 187.046 40.3029 185.964 39.2733 184.84L38.5358 185.516ZM45.4076 191.825C46.6326 192.769 47.9049 193.666 49.2239 194.515L49.765 193.674C48.4697 192.84 47.2205 191.959 46.0179 191.033L45.4076 191.825ZM53.2491 196.875C53.9326 197.239 54.6268 197.592 55.3317 197.931L55.7661 197.031C55.0732 196.697 54.3909 196.35 53.7193 195.993L53.2491 196.875ZM55.2691 197.067C54.5238 197.57 53.7253 198.123 52.8897 198.724L53.4742 199.536C54.3002 198.941 55.0902 198.394 55.8286 197.896L55.2691 197.067ZM48.2985 202.292C46.8754 203.491 45.4287 204.807 44.0186 206.241L44.7316 206.942C46.1168 205.534 47.5399 204.238 48.9426 203.057L48.2985 202.292ZM40.1677 210.621C38.987 212.138 37.884 213.754 36.9054 215.469L37.7739 215.965C38.7263 214.296 39.8021 212.719 40.9569 211.235L40.1677 210.621ZM34.4363 220.778C34.1058 221.69 33.8144 222.625 33.5673 223.582L34.5355 223.832C34.7745 222.907 35.0564 222.002 35.3765 221.118L34.4363 220.778ZM33.5672 223.582L33.5652 223.59L34.5336 223.84L34.5356 223.832L33.5672 223.582ZM33.5612 223.606L33.5592 223.613L34.5275 223.863L34.5296 223.855L33.5612 223.606ZM33.5592 223.613C33.4286 224.12 33.2288 224.894 33.0382 225.919L34.0214 226.102C34.2054 225.112 34.398 224.365 34.5275 223.863L33.5592 223.613ZM32.5256 230.622C32.4729 232.02 32.4963 233.597 32.6459 235.346L33.6422 235.261C33.4963 233.554 33.4737 232.018 33.5249 230.66L32.5256 230.622ZM33.3005 240.015C33.5792 241.458 33.9427 242.985 34.409 244.594L35.3694 244.315C34.9116 242.736 34.5552 241.238 34.2823 239.825L33.3005 240.015ZM35.8993 249.05C36.1703 249.766 36.461 250.495 36.7729 251.238L37.6949 250.851C37.3876 250.119 37.1013 249.401 36.8347 248.696L35.8993 249.05ZM36.7717 251.235C36.8081 251.323 36.8743 251.432 36.9387 251.533C37.0105 251.644 37.1051 251.783 37.2196 251.943C37.4489 252.264 37.7647 252.681 38.1516 253.16L38.9294 252.531C38.553 252.066 38.2494 251.664 38.0332 251.362C37.9249 251.21 37.8402 251.086 37.7799 250.992C37.7122 250.886 37.6935 250.847 37.696 250.854L36.7717 251.235ZM41.2076 256.501C42.2757 257.53 43.4799 258.55 44.7416 259.374L45.2883 258.537C44.0949 257.758 42.9401 256.782 41.9015 255.781L41.2076 256.501ZM49.0452 261.142C49.8631 261.246 50.681 261.195 51.4721 260.934L51.1582 259.984C50.5293 260.192 49.8645 260.238 49.1722 260.15L49.0452 261.142ZM51.4721 260.934C52.1698 260.703 52.7735 260.35 53.2933 259.912L52.6489 259.148C52.2205 259.509 51.7277 259.796 51.1583 259.984L51.4721 260.934ZM55.5086 256.542C55.7422 255.91 55.9195 255.264 56.0539 254.638L55.0762 254.428C54.9498 255.017 54.7848 255.616 54.5707 256.195L55.5086 256.542ZM55.0773 254.643C55.2467 255.394 55.41 256.124 55.5673 256.836L56.5438 256.62C56.3861 255.907 56.2225 255.175 56.0528 254.423L55.0773 254.643ZM56.5109 261.212C56.8407 262.785 57.1355 264.245 57.3978 265.599L58.3796 265.409C58.1162 264.049 57.8203 262.584 57.4896 261.007L56.5109 261.212ZM58.2001 269.997C58.4858 271.686 58.7027 273.148 58.8593 274.408L59.8517 274.285C59.6928 273.007 59.4736 271.53 59.186 269.831L58.2001 269.997ZM59.186 278.809C59.1772 279.871 59.0596 280.485 58.9117 280.801L59.8171 281.225C60.0616 280.704 60.177 279.906 60.186 278.818L59.186 278.809ZM58.9129 280.798C58.912 280.8 58.9109 280.802 58.9097 280.805L59.8111 281.238C59.8127 281.235 59.8144 281.231 59.816 281.228L58.9129 280.798ZM58.9021 280.821C58.9008 280.823 58.8995 280.826 58.8981 280.829L59.7982 281.265C59.7996 281.262 59.801 281.259 59.8023 281.256L58.9021 280.821ZM58.8981 280.829C58.8474 280.934 58.7364 281.163 58.6125 281.489L59.5473 281.844C59.6557 281.559 59.752 281.36 59.7982 281.265L58.8981 280.829ZM58.2191 282.871C58.1756 283.095 58.1389 283.333 58.1131 283.583L59.1078 283.686C59.1304 283.467 59.1625 283.258 59.2007 283.061L58.2191 282.871ZM58.113 283.584C58.071 283.999 58.0613 284.422 58.0803 284.842L59.0793 284.796C59.0624 284.422 59.0712 284.048 59.1079 283.685L58.113 283.584ZM58.5387 287.307C58.6872 287.735 58.8706 288.134 59.0875 288.48L59.9352 287.95C59.7655 287.679 59.6124 287.351 59.4835 286.979L58.5387 287.307ZM59.0883 288.482C59.4973 289.131 60.0746 289.671 60.7662 290.122L61.3122 289.284C60.7121 288.893 60.2497 288.449 59.9343 287.949L59.0883 288.482ZM64.9314 291.719C66.2708 292.017 67.7412 292.212 69.261 292.332L69.3396 291.335C67.8514 291.218 66.4298 291.028 65.1487 290.743L64.9314 291.719ZM73.6006 292.493C75.0811 292.496 76.5468 292.453 77.9298 292.387L77.8822 291.388C76.5118 291.454 75.063 291.496 73.6025 291.493L73.6006 292.493ZM82.243 292.105C83.0501 292.039 83.7735 291.975 84.3858 291.921L84.2975 290.925C83.685 290.979 82.9652 291.043 82.1623 291.108L82.243 292.105ZM84.3846 291.921L84.3878 291.921L84.3018 290.924L84.2986 290.925L84.3846 291.921ZM84.3942 291.92L84.3974 291.92L84.3113 290.924L84.3082 290.924L84.3942 291.92ZM84.3965 291.92C84.5429 291.908 84.7269 291.891 84.934 291.861L84.7934 290.871C84.6145 290.897 84.4527 290.912 84.3122 290.923L84.3965 291.92ZM86.0237 291.603C86.1972 291.543 86.3748 291.471 86.5528 291.383L86.1119 290.486C85.9737 290.554 85.834 290.611 85.6953 290.659L86.0237 291.603ZM86.5509 291.384C87.5482 290.9 88.1988 290.131 88.5952 289.221L87.6784 288.821C87.3648 289.541 86.8703 290.117 86.1139 290.485L86.5509 291.384ZM88.9229 283.643C88.7748 282.672 88.5726 281.748 88.3966 280.971L87.4213 281.192C87.5965 281.966 87.7919 282.86 87.9344 283.794L88.9229 283.643ZM88.3967 280.971C88.2843 280.473 88.1695 279.975 88.0526 279.478L87.0792 279.707C87.1954 280.201 87.3095 280.696 87.4212 281.191L88.3967 280.971ZM87.325 276.503C87.1992 276.006 87.072 275.512 86.9435 275.02L85.9759 275.272C86.1038 275.762 86.2305 276.254 86.3556 276.748L87.325 276.503ZM86.4246 275.645C86.6721 275.662 86.9212 275.678 87.1719 275.693L87.2294 274.694C86.9836 274.68 86.7387 274.664 86.4948 274.647L86.4246 275.645ZM88.6732 275.754C88.9229 275.76 89.1741 275.763 89.4267 275.763V274.763C89.182 274.763 88.9383 274.76 88.6954 274.755L88.6732 275.754ZM89.4267 275.763C89.6273 275.763 89.8259 275.761 90.0229 275.758L90.0062 274.758C89.8143 274.761 89.6213 274.763 89.4267 274.763V275.763ZM91.2108 275.722C91.4085 275.713 91.6054 275.704 91.8021 275.694L91.7517 274.695C91.5572 274.705 91.363 274.714 91.1685 274.723L91.2108 275.722ZM91.2933 275.068C91.1649 275.557 91.0383 276.048 90.9137 276.542L91.8832 276.787C92.0071 276.296 92.1329 275.808 92.2605 275.322L91.2933 275.068ZM90.1929 279.498C90.0767 279.992 89.9624 280.486 89.8499 280.98L90.8249 281.202C90.9369 280.71 91.0507 280.218 91.1663 279.727L90.1929 279.498ZM89.8498 280.981C89.6737 281.758 89.4716 282.682 89.3234 283.652L90.312 283.803C90.4544 282.87 90.6498 281.975 90.8251 281.201L89.8498 280.981ZM89.6511 289.23C90.0476 290.141 90.6982 290.909 91.6955 291.394L92.1325 290.494C91.376 290.127 90.8816 289.551 90.5679 288.831L89.6511 289.23ZM91.6936 291.393C91.8683 291.479 92.0422 291.55 92.212 291.609L92.5406 290.664C92.4055 290.617 92.2695 290.562 92.1344 290.495L91.6936 291.393ZM93.2772 291.862C93.4741 291.891 93.6522 291.909 93.7959 291.924L93.8983 290.929C93.7536 290.915 93.5953 290.898 93.4223 290.873L93.2772 291.862ZM93.7954 291.924L93.8066 291.925L93.91 290.931L93.8987 290.929L93.7954 291.924ZM93.8291 291.928L93.8404 291.929L93.9437 290.934L93.9325 290.933L93.8291 291.928ZM93.8479 291.93C94.4599 291.984 95.1836 292.048 95.9916 292.113L96.0721 291.116C95.2685 291.051 94.5483 290.988 93.9362 290.933L93.8479 291.93ZM100.307 292.395C101.69 292.46 103.156 292.503 104.637 292.5L104.635 291.5C103.174 291.503 101.725 291.461 100.354 291.396L100.307 292.395ZM108.979 292.338C110.499 292.218 111.97 292.024 113.31 291.726L113.093 290.749C111.811 291.034 110.389 291.224 108.9 291.341L108.979 292.338ZM117.477 290.131C118.17 289.681 118.748 289.14 119.158 288.492L118.312 287.958C117.997 288.458 117.534 288.902 116.932 289.293L117.477 290.131ZM119.159 288.49C119.376 288.144 119.559 287.745 119.708 287.317L118.763 286.989C118.634 287.36 118.481 287.689 118.311 287.96L119.159 288.49ZM120.166 284.851C120.185 284.432 120.175 284.009 120.133 283.594L119.138 283.695C119.175 284.058 119.184 284.432 119.167 284.806L120.166 284.851ZM120.133 283.593C120.107 283.343 120.071 283.104 120.027 282.88L119.046 283.071C119.084 283.268 119.116 283.477 119.139 283.696L120.133 283.593ZM119.634 281.499C119.51 281.173 119.399 280.944 119.348 280.839L118.448 281.274C118.494 281.37 118.591 281.569 118.699 281.854L119.634 281.499ZM119.348 280.839C119.347 280.836 119.346 280.833 119.344 280.83L118.444 281.266C118.445 281.269 118.447 281.272 118.448 281.274L119.348 280.839ZM119.337 280.815C119.335 280.812 119.334 280.81 119.333 280.808L118.43 281.238C118.432 281.241 118.434 281.244 118.435 281.248L119.337 280.815ZM119.334 280.81C119.166 280.452 119.04 279.714 119.062 278.395L118.062 278.378C118.04 279.711 118.155 280.653 118.43 281.236L119.334 280.81ZM119.558 273.125C119.769 271.624 120.053 269.88 120.42 267.863L119.436 267.684C119.067 269.711 118.781 271.468 118.567 272.985L119.558 273.125ZM121.439 262.617C121.61 261.778 121.792 260.906 121.986 259.998L121.007 259.79C120.814 260.7 120.631 261.575 120.459 262.416L121.439 262.617ZM121.22 260.31C121.321 260.377 121.425 260.441 121.531 260.501L122.024 259.631C121.937 259.582 121.854 259.53 121.773 259.477L121.22 260.31ZM122.183 260.816C122.294 260.861 122.406 260.903 122.521 260.942L122.842 259.995C122.746 259.963 122.653 259.928 122.561 259.89L122.183 260.816ZM122.525 260.944C123.316 261.204 124.134 261.254 124.951 261.149L124.824 260.157C124.131 260.246 123.467 260.201 122.838 259.994L122.525 260.944ZM129.253 259.379C130.514 258.555 131.718 257.536 132.786 256.507L132.092 255.787C131.054 256.787 129.899 257.763 128.706 258.542L129.253 259.379ZM135.842 253.167C136.229 252.689 136.544 252.273 136.774 251.953C136.889 251.793 136.984 251.655 137.056 251.543C137.12 251.443 137.186 251.336 137.223 251.25L136.303 250.858C136.304 250.854 136.284 250.895 136.216 251C136.155 251.094 136.07 251.218 135.962 251.37C135.745 251.672 135.441 252.073 135.064 252.538L135.842 253.167ZM137.224 251.248C137.536 250.506 137.827 249.776 138.098 249.06L137.162 248.706C136.896 249.411 136.609 250.129 136.302 250.86L137.224 251.248ZM139.589 244.606C140.056 242.998 140.42 241.471 140.699 240.029L139.717 239.839C139.444 241.252 139.087 242.749 138.629 244.327L139.589 244.606ZM141.354 235.361C141.504 233.613 141.527 232.037 141.474 230.639L140.475 230.677C140.526 232.035 140.504 233.57 140.358 235.276L141.354 235.361ZM140.961 225.937C140.77 224.914 140.571 224.14 140.44 223.632L139.471 223.882C139.601 224.386 139.794 225.133 139.978 226.12L140.961 225.937ZM140.44 223.632L140.437 223.622L139.469 223.872L139.471 223.882L140.44 223.632ZM140.432 223.602L140.429 223.592L139.461 223.842L139.464 223.852L140.432 223.602ZM139.945 224.217H139.95V223.217H139.945V224.217ZM139.96 224.217H139.965V223.217H139.96V224.217ZM140.449 223.592C140.221 222.708 139.981 221.851 139.729 221.02L138.772 221.31C139.02 222.128 139.256 222.971 139.481 223.841L140.449 223.592ZM137.956 215.991C137.246 214.24 136.487 212.63 135.703 211.152L134.82 211.621C135.588 213.069 136.332 214.647 137.03 216.367L137.956 215.991ZM132.939 206.58C131.825 204.958 130.709 203.562 129.645 202.365L128.898 203.029C129.936 204.197 131.026 205.56 132.114 207.146L132.939 206.58ZM125.829 198.609C124.991 197.888 124.28 197.337 123.758 196.933L123.145 197.723C123.666 198.126 124.359 198.665 125.177 199.368L125.829 198.609ZM123.758 196.933C123.743 196.921 123.728 196.909 123.713 196.898L123.1 197.688C123.115 197.7 123.13 197.711 123.145 197.723L123.758 196.933ZM123.623 196.828C123.608 196.817 123.593 196.805 123.579 196.794L122.965 197.583C122.98 197.595 122.995 197.606 123.01 197.618L123.623 196.828ZM123.592 196.804L122.975 196.29L122.335 197.058L122.952 197.572L123.592 196.804ZM121.741 195.261L121.124 194.747L120.484 195.515L121.101 196.029L121.741 195.261ZM121.054 195.564C121.819 195.122 122.571 194.666 123.311 194.195L122.774 193.351C122.046 193.814 121.306 194.264 120.554 194.698L121.054 195.564ZM127.635 191.172C129.038 190.097 130.387 188.966 131.678 187.781L131.002 187.044C129.733 188.209 128.407 189.321 127.027 190.378L127.635 191.172ZM135.401 184.04C136.587 182.735 137.711 181.379 138.769 179.975L137.97 179.373C136.931 180.753 135.827 182.085 134.661 183.368L135.401 184.04ZM141.747 175.616C142.669 174.121 143.524 172.58 144.306 170.999L143.41 170.555C142.641 172.109 141.802 173.622 140.896 175.091L141.747 175.616ZM146.424 166.163C147.051 164.529 147.605 162.857 148.084 161.152L147.121 160.882C146.651 162.557 146.106 164.199 145.491 165.805L146.424 166.163ZM149.277 156.011C149.436 155.149 149.576 154.28 149.698 153.404L148.707 153.267C148.588 154.128 148.45 154.982 148.293 155.83L149.277 156.011ZM149.697 153.41C149.705 153.356 149.712 153.303 149.719 153.25L148.726 153.129C148.72 153.174 148.715 153.218 148.708 153.261L149.697 153.41ZM149.75 152.94C149.754 152.89 149.759 152.84 149.763 152.791L148.766 152.708C148.762 152.758 148.758 152.805 148.754 152.853L149.75 152.94ZM149.763 152.791C149.766 152.755 149.769 152.719 149.772 152.683L148.775 152.598C148.772 152.635 148.769 152.672 148.766 152.708L149.763 152.791ZM149.791 152.474C149.795 152.44 149.799 152.406 149.803 152.373L148.81 152.253C148.805 152.292 148.801 152.332 148.797 152.37L149.791 152.474ZM149.712 152.605C150.135 152.017 150.566 151.409 151.003 150.783L150.182 150.211C149.749 150.833 149.321 151.436 148.9 152.021L149.712 152.605ZM153.504 147.076C154.29 145.873 155.088 144.613 155.891 143.296L155.037 142.775C154.24 144.083 153.447 145.334 152.667 146.53L153.504 147.076ZM158.162 139.445C158.88 138.182 159.598 136.876 160.313 135.525L159.429 135.058C158.719 136.399 158.006 137.696 157.293 138.95L158.162 139.445ZM162.342 131.541C162.985 130.229 163.622 128.881 164.248 127.496L163.337 127.084C162.715 128.459 162.083 129.798 161.444 131.101L162.342 131.541ZM166.026 123.394C166.309 122.711 166.59 122.02 166.867 121.321L165.938 120.952C165.662 121.646 165.384 122.333 165.102 123.011L166.026 123.394ZM166.867 121.321C167.181 120.529 167.49 119.73 167.793 118.925L166.857 118.573C166.556 119.373 166.25 120.166 165.938 120.952L166.867 121.321ZM169.524 114.08C170.071 112.465 170.596 110.831 171.098 109.185L170.141 108.893C169.643 110.53 169.121 112.154 168.577 113.759L169.524 114.08ZM172.524 104.243C172.974 102.59 173.402 100.928 173.805 99.2631L172.833 99.0278C172.432 100.684 172.007 102.336 171.559 103.98L172.524 104.243ZM174.943 94.2502C175.301 92.5653 175.633 90.8813 175.939 89.2031L174.956 89.0236C174.651 90.6924 174.321 92.367 173.965 94.0426L174.943 94.2502ZM176.787 84.1334C177.048 82.4206 177.28 80.7191 177.482 79.0341L176.489 78.9147C176.288 80.5892 176.058 82.2804 175.799 83.9831L176.787 84.1334ZM178.011 73.921C178.16 72.181 178.277 70.4654 178.358 68.7806L177.359 68.7323C177.278 70.4041 177.163 72.1072 177.014 73.8352L178.011 73.921ZM178.499 63.6397C178.508 61.8749 178.474 60.1542 178.397 58.4858L177.398 58.5322C177.474 60.1822 177.508 61.8856 177.499 63.6345L178.499 63.6397ZM177.998 53.3373C177.798 51.549 177.538 49.8412 177.214 48.2269L176.234 48.4234C176.551 50.0061 176.807 51.6852 177.004 53.4482L177.998 53.3373ZM175.902 43.2157C175.307 41.442 174.605 39.8384 173.787 38.4347L172.923 38.9381C173.7 40.2721 174.376 41.8113 174.954 43.5334L175.902 43.2157ZM170.426 34.3705C169.72 33.7956 168.964 33.3181 168.156 32.947L167.739 33.8557C168.465 34.1895 169.15 34.621 169.794 35.1456L170.426 34.3705ZM167.947 33.4014L167.53 34.3099L167.53 34.3101L167.947 33.4014ZM132.396 51.7918L133.061 52.539L133.061 52.5387L132.396 51.7918ZM166.402 121.137L167.332 121.506L167.332 121.505L166.402 121.137ZM149.306 152.313L148.495 151.729L148.344 151.938L148.313 152.193L149.306 152.313ZM149.264 152.75L150.261 152.832V152.832L149.264 152.75ZM149.202 153.336L148.214 153.187L148.212 153.198L149.202 153.336ZM120.804 195.131L120.304 194.265L119.064 194.982L120.164 195.899L120.804 195.131ZM123.272 197.188L122.631 197.956L122.645 197.967L122.658 197.978L123.272 197.188ZM123.452 197.328L124.064 196.538L124.064 196.538L123.452 197.328ZM139.965 223.717V224.717H141.255L140.933 223.467L139.965 223.717ZM139.945 223.717V222.717H138.655L138.977 223.966L139.945 223.717ZM139.955 223.757L138.987 224.006L138.987 224.007L139.955 223.757ZM136.763 251.054L137.682 251.447L137.684 251.442L136.763 251.054ZM122.681 260.469L122.36 261.416L122.369 261.419L122.681 260.469ZM121.496 259.894L122.049 259.06L120.824 258.247L120.518 259.686L121.496 259.894ZM118.882 281.023L117.977 281.449L117.979 281.453L118.882 281.023ZM118.898 281.057L117.998 281.492L117.998 281.492L118.898 281.057ZM119.636 283.644L120.631 283.544L120.631 283.542L119.636 283.644ZM118.735 288.225L119.581 288.759L119.583 288.756L118.735 288.225ZM93.892 291.431L93.7887 292.426L93.7962 292.427L93.8037 292.428L93.892 291.431ZM93.8471 291.427L93.9504 290.432L93.9495 290.432L93.8471 291.427ZM91.914 290.944L92.3548 290.047L92.3511 290.045L91.914 290.944ZM90.3374 281.091L89.3624 280.869L89.3621 280.87L90.3374 281.091ZM91.7769 275.195L92.7441 275.449L93.0911 274.127L91.7266 274.196L91.7769 275.195ZM86.4597 275.146L86.5299 274.148L85.14 274.051L85.4922 275.399L86.4597 275.146ZM87.9089 281.081L86.9334 281.301L86.9336 281.302L87.9089 281.081ZM86.3324 290.934L85.8953 290.035L85.8915 290.037L86.3324 290.934ZM84.3543 291.422L84.27 290.425L84.2683 290.425L84.3543 291.422ZM84.3416 291.423L84.2556 290.427L84.2533 290.427L84.3416 291.423ZM59.5113 288.215L58.6636 288.746L58.6654 288.749L59.5113 288.215ZM58.6104 283.635L57.6157 283.532L57.6155 283.534L58.6104 283.635ZM59.3481 281.047L60.2483 281.483L60.2483 281.482L59.3481 281.047ZM59.3644 281.013L60.2675 281.443L60.2698 281.438L59.3644 281.013ZM55.565 254.533L56.5405 254.313L54.5873 254.323L55.565 254.533ZM51.3152 260.459L51.0014 259.509L51.0013 259.509L51.3152 260.459ZM37.2339 251.044L38.1582 250.663L38.1559 250.657L37.2339 251.044ZM34.0434 223.738L35.0117 223.988L35.0117 223.988L34.0434 223.738ZM34.0514 223.707L33.0832 223.457L33.083 223.457L34.0514 223.707ZM55.5489 197.481L56.1084 198.31L57.5506 197.336L55.9833 196.58L55.5489 197.481ZM24.5103 154.15L25.4985 153.996L25.4687 153.805L25.3693 153.638L24.5103 154.15ZM24.3859 153.941L25.2449 153.429L25.2362 153.414L25.2269 153.4L24.3859 153.941ZM7.52804 119.206L6.57332 119.503L6.57336 119.504L7.52804 119.206ZM12.5875 31.6061L12.2405 30.6682L12.2402 30.6684L12.5875 31.6061ZM46.6556 52.658L45.9362 53.3525L45.9423 53.3589L45.9485 53.3651L46.6556 52.658ZM46.6557 52.658L47.3751 51.9634L47.369 51.9571L47.3628 51.9509L46.6557 52.658ZM76.2865 105.011L75.3244 105.284L75.5597 106.114L76.4155 106.003L76.2865 105.011ZM97.7373 105.074L97.6022 106.065L98.4205 106.176L98.6847 105.394L97.7373 105.074ZM168.365 32.4928C167.482 32.0868 166.563 31.8128 165.618 31.6567L165.292 33.63C166.07 33.7585 166.816 33.9821 167.53 34.3099L168.365 32.4928ZM160.046 31.9289C158.37 32.3149 156.656 32.9433 154.931 33.7478L155.776 35.5603C157.407 34.7998 158.987 34.2252 160.495 33.8779L160.046 31.9289ZM150.246 36.3125C148.781 37.2215 147.313 38.2227 145.858 39.2826L147.035 40.8995C148.459 39.8627 149.885 38.8901 151.3 38.0119L150.246 36.3125ZM141.674 42.4962C140.302 43.6002 138.951 44.7314 137.634 45.8602L138.935 47.3789C140.241 46.26 141.576 45.1426 142.928 44.0545L141.674 42.4962ZM133.685 49.3084C133.02 49.8978 132.368 50.4783 131.732 51.0449L133.061 52.5387C133.698 51.972 134.348 51.393 135.012 50.8054L133.685 49.3084ZM131.732 51.0446C131.054 51.6475 130.388 52.254 129.734 52.8636L131.097 54.327C131.74 53.7278 132.395 53.1316 133.061 52.539L131.732 51.0446ZM125.865 56.6377C124.586 57.9447 123.356 59.2618 122.175 60.5852L123.667 61.9173C124.828 60.6162 126.037 59.3215 127.294 58.0367L125.865 56.6377ZM118.67 64.6957C117.514 66.1151 116.41 67.5371 115.356 68.9572L116.962 70.1493C117.998 68.7526 119.084 67.3542 120.22 65.9586L118.67 64.6957ZM112.232 73.3672C111.203 74.8893 110.23 76.4035 109.308 77.9041L111.012 78.9509C111.919 77.4742 112.877 75.9844 113.889 74.487L112.232 73.3672ZM106.58 82.5672C105.679 84.1839 104.838 85.7766 104.053 87.3377L105.84 88.2367C106.613 86.6996 107.441 85.1316 108.327 83.5402L106.58 82.5672ZM101.727 92.2085C100.952 93.9196 100.245 95.5777 99.6006 97.1708L101.454 97.9212C102.09 96.3518 102.786 94.7185 103.549 93.0333L101.727 92.2085ZM97.6773 102.207C97.3613 103.086 97.0659 103.936 96.7898 104.754L98.6847 105.394C98.9569 104.588 99.248 103.75 99.5594 102.884L97.6773 102.207ZM97.8724 104.083C96.9572 103.958 96.0377 103.847 95.1146 103.751L94.9079 105.741C95.8093 105.834 96.7076 105.943 97.6022 106.065L97.8724 104.083ZM89.57 103.362C88.6455 103.329 87.7183 103.312 86.789 103.312V105.312C87.694 105.312 88.5973 105.328 89.4984 105.361L89.57 103.362ZM86.789 103.312C85.8829 103.312 84.9961 103.327 84.1227 103.356L84.1893 105.355C85.0403 105.327 85.9049 105.312 86.789 105.312V103.312ZM78.8024 103.714C77.9215 103.802 77.0422 103.905 76.1576 104.02L76.4155 106.003C77.2822 105.89 78.1421 105.79 79.0023 105.704L78.8024 103.714ZM77.2487 104.739C77.0239 103.945 76.7851 103.13 76.5312 102.294L74.6175 102.875C74.8676 103.699 75.1029 104.502 75.3244 105.284L77.2487 104.739ZM74.9573 97.4417C74.4225 95.8937 73.8381 94.2944 73.1991 92.6525L71.3353 93.3778C71.9646 94.9948 72.5401 96.5699 73.067 98.0948L74.9573 97.4417ZM71.2557 87.9334C70.594 86.4121 69.8854 84.8633 69.1265 83.2928L67.3257 84.163C68.0727 85.7087 68.7702 87.2334 69.4217 88.7311L71.2557 87.9334ZM66.8133 78.7433C66.0268 77.2715 65.1952 75.7862 64.3156 74.2918L62.592 75.3063C63.4573 76.7763 64.2755 78.2376 65.0493 79.6859L66.8133 78.7433ZM61.6337 69.9458C60.7243 68.5391 59.7708 67.1284 58.771 65.7173L57.1391 66.8735C58.1222 68.261 59.0598 69.6482 59.9541 71.0316L61.6337 69.9458ZM55.7309 61.6156C54.7027 60.2889 53.6314 58.9649 52.5152 57.6469L50.9889 58.9393C52.0861 60.235 53.1392 61.5365 54.1502 62.8408L55.7309 61.6156ZM49.1296 53.8205C48.5554 53.1994 47.9706 52.5802 47.3751 51.9634L45.9363 53.3527C46.5217 53.959 47.0965 54.5675 47.6609 55.1781L49.1296 53.8205ZM47.3628 51.9509L47.3628 51.9509L45.9486 53.3651L45.9486 53.3652L47.3628 51.9509ZM47.3628 51.9509L47.3627 51.9509L45.9485 53.3651L45.9485 53.3651L47.3628 51.9509ZM47.3751 51.9635C46.7831 51.3502 46.1764 50.7217 45.5573 50.0834L44.1216 51.4757C44.7388 52.1121 45.3439 52.739 45.9362 53.3525L47.3751 51.9635ZM41.8801 46.3442C40.6515 45.1181 39.3893 43.8871 38.1044 42.6816L36.7359 44.1401C38.0024 45.3283 39.2495 46.5445 40.4674 47.7599L41.8801 46.3442ZM34.1757 39.1577C32.804 37.9897 31.4162 36.8791 30.0241 35.8608L28.8433 37.475C30.1883 38.4589 31.5372 39.5377 32.879 40.6804L34.1757 39.1577ZM25.5456 32.9455C23.8862 32.0117 22.2243 31.2541 20.5817 30.7412L19.9856 32.6503C21.4638 33.1118 22.9958 33.8055 24.5647 34.6885L25.5456 32.9455ZM15.0446 30.0444C14.0897 30.1279 13.1525 30.3309 12.2405 30.6682L12.9344 32.544C13.671 32.2715 14.4327 32.1055 15.2188 32.0368L15.0446 30.0444ZM12.2402 30.6684C11.3642 30.9928 10.5365 31.432 9.75723 31.9747L10.9001 33.616C11.5489 33.1642 12.2268 32.8061 12.9348 32.5439L12.2402 30.6684ZM5.97361 35.9011C5.02985 37.2725 4.19311 38.8498 3.45667 40.5989L5.29995 41.375C5.99421 39.7261 6.76887 38.2734 7.62115 37.035L5.97361 35.9011ZM1.7509 45.5566C1.30294 47.1574 0.911953 48.855 0.576296 50.6356L2.54168 51.0061C2.86794 49.2753 3.24627 47.6345 3.67691 46.0956L1.7509 45.5566ZM-0.213428 55.7714C-0.417051 57.4383 -0.580455 59.1602 -0.704435 60.9286L1.29067 61.0685C1.41242 59.3318 1.57266 57.6443 1.77182 56.0139L-0.213428 55.7714ZM-0.951691 66.0867C-0.997272 67.7794 -1.01047 69.505 -0.991824 71.2572L1.00806 71.2359C0.98967 69.5076 1.00271 67.8071 1.04758 66.1405L-0.951691 66.0867ZM-0.848735 76.4122C-0.773265 78.1129 -0.669742 79.8322 -0.538589 81.5647L1.4557 81.4137C1.32609 79.7015 1.22383 78.003 1.1493 76.3236L-0.848735 76.4122ZM-0.0730624 86.6983C0.106407 88.3995 0.311514 90.1084 0.541891 91.8201L2.52402 91.5533C2.29618 89.8604 2.09335 88.1705 1.9159 86.4885L-0.0730624 86.6983ZM1.30182 96.9182C1.57918 98.6136 1.88096 100.307 2.20684 101.994L4.17054 101.615C3.84832 99.9468 3.54989 98.2721 3.27558 96.5953L1.30182 96.9182ZM3.25924 107.044C3.63656 108.728 4.03809 110.402 4.4635 112.059L6.40068 111.561C5.98053 109.925 5.58381 108.272 5.21089 106.607L3.25924 107.044ZM5.82855 117.036C6.07066 117.864 6.31893 118.687 6.57332 119.503L8.48277 118.908C8.23194 118.103 7.98706 117.292 7.74819 116.475L5.82855 117.036ZM6.57336 119.504C6.81829 120.289 7.06861 121.064 7.32382 121.829L9.22092 121.196C8.96988 120.443 8.72365 119.681 8.48273 118.908L6.57336 119.504ZM8.96067 126.426C9.55067 127.985 10.1584 129.495 10.7788 130.958L12.62 130.177C12.0096 128.737 11.4116 127.251 10.8311 125.718L8.96067 126.426ZM12.7693 135.411C13.4819 136.927 14.2032 138.386 14.9261 139.788L16.7038 138.871C15.9914 137.49 15.281 136.053 14.5794 134.56L12.7693 135.411ZM17.2353 144.082C18.0629 145.56 18.8824 146.965 19.6827 148.298L21.3974 147.268C20.6062 145.95 19.797 144.563 18.9805 143.105L17.2353 144.082ZM22.2393 152.437C22.6866 153.144 23.1227 153.826 23.5449 154.482L25.2269 153.4C24.8065 152.746 24.3732 152.069 23.9292 151.368L22.2393 152.437ZM23.5269 154.453L23.558 154.505L25.276 153.481L25.2449 153.429L23.5269 154.453ZM23.6202 154.61L23.6513 154.662L25.3693 153.638L25.3382 153.586L23.6202 154.61ZM23.5222 154.303C23.6429 155.081 23.776 155.852 23.9215 156.618L25.8863 156.244C25.7451 155.501 25.6158 154.752 25.4985 153.996L23.5222 154.303ZM24.9573 161.198C25.3597 162.725 25.814 164.226 26.3195 165.696L28.2109 165.046C27.7216 163.623 27.2815 162.169 26.8913 160.688L24.9573 161.198ZM28.0161 170.082C28.6419 171.53 29.321 172.945 30.0527 174.325L31.8195 173.388C31.1131 172.056 30.457 170.689 29.8521 169.289L28.0161 170.082ZM32.4286 178.39C33.2785 179.715 34.1817 181 35.1376 182.244L36.7233 181.025C35.8023 179.827 34.9315 178.588 34.112 177.31L32.4286 178.39ZM38.167 185.853C39.2259 187.009 40.3362 188.122 41.4971 189.187L42.8496 187.714C41.7313 186.687 40.6619 185.616 39.642 184.502L38.167 185.853ZM45.1024 192.221C46.3386 193.173 47.6226 194.079 48.9534 194.935L50.0356 193.253C48.7521 192.427 47.5144 191.554 46.3231 190.637L45.1024 192.221ZM53.014 197.317C53.7034 197.684 54.4036 198.039 55.1144 198.382L55.9833 196.58C55.2964 196.249 54.62 195.906 53.9543 195.551L53.014 197.317ZM54.9894 196.652C54.2406 197.158 53.4378 197.713 52.5975 198.319L53.7665 199.942C54.5877 199.35 55.3735 198.806 56.1084 198.31L54.9894 196.652ZM47.9764 201.91C46.5432 203.117 45.0847 204.444 43.6621 205.89L45.088 207.293C46.4608 205.897 47.8722 204.612 49.2647 203.44L47.9764 201.91ZM39.7731 210.314C38.5795 211.848 37.4628 213.484 36.4712 215.221L38.2081 216.212C39.1475 214.567 40.2096 213.01 41.3515 211.542L39.7731 210.314ZM33.9662 220.607C33.6305 221.534 33.3344 222.484 33.0832 223.457L35.0196 223.957C35.2545 223.048 35.5317 222.158 35.8466 221.289L33.9662 220.607ZM33.083 223.457L33.081 223.465L35.0177 223.964L35.0197 223.957L33.083 223.457ZM33.077 223.481L33.075 223.489L35.0117 223.988L35.0137 223.98L33.077 223.481ZM33.0751 223.488C32.9438 223.997 32.7405 224.785 32.5466 225.827L34.5129 226.193C34.6937 225.221 34.8827 224.488 35.0117 223.988L33.0751 223.488ZM32.0259 230.604C31.9725 232.021 31.9963 233.619 32.1477 235.389L34.1404 235.218C33.9962 233.533 33.9741 232.017 34.0245 230.679L32.0259 230.604ZM32.8095 240.109C33.0911 241.568 33.4582 243.11 33.9287 244.733L35.8497 244.176C35.396 242.611 35.0433 241.128 34.7733 239.73L32.8095 240.109ZM35.4317 249.227C35.7047 249.948 35.9977 250.684 36.3119 251.432L38.1559 250.657C37.8509 249.931 37.5668 249.218 37.3023 248.519L35.4317 249.227ZM36.3096 251.426C36.3654 251.561 36.4554 251.705 36.518 251.803C36.5956 251.924 36.6952 252.069 36.8128 252.234C37.0486 252.564 37.3705 252.989 37.7627 253.474L39.3183 252.217C38.9472 251.758 38.6497 251.364 38.44 251.071C38.3348 250.924 38.255 250.806 38.2006 250.722C38.1311 250.613 38.1363 250.61 38.1582 250.663L36.3096 251.426ZM40.8607 256.861C41.9435 257.905 43.1724 258.947 44.4682 259.793L45.5617 258.118C44.4024 257.361 43.2724 256.408 42.2484 255.421L40.8607 256.861ZM48.9818 261.638C49.8624 261.75 50.7568 261.697 51.6291 261.408L51.0013 259.509C50.4534 259.691 49.8652 259.735 49.2357 259.654L48.9818 261.638ZM51.629 261.408C52.3909 261.157 53.0501 260.771 53.6155 260.295L52.3268 258.765C51.9439 259.088 51.5067 259.342 51.0014 259.509L51.629 261.408ZM55.9776 256.715C56.2209 256.057 56.4044 255.388 56.5427 254.743L54.5873 254.323C54.465 254.893 54.3062 255.469 54.1018 256.021L55.9776 256.715ZM54.5896 254.754C54.7588 255.503 54.9219 256.233 55.0791 256.944L57.032 256.512C56.8741 255.798 56.7103 255.065 56.5405 254.313L54.5896 254.754ZM56.0216 261.314C56.3509 262.885 56.6452 264.343 56.9069 265.694L58.8704 265.314C58.6065 263.952 58.3102 262.484 57.979 260.904L56.0216 261.314ZM57.7071 270.081C57.9918 271.764 58.2076 273.219 58.3631 274.47L60.3479 274.223C60.1879 272.937 59.9675 271.453 59.679 269.747L57.7071 270.081ZM58.686 278.805C58.6773 279.854 58.5586 280.376 58.459 280.589L60.2698 281.438C60.5626 280.813 60.6768 279.924 60.6859 278.822L58.686 278.805ZM58.4614 280.584C58.4608 280.585 58.46 280.586 58.459 280.589L60.2618 281.454C60.2636 281.451 60.2656 281.447 60.2675 281.443L58.4614 280.584ZM58.452 280.603C58.4507 280.606 58.4494 280.608 58.448 280.611L60.2483 281.482C60.2497 281.48 60.2511 281.477 60.2525 281.474L58.452 280.603ZM58.448 280.611C58.3951 280.721 58.2767 280.965 58.1451 281.312L60.0147 282.022C60.1154 281.757 60.2042 281.573 60.2483 281.483L58.448 280.611ZM57.7282 282.775C57.6821 283.013 57.6432 283.266 57.6157 283.532L59.6051 283.737C59.6261 283.534 59.6559 283.34 59.6916 283.156L57.7282 282.775ZM57.6155 283.534C57.571 283.975 57.5608 284.422 57.5808 284.864L59.5787 284.774C59.5629 284.422 59.5713 284.072 59.6054 283.735L57.6155 283.534ZM58.0664 287.471C58.2247 287.927 58.4231 288.361 58.6636 288.746L60.359 287.685C60.213 287.451 60.0749 287.158 59.9558 286.815L58.0664 287.471ZM58.6654 288.749C59.1211 289.471 59.7559 290.061 60.4932 290.541L61.5852 288.866C61.0309 288.504 60.6259 288.108 60.3573 287.682L58.6654 288.749ZM64.8227 292.207C66.1913 292.512 67.6861 292.709 69.2218 292.83L69.3788 290.837C67.9066 290.721 66.5093 290.534 65.2574 290.255L64.8227 292.207ZM73.5996 292.993C75.0902 292.996 76.5643 292.953 77.9535 292.887L77.8584 290.889C76.4943 290.954 75.054 290.996 73.6034 290.993L73.5996 292.993ZM82.2833 292.603C83.0926 292.537 83.8177 292.473 84.4299 292.419L84.2533 290.427C83.6408 290.481 82.9227 290.545 82.122 290.609L82.2833 292.603ZM84.4276 292.419L84.4308 292.419L84.2588 290.426L84.2556 290.427L84.4276 292.419ZM84.4372 292.418L84.4404 292.418L84.2683 290.425L84.2652 290.426L84.4372 292.418ZM84.4387 292.418C84.588 292.405 84.7831 292.388 85.0043 292.356L84.7231 290.376C84.5583 290.4 84.4076 290.414 84.27 290.425L84.4387 292.418ZM86.188 292.076C86.3788 292.009 86.5753 291.929 86.7733 291.832L85.8915 290.037C85.7732 290.095 85.6525 290.144 85.531 290.187L86.188 292.076ZM86.7694 291.834C87.8871 291.291 88.6158 290.426 89.0536 289.42L87.22 288.622C86.9478 289.247 86.5314 289.726 85.8953 290.035L86.7694 291.834ZM89.4172 283.567C89.2662 282.578 89.0607 281.639 88.8842 280.86L86.9336 281.302C87.1085 282.074 87.3005 282.954 87.4401 283.869L89.4172 283.567ZM88.8844 280.861C88.7717 280.361 88.6565 279.862 88.5393 279.364L86.5925 279.822C86.7084 280.314 86.8221 280.807 86.9334 281.301L88.8844 280.861ZM87.8097 276.38C87.6836 275.882 87.556 275.386 87.4272 274.893L85.4922 275.399C85.6198 275.887 85.7461 276.378 85.8709 276.871L87.8097 276.38ZM86.3895 276.144C86.6388 276.161 86.8901 276.177 87.1431 276.192L87.2582 274.195C87.0147 274.181 86.772 274.166 86.5299 274.148L86.3895 276.144ZM88.662 276.254C88.9152 276.26 89.1701 276.263 89.4267 276.263V274.263C89.186 274.263 88.946 274.26 88.7066 274.255L88.662 276.254ZM89.4267 276.263C89.6303 276.263 89.8317 276.261 90.0313 276.258L89.9979 274.258C89.8086 274.261 89.6183 274.263 89.4267 274.263V276.263ZM91.2319 276.221C91.4312 276.213 91.6296 276.203 91.8272 276.193L91.7266 274.196C91.5331 274.206 91.3402 274.215 91.1474 274.223L91.2319 276.221ZM90.8097 274.941C90.6808 275.431 90.5539 275.924 90.4289 276.419L92.368 276.909C92.4915 276.42 92.6169 275.933 92.7441 275.449L90.8097 274.941ZM89.7062 279.384C89.5898 279.878 89.4751 280.374 89.3624 280.869L91.3125 281.313C91.4242 280.822 91.5377 280.332 91.653 279.842L89.7062 279.384ZM89.3621 280.87C89.1857 281.649 88.9802 282.588 88.8292 283.577L90.8063 283.879C90.9459 282.964 91.1379 282.084 91.3127 281.312L89.3621 280.87ZM89.1927 289.43C89.6306 290.435 90.3593 291.301 91.4769 291.844L92.3511 290.045C91.715 289.736 91.2986 289.256 91.0264 288.631L89.1927 289.43ZM91.4732 291.842C91.6678 291.937 91.8605 292.016 92.0477 292.081L92.7048 290.192C92.5872 290.151 92.4701 290.103 92.3548 290.047L91.4732 291.842ZM93.2047 292.357C93.4135 292.388 93.6016 292.407 93.7446 292.422L93.9495 290.432C93.8042 290.417 93.6559 290.402 93.4948 290.378L93.2047 292.357ZM93.7438 292.421L93.755 292.423L93.9616 290.433L93.9504 290.432L93.7438 292.421ZM93.7775 292.425L93.7887 292.426L93.9954 290.437L93.9841 290.436L93.7775 292.425ZM93.8037 292.428C94.4157 292.482 95.1412 292.546 95.9513 292.611L96.1123 290.618C95.3109 290.553 94.5925 290.49 93.9803 290.435L93.8037 292.428ZM100.283 292.894C101.673 292.96 103.147 293.003 104.639 293L104.634 291C103.183 291.003 101.742 290.961 100.378 290.897L100.283 292.894ZM109.018 292.837C110.554 292.716 112.049 292.518 113.418 292.214L112.984 290.261C111.732 290.54 110.334 290.727 108.861 290.843L109.018 292.837ZM117.75 290.55C118.488 290.07 119.124 289.482 119.581 288.759L117.89 287.691C117.621 288.117 117.215 288.512 116.66 288.874L117.75 290.55ZM119.583 288.756C119.823 288.371 120.022 287.937 120.18 287.481L118.291 286.825C118.171 287.168 118.033 287.461 117.887 287.695L119.583 288.756ZM120.666 284.874C120.686 284.432 120.675 283.985 120.631 283.544L118.641 283.745C118.675 284.082 118.684 284.432 118.668 284.784L120.666 284.874ZM120.631 283.542C120.603 283.276 120.564 283.023 120.518 282.785L118.555 283.166C118.59 283.35 118.62 283.544 118.641 283.747L120.631 283.542ZM120.101 281.321C119.97 280.975 119.851 280.73 119.798 280.621L117.998 281.492C118.042 281.583 118.131 281.767 118.232 282.032L120.101 281.321ZM119.798 280.621C119.797 280.618 119.796 280.615 119.794 280.613L117.994 281.484C117.995 281.486 117.997 281.489 117.998 281.492L119.798 280.621ZM119.787 280.598C119.786 280.596 119.785 280.594 119.785 280.593L117.979 281.453C117.981 281.457 117.983 281.461 117.985 281.464L119.787 280.598ZM119.787 280.597C119.671 280.351 119.54 279.716 119.562 278.403L117.562 278.37C117.54 279.71 117.65 280.753 117.977 281.449L119.787 280.597ZM120.053 273.194C120.263 271.701 120.546 269.964 120.912 267.952L118.944 267.594C118.574 269.626 118.287 271.391 118.072 272.916L120.053 273.194ZM121.929 262.717C122.1 261.88 122.282 261.008 122.475 260.102L120.518 259.686C120.325 260.597 120.142 261.474 119.969 262.316L121.929 262.717ZM120.944 260.727C121.054 260.8 121.168 260.87 121.285 260.936L122.271 259.196C122.194 259.153 122.12 259.107 122.049 259.06L120.944 260.727ZM121.994 261.279C122.114 261.328 122.236 261.374 122.36 261.416L123.003 259.522C122.916 259.492 122.832 259.461 122.75 259.427L121.994 261.279ZM122.369 261.419C123.241 261.705 124.135 261.758 125.015 261.645L124.76 259.661C124.13 259.742 123.542 259.699 122.994 259.519L122.369 261.419ZM129.527 259.798C130.822 258.952 132.05 257.91 133.133 256.867L131.745 255.426C130.721 256.413 129.592 257.366 128.433 258.124L129.527 259.798ZM136.231 253.482C136.623 252.997 136.944 252.573 137.18 252.244C137.298 252.08 137.398 251.935 137.475 251.815C137.539 251.717 137.627 251.577 137.682 251.447L135.843 250.662C135.863 250.614 135.866 250.621 135.796 250.728C135.741 250.814 135.661 250.931 135.555 251.078C135.345 251.372 135.047 251.765 134.676 252.224L136.231 253.482ZM137.684 251.442C137.999 250.694 138.292 249.959 138.565 249.238L136.695 248.529C136.43 249.228 136.146 249.941 135.841 250.667L137.684 251.442ZM140.069 244.746C140.54 243.123 140.908 241.581 141.19 240.124L139.226 239.744C138.956 241.142 138.603 242.624 138.148 244.188L140.069 244.746ZM141.852 235.404C142.004 233.635 142.028 232.038 141.974 230.62L139.975 230.696C140.026 232.034 140.004 233.548 139.859 235.233L141.852 235.404ZM141.452 225.845C141.259 224.805 141.055 224.017 140.924 223.507L138.987 224.007C139.117 224.508 139.306 225.242 139.486 226.212L141.452 225.845ZM140.924 223.507L140.921 223.497L138.985 223.996L138.987 224.006L140.924 223.507ZM140.916 223.477L140.913 223.467L138.977 223.966L138.979 223.976L140.916 223.477ZM139.945 224.717H139.95V222.717H139.945V224.717ZM139.96 224.717H139.965V222.717H139.96V224.717ZM140.933 223.467C140.704 222.577 140.461 221.713 140.207 220.875L138.293 221.455C138.539 222.266 138.774 223.103 138.996 223.966L140.933 223.467ZM138.42 215.803C137.702 214.036 136.937 212.41 136.145 210.918L134.378 211.855C135.139 213.288 135.875 214.851 136.567 216.555L138.42 215.803ZM133.351 206.297C132.225 204.657 131.096 203.244 130.019 202.032L128.524 203.361C129.549 204.514 130.626 205.862 131.702 207.429L133.351 206.297ZM126.155 198.23C125.306 197.5 124.587 196.943 124.064 196.538L122.839 198.118C123.359 198.521 124.044 199.053 124.851 199.747L126.155 198.23ZM124.064 196.538C124.049 196.526 124.034 196.514 124.02 196.503L122.794 198.083C122.809 198.095 122.824 198.106 122.839 198.118L124.064 196.538ZM123.93 196.433C123.915 196.422 123.9 196.41 123.886 196.399L122.658 197.978C122.673 197.989 122.688 198.001 122.703 198.013L123.93 196.433ZM123.912 196.42L123.295 195.906L122.015 197.442L122.631 197.956L123.912 196.42ZM122.061 194.877L121.444 194.363L120.164 195.899L120.781 196.414L122.061 194.877ZM121.305 195.997C122.075 195.552 122.833 195.091 123.579 194.617L122.505 192.929C121.784 193.389 121.05 193.834 120.304 194.265L121.305 195.997ZM127.939 191.569C129.354 190.485 130.714 189.344 132.016 188.149L130.664 186.676C129.406 187.83 128.091 188.933 126.723 189.981L127.939 191.569ZM135.771 184.376C136.967 183.06 138.101 181.692 139.168 180.276L137.571 179.072C136.541 180.44 135.446 181.76 134.291 183.031L135.771 184.376ZM142.172 175.879C143.103 174.37 143.965 172.816 144.754 171.221L142.962 170.334C142.2 171.873 141.368 173.372 140.47 174.829L142.172 175.879ZM146.891 166.342C147.524 164.693 148.083 163.007 148.565 161.288L146.64 160.747C146.174 162.407 145.634 164.035 145.024 165.626L146.891 166.342ZM149.769 156.102C149.929 155.233 150.071 154.356 150.193 153.473L148.212 153.198C148.094 154.052 147.957 154.899 147.802 155.739L149.769 156.102ZM150.191 153.484C150.2 153.425 150.208 153.367 150.215 153.31L148.23 153.069C148.225 153.109 148.219 153.149 148.214 153.187L150.191 153.484ZM150.248 152.984C150.253 152.932 150.257 152.881 150.261 152.832L148.268 152.667C148.264 152.716 148.26 152.763 148.256 152.81L150.248 152.984ZM150.261 152.832C150.264 152.796 150.267 152.761 150.27 152.725L148.277 152.555C148.274 152.593 148.271 152.631 148.268 152.667L150.261 152.832ZM150.289 152.526C150.292 152.494 150.295 152.463 150.299 152.432L148.313 152.193C148.308 152.236 148.304 152.277 148.299 152.318L150.289 152.526ZM150.118 152.897C150.543 152.307 150.975 151.697 151.413 151.069L149.772 149.925C149.34 150.545 148.914 151.146 148.495 151.729L150.118 152.897ZM153.923 147.35C154.711 146.142 155.512 144.878 156.318 143.557L154.611 142.515C153.815 143.818 153.026 145.065 152.248 146.256L153.923 147.35ZM158.596 139.692C159.317 138.425 160.038 137.114 160.755 135.759L158.987 134.824C158.28 136.16 157.569 137.453 156.858 138.703L158.596 139.692ZM162.791 131.761C163.437 130.445 164.075 129.091 164.703 127.702L162.881 126.878C162.261 128.248 161.632 129.583 160.995 130.881L162.791 131.761ZM166.487 123.586C166.772 122.9 167.054 122.207 167.332 121.506L165.473 120.768C165.199 121.459 164.921 122.143 164.64 122.819L166.487 123.586ZM167.332 121.505C167.647 120.711 167.957 119.909 168.261 119.102L166.389 118.397C166.089 119.194 165.784 119.984 165.473 120.768L167.332 121.505ZM169.997 114.241C170.546 112.62 171.073 110.982 171.576 109.33L169.663 108.748C169.166 110.38 168.646 111.999 168.103 113.599L169.997 114.241ZM173.006 104.374C173.458 102.717 173.887 101.051 174.291 99.3807L172.347 98.9101C171.947 100.562 171.523 102.209 171.077 103.848L173.006 104.374ZM175.432 94.354C175.791 92.6644 176.124 90.9757 176.431 89.2928L174.464 88.9339C174.16 90.5979 173.831 92.2678 173.476 93.9388L175.432 94.354ZM177.282 84.2086C177.543 82.4907 177.775 80.784 177.978 79.0937L175.993 78.8551C175.792 80.5242 175.562 82.2103 175.304 83.908L177.282 84.2086ZM178.509 73.9639C178.659 72.2179 178.776 70.4961 178.857 68.8047L176.86 68.7081C176.779 70.3734 176.664 72.0702 176.516 73.7923L178.509 73.9639ZM178.999 63.6423C179.008 61.8695 178.974 60.1402 178.896 58.4627L176.898 58.5554C176.975 60.1961 177.008 61.891 176.999 63.6319L178.999 63.6423ZM178.495 53.2818C178.294 51.481 178.031 49.7588 177.705 48.1287L175.744 48.5216C176.057 50.0886 176.311 51.7532 176.507 53.5037L178.495 53.2818ZM176.376 43.0568C175.773 41.2574 175.057 39.6215 174.219 38.183L172.491 39.1898C173.248 40.489 173.911 41.9959 174.479 43.6923L176.376 43.0568ZM170.742 33.9829C170.005 33.383 169.213 32.8824 168.365 32.4926L167.53 34.3101C168.216 34.6252 168.865 35.0337 169.478 35.5332L170.742 33.9829Z" fill="black" mask="url(#path-3-inside-1_711_2672)"/>
<defs>
<radialGradient id="paint0_radial_711_2672" cx="0" cy="0" r="1" gradientUnits="userSpaceOnUse" gradientTransform="translate(89 292) scale(58 9)">
<stop stop-color="#5C5C5C"/>
<stop offset="0.635" stop-color="#5C5C5C"/>
</radialGradient>
</defs>
</svg>
