<svg width="61" height="36" viewBox="0 0 61 36" fill="none" xmlns="http://www.w3.org/2000/svg">
<g id="Group 350">
<g id="Group 322">
<path id="Ellipse 259" d="M48.8668 30.7277C47.6127 35.5374 43.1655 34.2791 38.3255 33.0172C33.4855 31.7552 28.2597 30.4914 29.5138 25.6817C30.7678 20.872 38.0268 14.3377 42.8668 15.5996C47.7068 16.8616 50.1208 25.918 48.8668 30.7277Z" fill="#5C5C5C"/>
<path id="Ellipse 261" d="M35.0583 14.022C34.4238 17.6734 32.6662 18.2578 31.1382 17.9923C29.6103 17.7268 27.9286 17.8738 28.5631 14.2224C29.1976 10.571 31.9078 4.50391 33.4358 4.7694C34.9638 5.0349 35.6928 10.3706 35.0583 14.022Z" fill="#5C5C5C"/>
<path id="Ellipse 263" d="M38.7131 7.91368C37.2496 11.2321 38.3964 12.6754 39.8154 13.3012C41.2344 13.927 42.5564 14.9728 44.0199 11.6544C45.4833 8.33598 46.5339 1.90995 45.1149 1.28417C43.6959 0.658381 40.1765 4.59526 38.7131 7.91368Z" fill="#5C5C5C"/>
<path id="Ellipse 265" d="M52.8767 11.2665C52.2029 15.1441 50.436 15.7821 48.908 15.5166C47.38 15.2511 45.6938 15.4244 46.3676 11.5468C47.0413 7.66922 49.82 1.20898 51.3479 1.47448C52.8759 1.73998 53.5504 7.38891 52.8767 11.2665Z" fill="#5C5C5C"/>
<path id="Ellipse 267" d="M58.1047 21.8228C56.9041 25.4953 55.0692 25.857 53.5951 25.3751C52.121 24.8932 50.43 24.815 51.6306 21.1425C52.8312 17.47 56.4688 11.5939 57.9429 12.0758C59.417 12.5577 59.3053 18.1503 58.1047 21.8228Z" fill="#5C5C5C"/>
</g>
<g id="Group 323">
<path id="Ellipse 260" d="M15.6879 31.5992C15.6842 34.7653 12.7409 34.701 9.55478 34.6972C6.36868 34.6935 2.94446 34.7503 2.94818 31.5842C2.9519 28.418 6.38215 23.2278 9.56825 23.2316C12.7544 23.2353 15.6916 28.433 15.6879 31.5992Z" fill="#5C5C5C"/>
<path id="Ellipse 262" d="M4.50109 23.5082C4.69408 25.8611 3.70387 26.5026 2.7193 26.5833C1.73472 26.6641 0.721396 27.0238 0.52841 24.6709C0.335424 22.3181 1.03586 18.1437 2.02043 18.0629C3.00501 17.9822 4.30811 21.1554 4.50109 23.5082Z" fill="#5C5C5C"/>
<path id="Ellipse 264" d="M5.77763 19.1576C5.40623 21.4378 6.34419 22.1442 7.31923 22.303C8.29426 22.4619 9.27671 22.8952 9.64811 20.615C10.0195 18.3348 9.63922 14.2046 8.66419 14.0458C7.68916 13.887 6.14904 16.8774 5.77763 19.1576Z" fill="#5C5C5C"/>
<path id="Ellipse 266" d="M15.0467 18.9586C15.2516 21.4572 14.2643 22.1332 13.2797 22.214C12.2951 22.2948 11.2832 22.6714 11.0782 20.1728C10.8733 17.6742 11.5529 13.2465 12.5375 13.1657C13.5221 13.085 14.8418 16.46 15.0467 18.9586Z" fill="#5C5C5C"/>
<path id="Ellipse 268" d="M19.9588 24.6317C19.8061 27.0882 18.7327 27.6048 17.7467 27.5435C16.7607 27.4822 15.7055 27.7045 15.8582 25.248C16.011 22.7916 17.3137 18.5866 18.2997 18.6479C19.2857 18.7092 20.1115 22.1753 19.9588 24.6317Z" fill="#5C5C5C"/>
</g>
</g>
</svg>
