<svg width="150" height="188" viewBox="0 0 150 188" fill="none" xmlns="http://www.w3.org/2000/svg">
<path d="M37.7219 106.25L30.6832 77.4492C30.6122 77.1665 30.5127 76.912 30.3991 76.6716L27.8422 66.2158L0 87.0354L30.5341 92.1608L34.1848 107.106C34.5541 108.626 35.6479 109.665 36.621 109.425C37.594 109.191 38.0841 107.77 37.7148 106.25H37.7219Z" fill="#2DDDC3"/>
<path d="M114.865 119.558C116.563 119.26 117.31 118.291 119.279 116.279C124.032 111.434 124.983 107.335 130.958 101.745C132.181 100.552 134.829 98.0925 137.07 98.7634C140.872 99.8814 140.533 109.049 140.533 109.571C140.193 118.813 134.15 125.446 132.995 126.714C126.205 134.018 117.989 134.987 115.68 135.136" fill="#FF6C6A"/>
<path fill-rule="evenodd" clip-rule="evenodd" d="M110.675 157.901C112.647 153.832 114.228 149.114 115.509 143.87C120.814 122.083 102.564 109.562 86.6478 109.562C70.7317 109.562 52.0568 117.839 57.7866 143.87C59.0547 149.62 60.7755 154.728 63.0202 159.042C58.6672 164.678 56.4602 166.783 55.4541 167.071C55.4227 167.086 55.3566 167.109 55.2636 167.141L55.2635 167.141C54.9364 167.253 54.2756 167.479 53.6148 167.92C52.6245 168.627 51.7756 169.759 51.4927 170.678C50.2194 175.064 58.8495 183.269 62.0327 186.24C62.1021 186.292 62.1758 186.357 62.2569 186.429C62.5063 186.648 62.8256 186.929 63.306 187.089C65.8526 188.15 68.2577 185.038 69.6017 183.057C72.1792 179.52 74.5039 175.838 76.5243 172.424C79.5424 173.69 82.9299 174.357 86.7185 174.357C89.2689 174.357 91.623 174.053 93.7969 173.467C93.899 176.066 94.0714 178.763 94.3607 181.431C94.5729 183.694 94.9973 187.514 97.6853 187.868C98.2317 187.929 98.6738 187.833 99.0118 187.76C99.0677 187.748 99.1207 187.736 99.1709 187.726C103.274 186.807 114.38 184.119 115.441 179.875C115.653 178.884 115.511 177.611 115.016 176.479C114.707 175.81 114.286 175.328 114.052 175.06L114.052 175.06C113.965 174.961 113.904 174.891 113.884 174.852C112.972 173.879 111.902 169.504 110.675 157.901Z" fill="url(#paint0_linear_243_2345)"/>
<path d="M58.1081 117.432C56.3211 117.145 55.5349 116.212 53.462 114.274C48.4585 109.609 47.4578 105.662 41.1677 100.279C39.8811 99.1301 37.0934 96.7616 34.7346 97.4076C30.7319 98.4842 31.0893 107.312 31.0893 107.815C31.4467 116.715 37.8082 123.102 39.0233 124.323C46.1712 131.356 54.8201 132.289 57.2503 132.433" fill="#FF6C6A"/>
<path d="M32.9263 108.109C33.1314 108.109 33.3364 108.043 33.4731 107.911C33.7465 107.648 33.6781 107.188 33.4047 106.991C32.7896 106.465 32.4479 105.807 32.4479 105.15C32.4479 104.755 32.5846 104.558 32.653 104.492C32.7896 104.361 33.2681 104.295 33.8148 104.492C34.1565 104.624 34.5666 104.492 34.84 104.164C35.045 103.901 35.1133 103.441 34.84 103.112C34.3616 102.454 34.2249 101.797 34.2932 101.074C34.4299 100.219 35.1133 98.8381 36.4802 98.6409C37.5737 98.5094 38.6672 99.1011 39.214 100.087C39.3506 100.416 39.8291 100.548 40.1708 100.35C40.5125 100.153 40.6492 99.7586 40.4442 99.4956C39.6241 97.9834 37.9838 97.1287 36.3435 97.3259C34.2932 97.5889 33.1997 99.3641 32.9947 100.942C32.9263 101.665 32.9947 102.323 33.2681 103.046C32.653 103.046 32.1062 103.178 31.7645 103.506C31.3544 103.901 31.0811 104.492 31.0811 105.15C31.0811 106.202 31.6278 107.188 32.5163 107.977C32.5846 108.043 32.7213 108.109 32.9263 108.109Z" fill="#823737"/>
<path d="M144.299 2.31706C138.113 -0.854613 128.016 7.18029 120.763 13.0303C106.47 24.4483 99.6441 38.5446 96.5155 46.7204C93.1735 46.1566 89.6892 45.8042 86.205 45.8042C82.0097 45.8042 77.8856 46.2976 73.9036 47.0728C71.1305 38.6151 64.9442 24.4483 51.3628 12.4664C44.3944 6.26402 34.6528 -2.26424 28.2532 0.555018C18.3694 4.99536 20.2893 34.8795 29.0354 56.7993C32.804 66.3848 37.6393 73.5739 41.1946 78.3667C41.2657 79.001 41.2657 79.7058 41.4079 80.4106C44.6788 103.035 60.18 116.004 85.4228 116.215C109.67 116.356 127.945 100.921 130.931 80.4106C131.215 78.4371 131.215 76.4637 131.002 74.5607C134.131 70.3318 137.615 64.8342 140.673 58.1385C150.485 36.7825 153.898 7.18029 144.299 2.31706Z" fill="url(#paint1_linear_243_2345)"/>
<path d="M79.7297 91.12C79.8075 92.8508 81.4414 94.3651 83.3086 94.5815C85.7983 94.7978 88.0546 92.4902 87.8212 90.7595C87.51 88.5961 83.5421 87.0096 81.3636 88.3076C80.3521 88.8124 79.7297 89.9662 79.7297 91.12Z" fill="#231815"/>
<path d="M60.8108 54.018V53.8726C60.8108 53.8242 60.7873 53.7757 60.7404 53.7272V53.6545C43.7864 22.9706 38.1585 20.7893 35.4853 21.8072C33.2341 22.6797 32.2492 26.3153 32.4603 33.2228C32.4603 33.6591 32.812 33.9499 33.1637 33.9499C33.5858 33.9499 33.8672 33.5863 33.8672 33.2228C33.6562 25.2973 35.0632 23.5523 35.9777 23.1887C37.9474 22.4616 43.5754 25.5155 59.4038 54.1635C59.2631 55.036 58.7003 58.4534 55.816 59.9803C52.7206 61.58 48.7811 60.1257 47.3742 57.799C45.9672 55.3995 47.1631 51.6913 48.0776 49.001C48.7811 46.747 49.2736 45.2928 48.2183 44.7111C47.5149 44.2748 46.8114 44.8565 46.1079 45.3655C45.3341 45.9472 44.3492 46.747 43.0829 46.747C41.6056 46.747 39.7765 45.8017 39.5655 44.4929C39.3544 43.1842 40.6911 41.3664 42.9422 40.8574C43.2939 40.7847 43.5753 40.4211 43.505 39.9849C43.4346 39.6213 43.0829 39.3305 42.6608 39.4032C39.5655 40.0576 37.8068 42.6752 38.1585 44.7111C38.5103 46.8197 40.9724 48.1285 43.0125 48.2012C44.7713 48.2012 46.0375 47.1832 46.8817 46.5288C47.0224 46.4561 47.1631 46.3107 47.3038 46.1653C47.2335 46.747 46.8817 47.7649 46.6003 48.5647C45.6155 51.5459 44.2788 55.6177 46.0376 58.5988C47.2335 60.6347 49.977 62.1616 52.8613 62.1616C54.0573 62.1616 55.2532 61.9435 56.3084 61.3618C60.2479 59.3259 60.67 54.3816 60.67 54.1635C60.8107 54.0908 60.8108 54.018 60.8108 54.018Z" fill="#823737"/>
<path d="M137.137 23.3604C134.533 21.9106 128.529 23.2154 106.829 50.9056C106.757 50.9781 106.757 51.0506 106.757 51.1231V51.4855C106.757 51.703 107.191 56.6321 111.241 58.6618C112.399 59.2417 113.556 59.4591 114.786 59.4591C117.679 59.4591 120.5 57.9369 121.802 55.9073C123.61 52.9353 122.236 48.876 121.223 45.904C120.934 45.1066 120.645 44.0918 120.5 43.5119C120.645 43.5844 120.789 43.7293 120.934 43.8743C121.802 44.5267 123.104 45.5415 124.985 45.5415C127.082 45.5415 129.614 44.2368 129.976 42.0621C130.337 40.0325 128.529 37.4229 125.346 36.7705C124.985 36.6981 124.551 36.9155 124.478 37.3504C124.406 37.7854 124.623 38.1478 125.057 38.2203C127.372 38.7277 128.746 40.5399 128.529 41.8447C128.312 43.1494 126.431 44.0918 124.912 44.0918C123.538 44.0918 122.598 43.3669 121.73 42.7145C121.006 42.2071 120.283 41.6272 119.56 42.0621C118.475 42.642 118.981 44.1643 119.704 46.3389C120.645 49.0209 121.874 52.7178 120.428 55.1099C119.053 57.4295 114.93 58.8792 111.748 57.2845C108.854 55.8348 108.203 52.5003 108.059 51.558C128.384 25.7524 134.533 23.5778 136.413 24.5926C137.281 25.0276 138.439 26.9847 137.064 34.8134C136.992 35.1758 137.281 35.6107 137.643 35.6832C138.005 35.7557 138.439 35.4658 138.511 35.1033C139.741 28.2895 139.307 24.5926 137.137 23.3604Z" fill="#823737"/>
<path d="M63.0547 85.0747C62.7686 85.0747 62.4824 84.9547 62.4109 84.6546C62.2678 84.3546 62.4825 83.9945 62.8401 83.8745C64.1992 83.4545 67.2749 82.7344 70.5653 82.6144C71.7098 82.5544 72.6397 82.6144 73.355 82.6744C72.0675 81.7743 70.7799 81.1742 69.4924 80.8141C64.1276 79.494 59.8358 79.434 58.906 79.554C58.4768 79.614 58.1191 79.3739 58.1191 79.0739C58.0476 78.7139 58.3337 78.4138 58.7629 78.4138C59.9789 78.2938 64.4853 78.4138 69.9931 79.734C71.8529 80.2141 73.6411 81.1142 75.3578 82.5544C75.6439 82.7944 75.787 83.1544 75.5724 83.5145C75.4293 83.8745 75.0001 84.0545 74.571 84.0545C74.2133 84.0545 73.8557 83.9945 73.4265 83.9945C72.6397 83.9345 71.8529 83.8745 70.7084 83.9345C67.6326 84.0545 64.6283 84.7746 63.4123 85.1347C63.1977 85.0747 63.1262 85.0747 63.0547 85.0747Z" fill="#231815"/>
<path d="M109.774 86.486C109.702 86.486 109.631 86.486 109.559 86.4147C108.412 85.9864 105.328 85.1299 102.245 84.9872C101.098 84.9158 100.309 84.9872 99.5202 85.0585C99.09 85.1299 98.7314 85.1299 98.3729 85.1299C97.9427 85.1299 97.5842 84.9158 97.3691 84.4875C97.2257 84.1306 97.2974 83.7024 97.5842 83.3455C99.3051 81.7039 101.098 80.5619 102.962 79.9909C108.412 78.4206 112.929 78.2779 114.22 78.4206C114.65 78.492 114.865 78.8489 114.865 79.2057C114.865 79.5626 114.435 79.8481 114.076 79.7768C113.072 79.634 108.77 79.7054 103.464 81.2756C102.173 81.6325 100.883 82.4176 99.5919 83.4883C100.309 83.4169 101.241 83.3455 102.388 83.4169C105.615 83.5596 108.77 84.4161 110.132 84.9158C110.491 85.0585 110.706 85.4868 110.563 85.8437C110.348 86.2719 110.061 86.486 109.774 86.486Z" fill="#231815"/>
<path d="M81.746 101.351C77.1123 101.351 72.8875 99.2336 70.6389 97.9303C70.2982 97.7674 70.1619 97.2787 70.3663 96.8715C70.5707 96.4642 70.9796 96.3013 71.2522 96.5457C73.7053 98.0118 78.6115 100.455 83.6539 99.6408C85.2893 99.3965 86.1752 98.6634 87.1973 97.8489L87.7424 97.3602L88.1513 97.6046C88.5601 97.8489 91.8991 100.211 95.5787 98.2562C98.6451 96.6271 100.894 94.3465 101.507 93.532C101.78 93.2062 102.188 93.1248 102.461 93.4506C102.734 93.7764 102.802 94.2651 102.529 94.5909C101.848 95.4868 99.3947 98.0118 96.1239 99.7223C92.4442 101.759 88.969 99.9666 87.8106 99.2336C86.7884 100.048 85.6982 100.863 83.7902 101.188C83.1088 101.27 82.4274 101.351 81.746 101.351Z" fill="#823737"/>
<path d="M89.0876 104.055C86.3195 104.055 83.6934 102.55 82.4868 100.13C82.3448 99.8025 82.4868 99.41 82.8417 99.2792C83.1965 99.1483 83.6224 99.2792 83.7643 99.6063C84.829 101.7 87.2422 103.008 89.6554 102.746C91.8557 102.55 93.8431 101.111 94.5529 99.0829C94.6948 98.7558 95.1207 98.5596 95.4756 98.6904C95.8305 98.8212 96.0434 99.2138 95.9014 99.5409C94.9787 102.027 92.5655 103.793 89.7974 104.055C89.5845 104.055 89.3715 104.055 89.0876 104.055Z" fill="#823737"/>
<path d="M35.1421 76.9235C40.9645 71.971 55.5841 60.9164 77.1381 58.5523C108.141 55.1542 130.375 72.2602 135.135 76.1065L132.734 82.4327C125.573 77.8562 113.765 71.689 98.1326 69.3682C69.4033 65.1026 47.0772 76.6994 39.3353 81.2109C37.9329 79.7793 36.5375 78.355 35.135 76.9235H35.1421Z" fill="url(#paint2_linear_243_2345)"/>
<path d="M95.7941 164.864C94.4723 164.864 93.1505 164.511 91.9678 163.665C90.4373 162.607 89.3938 160.844 88.7677 159.574C87.4459 161.126 85.3588 162.113 82.576 162.466C80.0715 162.819 77.4975 162.043 75.1321 160.138C71.7928 157.529 69.4274 153.297 69.01 149.065C68.2448 142.505 72.3494 134.323 79.515 132.701C84.3152 131.643 88.559 133.97 90.0895 135.099C90.4373 135.31 90.5069 135.734 90.2982 136.086C90.0895 136.439 89.6721 136.509 89.3242 136.298C87.8633 135.31 84.1065 133.124 79.7933 134.111C73.3233 135.593 69.7057 142.928 70.3319 148.923C70.7493 152.732 72.9755 156.682 75.9669 159.01C77.4279 160.138 79.6541 161.408 82.3673 161.055C84.8022 160.703 86.6806 159.856 87.7241 158.587C88.0024 158.234 88.4894 158.093 88.9068 158.163C89.3938 158.234 89.7417 158.516 89.9504 158.939C90.3678 159.856 91.3417 161.549 92.6635 162.466C94.8898 164.018 98.0899 163.594 99.9683 161.478C101.499 159.715 101.777 157.035 100.525 154.848C100.316 154.496 100.455 154.072 100.803 153.861C101.151 153.649 101.568 153.79 101.777 154.143C103.238 156.823 102.96 160.138 101.012 162.395C99.7596 164.018 97.7421 164.864 95.7941 164.864Z" fill="#823737"/>
<path d="M128.737 103.549C128.949 103.478 128.949 103.336 129.161 103.195C129.373 103.124 129.515 102.912 129.798 103.053C134.042 104.893 137.225 108.288 139.63 112.249C140.055 112.957 140.55 114.088 140.904 114.866C140.974 115.079 140.974 115.432 140.833 115.645C140.691 115.857 140.479 116.14 140.267 116.352C139.135 114.371 137.791 112.178 136.447 110.481C134.325 107.722 131.92 104.963 128.737 103.549Z" fill="#0C1035"/>
<path d="M127.39 104.539C127.603 104.398 127.815 104.256 128.027 104.044C131.422 105.529 133.757 108.076 135.95 110.976C137.294 112.745 138.709 114.937 139.84 116.989C139.699 117.201 139.487 117.413 139.274 117.625C138.143 115.645 136.657 113.31 135.384 111.542C133.049 108.359 130.927 106.095 127.39 104.539Z" fill="#0C1035"/>
<path d="M131.141 108.924C129.797 107.58 128.028 106.449 126.118 105.812C126.26 105.6 126.472 105.458 126.613 105.246C130.433 106.378 132.555 108.924 134.819 112.178C136.022 113.876 137.649 116.352 138.71 118.332C138.568 118.615 138.356 118.828 138.214 119.04C137.578 118.049 136.87 117.059 136.234 116.069C134.607 113.593 133.334 111.117 131.141 108.924Z" fill="#0C1035"/>
<path d="M118.266 133.4C117.417 132.268 115.153 128.519 114.022 125.831C112.89 123.143 110.414 118.121 110.06 114.725C110.909 114.584 112.041 114.442 112.89 114.159C117.134 112.532 121.166 109.703 124.491 107.156C125.34 106.449 125.694 106.237 126.047 105.954C126.401 105.671 126.118 105.883 126.118 105.883C128.099 106.449 129.796 107.581 131.14 108.925C133.333 111.188 134.677 113.593 136.375 116.14C137.012 117.059 137.719 118.121 138.356 119.111C138.426 119.182 138.285 119.252 138.214 119.323C135.455 124.204 132.767 127.741 128.382 131.56C126.542 133.117 123.642 135.168 121.449 136.583C119.893 135.027 119.964 135.734 118.266 133.4Z" fill="white"/>
<path d="M113.528 161.695C113.174 162.119 112.962 162.402 112.325 162.331C106.454 161.977 100.371 161.765 94.4993 161.553C93.7919 161.553 93.5797 161.27 93.1553 160.846C96.3385 160.916 99.451 160.987 102.634 161.129C106.313 161.27 109.92 161.482 113.528 161.695Z" fill="#0C1035"/>
<path d="M113.879 160.209C113.809 160.421 113.809 160.704 113.738 160.916C110.06 160.775 106.381 160.492 102.703 160.35C99.4488 160.209 96.1948 160.138 92.8701 160.067V159.855V159.431C96.1241 159.501 99.3781 159.572 102.703 159.714C106.452 159.855 110.13 160.067 113.879 160.209Z" fill="#0C1035"/>
<path d="M91.9511 119.465C92.0218 119.182 92.1633 118.829 92.3048 118.687C93.5073 117.697 94.8513 116.989 96.2661 116.423C100.015 114.938 103.694 113.453 107.514 112.25C107.584 112.25 107.796 112.25 107.867 112.321C108.575 113.028 109.211 113.948 109.919 114.655H109.989C110.414 118.05 112.819 123.073 114.021 125.761C115.224 128.449 117.417 132.198 118.266 133.33C119.963 135.664 119.893 134.886 121.449 136.371C121.308 136.301 121.378 136.371 121.307 136.442C120.529 140.12 119.327 144.718 118.407 148.184C117.275 152.146 116.002 154.904 114.375 158.37C114.163 158.795 114.234 159.078 114.092 159.431C110.343 159.29 106.594 159.007 102.845 158.866C99.5908 158.724 96.2661 158.653 92.9414 158.583C93.5073 146.345 93.7903 134.391 91.9511 122.224C91.8096 121.304 91.7389 120.385 91.9511 119.465Z" fill="url(#paint3_linear_243_2345)"/>
<path d="M126.683 105.245C126.966 105.033 127.178 104.75 127.461 104.538C130.998 106.094 133.12 108.358 135.455 111.541C136.728 113.309 138.213 115.644 139.345 117.624C139.204 117.837 138.992 118.12 138.85 118.332C137.718 116.351 136.162 113.946 134.96 112.178C132.554 108.924 130.503 106.307 126.683 105.245Z" fill="white"/>
<path d="M128.029 104.043C128.242 103.902 128.524 103.69 128.737 103.478C131.92 104.963 134.325 107.722 136.518 110.48C137.862 112.178 139.206 114.371 140.338 116.352C140.196 116.564 139.984 116.776 139.843 116.988C138.711 115.008 137.367 112.744 135.952 110.976C133.759 108.075 131.425 105.458 128.029 104.043Z" fill="white"/>
<path d="M113.739 160.916C113.739 160.963 113.715 161.034 113.668 161.128C113.597 161.27 113.597 161.553 113.527 161.694C109.919 161.553 106.311 161.27 102.704 161.128C99.5203 160.987 96.4078 160.916 93.2246 160.845C93.0831 160.633 93.0124 160.35 92.9417 160.067C96.1956 160.138 99.4496 160.209 102.774 160.35C106.382 160.563 110.06 160.775 113.739 160.916Z" fill="white"/>
<path d="M114.021 159.502C113.95 159.714 113.95 159.997 113.879 160.21C110.13 160.068 106.452 159.785 102.703 159.644C99.4488 159.502 96.1948 159.431 92.8701 159.361V158.653C96.1241 158.724 99.4488 158.795 102.773 158.936C106.523 159.078 110.272 159.361 114.021 159.502Z" fill="white"/>
<path d="M43.1449 101.357C42.9326 101.286 42.9327 101.145 42.7204 101.004C42.5082 100.933 42.3667 100.721 42.0838 100.862C37.8395 102.701 34.6562 106.097 32.2511 110.058C31.8267 110.765 31.3315 111.897 30.9779 112.675C30.9071 112.887 30.9071 113.241 31.0486 113.453C31.1901 113.665 31.4023 113.948 31.6145 114.161C32.7463 112.18 34.0903 109.987 35.4344 108.289C37.5565 105.601 39.9616 102.843 43.1449 101.357Z" fill="#0C1035"/>
<path d="M44.4873 102.348C44.2751 102.206 44.0629 102.065 43.8507 101.853C40.4552 103.338 38.1916 105.885 35.928 108.785C34.5839 110.553 33.1692 112.746 32.0374 114.797C32.1788 115.01 32.391 115.222 32.6033 115.434C33.7351 113.453 35.2913 111.119 36.4939 109.351C38.8282 106.167 40.9504 103.975 44.4873 102.348Z" fill="#0C1035"/>
<path d="M40.7413 106.733C42.0854 105.389 43.8539 104.257 45.7638 103.621C45.6223 103.408 45.4101 103.267 45.2686 103.055C41.4487 104.186 39.3266 106.733 37.063 109.987C35.8604 111.685 34.2334 114.16 33.1724 116.141C33.3138 116.424 33.526 116.636 33.6675 116.848C34.3041 115.858 35.0116 114.868 35.6482 113.877C37.2045 111.402 38.5484 108.997 40.7413 106.733Z" fill="#0C1035"/>
<path d="M53.6138 131.279C54.4627 130.147 56.7263 126.398 57.8581 123.71C58.99 121.022 61.4658 115.999 61.8195 112.604C60.9707 112.463 59.8388 112.321 58.99 112.038C54.7457 110.411 50.7136 107.582 47.3889 105.035C46.4693 104.328 46.1863 104.116 45.8326 103.833C45.4789 103.55 45.7619 103.762 45.7619 103.762C43.7812 104.328 42.0835 105.46 40.7394 106.804C38.5466 109.067 37.2026 111.472 35.5048 114.019C34.8682 114.938 34.1608 115.999 33.5242 116.99C33.4534 117.06 33.5949 117.131 33.6656 117.202C36.4244 122.083 39.1125 125.62 43.4983 129.439C45.3375 130.996 48.2377 133.047 50.4306 134.462C51.9869 132.906 51.8454 133.613 53.6138 131.279Z" fill="white"/>
<path d="M58.3518 159.503C58.7055 159.928 58.9177 160.211 59.5544 160.14C65.4257 159.786 71.5092 159.574 77.3804 159.362C78.0878 159.362 78.3 159.079 78.7245 158.654C75.5412 158.725 72.4288 158.796 69.2455 158.937C65.5671 159.149 61.9595 159.362 58.3518 159.503Z" fill="#0C1035"/>
<path d="M58.0007 158.089C58.0715 158.301 58.0715 158.584 58.1422 158.796C61.8206 158.655 65.499 158.372 69.1774 158.23C72.4314 158.089 75.6853 158.018 79.01 157.947V157.735V157.311C75.7561 157.381 72.5021 157.452 69.1774 157.593C65.4283 157.664 61.6791 157.947 58.0007 158.089Z" fill="#0C1035"/>
<path d="M79.9291 117.273C79.8583 116.99 79.7169 116.636 79.5754 116.494C78.3728 115.504 77.0288 114.797 75.614 114.231C71.8649 112.745 67.7621 112.109 63.8714 110.906C63.8007 110.906 63.5885 110.906 63.5178 110.977C62.8104 111.684 62.6689 111.755 61.9615 112.462H61.8908C61.4663 115.858 59.0612 120.88 57.8587 123.568C56.6561 126.256 54.4632 130.005 53.6144 131.137C51.9167 133.471 51.9874 132.693 50.4312 134.179C50.5726 134.108 50.5019 134.179 50.5726 134.249C51.3508 137.928 52.5533 142.526 53.4729 145.992C54.6047 149.953 55.878 152.712 57.505 156.178C57.6465 156.602 57.6465 156.885 57.788 157.239C61.5371 157.097 65.2862 156.814 69.0353 156.673C72.2893 156.531 75.614 156.461 78.9387 156.39C78.3728 144.153 78.0899 132.198 79.9291 120.031C80.0705 119.182 80.0705 118.263 79.9291 117.273Z" fill="url(#paint4_linear_243_2345)"/>
<path d="M45.1956 103.054C44.9127 102.842 44.7004 102.559 44.4175 102.347C40.8806 103.903 38.7584 106.166 36.4241 109.35C35.1508 111.118 33.6653 113.452 32.5334 115.433C32.6749 115.645 32.8871 115.928 33.0286 116.14C34.1604 114.16 35.7167 111.755 36.9192 109.986C39.2536 106.732 41.3758 104.186 45.1956 103.054Z" fill="white"/>
<path d="M43.8522 101.923C43.64 101.782 43.357 101.57 43.1448 101.357C39.9616 102.843 37.5565 105.602 35.3636 108.36C34.0196 110.058 32.6755 112.251 31.5437 114.232C31.6852 114.444 31.8974 114.656 32.0389 114.868C33.1707 112.888 34.5147 110.624 35.9295 108.856C38.1224 105.885 40.4568 103.338 43.8522 101.923Z" fill="white"/>
<path d="M58.1431 158.796C58.1431 158.843 58.1666 158.914 58.2138 159.008C58.2845 159.15 58.2845 159.433 58.3553 159.574C61.9629 159.433 65.5706 159.15 69.1782 159.008C72.3615 158.867 75.474 158.796 78.6572 158.725C78.7987 158.513 78.8694 158.23 78.9401 157.947C75.6862 158.018 72.4322 158.089 69.1075 158.23C65.4999 158.372 61.8215 158.584 58.1431 158.796Z" fill="white"/>
<path d="M57.8582 157.381C57.9289 157.593 57.9289 157.876 57.9996 158.088C61.7488 157.947 65.4272 157.664 69.1763 157.523C72.4303 157.381 75.6842 157.31 79.0089 157.24V156.532C75.755 156.603 72.4303 156.674 69.1056 156.815C65.3564 156.957 61.6073 157.169 57.8582 157.381Z" fill="white"/>
<defs>
<linearGradient id="paint0_linear_243_2345" x1="9.34228" y1="91.1765" x2="102.225" y2="187.887" gradientUnits="userSpaceOnUse">
<stop stop-color="#FFB3B1"/>
<stop offset="1" stop-color="#FF6C6A"/>
</linearGradient>
<linearGradient id="paint1_linear_243_2345" x1="1.27353" y1="-43.1628" x2="105.748" y2="112.092" gradientUnits="userSpaceOnUse">
<stop stop-color="#FFB8B7"/>
<stop offset="1" stop-color="#FF6C6A"/>
</linearGradient>
<linearGradient id="paint2_linear_243_2345" x1="7.74186" y1="27.724" x2="108.75" y2="94.07" gradientUnits="userSpaceOnUse">
<stop stop-color="#0600C8"/>
<stop offset="1" stop-color="#030062"/>
</linearGradient>
<linearGradient id="paint3_linear_243_2345" x1="84.8132" y1="107.666" x2="106.633" y2="159.431" gradientUnits="userSpaceOnUse">
<stop stop-color="#232F9B"/>
<stop offset="1" stop-color="#0C1035"/>
</linearGradient>
<linearGradient id="paint4_linear_243_2345" x1="52.1791" y1="107.855" x2="72.424" y2="157.238" gradientUnits="userSpaceOnUse">
<stop stop-color="#232F9B"/>
<stop offset="1" stop-color="#0C1035"/>
</linearGradient>
</defs>
</svg>
