<svg width="214" height="214" viewBox="0 0 214 214" fill="none" xmlns="http://www.w3.org/2000/svg">
<path d="M0 46.513C0 20.8246 20.8246 0 46.513 0H167.487C193.175 0 214 20.8246 214 46.513V167.487C214 193.175 193.175 214 167.487 214H46.513C20.8246 214 0 193.175 0 167.487V46.513Z" fill="#2DDDC3"/>
<path d="M29.546 129.2C28.5881 126.258 27.7386 123.301 27.0156 120.344C27.6482 123.359 28.4796 126.316 29.546 129.2Z" fill="white"/>
<path opacity="0.9" d="M54.7734 103.896C55.1639 96.1391 56.4979 88.4928 58.6454 81.083C55.717 78.6709 52.6259 76.3061 49.5511 74.3512C42.3604 69.7949 32.7944 73.0269 30.0612 80.9096C27.5396 88.1618 26.0428 95.8711 25.75 103.88H54.7734V103.896Z" fill="white"/>
<path opacity="0.7" d="M66.237 154.095C59.9059 142.441 55.2163 128.228 54.7942 111.486H27.0156C27.1876 114.492 27.5315 117.437 28.0317 120.335C28.657 123.48 29.3761 126.624 30.2202 129.754C34.0814 142.595 41.1159 154.095 50.4328 163.36C55.0756 160.045 60.3593 156.87 66.237 154.095Z" fill="white"/>
<path opacity="0.5" d="M69.8965 160.828C64.8068 163.261 60.2292 166.04 56.1172 168.944C66.1568 177.389 78.2602 183.417 91.543 186.132C85.1188 180.497 76.9413 172.067 69.8965 160.828Z" fill="white"/>
<path opacity="0.5" d="M105.459 187.398V151.973C94.6414 152.339 84.9361 154.471 76.3594 157.622C87.4511 174.38 101.122 184.454 105.459 187.398Z" fill="white"/>
<path opacity="0.7" d="M72.4587 150.707C82.0748 147.068 93.0692 144.611 105.458 144.248V130.007C101.515 130.243 97.6529 130.748 93.9026 131.551C91.9954 125.88 88.9984 118.35 84.2064 110.221H61.1758C61.6566 126.085 66.2884 139.601 72.4587 150.707Z" fill="white"/>
<path opacity="0.5" d="M128.23 184.867C140.554 181.641 151.748 175.647 161.126 167.613C157.304 165.067 153.292 162.805 149.12 160.828C142.306 171.314 134.536 179.348 128.23 184.867Z" fill="white"/>
<path opacity="0.5" d="M142.151 157.919C132.999 154.474 123.189 152.445 113.051 151.973V187.398C113.051 187.398 113.066 187.398 113.082 187.398C113.599 187.068 129.458 177 142.151 157.903V157.919Z" fill="white"/>
<path opacity="0.7" d="M164.435 110.221C163.909 127.533 158.92 142.206 152.273 154.161C157.087 156.454 161.693 159.094 166.06 162.094C179.321 148.458 187.849 130.298 188.964 110.221H164.451H164.435Z" fill="white"/>
<path opacity="0.7" d="M145.874 151.957C152.062 140.925 156.789 127.388 157.333 111.486H134.29C129.206 119.375 125.941 126.704 123.873 132.103C120.343 131.465 116.72 131.061 113.051 130.936V145.127C124.51 145.609 135.596 147.959 145.889 151.973L145.874 151.957Z" fill="white"/>
<path opacity="0.9" d="M188.96 103.88C188.642 95.0093 186.91 86.4881 183.987 78.5393C182.414 74.2469 177.425 72.3073 173.326 74.3422C169.228 76.3772 165.065 79.3183 161.125 82.3547C162.952 89.3656 164.112 96.5832 164.43 103.896H188.96V103.88Z" fill="white"/>
<path opacity="0.7" d="M155.12 87.4492C148.909 92.7016 143.82 98.3233 139.617 103.897H157.33C157.065 98.3554 156.303 92.8461 155.12 87.4492Z" fill="white"/>
<path opacity="0.7" d="M78.8891 103.896C75.1463 97.9542 70.541 91.9142 64.8391 86.1836C63.5672 91.9794 62.7484 97.9054 62.4414 103.896H78.8745H78.8891Z" fill="white"/>
<path d="M194.106 103.895H196.554C195.887 82.0131 187.208 62.1017 173.269 46.9609C172.601 47.5397 171.933 48.134 171.25 48.6971C184.872 63.3374 193.391 82.6387 194.106 103.895Z" fill="white"/>
<path d="M21.3412 111.486H18.1602C19.3213 134.101 28.8645 154.499 43.752 169.686C44.4837 169.052 45.2312 168.403 45.9947 167.77C31.6321 153.057 22.4228 133.341 21.3253 111.486H21.3412Z" fill="white"/>
<path d="M105.462 20.9106V17.8613C83.5902 18.3882 63.6943 27.0411 48.5273 41.0262C49.3051 41.7286 50.0985 42.447 50.9229 43.1655C65.4987 29.8189 84.5391 21.5332 105.462 20.9266V20.9106Z" fill="white"/>
<path d="M44.7295 47.7901C43.8992 47.0866 43.1159 46.3988 42.3326 45.6953C27.8887 60.9838 18.8338 81.3841 18.1602 103.895H21.2933C22.014 82.1814 30.7869 62.5314 44.7295 47.7744V47.7901Z" fill="white"/>
<path d="M51.9959 172.217C51.2344 172.857 50.504 173.497 49.7891 174.121C64.7865 187.501 84.182 195.744 105.458 196.256V193.647C85.0679 193.055 66.4338 185.085 51.9959 172.217Z" fill="white"/>
<path d="M111.785 193.631V196.255C133.158 195.008 152.567 186.276 167.454 172.587C166.815 172.037 166.176 171.486 165.521 170.951C151.081 184.105 132.36 192.497 111.785 193.647V193.631Z" fill="white"/>
<path d="M166.639 44.4307C167.343 43.8478 168.031 43.2325 168.719 42.6173C153.658 28.3045 133.778 19.1404 111.785 17.8613V20.9214C132.913 22.1034 152.057 30.7979 166.639 44.4307Z" fill="white"/>
<path d="M193.052 111.486C192.057 132.354 183.942 151.268 171.25 165.588C171.835 166.1 172.405 166.628 172.975 167.155C185.96 152.431 194.265 132.991 195.289 111.502H193.052V111.486Z" fill="white"/>
</svg>
