<svg width="429" height="429" viewBox="0 0 429 429" fill="none" xmlns="http://www.w3.org/2000/svg">
<rect width="429" height="429" rx="86" fill="#2DDDC3"/>
<path d="M112.521 181.622C116.652 181.017 120.81 182.517 124.888 185.28C128.125 167.861 133.861 150.995 141.781 135.313C130.177 129.761 119.915 123.288 111.074 116.631C88.4981 140.943 74.263 173.097 73 208.514H91.4977C96.6023 193.41 103.786 182.938 112.548 181.622H112.521Z" fill="white"/>
<path d="M193.904 357.812C176.617 344.945 161.803 328.553 150.147 309.95L122.124 324.474C142.016 341.761 166.697 353.654 193.904 357.812Z" fill="#FF6C6A"/>
<path d="M211.06 353.654V291.583C198.219 292.004 186.326 293.951 175.327 296.898L161.882 303.871C174.67 323.974 191.431 341.261 211.086 353.654H211.06Z" fill="#FF6C6A"/>
<path d="M136.438 196.386C139.595 200.201 142.621 204.385 145.436 208.489H211.059V151.997C189.536 151.339 170.459 146.971 153.83 140.498C144.936 157.864 138.963 176.835 136.438 196.359V196.386Z" fill="white" fill-opacity="0.8"/>
<path d="M321.418 188.596C328.733 189.701 334.969 197.2 339.81 208.488H362.518C361.255 173.072 347.02 140.918 324.444 116.605C315.577 123.263 305.341 129.735 293.737 135.287C302.499 152.601 308.63 171.362 311.604 190.727C314.866 188.965 318.155 188.096 321.444 188.596H321.418Z" fill="white"/>
<path d="M281.684 140.522C265.054 146.969 245.978 151.363 224.454 152.021V208.514H293.498C295.471 205.856 297.524 203.304 299.629 200.936C297.497 179.807 291.261 159.231 281.684 140.549V140.522Z" fill="white" fill-opacity="0.8"/>
<path d="M343.965 220.303C348.227 234.907 350.675 252.957 350.938 271.06C357.647 255.378 361.647 238.275 362.278 220.303H343.965Z" fill="white" fill-opacity="0.9"/>
<path d="M283.107 223.566C283.817 222.513 284.528 221.408 285.264 220.303H224.22V276.796C237.113 277.191 249.085 278.927 260.215 281.637C263.162 264.955 269.477 244.221 283.107 223.566Z" fill="white" fill-opacity="0.5"/>
<path d="M211.064 276.795V221.644H154.045C167.333 243.668 172.7 265.402 174.858 281.82C189.619 278.347 202.881 277.216 211.064 276.795Z" fill="white" fill-opacity="0.5"/>
<path d="M73.1045 221.644C73.9728 237.326 77.4197 252.324 82.9716 266.243C83.0242 250.745 84.7344 235.142 87.813 221.644H73.0781H73.1045Z" fill="white" fill-opacity="0.9"/>
<path d="M124.886 185.28C120.808 182.491 116.651 180.991 112.52 181.622C103.784 182.938 96.5743 193.41 91.4697 208.513H122.071C122.466 200.699 123.439 192.963 124.86 185.306L124.886 185.28Z" fill="#FF6C6A"/>
<path d="M120.784 323.314C121.231 323.709 121.679 324.077 122.1 324.445L150.122 309.921C149.491 308.895 148.807 307.895 148.175 306.869C137.887 311.763 128.757 317.446 120.758 323.314H120.784Z" fill="#FF6C6A"/>
<path d="M161.859 303.869L175.305 296.896C170.148 298.291 165.175 299.87 160.412 301.659C160.859 302.396 161.386 303.133 161.859 303.869Z" fill="#FF6C6A"/>
<path d="M135.255 208.488H145.438C142.622 204.357 139.596 200.2 136.439 196.385C135.913 200.411 135.492 204.436 135.281 208.488H135.255Z" fill="#FF6C6A"/>
<path d="M152.645 288.741C153.04 288.583 153.435 288.425 153.829 288.267C160.907 285.504 168.038 283.399 174.853 281.82C172.695 265.402 167.328 243.694 154.04 221.644H135.147C135.911 247.641 143.041 270.059 152.672 288.741H152.645Z" fill="#FF6C6A"/>
<path d="M133.967 297.503C134.52 297.213 136.94 295.898 140.414 294.214C130.204 274.085 122.732 249.904 121.995 221.644H87.8679C84.7894 235.142 83.079 250.745 83.0264 266.243C89.7886 283.162 99.6558 298.502 111.97 311.527C117.732 307.238 125.074 302.291 133.967 297.476V297.503Z" fill="#FF6C6A"/>
<path d="M260.215 281.636C260.215 281.636 260.215 281.715 260.215 281.768C265.477 283.004 270.95 284.531 276.45 286.451C271.266 284.636 265.872 283.004 260.241 281.636H260.215Z" fill="#FF6C6A"/>
<path d="M301.682 297.688C301.918 297.82 302.129 297.925 302.339 298.056C302.129 297.925 301.892 297.82 301.682 297.688Z" fill="#FF6C6A"/>
<path d="M309.709 302.318C309.709 302.318 309.919 302.45 310.025 302.503C309.919 302.45 309.814 302.371 309.709 302.318Z" fill="#FF6C6A"/>
<path d="M287.289 306.869C285.473 309.895 283.552 312.842 281.552 315.762C270.527 331.971 257.056 346.311 241.584 357.809C266.212 354.047 288.762 343.943 307.575 329.261C310.022 327.366 312.39 325.393 314.706 323.34C306.707 317.473 297.55 311.789 287.289 306.895V306.869Z" fill="#FF6C6A"/>
<path d="M258.292 296.372C247.846 293.714 236.558 291.978 224.454 291.583V353.654C242.189 342.445 257.608 327.315 269.843 309.686C271.659 307.055 273.422 304.397 275.079 301.661C269.738 299.635 264.133 297.872 258.266 296.372H258.292Z" fill="#FF6C6A"/>
<path d="M339.807 208.488C334.966 197.2 328.756 189.701 321.415 188.596C318.126 188.096 314.837 188.964 311.574 190.727C312.469 196.595 313.1 202.515 313.416 208.488H339.807Z" fill="#FF6C6A"/>
<path d="M299.631 200.911C297.526 203.279 295.473 205.831 293.5 208.489H300.262C300.131 205.963 299.894 203.437 299.631 200.911Z" fill="#FF6C6A"/>
<path d="M309.996 302.503C315.074 305.608 319.811 308.871 324.179 312.186C320.232 309.213 315.495 305.897 309.996 302.503Z" fill="#FF6C6A"/>
<path d="M302.339 298.055C304.865 299.449 307.312 300.87 309.706 302.317C307.391 300.896 304.944 299.476 302.339 298.055Z" fill="#FF6C6A"/>
<path d="M313.178 220.303C311.915 245.905 304.916 270.928 293.47 293.504C293.891 293.715 294.312 293.952 294.733 294.136C298.285 295.872 300.758 297.188 301.311 297.504C301.442 297.583 301.548 297.635 301.679 297.714C301.89 297.846 302.126 297.951 302.337 298.083C304.916 299.503 307.389 300.924 309.705 302.345C309.81 302.398 309.915 302.477 310.02 302.529C315.52 305.897 320.256 309.213 324.202 312.212C335.333 300.24 344.41 286.347 350.936 271.086C350.673 252.983 348.226 234.933 343.963 220.33H313.178V220.303Z" fill="#FF6C6A"/>
<path d="M301.311 297.503C300.758 297.213 298.285 295.871 294.732 294.135C297.101 295.293 299.416 296.477 301.679 297.687C301.547 297.608 301.442 297.555 301.311 297.476V297.503Z" fill="#FF6C6A"/>
<path d="M260.215 281.636C265.846 283.004 271.24 284.609 276.423 286.451C278.081 287.03 279.765 287.635 281.423 288.293C292.132 267.348 298.71 244.088 299.999 220.328H285.264C284.528 221.433 283.817 222.538 283.106 223.591C269.477 244.246 263.162 264.98 260.215 281.662V281.636Z" fill="#FF6C6A"/>
<path d="M281.446 288.294C279.789 287.636 278.105 287.031 276.447 286.452C278.131 287.057 279.815 287.636 281.446 288.294Z" fill="#FF6C6A"/>
<path d="M210.139 75.3862C190.387 88.3718 173.596 106.589 161.04 127.86C175.459 133.542 191.842 137.393 210.139 138.03V75.3862Z" fill="white"/>
<path d="M225.377 75.3862C245.129 88.3718 261.921 106.589 274.476 127.86C260.058 133.542 243.674 137.393 225.377 138.03V75.3862Z" fill="white"/>
<path d="M193.208 72.0263C165.517 76.2502 140.446 88.5548 120.405 106.395C128.369 112.246 137.486 117.913 147.703 122.792C159.57 102.984 175.053 85.5376 193.181 72L193.208 72.0263Z" fill="white"/>
<path d="M242.308 72.0263C269.998 76.2502 295.069 88.5548 315.11 106.395C307.146 112.246 298.03 117.913 287.813 122.792C275.945 102.984 260.462 85.5376 242.334 72L242.308 72.0263Z" fill="white"/>
</svg>
