<svg width="9" height="16" viewBox="0 0 9 16" fill="none" xmlns="http://www.w3.org/2000/svg">
<path d="M1.78341 0.316623L8.77189 7.40897C8.85484 7.49341 8.91346 7.58487 8.94774 7.68338C8.98258 7.78188 9 7.88742 9 8C9 8.11258 8.98258 8.21812 8.94774 8.31662C8.91346 8.41513 8.85484 8.5066 8.77189 8.59103L1.78341 15.7045C1.58986 15.9015 1.34793 16 1.0576 16C0.76728 16 0.518433 15.8945 0.311059 15.6834C0.103685 15.4723 -8.86012e-07 15.226 -8.61408e-07 14.9446C-8.36803e-07 14.6631 0.103686 14.4169 0.311059 14.2058L6.40783 8L0.31106 1.7942C0.117512 1.59719 0.020737 1.35458 0.020737 1.06639C0.0207371 0.777626 0.124424 0.527704 0.331797 0.316623C0.539171 0.105541 0.781106 2.35156e-07 1.0576 2.59328e-07C1.3341 2.835e-07 1.57604 0.105542 1.78341 0.316623Z" fill="#5C5C5C"/>
</svg>
