<svg width="6" height="11" viewBox="0 0 6 11" fill="none" xmlns="http://www.w3.org/2000/svg">
<path id="Vector" d="M1.18894 0.217679L5.84793 5.09367C5.90323 5.15172 5.9423 5.2146 5.96516 5.28232C5.98839 5.35004 6 5.4226 6 5.5C6 5.5774 5.98839 5.64996 5.96516 5.71768C5.9423 5.7854 5.90323 5.84829 5.84793 5.90633L1.18894 10.7968C1.05991 10.9323 0.898617 11 0.705068 11C0.51152 11 0.345621 10.9274 0.207372 10.7823C0.0691238 10.6372 -9.07156e-07 10.4679 -8.90241e-07 10.2744C-8.73325e-07 10.0809 0.0691238 9.91161 0.207372 9.76649L4.27189 5.5L0.207373 1.23351C0.0783409 1.09807 0.0138249 0.931276 0.0138249 0.73314C0.0138249 0.534618 0.0829491 0.362797 0.221198 0.217679C0.359447 0.0725598 0.520737 4.74662e-07 0.705069 4.90777e-07C0.889401 5.06891e-07 1.05069 0.0725599 1.18894 0.217679Z" fill="white"/>
</svg>
