<svg width="10" height="6" viewBox="0 0 10 6" fill="none" xmlns="http://www.w3.org/2000/svg">
<path d="M9.80211 1.18894L5.36939 5.84793C5.31662 5.90323 5.25945 5.9423 5.19789 5.96516C5.13632 5.98839 5.07036 6 5 6C4.92964 6 4.86368 5.98839 4.80211 5.96516C4.74055 5.9423 4.68338 5.90323 4.63061 5.84793L0.184697 1.18894C0.0615655 1.05991 0 0.898617 0 0.705069C0 0.51152 0.0659631 0.345622 0.197889 0.207373C0.329815 0.0691242 0.483729 -4.76837e-07 0.659631 -4.76837e-07C0.835532 -4.76837e-07 0.989446 0.0691242 1.12137 0.207373L5 4.27189L8.87863 0.207373C9.00176 0.078341 9.15339 0.0138245 9.33351 0.0138245C9.51398 0.0138245 9.67019 0.0829487 9.80211 0.221198C9.93404 0.359447 10 0.520737 10 0.705069C10 0.8894 9.93404 1.05069 9.80211 1.18894Z" fill="#D9D9D9"/>
</svg>
