<svg width="41" height="41" viewBox="0 0 41 41" fill="none" xmlns="http://www.w3.org/2000/svg">
<g id="Group 625">
<circle id="Ellipse 361" cx="20.5" cy="20.5" r="20.5" fill="white"/>
<circle id="Ellipse 355" cx="20.5001" cy="20.5008" r="11.0309" stroke="#5C5C5C" stroke-width="2"/>
<path id="Line 133 (Stroke)" fill-rule="evenodd" clip-rule="evenodd" d="M20.4999 28.3098C21.039 28.3098 21.4761 28.7133 21.4761 29.2109V35.2182C21.4761 35.7159 21.039 36.1193 20.4999 36.1193C19.9607 36.1193 19.5237 35.7159 19.5237 35.2182V29.2109C19.5237 28.7133 19.9607 28.3098 20.4999 28.3098Z" fill="#5C5C5C"/>
<path id="Line 133 (Stroke)_2" fill-rule="evenodd" clip-rule="evenodd" d="M20.4999 4.88098C21.039 4.88098 21.4761 5.33485 21.4761 5.89472V12.653C21.4761 13.2128 21.039 13.6667 20.4999 13.6667C19.9607 13.6667 19.5237 13.2128 19.5237 12.653V5.89472C19.5237 5.33485 19.9607 4.88098 20.4999 4.88098Z" fill="#5C5C5C"/>
<path id="Line 133 (Stroke)_3" fill-rule="evenodd" clip-rule="evenodd" d="M4.88086 20.4995C4.88086 19.9604 5.33472 19.5233 5.8946 19.5233H12.6528C13.2127 19.5233 13.6666 19.9604 13.6666 20.4995C13.6666 21.0386 13.2127 21.4757 12.6528 21.4757H5.8946C5.33472 21.4757 4.88086 21.0386 4.88086 20.4995Z" fill="#5C5C5C"/>
<path id="Line 133 (Stroke)_4" fill-rule="evenodd" clip-rule="evenodd" d="M27.3335 20.4995C27.3335 19.9604 27.7874 19.5233 28.3472 19.5233H35.1055C35.6653 19.5233 36.1192 19.9604 36.1192 20.4995C36.1192 21.0386 35.6653 21.4757 35.1055 21.4757H28.3472C27.7874 21.4757 27.3335 21.0386 27.3335 20.4995Z" fill="#5C5C5C"/>
<circle id="Ellipse 450" cx="20.4997" cy="20.5002" r="1.95238" fill="#5C5C5C"/>
</g>
</svg>
