<svg width="37" height="37" viewBox="0 0 37 37" fill="none" xmlns="http://www.w3.org/2000/svg">
<circle cx="18.5" cy="18.5" r="18.5" fill="white"/>
<circle cx="18.5002" cy="18.5002" r="9.85716" stroke="#5C5C5C" stroke-width="2"/>
<path fill-rule="evenodd" clip-rule="evenodd" d="M18.4999 25.5479C18.9864 25.5479 19.3809 25.9119 19.3809 26.361V31.7823C19.3809 32.2314 18.9864 32.5955 18.4999 32.5955C18.0134 32.5955 17.619 32.2314 17.619 31.7823V26.361C17.619 25.9119 18.0134 25.5479 18.4999 25.5479Z" fill="#5C5C5C"/>
<path fill-rule="evenodd" clip-rule="evenodd" d="M18.4999 4.40479C18.9864 4.40479 19.3809 4.81437 19.3809 5.31962V11.4185C19.3809 11.9238 18.9864 12.3334 18.4999 12.3334C18.0134 12.3334 17.619 11.9238 17.619 11.4185V5.31962C17.619 4.81437 18.0134 4.40479 18.4999 4.40479Z" fill="#5C5C5C"/>
<path fill-rule="evenodd" clip-rule="evenodd" d="M4.40479 18.5001C4.40479 18.0136 4.81437 17.6191 5.31962 17.6191H11.4185C11.9238 17.6191 12.3334 18.0136 12.3334 18.5001C12.3334 18.9866 11.9238 19.381 11.4185 19.381H5.31962C4.81437 19.381 4.40479 18.9866 4.40479 18.5001Z" fill="#5C5C5C"/>
<path fill-rule="evenodd" clip-rule="evenodd" d="M24.6667 18.5001C24.6667 18.0136 25.0763 17.6191 25.5816 17.6191H31.6805C32.1857 17.6191 32.5953 18.0136 32.5953 18.5001C32.5953 18.9866 32.1857 19.381 31.6805 19.381H25.5816C25.0763 19.381 24.6667 18.9866 24.6667 18.5001Z" fill="#5C5C5C"/>
<circle cx="18.4999" cy="18.5002" r="1.7619" fill="#5C5C5C"/>
</svg>
