<svg width="24" height="24" viewBox="0 0 24 24" fill="none" xmlns="http://www.w3.org/2000/svg">
<path d="M12 24C10.34 24 8.78 23.685 7.32 23.055C5.86 22.425 4.59 21.57 3.51 20.49C2.43 19.41 1.575 18.14 0.945 16.68C0.315 15.22 0 13.66 0 12C0 10.34 0.315 8.78 0.945 7.32C1.575 5.86 2.43 4.59 3.51 3.51C4.59 2.43 5.86 1.575 7.32 0.945C8.78 0.315 10.34 0 12 0C13.66 0 15.22 0.315 16.68 0.945C18.14 1.575 19.41 2.43 20.49 3.51C21.57 4.59 22.425 5.86 23.055 7.32C23.685 8.78 24 10.34 24 12C24 13.66 23.685 15.22 23.055 16.68C22.425 18.14 21.57 19.41 20.49 20.49C19.41 21.57 18.14 22.425 16.68 23.055C15.22 23.685 13.66 24 12 24ZM12 18.6C12.9 17.7 13.7 16.77 14.4 15.81C15 14.99 15.55 14.09 16.05 13.11C16.55 12.13 16.8 11.16 16.8 10.2C16.8 8.88 16.33 7.75 15.39 6.81C14.45 5.87 13.32 5.4 12 5.4C10.68 5.4 9.55 5.87 8.61 6.81C7.67 7.75 7.2 8.88 7.2 10.2C7.2 11.16 7.45 12.13 7.95 13.11C8.45 14.09 9 14.99 9.6 15.81C10.3 16.77 11.1 17.7 12 18.6ZM12 12C11.5 12 11.075 11.825 10.725 11.475C10.375 11.125 10.2 10.7 10.2 10.2C10.2 9.7 10.375 9.275 10.725 8.925C11.075 8.575 11.5 8.4 12 8.4C12.5 8.4 12.925 8.575 13.275 8.925C13.625 9.275 13.8 9.7 13.8 10.2C13.8 10.7 13.625 11.125 13.275 11.475C12.925 11.825 12.5 12 12 12Z" fill="#939393"/>
</svg>
