<svg width="387" height="201" viewBox="0 0 387 201" fill="none" xmlns="http://www.w3.org/2000/svg">
<path d="M385.712 112.367C384.24 107.954 379.469 105.567 375.054 107.036C357.275 112.955 332.841 121.313 306.431 130.399C305.984 130.072 305.497 129.788 304.975 129.55C278.477 117.451 217.377 91.0324 158.291 65.4859C99.2872 39.9752 38.2751 13.5962 11.9307 1.56562C7.69893 -0.363842 2.69976 1.49706 0.763442 5.72815C-1.16961 9.95925 0.694871 14.9576 4.92669 16.8935C31.4246 28.9927 92.5182 55.4076 151.597 80.9509C201.491 102.521 252.818 124.715 283.411 138.329C276.181 140.823 268.909 143.333 261.677 145.828C245.52 151.404 229.151 157.055 213.559 162.419C204.786 158.87 196.534 155.583 188.097 152.22C171.796 145.727 154.944 139.011 131.79 129.426C127.49 127.643 122.559 129.687 120.779 133.987C119 138.286 121.041 143.213 125.341 144.995C148.6 154.623 165.504 161.358 181.857 167.871C184.302 168.847 186.735 169.814 189.168 170.787C173.687 176.082 159.698 180.829 148.417 184.583C144.002 186.053 141.612 190.826 143.085 195.239C144.26 198.772 147.548 201.005 151.078 201.005C151.96 201.005 152.858 200.865 153.743 200.571C169.419 195.354 190.262 188.24 213.073 180.405C224.864 185.207 237.808 190.581 253.494 197.277C254.575 197.737 255.695 197.956 256.802 197.956C260.074 197.956 263.189 196.036 264.554 192.837C266.382 188.557 264.394 183.607 260.113 181.779C251.773 178.217 244.207 175.031 237.177 172.102C247.104 168.681 257.181 165.201 267.179 161.75C309.308 147.209 352.87 132.171 380.377 123.014C384.792 121.545 387.178 116.772 385.709 112.358L385.712 112.367Z" fill="url(#paint0_linear_1258_8259)"/>
<defs>
<linearGradient id="paint0_linear_1258_8259" x1="-27.9189" y1="-43.5661" x2="325.547" y2="195.175" gradientUnits="userSpaceOnUse">
<stop offset="0.04" stop-color="white"/>
<stop offset="0.9" stop-color="#02DDC3"/>
</linearGradient>
</defs>
</svg>
