<svg width="390" height="196" viewBox="0 0 390 196" fill="none" xmlns="http://www.w3.org/2000/svg">
<path d="M1.03861 99.5258C2.65075 95.1609 7.49476 92.9271 11.8605 94.5357C29.443 101.017 53.5994 110.146 79.7071 120.067C80.1646 119.754 80.6599 119.486 81.1896 119.264C108.059 108.013 169.967 83.5495 229.834 59.893C289.619 36.2698 351.438 11.8424 378.152 0.65494C382.443 -1.1391 387.38 0.879685 389.181 5.17016C390.979 9.46054 388.956 14.3971 384.665 16.1977C357.796 27.4488 295.894 51.9095 236.034 75.5629C185.48 95.537 133.473 116.089 102.464 128.724C109.61 131.447 116.799 134.187 123.948 136.91C139.92 142.996 156.101 149.165 171.514 155.021C180.397 151.753 188.748 148.729 197.288 145.637C213.787 139.664 230.844 133.487 254.291 124.643C258.646 122.998 263.509 125.197 265.151 129.551C266.793 133.905 264.597 138.764 260.242 140.409C236.689 149.293 219.579 155.488 203.028 161.478C200.552 162.376 198.09 163.265 195.628 164.16C210.933 169.944 224.763 175.133 235.92 179.244C240.286 180.853 242.523 185.699 240.911 190.064C239.624 193.558 236.266 195.685 232.738 195.573C231.857 195.545 230.964 195.376 230.089 195.054C214.586 189.342 193.98 181.569 171.429 173.013C159.492 177.439 146.384 182.398 130.493 188.593C129.398 189.018 128.271 189.202 127.165 189.166C123.895 189.062 120.842 187.045 119.58 183.804C117.888 179.468 120.033 174.584 124.37 172.893C132.818 169.597 140.481 166.653 147.601 163.949C137.788 160.214 127.827 156.416 117.943 152.649C76.2978 136.777 33.2352 120.363 6.03315 110.336C1.66738 108.728 -0.566678 103.881 1.04219 99.5161L1.03861 99.5258Z" fill="url(#paint0_linear_1258_8260)"/>
<defs>
<linearGradient id="paint0_linear_1258_8260" x1="419.415" y1="-43.1879" x2="58.5425" y2="184.203" gradientUnits="userSpaceOnUse">
<stop offset="0.04" stop-color="white"/>
<stop offset="0.27" stop-color="#E6FAF8"/>
<stop offset="0.48" stop-color="#D5F8F3"/>
<stop offset="0.9" stop-color="#02DDC3"/>
</linearGradient>
</defs>
</svg>
