<svg width="63" height="196" viewBox="0 0 63 196" fill="none" xmlns="http://www.w3.org/2000/svg">
<path d="M62.9964 196L9 180.243V35.9429C9 16.0913 21.0882 0 36 0C50.9118 0 63 16.0913 63 35.9429V195.997L62.9964 196Z" fill="url(#paint0_linear_1258_8307)"/>
<path d="M1.49065 55.0548L12.6743 57.2911C12.7069 57.2977 12.7429 57.3009 12.7755 57.3042C12.7788 57.3042 12.7853 57.3042 12.7886 57.3042C12.8147 57.3075 12.8408 57.3107 12.8702 57.314C13.0726 57.3368 13.2816 57.3271 13.4906 57.2683L21.2685 55.0842C22.2318 54.8132 22.8195 53.7065 22.5812 52.6128C22.3787 51.6823 21.644 51.062 20.8375 51.062C20.6938 51.062 20.5502 51.0816 20.4032 51.1208L12.9812 53.207L2.11105 51.0326C2.00656 51.0131 1.90208 51 1.79759 51C0.942081 51 0.181262 51.6954 0.0277936 52.6879C-0.145267 53.7979 0.507792 54.8557 1.48738 55.0515L1.49065 55.0548Z" fill="white"/>
<path d="M1.49065 75.0548L12.6743 77.2911C12.7069 77.2977 12.7429 77.3009 12.7755 77.3042C12.7788 77.3042 12.7853 77.3042 12.7886 77.3042C12.8147 77.3075 12.8408 77.3107 12.8702 77.314C13.0726 77.3368 13.2816 77.3271 13.4906 77.2683L21.2685 75.0842C22.2318 74.8132 22.8195 73.7065 22.5812 72.6128C22.3787 71.6823 21.644 71.062 20.8375 71.062C20.6938 71.062 20.5502 71.0816 20.4032 71.1208L12.9812 73.207L2.11105 71.0326C2.00656 71.0131 1.90208 71 1.79759 71C0.942081 71 0.181262 71.6954 0.0277936 72.6879C-0.145267 73.7979 0.507792 74.8557 1.48738 75.0515L1.49065 75.0548Z" fill="white"/>
<defs>
<linearGradient id="paint0_linear_1258_8307" x1="36" y1="0" x2="36" y2="196" gradientUnits="userSpaceOnUse">
<stop stop-color="white"/>
<stop offset="0.505" stop-color="#2DDDC3"/>
</linearGradient>
</defs>
</svg>
