<svg width="11" height="22" viewBox="0 0 11 22" fill="none" xmlns="http://www.w3.org/2000/svg">
<path d="M8.7 21.5081L0.275 11.7817C0.175 11.6659 0.104333 11.5404 0.063 11.4054C0.021 11.2703 0 11.1255 0 10.9711C0 10.8168 0.021 10.672 0.063 10.5369C0.104333 10.4018 0.175 10.2764 0.275 10.1606L8.7 0.405266C8.93333 0.135089 9.225 0 9.575 0C9.925 0 10.225 0.144738 10.475 0.434214C10.725 0.72369 10.85 1.06141 10.85 1.44738C10.85 1.83335 10.725 2.17107 10.475 2.46055L3.125 10.9711L10.475 19.4817C10.7083 19.7519 10.825 20.0846 10.825 20.4798C10.825 20.8759 10.7 21.2186 10.45 21.5081C10.2 21.7975 9.90833 21.9423 9.575 21.9423C9.24167 21.9423 8.95 21.7975 8.7 21.5081Z" fill="#5C5C5C"/>
</svg>
