<svg width="8" height="14" viewBox="0 0 8 14" fill="none" xmlns="http://www.w3.org/2000/svg">
<path d="M1.58525 0.277044L7.79723 6.48285C7.87097 6.55673 7.92307 6.63676 7.95355 6.72295C7.98452 6.80915 8 6.90149 8 7C8 7.0985 7.98452 7.19085 7.95355 7.27704C7.92307 7.36324 7.87097 7.44327 7.79723 7.51715L1.58525 13.7414C1.41321 13.9138 1.19816 14 0.940092 14C0.682028 14 0.46083 13.9077 0.276498 13.723C0.0921659 13.5383 -5.92045e-08 13.3228 -8.07334e-08 13.0765C-1.02262e-07 12.8303 0.0921658 12.6148 0.276498 12.4301L5.69585 7L0.276497 1.56992C0.104454 1.39754 0.018432 1.18526 0.018432 0.933087C0.0184319 0.680423 0.110598 0.461741 0.29493 0.277044C0.479262 0.0923478 0.694315 -3.14991e-07 0.940091 -3.36478e-07C1.18587 -3.57964e-07 1.40092 0.0923477 1.58525 0.277044Z" fill="#5C5C5C"/>
</svg>
