<svg width="25" height="24" viewBox="0 0 25 24" fill="none" xmlns="http://www.w3.org/2000/svg">
<g id="Vector">
<path d="M0.00202191 11.8596C-0.0176311 11.5469 0.106822 11.2425 0.33893 11.0358L2.81268 8.83237C3.21209 8.4766 3.81641 8.50177 4.18575 8.88955L5.92172 10.7122C6.09083 10.8897 6.19003 11.124 6.20059 11.3707L6.69608 22.9455C6.72109 23.5299 6.25354 24.0137 5.67732 23.9997L1.66939 23.9025C1.15327 23.89 0.732157 23.4793 0.699305 22.9565L0.00202191 11.8596Z" fill="url(#paint0_linear_49_3356)"/>
<path d="M7.00264 4.0541C6.60889 4.20949 6.3546 4.60007 6.36822 5.02857L6.52371 9.92003L12.2558 7.8426C12.7414 7.66661 13.2757 7.92341 13.4491 8.41619C13.6226 8.90897 13.3695 9.45111 12.8839 9.6271L6.58695 11.9092L6.63479 13.4141L12.2914 11.6203C12.7836 11.4642 13.3072 11.7426 13.461 12.242C13.6148 12.7415 13.3405 13.2729 12.8484 13.429L6.69726 15.3796L6.74293 16.8161L12.3434 15.3953C12.8437 15.2684 13.3506 15.577 13.4756 16.0846C13.6007 16.5923 13.2966 17.1067 12.7963 17.2336L6.80452 18.7537L6.93684 22.916C6.95417 23.4611 7.3947 23.894 7.93222 23.894H23.4319C23.9694 23.894 24.4099 23.4611 24.4273 22.916L24.9995 4.91546C25.0113 4.54455 24.8218 4.19692 24.5059 4.00993L17.9644 0.137668C17.7022 -0.0175431 17.3845 -0.0429288 17.1016 0.0687186L7.00264 4.0541Z" fill="url(#paint1_linear_49_3356)"/>
</g>
<defs>
<linearGradient id="paint0_linear_49_3356" x1="-6.44231" y1="-13.5122" x2="22.5645" y2="23.5925" gradientUnits="userSpaceOnUse">
<stop stop-color="white"/>
<stop offset="1" stop-color="#2DDDC3"/>
</linearGradient>
<linearGradient id="paint1_linear_49_3356" x1="-6.44231" y1="-13.5122" x2="22.5645" y2="23.5925" gradientUnits="userSpaceOnUse">
<stop stop-color="white"/>
<stop offset="1" stop-color="#2DDDC3"/>
</linearGradient>
</defs>
</svg>
