<svg width="169" height="258" viewBox="0 0 169 258" fill="none" xmlns="http://www.w3.org/2000/svg">
<ellipse cx="85.5" cy="247" rx="50.5" ry="11" fill="#5C5C5C"/>
<path d="M119.591 158.296C121.755 159.355 123.217 158.961 126.936 158.493C135.818 157.387 139.903 153.995 150.715 153.077C152.936 152.89 157.752 152.478 159.775 154.979C163.167 159.167 156.15 168.283 155.728 168.808C148.57 177.924 136.952 179.92 134.666 180.267C121.708 182.244 111.74 176.613 109.079 174.992" fill="#FF6C6A"/>
<path d="M119.591 158.296C121.755 159.355 123.217 158.961 126.936 158.493C135.818 157.387 139.903 153.995 150.715 153.077C152.936 152.89 157.752 152.478 159.775 154.979C163.167 159.167 156.15 168.283 155.728 168.808C148.57 177.924 136.952 179.92 134.666 180.267C121.708 182.244 111.74 176.613 109.079 174.992" fill="url(#paint0_linear_114_1876)"/>
<path d="M157.967 165.549C157.695 165.549 157.414 165.445 157.227 165.221C156.89 164.827 156.937 164.237 157.33 163.9C158.173 163.178 158.679 162.204 158.689 161.286C158.689 160.77 158.539 160.442 158.407 160.321C158.173 160.114 157.546 160.03 156.777 160.292C156.271 160.461 155.719 160.292 155.4 159.861C155.081 159.44 155.063 158.85 155.362 158.409C155.99 157.482 156.243 156.517 156.121 155.533C155.962 154.268 155.035 152.3 153.095 152.029C151.624 151.832 150.116 152.666 149.366 154.118C149.132 154.577 148.56 154.755 148.101 154.521C147.642 154.287 147.464 153.715 147.699 153.256C148.823 151.101 151.09 149.855 153.348 150.174C156.149 150.558 157.705 153.106 157.976 155.299C158.098 156.292 157.958 157.294 157.564 158.25C158.398 158.222 159.138 158.456 159.663 158.925C160.253 159.449 160.581 160.321 160.562 161.304C160.544 162.775 159.813 164.237 158.548 165.314C158.379 165.455 158.173 165.53 157.967 165.539V165.549Z" fill="#823737"/>
<path d="M60.8092 173.681C58.8697 175.499 56.7429 177.982 55.0284 181.28C50.4656 190.077 55.2064 196.72 54.2976 208.713C54.1008 211.289 53.2295 215.627 49.8941 216.733C44.3101 218.578 36.7117 208.366 36.4212 207.682C30.3219 193.103 32.7391 183.884 33.3762 181.401C37.6486 164.743 56.0777 155.074 58.7761 152.975" fill="#FF6C6A"/>
<path d="M60.8092 173.681C58.8697 175.499 56.7429 177.982 55.0284 181.28C50.4656 190.077 55.2064 196.72 54.2976 208.713C54.1008 211.289 53.2295 215.627 49.8941 216.733C44.3101 218.578 36.7117 208.366 36.4212 207.682C30.3219 193.103 32.7391 183.884 33.3762 181.401C37.6486 164.743 56.0777 155.074 58.7761 152.975" fill="url(#paint1_linear_114_1876)"/>
<path fill-rule="evenodd" clip-rule="evenodd" d="M87.5009 230.902C86.7617 230.943 86.0094 230.964 85.2439 230.964C84.2785 230.964 83.3327 230.931 82.4061 230.866C82.8968 232.745 83.3632 234.652 83.7916 236.567C84.4569 239.518 85.4687 244.484 82.2832 246.039C81.5618 246.395 80.831 246.47 80.3906 246.508L80.3784 246.509H80.3784C74.7938 247.006 59.7106 248.35 56.6211 243.425C55.9558 242.357 55.5998 240.605 55.7591 239.022C55.8926 237.722 56.3476 236.777 56.4649 236.534L56.4805 236.501C57.3444 234.672 56.6151 227.095 51.7637 206.304C49.7649 201.617 48.1488 196.36 46.8771 190.62C39.2412 156.114 64.0039 145.142 85.1221 145.142C106.24 145.142 130.478 161.716 123.367 190.62H123.376C121.91 196.584 120.15 202.036 118.021 206.87C113.288 227.233 112.58 234.688 113.436 236.501C113.44 236.51 113.445 236.521 113.451 236.534C113.569 236.778 114.024 237.722 114.157 239.022C114.316 240.605 113.96 242.357 113.295 243.425C110.206 248.35 95.1224 247.006 89.5379 246.509L89.5257 246.508C89.0853 246.47 88.3545 246.395 87.6331 246.039C84.4476 244.484 85.4594 239.518 86.1247 236.567C86.5504 234.664 87.0136 232.769 87.5009 230.902Z" fill="url(#paint2_linear_114_1876)"/>
<path d="M32.3923 200.402C32.3642 200.748 32.383 200.917 32.4111 201.311C32.4392 201.704 32.5891 202.182 32.8795 202.557C36.5522 207.419 41.3774 209.181 47.1394 207.607C48.1419 207.335 48.854 207.129 49.7721 206.754C50.0532 206.642 50.2031 206.407 50.3062 206.136C50.4186 205.864 50.531 205.658 50.6622 205.377C47.9264 205.545 47.2143 205.948 44.1787 206.557C39.2693 207.541 35.5029 204.571 32.3923 200.402Z" fill="#0C1035"/>
<path d="M31.9148 195.887C31.9429 196.627 32.0179 197.339 32.149 198.041C35.1284 203.41 38.7449 206.764 44.2071 205.649C47.5145 204.975 47.908 204.937 50.6719 204.291C50.5876 203.925 50.5782 203.551 50.6531 203.129C47.908 203.85 47.4957 203.672 44.2727 204.581C38.342 206.258 34.9317 201.499 31.9148 195.887Z" fill="#0C1035"/>
<path d="M39.7004 201.695C37.5267 200.486 33.2263 194.19 31.6616 191.286C31.5679 191.754 31.6616 192.607 31.7179 193.169C34.1819 198.725 38.3793 205.705 44.2913 203.363C47.4112 202.126 47.9453 202.857 50.6623 202.032C50.578 201.723 50.6623 201.255 50.6623 200.908C49.5568 200.767 48.7604 201.152 47.6361 200.983C44.6286 200.533 43.2513 203.662 39.7098 201.695H39.7004Z" fill="#0C1035"/>
<path d="M51.8989 184.118C52.3017 182.141 54.0912 174.768 54.1662 170.533C54.2411 166.298 53.5103 159.14 53.8664 154.436C51.6646 155.327 49.8095 156.207 47.5422 157.275C36.1868 162.635 32.158 173.924 31.3148 185.214C31.0899 188.194 31.5865 189.58 31.5865 190.78C31.5865 191.979 31.624 191.136 31.6333 191.154C33.2355 194.34 37.5172 200.458 39.6908 201.695C43.2324 203.709 44.6096 200.533 47.6171 200.992C48.7414 201.161 49.5659 200.814 50.6246 200.898C50.709 200.898 50.6434 200.674 50.6434 200.589C50.8776 196.457 50.8308 191.876 50.4747 187.913C50.3248 186.292 49.8751 188.821 50.1093 189.103C51.0088 186.479 51.0837 188.119 51.8989 184.127V184.118Z" fill="white"/>
<path d="M50.4001 210.23C50.8967 210.895 50.8124 211.214 51.8711 211.42C61.512 213.256 70.6094 212.366 80.2222 211.195C81.3653 211.054 81.2528 210.82 81.9836 210.23C76.9992 210.511 72.4833 211.682 67.4708 211.935C61.765 212.216 56.0685 211.307 50.4001 210.23Z" fill="#0C1035"/>
<path d="M50.4843 208.535C50.4562 208.806 50.4281 209.078 50.4187 209.359C56.087 210.305 61.821 211.308 67.5268 211.027C72.633 210.774 77.252 209.593 82.2926 209.303C82.2926 209.19 82.3114 209.125 82.3114 209.012C82.3114 208.994 82.3114 209.059 82.3114 208.975C82.3114 208.891 82.2926 208.572 82.3114 208.45C77.3176 208.741 72.7642 209.893 67.7048 210.165C61.9615 210.483 56.2182 209.35 50.4937 208.535H50.4843Z" fill="#0C1035"/>
<path d="M81.6556 153.584C81.5431 153.172 81.3276 152.759 81.0559 152.572C79.1915 151.307 77.7018 150.736 75.4719 150.333C69.4475 149.227 63.3576 149.04 57.1833 149.415C57.0147 149.424 56.8366 149.499 56.7242 149.714C55.8529 151.288 55.0378 152.928 53.9135 154.362C53.9041 154.38 53.8666 154.408 53.8666 154.427C53.5293 159.168 54.2507 166.298 54.1758 170.542C54.1008 174.786 52.3113 182.151 51.9085 184.137C51.084 188.138 51.0371 186.46 50.1002 189.131C50.1658 188.981 50.1377 189.074 50.1939 189.131C49.866 192.354 48.7417 197.582 49.5662 200.299C50.5124 203.4 50.4094 203.775 50.6811 206.511C50.7092 206.82 50.5218 207.298 50.5687 207.682C56.3026 208.291 61.9991 209.621 67.7517 209.284C72.7923 208.984 77.327 207.869 82.2927 207.551C81.7024 190.864 81.2527 174.262 82.1147 157.585C82.1896 156.198 82.021 154.886 81.6649 153.593L81.6556 153.584Z" fill="url(#paint3_linear_114_1876)"/>
<path d="M31.7085 193.178C31.7085 194.115 31.7741 195.005 31.9146 195.886C34.9409 201.498 38.3419 206.258 44.2726 204.581C47.4955 203.672 47.9078 203.85 50.653 203.128C50.5686 202.791 50.5686 202.454 50.653 202.032C47.9359 202.857 47.4112 202.126 44.2819 203.363C38.3793 205.714 34.1726 198.725 31.7085 193.169V193.178Z" fill="white"/>
<path d="M32.1489 198.041C32.1677 198.846 32.2614 199.615 32.3925 200.411C35.4937 204.571 39.2695 207.541 44.1789 206.557C47.2145 205.948 47.9266 205.545 50.6624 205.377C50.653 205.011 50.5968 204.683 50.6811 204.299C47.9079 204.946 47.5237 204.983 44.2164 205.658C38.7542 206.773 35.1377 203.418 32.1583 198.041H32.1489Z" fill="white"/>
<path d="M50.4278 209.359C50.3997 209.462 50.4278 209.434 50.3997 209.584C50.3716 209.734 50.3435 210.043 50.4185 210.231C56.0493 211.317 61.7739 212.226 67.4703 211.945C72.4735 211.702 77.0269 210.521 81.9645 210.24C82.1425 209.94 82.2455 209.65 82.3017 209.312C77.2705 209.594 72.6421 210.774 67.5359 211.036C61.8301 211.318 56.0962 210.324 50.4278 209.369V209.359Z" fill="white"/>
<path d="M50.5592 207.673C50.5311 207.954 50.503 208.244 50.4937 208.535C56.2182 209.35 61.9615 210.483 67.7048 210.165C72.7735 209.884 77.3176 208.741 82.3114 208.441C82.2926 208.132 82.2832 207.832 82.2926 207.532C77.327 207.851 72.7923 208.975 67.7517 209.265C61.999 209.603 56.3025 208.272 50.5592 207.663V207.673Z" fill="white"/>
<path d="M144.785 152.048C145.019 151.973 145.235 151.898 145.422 151.823C145.703 151.72 146.022 151.748 146.265 151.936C149.404 154.325 154.004 158.663 156.319 165.399C156.721 166.57 157.021 167.713 157.237 168.8C157.302 169.137 157.171 169.475 156.899 169.671C156.628 169.878 156.319 170.084 155.991 170.309C155.035 167.554 154.042 165.343 152.571 162.663C150.191 158.325 147.427 154.568 144.785 152.048Z" fill="#0C1035"/>
<path d="M142.846 152.665C143.155 152.572 143.464 152.469 143.773 152.375C146.453 154.82 149.31 158.643 151.756 163.112C153.236 165.82 154.22 168.04 155.185 170.842C154.894 171.029 154.604 171.216 154.313 171.404C153.33 168.546 152.327 166.288 150.819 163.543C148.045 158.484 145.431 154.923 142.836 152.665H142.846Z" fill="#0C1035"/>
<path d="M146.125 159.411C145.057 157.799 143.427 155.635 141.056 153.293C141.244 153.209 141.506 153.106 141.806 153.002C144.448 155.157 147.137 158.746 150.004 163.983C151.522 166.756 152.524 169.014 153.508 171.938C153.217 172.134 152.946 172.331 152.721 172.509C152.271 171.46 151.671 170.129 150.95 168.593C149.02 164.489 147.868 162.034 146.116 159.402L146.125 159.411Z" fill="#0C1035"/>
<path d="M126.075 178.468C125.438 177.7 122.852 174.514 120.584 169.015C118.233 163.281 117.343 157.753 117.052 153.349C119.057 153.93 120.716 154.23 121.84 154.399C127.461 155.233 132.183 154.595 138.901 153.63C140.672 153.377 140.091 153.471 141.019 153.312H141.037C143.408 155.645 145.038 157.818 146.106 159.43C147.858 162.053 149.01 164.517 150.941 168.621C151.662 170.167 152.262 171.497 152.711 172.537C152.636 172.594 152.561 172.65 152.496 172.706C149.526 175.367 145.581 178.965 138.011 180.979C134.919 181.804 132.09 182.122 129.701 182.206C128.623 181.27 127.358 180.042 126.065 178.487L126.075 178.468Z" fill="white"/>
<path d="M120.64 211.064C120.35 211.617 119.76 211.973 119.113 211.944L95.325 211.026C94.6223 210.998 94.0039 210.633 93.6292 210.099C97.7797 210.23 101.94 210.389 106.118 210.548C110.878 210.736 115.778 210.914 120.65 211.064H120.64Z" fill="#0C1035"/>
<path d="M121.053 209.246C120.997 209.537 120.94 209.836 120.884 210.127C115.947 209.977 110.972 209.79 106.146 209.602C101.837 209.434 97.5361 209.274 93.2544 209.134C93.2451 209.04 93.2263 208.937 93.2263 208.843V208.825C93.2263 208.628 93.2263 208.44 93.2263 208.253C97.508 208.384 101.808 208.553 106.118 208.722C111.009 208.909 116.05 209.106 121.062 209.246H121.053Z" fill="#0C1035"/>
<path d="M92.5706 154.727C92.7111 154.324 92.8985 153.959 93.2077 153.734C95.3064 152.235 97.4238 151.86 98.698 151.635C102.137 151.035 107.58 150.398 113.96 149.471C114.138 149.443 114.307 149.508 114.42 149.649C115.216 150.67 116.265 152.441 117.024 153.34C117.034 153.34 117.052 153.34 117.062 153.35C117.352 157.753 118.233 163.281 120.594 169.015C122.861 174.524 125.447 177.7 126.084 178.468C127.377 180.014 128.642 181.242 129.719 182.188C129.673 182.188 129.616 182.188 129.569 182.188C128.764 185.861 127.733 189.824 126.393 194.003C124.875 198.772 123.198 203.081 121.512 206.932C121.418 207.401 121.334 207.85 121.25 208.309C116.2 208.159 111.103 207.963 106.165 207.775C101.837 207.607 97.5269 207.447 93.2358 207.307C93.1983 190.939 92.8142 174.721 92.0928 158.671C92.0366 157.331 92.149 155.992 92.58 154.717L92.5706 154.727Z" fill="url(#paint4_linear_114_1876)"/>
<path d="M141.805 153.003C142.115 152.891 142.461 152.779 142.845 152.657C145.441 154.915 148.055 158.475 150.828 163.534C152.327 166.28 153.339 168.538 154.323 171.395C154.042 171.583 153.77 171.761 153.517 171.939C152.524 169.015 151.531 166.757 150.013 163.984C147.146 158.737 144.457 155.149 141.815 153.003H141.805Z" fill="white"/>
<path d="M143.773 152.375C144.129 152.262 144.476 152.15 144.794 152.047C147.436 154.567 150.21 158.324 152.58 162.662C154.051 165.342 155.035 167.562 156 170.307C155.737 170.485 155.466 170.663 155.194 170.841C154.229 168.04 153.245 165.82 151.765 163.112C149.319 158.643 146.462 154.82 143.782 152.375H143.773Z" fill="white"/>
<path d="M120.884 210.128C120.865 210.203 120.856 210.277 120.837 210.352C120.828 210.615 120.753 210.849 120.64 211.064C115.769 210.915 110.868 210.727 106.109 210.549C101.93 210.39 97.7703 210.231 93.6198 210.099C93.423 209.818 93.3012 209.5 93.2544 209.144C97.5361 209.284 101.837 209.444 106.146 209.612C110.971 209.8 115.947 209.987 120.884 210.137V210.128Z" fill="white"/>
<path d="M121.24 208.319C121.184 208.628 121.118 208.937 121.062 209.246C116.059 209.096 111.009 208.909 106.118 208.722C101.808 208.553 97.508 208.394 93.2263 208.253C93.2263 207.944 93.2263 207.625 93.2263 207.316C97.5268 207.457 101.837 207.616 106.156 207.785C111.093 207.972 116.19 208.169 121.24 208.319Z" fill="white"/>
<path d="M52.7515 213.341C52.8171 213.538 52.8265 213.753 52.7515 213.959C52.2081 215.533 51.1119 216.742 49.7534 217.304C48.8446 217.679 47.917 217.688 47.2143 217.332C46.5866 217.023 46.0994 216.414 45.8183 215.627C45.0782 216.339 44.1975 216.845 43.2231 217.098C41.0775 217.651 38.1356 217.126 36.7584 214.662C35.6341 212.666 35.962 210.108 37.5547 208.272C37.892 207.879 38.4823 207.841 38.8758 208.178C39.2693 208.516 39.3068 209.106 38.9695 209.499C37.892 210.736 37.6672 212.432 38.3886 213.734C39.3442 215.44 41.5273 215.589 42.7546 215.271C43.7196 215.018 44.5254 214.428 45.1531 213.509C45.4529 213.069 46.0057 212.863 46.521 213.013C47.0363 213.153 47.4017 213.613 47.4205 214.147C47.4673 214.943 47.7671 215.505 48.0482 215.646C48.2075 215.73 48.5729 215.749 49.0413 215.561C49.8939 215.215 50.6154 214.381 50.9714 213.341C51.14 212.854 51.6741 212.591 52.1613 212.76C52.4423 212.854 52.6485 213.069 52.7422 213.331L52.7515 213.341Z" fill="#823737"/>
<path d="M161.481 3.13338C153.301 -1.05466 140.035 9.64498 130.516 17.3277C111.656 32.5527 102.727 51.1974 98.5855 62.1032C94.1727 61.3162 89.6192 60.8852 85.0096 60.8852C79.4912 60.8852 74.0571 61.4942 68.8384 62.6091C65.1376 51.366 57.052 32.5433 39.1569 16.5688C29.9657 8.37077 17.1675 -3.05031 8.73521 0.753594C-4.2692 6.61872 -1.75826 46.3723 9.71897 75.5199C14.7221 88.2245 21.0088 97.8467 25.7684 104.218C25.8152 105.108 25.8902 106.007 26.012 106.916C30.3218 136.954 50.7185 154.249 84.0071 154.484C115.975 154.708 139.997 134.152 144.007 106.916C144.401 104.255 144.391 101.641 144.063 99.0928C148.205 93.4432 152.805 86.1633 156.834 77.2719C169.66 48.9113 174.101 9.58877 161.49 3.13338H161.481Z" fill="url(#paint5_linear_114_1876)"/>
<path d="M53.7729 97.799C53.8291 100.094 56.9022 100.844 59.1227 101.069C62.1583 101.378 64.8098 98.3893 64.5381 96.1313C64.2101 93.3486 59.4131 91.278 56.7242 92.9458C55.5249 93.6859 53.726 96.3561 53.7635 97.8084L53.7729 97.799Z" fill="#231815"/>
<path d="M110.185 97.799C110.128 100.094 107.055 100.844 104.835 101.069C101.799 101.378 99.1476 98.3893 99.4194 96.1313C99.7473 93.3486 104.544 91.278 107.233 92.9458C108.432 93.6859 110.231 96.3561 110.194 97.8084L110.185 97.799Z" fill="#231815"/>
<path d="M51.3837 71.7909C51.3837 71.7253 51.3837 71.6691 51.3649 71.6035C51.3462 71.5379 51.3274 71.4817 51.3087 71.4255C51.2993 71.3974 51.2993 71.3693 51.2806 71.3412C28.654 31.775 21.2243 28.9924 17.6265 30.3322C14.6378 31.4377 13.3636 36.113 13.6165 45.0512C13.6353 45.5665 14.085 45.9506 14.5816 45.96C15.0969 45.9413 15.5091 45.5103 15.4904 44.995C15.1999 34.7638 17.1112 32.5152 18.2824 32.0842C20.8589 31.1285 28.3542 35.0449 49.5098 72.0064C49.3599 73.1494 48.5635 77.5342 44.7409 79.4736C40.656 81.5442 35.3624 79.6423 33.526 76.6348C31.6428 73.5336 33.2543 68.774 34.4348 65.2981C35.4092 62.4217 36.0557 60.5198 34.6691 59.7327C33.704 59.1893 32.7671 59.892 31.8583 60.576C30.8277 61.3536 29.5347 62.3186 27.8014 62.3186H27.7827C25.8152 62.3186 23.3979 61.0725 23.1262 59.4329C22.8358 57.7277 24.6253 55.3948 27.6515 54.767C28.1575 54.664 28.4854 54.1674 28.3823 53.6615C28.2793 53.1555 27.7921 52.837 27.2768 52.9307C23.145 53.7833 20.8402 57.1375 21.2805 59.7421C21.7396 62.4779 25.0094 64.1737 27.7827 64.1925H27.8108C30.1719 64.1925 31.8677 62.9183 32.992 62.0657C33.17 61.9345 33.3855 61.7659 33.5729 61.6347C33.4511 62.3655 33.0107 63.6772 32.664 64.689C31.3617 68.5117 29.5816 73.7584 31.9239 77.6092C33.5448 80.2794 37.1987 82.2188 40.9745 82.2188C42.5298 82.2188 44.1132 81.8909 45.5841 81.1507C50.8309 78.4993 51.3837 72.1563 51.4118 71.8846C51.4118 71.8565 51.4024 71.8284 51.4024 71.8003L51.3837 71.7909Z" fill="#823737"/>
<path d="M151.718 31.6248C148.336 29.7697 140.588 31.4468 112.415 67.2652C112.358 67.3402 112.321 67.4245 112.293 67.5182C112.293 67.537 112.274 67.5557 112.265 67.5744C112.237 67.6587 112.237 67.7337 112.237 67.818C112.237 67.8555 112.218 67.893 112.218 67.9305C112.237 68.2022 112.789 74.5451 118.045 77.1966C119.516 77.9368 121.09 78.2647 122.655 78.2647C126.431 78.2647 130.085 76.3253 131.706 73.655C134.048 69.8043 132.268 64.5669 130.965 60.7443C130.619 59.7324 130.178 58.4301 130.057 57.6899C130.244 57.8211 130.46 57.9804 130.638 58.1209C131.771 58.9735 133.467 60.2477 135.847 60.2477C138.611 60.2383 141.881 58.5331 142.349 55.7973C142.789 53.1927 140.485 49.8385 136.353 48.9859C135.847 48.8829 135.35 49.2108 135.247 49.7167C135.144 50.2227 135.472 50.7192 135.978 50.8223C139.004 51.4406 140.794 53.783 140.503 55.4882C140.232 57.1278 137.814 58.3645 135.847 58.3739C134.114 58.3364 132.811 57.4088 131.771 56.6312C130.862 55.9472 129.926 55.2445 128.96 55.7879C127.574 56.575 128.22 58.4769 129.195 61.3533C130.375 64.8292 131.996 69.5888 130.104 72.69C128.277 75.6975 122.983 77.5901 118.889 75.5289C115.141 73.6363 114.298 69.3639 114.129 68.1272C140.428 34.7354 148.411 31.9433 150.819 33.2737C151.906 33.8734 153.47 36.375 151.69 46.4562C151.596 46.9622 151.943 47.4494 152.449 47.5431C152.955 47.6368 153.442 47.2901 153.536 46.7842C155.091 37.9865 154.51 33.1707 151.728 31.6341L151.718 31.6248Z" fill="#823737"/>
<path opacity="0.5" d="M89.6473 105.097C89.3006 105.097 88.9539 104.966 88.6822 104.713C88.6541 104.685 85.5529 101.912 78.9851 102.277C74.235 102.54 73.3168 103.486 72.6422 104.179L72.5017 104.32C71.9583 104.873 71.0682 104.873 70.5154 104.32C69.9626 103.776 69.9626 102.886 70.5154 102.333L70.6372 102.212C71.8365 100.984 73.448 99.7663 78.8352 99.4665C85.1219 99.1198 89.2912 101.415 90.6217 102.671C91.1838 103.205 91.2025 104.095 90.6685 104.657C90.3968 104.947 90.022 105.097 89.6473 105.097Z" fill="#231815"/>
<path d="M45.9119 120.014C35.662 120.014 24.6907 116.257 17.2891 107.984C4.68754 93.9115 7.49829 82.2656 14.3378 76.0725C19.8469 71.0787 30.0124 70.2542 46.3429 73.4772C69.5316 78.0494 74.4691 85.8071 76.2399 92.7872C76.2867 92.9746 76.3336 93.1432 76.3711 93.3118C76.802 94.8952 76.6521 96.1601 76.521 97.275L76.4648 97.7247C75.4622 106.729 68.2761 112.238 65.9151 114.046C60.8463 117.934 53.5759 120.033 45.9119 120.033V120.014ZM33.0199 80.1387C26.8925 80.1387 23.2198 82.1719 21.9268 83.8489C20.1748 86.1163 17.4015 92.4686 23.3135 102.587C30.6401 115.133 51.6271 114.065 61.0244 108.04C63.0575 106.738 67.1986 104.724 68.4447 98.9802L68.7258 97.0689C68.8195 96.2538 68.7914 95.4293 68.6134 94.6235C68.5478 94.3143 68.4822 94.0426 68.4635 93.9489C67.7702 91.2038 66.065 85.6197 44.7688 81.4223C38.2948 80.1481 36.6739 80.1387 33.0199 80.1387Z" fill="url(#paint6_linear_114_1876)"/>
<path d="M96.3651 115.882C93.9104 114.074 86.4338 108.574 85.3938 99.5612L85.3376 99.1115C85.197 97.9966 85.0378 96.7317 85.4875 95.1483C85.5343 94.9891 85.5812 94.811 85.628 94.6237C87.4737 87.6436 92.608 79.8953 116.743 75.3137C133.729 72.0907 144.316 72.9152 150.041 77.909C157.152 84.102 160.075 95.748 146.968 109.821C139.257 118.094 127.845 121.851 117.183 121.851C109.21 121.851 101.649 119.752 96.3651 115.864V115.882ZM118.373 83.2682C96.2152 87.4656 94.4444 93.0496 93.7136 95.7948C93.6855 95.8885 93.6293 96.1602 93.5543 96.4694C93.367 97.2751 93.3295 98.0996 93.4325 98.9147L93.723 100.826C95.0159 106.569 99.3257 108.584 101.443 109.886C111.225 115.901 133.064 116.979 140.691 104.433C146.846 94.3145 143.96 87.9622 142.133 85.6948C140.784 84.0177 136.962 81.9846 130.591 81.9846C126.796 81.9846 125.11 81.9846 118.364 83.2682H118.373Z" fill="url(#paint7_linear_114_1876)"/>
<path d="M81.7586 133.028C79.2383 133.028 74.0291 131.725 74.0291 127.678C74.0291 124.942 76.5775 122.375 77.3645 121.653C77.9735 121.091 80.1096 119.274 81.8336 119.395C84.0634 119.573 89.1322 123.836 89.1322 127.5C89.1322 131.163 84.7286 133.018 81.7586 133.018V133.028ZM81.6368 121.269C81.1028 121.269 79.8942 121.869 78.6387 123.04C76.9803 124.567 75.9123 126.394 75.9123 127.687C75.9123 130.142 79.7255 131.163 81.768 131.163C83.6231 131.163 87.2677 130.058 87.2677 127.519C87.2677 124.745 82.8361 121.372 81.693 121.279C81.6743 121.279 81.6556 121.279 81.6462 121.279L81.6368 121.269Z" fill="#823737"/>
<path d="M75.3038 113.275C75.3591 115.576 77.3524 117.52 79.5394 117.745C82.5292 118.055 85.1408 115.059 84.8731 112.796C84.5502 110.006 79.8255 107.93 77.177 109.602C75.9959 110.344 75.2576 111.828 75.2945 113.275H75.3038Z" fill="url(#paint8_radial_114_1876)"/>
<defs>
<linearGradient id="paint0_linear_114_1876" x1="89.0986" y1="135.628" x2="114.071" y2="192.935" gradientUnits="userSpaceOnUse">
<stop stop-color="white"/>
<stop offset="1" stop-color="#FF6C6A"/>
</linearGradient>
<linearGradient id="paint1_linear_114_1876" x1="21.3578" y1="113.083" x2="87.6414" y2="149.436" gradientUnits="userSpaceOnUse">
<stop stop-color="white"/>
<stop offset="1" stop-color="#FF6C6A"/>
</linearGradient>
<linearGradient id="paint2_linear_114_1876" x1="14.8171" y1="81.5971" x2="139.914" y2="201.491" gradientUnits="userSpaceOnUse">
<stop stop-color="white"/>
<stop offset="1" stop-color="#FF6C6A"/>
</linearGradient>
<linearGradient id="paint3_linear_114_1876" x1="76.9606" y1="149.239" x2="45.8439" y2="205.588" gradientUnits="userSpaceOnUse">
<stop stop-color="#232F9B"/>
<stop offset="1" stop-color="#0C1035"/>
</linearGradient>
<linearGradient id="paint4_linear_114_1876" x1="123.642" y1="149.464" x2="95.7622" y2="208.237" gradientUnits="userSpaceOnUse">
<stop stop-color="#232F9B"/>
<stop offset="1" stop-color="#0C1035"/>
</linearGradient>
<linearGradient id="paint5_linear_114_1876" x1="-65.4146" y1="-96.3235" x2="116.158" y2="148.737" gradientUnits="userSpaceOnUse">
<stop stop-color="white"/>
<stop offset="1" stop-color="#FF6C6A"/>
</linearGradient>
<linearGradient id="paint6_linear_114_1876" x1="-15.8195" y1="36.5917" x2="46.2393" y2="117.224" gradientUnits="userSpaceOnUse">
<stop stop-color="#AA3C2D"/>
<stop offset="1" stop-color="#441812"/>
</linearGradient>
<linearGradient id="paint7_linear_114_1876" x1="59.8621" y1="38.4417" x2="121.217" y2="121.423" gradientUnits="userSpaceOnUse">
<stop stop-color="#AA3C2D"/>
<stop offset="1" stop-color="#441812"/>
</linearGradient>
<radialGradient id="paint8_radial_114_1876" cx="0" cy="0" r="1" gradientUnits="userSpaceOnUse" gradientTransform="translate(78.6416 111.477) rotate(77.0103) scale(6.45557 7.08868)">
<stop stop-color="#895E52"/>
<stop offset="1" stop-color="#231815"/>
</radialGradient>
</defs>
</svg>
