<svg width="156" height="237" viewBox="0 0 156 237" fill="none" xmlns="http://www.w3.org/2000/svg">
<g clip-path="url(#clip0_111_3137)">
<path d="M49.5617 145.149C38.6934 147.971 26.6438 150.604 20.9007 158.7C12.2951 170.835 19.474 186.673 27.3798 193.317C28.6975 194.415 33.9408 198.826 37.8846 197.138C42.919 194.978 45.8632 190.558 42.0557 184.794C38.9478 180.083 39.1932 181.145 35.7855 176.852C34.1589 174.801 35.0494 171.425 37.8756 169.873C39.2386 169.128 45.1271 167.631 45.5815 168.13" fill="#FF6C6A"/>
<path d="M49.5617 145.149C38.6934 147.971 26.6438 150.604 20.9007 158.7C12.2951 170.835 19.474 186.673 27.3798 193.317C28.6975 194.415 33.9408 198.826 37.8846 197.138C42.919 194.978 45.8632 190.558 42.0557 184.794C38.9478 180.083 39.1932 181.145 35.7855 176.852C34.1589 174.801 35.0494 171.425 37.8756 169.873C39.2386 169.128 45.1271 167.631 45.5815 168.13" fill="url(#paint0_linear_111_3137)"/>
<path d="M101.322 145.149C112.191 147.971 124.24 150.604 129.983 158.7C138.589 170.835 131.41 186.673 123.504 193.317C122.187 194.415 116.943 198.826 112.999 197.138C107.965 194.978 105.021 190.558 108.828 184.794C111.936 180.083 111.691 181.145 115.099 176.852C116.725 174.801 115.835 171.425 113.009 169.873C111.645 169.128 105.757 167.631 105.303 168.13" fill="#FF6C6A"/>
<path d="M101.322 145.149C112.191 147.971 124.24 150.604 129.983 158.7C138.589 170.835 131.41 186.673 123.504 193.317C122.187 194.415 116.943 198.826 112.999 197.138C107.965 194.978 105.021 190.558 108.828 184.794C111.936 180.083 111.691 181.145 115.099 176.852C116.725 174.801 115.835 171.425 113.009 169.873C111.645 169.128 105.757 167.631 105.303 168.13" fill="url(#paint1_linear_111_3137)"/>
<path d="M39.2022 197.592C39.0931 197.592 38.9841 197.574 38.875 197.528C38.3753 197.338 37.9027 197.102 37.4574 196.82C35.0312 195.323 33.9952 193.008 33.5409 191.338C33.4136 190.857 33.6953 190.358 34.1861 190.231C34.6677 190.104 35.1675 190.385 35.2947 190.875C35.6582 192.237 36.4942 194.106 38.4116 195.286C38.766 195.504 39.1386 195.686 39.5293 195.84C40.0019 196.022 40.229 196.548 40.0473 197.011C39.911 197.374 39.5657 197.592 39.2022 197.592Z" fill="#823737"/>
<path d="M42.4645 197.029C42.3555 197.029 42.2464 197.011 42.1374 196.966C41.6376 196.775 41.156 196.539 40.7198 196.258C38.3026 194.76 37.2575 192.445 36.8032 190.775C36.676 190.294 36.9577 189.795 37.4484 189.668C37.93 189.541 38.4298 189.822 38.557 190.313C38.9205 191.674 39.7565 193.544 41.6739 194.724C42.0192 194.941 42.4009 195.123 42.7917 195.277C43.2551 195.459 43.4914 195.985 43.3096 196.448C43.1733 196.811 42.828 197.029 42.4645 197.029Z" fill="#823737"/>
<path d="M109.047 197.038C108.683 197.038 108.338 196.82 108.201 196.457C108.02 195.994 108.247 195.468 108.719 195.286C109.11 195.132 109.492 194.941 109.837 194.733C111.745 193.553 112.581 191.683 112.954 190.321C113.081 189.84 113.581 189.55 114.063 189.677C114.544 189.804 114.835 190.303 114.708 190.784C114.254 192.464 113.218 194.778 110.791 196.266C110.346 196.539 109.873 196.775 109.374 196.974C109.265 197.02 109.156 197.038 109.047 197.038Z" fill="#823737"/>
<path d="M105.784 196.475C105.421 196.475 105.075 196.257 104.939 195.894C104.757 195.422 104.994 194.905 105.457 194.723C105.848 194.569 106.22 194.388 106.575 194.17C108.483 192.99 109.319 191.12 109.692 189.759C109.819 189.278 110.319 188.987 110.8 189.114C111.282 189.241 111.573 189.741 111.446 190.222C110.991 191.901 109.955 194.215 107.529 195.704C107.084 195.976 106.602 196.221 106.111 196.412C106.002 196.457 105.893 196.475 105.784 196.475Z" fill="#823737"/>
<path fill-rule="evenodd" clip-rule="evenodd" d="M80.7146 223.662C79.3006 223.828 77.8346 223.913 76.3144 223.913C74.0021 223.913 71.8052 223.719 69.7194 223.34C69.9223 224.179 70.1189 225.021 70.3078 225.864C70.953 228.723 71.9344 233.534 68.8448 235.04C68.145 235.385 67.4362 235.458 67.0091 235.494L66.9972 235.495H66.997C61.5805 235.977 46.9515 237.279 43.9549 232.508C43.3097 231.473 42.9644 229.776 43.1189 228.242C43.2484 226.983 43.6897 226.068 43.8035 225.832L43.8186 225.801C44.6637 224.013 43.9367 216.561 39.1205 196.021L42.7696 197.358C41.3156 193.518 40.0997 189.327 39.1023 184.83C31.6963 151.402 55.7137 140.774 76.1963 140.774C96.6788 140.774 120.187 156.83 113.29 184.83H113.299C112.262 189.044 111.073 192.993 109.705 196.639L111.391 196.021C106.575 216.561 105.848 224.013 106.693 225.801C106.697 225.809 106.702 225.82 106.708 225.832C106.822 226.068 107.263 226.983 107.393 228.242C107.547 229.776 107.202 231.473 106.557 232.508C103.56 237.279 88.9309 235.977 83.5144 235.495L83.5024 235.494C83.0753 235.458 82.3665 235.385 81.6668 235.04C78.5771 233.534 79.5585 228.723 80.2037 225.864C80.3685 225.129 80.5391 224.394 80.7146 223.662Z" fill="url(#paint2_linear_111_3137)"/>
<path d="M74.6787 208.111C69.1809 208.111 64.7282 206.414 62.1928 205.152C61.7476 204.925 61.5567 204.381 61.7839 203.936C62.0111 203.491 62.5472 203.301 63.0016 203.528C66.273 205.143 72.9339 207.548 80.8489 205.515C93.0439 202.375 97.9328 190.948 98.4508 189.659C98.6416 189.196 99.1687 188.969 99.6321 189.151C100.096 189.341 100.323 189.868 100.141 190.331C99.2414 192.582 94.098 203.981 81.3032 207.276C78.9769 207.875 76.7596 208.12 74.6878 208.12L74.6787 208.111Z" fill="#823737"/>
<path d="M82.0848 163.773L85.1563 151.193C85.4743 149.886 84.2021 148.67 82.5119 148.67H67.627C65.9641 148.67 64.701 149.85 64.9736 151.148L67.6452 163.728C67.7997 164.436 68.3904 165.008 69.181 165.298C67.4362 174.374 65.3371 191.247 64.1194 200.859C67.2636 206.423 70.3805 211.27 73.8063 216.026C76.8778 211.914 81.6032 204.608 84.92 199.824C83.8023 191.347 81.5123 174.837 80.2492 165.389C81.167 165.153 81.8849 164.554 82.0757 163.773H82.0848Z" fill="#2DDDC3"/>
<mask id="mask0_111_3137" style="mask-type:luminance" maskUnits="userSpaceOnUse" x="64" y="148" width="22" height="69">
<path d="M82.0848 163.773L85.1563 151.193C85.4743 149.886 84.2021 148.67 82.5119 148.67H67.627C65.9641 148.67 64.701 149.85 64.9736 151.148L67.6452 163.728C67.7997 164.436 68.3904 165.008 69.181 165.298C67.4362 174.374 65.3371 191.247 64.1194 200.859C67.2636 206.423 70.3805 211.27 73.8063 216.026C76.8778 211.914 81.6032 204.608 84.92 199.824C83.8023 191.347 81.5123 174.837 80.2492 165.389C81.167 165.153 81.8849 164.554 82.0757 163.773H82.0848Z" fill="white"/>
</mask>
<g mask="url(#mask0_111_3137)">
<mask id="mask1_111_3137" style="mask-type:luminance" maskUnits="userSpaceOnUse" x="61" y="148" width="29" height="74">
<path d="M81.176 156.222C78.4135 149.85 76.7778 148.443 75.2784 148.389C69.1991 148.144 62.4473 169.709 61.9657 188.642C61.8566 193.044 61.2387 217.505 71.0983 220.727C74.7514 221.925 78.4589 219.747 79.4585 219.157C94.2161 210.489 90.0633 176.689 81.176 156.222Z" fill="white"/>
</mask>
<g mask="url(#mask1_111_3137)">
<path d="M67.2362 156.022C67.0453 158.554 66.2729 159.544 65.5278 159.952C64.5463 160.488 63.7467 159.943 62.8743 160.633C61.9292 161.386 61.7748 162.902 62.0201 163.964C62.32 165.298 63.2651 166.051 63.5558 166.269" stroke="white" stroke-width="2" stroke-miterlimit="10" stroke-linecap="round"/>
<path d="M73.3973 157.901C73.3973 156.757 73.7699 155.541 74.6968 154.797C75.3965 154.234 76.0962 154.207 76.6142 154.189C76.9686 154.179 77.2231 154.17 77.4866 154.025C78.3499 153.553 78.6316 152.028 78.7224 150.821C78.7588 150.322 79.195 149.95 79.6948 149.986C80.1946 150.023 80.5762 150.467 80.5308 150.957C80.3491 153.39 79.6312 154.915 78.3499 155.614C77.7047 155.958 77.1322 155.986 76.6778 156.004C76.2416 156.022 76.0599 156.031 75.8327 156.213C75.242 156.685 75.1148 157.819 75.2966 158.636C75.5056 159.571 76.1326 160.152 76.487 160.415C76.8868 160.714 76.9777 161.277 76.6778 161.686C76.3779 162.085 75.8055 162.176 75.4056 161.876C74.8513 161.459 73.8608 160.542 73.5246 159.044C73.4428 158.69 73.3973 158.3 73.3973 157.91V157.901Z" fill="white"/>
<path d="M61.1841 175.727C61.1841 174.583 61.5567 173.367 62.4836 172.623C63.1833 172.06 63.883 172.033 64.401 172.014C64.7554 172.005 65.0099 171.996 65.2734 171.851C66.1276 171.379 66.4184 169.854 66.5092 168.647C66.5456 168.148 66.9818 167.776 67.4816 167.812C67.9814 167.848 68.3539 168.275 68.3176 168.783C68.1358 171.216 67.418 172.741 66.1367 173.439C65.4915 173.784 64.919 173.812 64.4646 173.83C64.0284 173.848 63.8467 173.857 63.6195 174.038C63.0288 174.51 62.9016 175.645 63.0834 176.462C63.3015 177.433 63.9921 178.023 64.2738 178.241C64.6736 178.54 64.7645 179.103 64.4646 179.512C64.1647 179.911 63.5922 180.002 63.1924 179.702C62.6381 179.294 61.6476 178.377 61.3023 176.87C61.2205 176.516 61.175 176.126 61.175 175.736L61.1841 175.727Z" fill="white"/>
<path d="M69.2626 184.186C69.2626 183.042 69.6352 181.826 70.5621 181.082C71.2618 180.519 71.9615 180.492 72.4795 180.474C72.8339 180.464 73.0793 180.455 73.3519 180.31C74.2152 179.838 74.4969 178.313 74.5877 177.106C74.6241 176.607 75.0603 176.235 75.5601 176.271C76.0599 176.308 76.4415 176.752 76.3961 177.242C76.2143 179.675 75.4964 181.2 74.2152 181.899C73.57 182.243 72.9975 182.271 72.5431 182.289C72.1069 182.307 71.9252 182.316 71.698 182.498C71.0982 182.979 70.9801 184.104 71.1619 184.921C71.3709 185.856 71.9979 186.437 72.3523 186.7C72.7521 186.999 72.843 187.562 72.5431 187.971C72.2432 188.37 71.6707 188.461 71.2709 188.161C70.7075 187.753 69.7261 186.836 69.3808 185.32C69.299 184.966 69.2535 184.576 69.2535 184.177L69.2626 184.186Z" fill="white"/>
<path d="M65.8847 172C65.8847 170.856 66.2573 169.64 67.1842 168.896C67.8839 168.333 68.5836 168.306 69.1016 168.288C69.456 168.279 69.7013 168.27 69.9739 168.124C70.8372 167.652 71.1189 166.128 71.2098 164.92C71.2461 164.421 71.6823 164.049 72.1821 164.085C72.6819 164.122 73.0636 164.566 73.0182 165.056C72.8364 167.489 72.1185 169.014 70.8372 169.713C70.192 170.058 69.6195 170.085 69.1652 170.103C68.729 170.121 68.5473 170.13 68.3201 170.312C67.7203 170.793 67.6022 171.918 67.7839 172.735C67.9929 173.67 68.6199 174.251 68.9743 174.514C69.3742 174.814 69.4651 175.376 69.1652 175.785C68.8653 176.184 68.2928 176.275 67.893 175.975C67.3296 175.567 66.3481 174.65 66.0028 173.134C65.921 172.78 65.8756 172.39 65.8756 171.991L65.8847 172Z" fill="white"/>
<path d="M78.4133 172.404C78.4133 171.26 78.7858 170.044 79.7127 169.3C80.4124 168.737 81.1122 168.71 81.6301 168.692C81.9845 168.683 82.2299 168.674 82.5025 168.528C83.3658 168.056 83.6475 166.532 83.7384 165.325C83.7747 164.825 84.2109 164.453 84.7107 164.49C85.2105 164.526 85.5922 164.971 85.5467 165.461C85.365 167.893 84.6471 169.418 83.3658 170.117C82.7206 170.462 82.1481 170.489 81.6937 170.507C81.2576 170.525 81.0758 170.534 80.8486 170.716C80.2489 171.197 80.1307 172.322 80.3125 173.139C80.5215 174.074 81.1485 174.655 81.5029 174.918C81.9028 175.218 81.9936 175.78 81.6937 176.189C81.3939 176.588 80.8214 176.679 80.4215 176.379C79.8581 175.971 78.8767 175.054 78.5314 173.539C78.4496 173.185 78.4042 172.794 78.4042 172.395L78.4133 172.404Z" fill="white"/>
<path d="M85.147 165.225C84.9562 167.758 84.1838 168.747 83.4387 169.155C82.4572 169.691 81.6576 169.146 80.7852 169.836C79.8401 170.589 79.6856 172.105 79.931 173.167C80.2309 174.501 81.1759 175.255 81.4667 175.473" stroke="white" stroke-width="2" stroke-miterlimit="10" stroke-linecap="round"/>
<path d="M72.0161 165.162C71.8252 167.694 71.0528 168.683 70.3077 169.092C69.3263 169.627 68.5266 169.083 67.6542 169.773C66.7091 170.526 66.5547 172.042 66.8 173.104C67.0999 174.438 68.045 175.191 68.3357 175.409" stroke="white" stroke-width="2" stroke-miterlimit="10" stroke-linecap="round"/>
<path d="M61.8657 199.924C61.8657 198.781 62.2383 197.564 63.1652 196.82C63.8649 196.257 64.5646 196.23 65.0826 196.212C65.437 196.203 65.6914 196.194 65.955 196.049C66.8182 195.586 67.1 194.052 67.1908 192.845C67.2272 192.345 67.6634 191.973 68.1632 192.01C68.663 192.046 69.0446 192.491 68.9992 192.981C68.8174 195.413 68.0995 196.938 66.8182 197.637C66.1731 197.982 65.6097 198.009 65.1462 198.027C64.71 198.045 64.5283 198.054 64.3011 198.236C63.7013 198.708 63.5832 199.843 63.7649 200.659C63.974 201.594 64.601 202.175 64.9554 202.438C65.3552 202.738 65.437 203.31 65.1462 203.709C64.8463 204.108 64.2738 204.199 63.874 203.9C63.3197 203.482 62.3292 202.565 61.9929 201.068C61.9112 200.714 61.8657 200.324 61.8657 199.924Z" fill="white"/>
<path d="M71.9888 203.945C71.9888 202.801 72.3614 201.585 73.2883 200.841C73.988 200.278 74.6877 200.251 75.2057 200.233C75.5601 200.224 75.8145 200.215 76.0781 200.069C76.9323 199.597 77.2231 198.073 77.3139 196.865C77.3503 196.366 77.7865 195.994 78.2863 196.03C78.7861 196.067 79.1586 196.511 79.1223 197.002C78.9405 199.434 78.2226 200.959 76.9413 201.658C76.2962 202.003 75.7237 202.03 75.2693 202.048C74.8331 202.066 74.6514 202.075 74.4242 202.257C73.8335 202.729 73.7063 203.854 73.888 204.68C74.1061 205.651 74.7968 206.241 75.0785 206.459C75.4783 206.759 75.5692 207.321 75.2693 207.73C74.9694 208.129 74.3969 208.22 73.9971 207.92C73.4428 207.512 72.4523 206.595 72.107 205.089C72.0252 204.735 71.9797 204.344 71.9797 203.954L71.9888 203.945Z" fill="white"/>
<path d="M79.6493 189.396C79.6493 188.252 80.0219 187.036 80.9488 186.292C81.6485 185.729 82.3482 185.702 82.8662 185.683C83.2206 185.674 83.4751 185.665 83.7386 185.52C84.5928 185.048 84.8836 183.523 84.9744 182.316C85.0108 181.817 85.447 181.445 85.9468 181.481C86.4466 181.517 86.8191 181.962 86.7828 182.452C86.6011 184.885 85.8832 186.41 84.6019 187.108C83.9567 187.453 83.3842 187.481 82.9298 187.499C82.4936 187.517 82.3119 187.526 82.0847 187.707C81.4941 188.179 81.3668 189.305 81.5486 190.131C81.7667 191.102 82.4573 191.692 82.739 191.91C83.1388 192.209 83.2297 192.772 82.9298 193.18C82.63 193.58 82.0575 193.671 81.6576 193.371C81.1033 192.963 80.1128 192.046 79.7675 190.539C79.6857 190.185 79.6403 189.795 79.6403 189.405L79.6493 189.396Z" fill="white"/>
<path d="M70.5984 222.079C70.5984 220.936 70.971 219.72 71.8979 218.975C72.5976 218.413 73.2973 218.385 73.8153 218.367C74.1697 218.358 74.4151 218.349 74.6877 218.204C75.5419 217.732 75.8327 216.207 75.9235 215C75.9599 214.501 76.3961 214.129 76.8959 214.165C77.3957 214.201 77.7682 214.646 77.7319 215.136C77.5502 217.569 76.8323 219.093 75.551 219.792C74.9058 220.137 74.3333 220.164 73.8789 220.183C73.4427 220.201 73.261 220.21 73.0338 220.391C72.4341 220.863 72.3159 221.998 72.4977 222.815C72.7158 223.786 73.4064 224.376 73.6881 224.594C74.0879 224.893 74.1788 225.456 73.8789 225.864C73.579 226.273 73.0066 226.354 72.6067 226.055C72.0524 225.646 71.0619 224.73 70.7166 223.223C70.6348 222.869 70.5894 222.479 70.5894 222.089L70.5984 222.079Z" fill="white"/>
</g>
</g>
<path d="M105.721 142.834L100.623 158.01L98.9324 163.446C97.4149 168.33 91.172 169.745 87.7007 165.988L84.511 161.531L74.6605 148.688" fill="white"/>
<path d="M45.5814 143.234L50.3431 158.01L52.0333 163.446C53.5509 168.33 59.7938 169.745 63.2651 165.988L66.3093 161.531L74.6696 148.688" fill="white"/>
<path d="M147.194 2.09656C138.598 -1.82441 125.458 9.76605 116.034 18.089C97.9327 34.0634 89.5724 52.9149 85.6558 64.4237C82.5026 63.9971 79.2948 63.7611 76.0598 63.7611C72.8247 63.7611 69.8805 63.9789 66.8544 64.3692C63.4558 52.4702 56.3678 34.7532 40.8832 18.8424C32.1231 9.82051 19.9008 -2.73204 11.0317 0.526356C-2.65359 5.55464 -2.98073 46.2075 6.59718 76.713C10.8409 90.2186 16.9475 100.094 21.373 106.919L21.482 107.101C25.4168 132.233 44.5635 150.231 75.142 150.449C104.784 150.658 127.212 131.897 130.774 106.393C130.819 106.093 130.828 105.803 130.865 105.503C135.526 99.0771 141.206 90.0008 145.849 78.3921C157.717 48.7035 160.471 8.14139 147.203 2.09656H147.194Z" fill="#FF6C6A"/>
<path d="M147.194 2.09656C138.598 -1.82441 125.458 9.76605 116.034 18.089C97.9327 34.0634 89.5724 52.9149 85.6558 64.4237C82.5026 63.9971 79.2948 63.7611 76.0598 63.7611C72.8247 63.7611 69.8805 63.9789 66.8544 64.3692C63.4558 52.4702 56.3678 34.7532 40.8832 18.8424C32.1231 9.82051 19.9008 -2.73204 11.0317 0.526356C-2.65359 5.55464 -2.98073 46.2075 6.59718 76.713C10.8409 90.2186 16.9475 100.094 21.373 106.919L21.482 107.101C25.4168 132.233 44.5635 150.231 75.142 150.449C104.784 150.658 127.212 131.897 130.774 106.393C130.819 106.093 130.828 105.803 130.865 105.503C135.526 99.0771 141.206 90.0008 145.849 78.3921C157.717 48.7035 160.471 8.14139 147.203 2.09656H147.194Z" fill="url(#paint3_linear_111_3137)"/>
<path d="M137.662 35.6791C134.518 33.9546 127.312 35.4976 101.168 68.6988C101.013 68.8985 100.95 69.1345 100.977 69.3704C100.977 69.3886 100.977 69.3977 100.977 69.4158C100.995 69.6609 101.459 75.5151 106.402 78.0383C107.838 78.7735 109.41 79.1093 110.973 79.1093C114.335 79.1093 117.607 77.5028 119.142 74.7073C121.387 70.6411 119.724 65.0229 118.116 59.5862L117.843 58.6604C117.698 58.1793 117.198 57.9071 116.716 58.0432C116.234 58.1884 115.962 58.6876 116.098 59.1687L116.371 60.1035C117.87 65.1772 119.424 70.4324 117.552 73.836C115.571 77.4393 110.519 78.0928 107.229 76.4137C103.667 74.5984 102.949 70.6048 102.822 69.5429C127.194 38.638 134.572 36.0513 136.79 37.2675C137.789 37.8121 139.225 40.1265 137.58 49.4298C137.489 49.9199 137.826 50.3919 138.316 50.4826C138.807 50.5734 139.28 50.2376 139.371 49.7474C140.815 41.5787 140.279 37.1041 137.671 35.6791H137.662Z" fill="#823737"/>
<path d="M45.2179 66.3752C45.2179 66.3117 45.2089 66.2573 45.1907 66.1937C45.1725 66.1302 45.1543 66.0757 45.1362 66.0213C45.1271 65.994 45.1271 65.9668 45.1089 65.9396C24.1175 29.2803 17.2203 26.7026 13.858 27.9461C11.0682 28.9808 9.87782 33.3193 10.1141 41.615C10.1323 42.1142 10.5321 42.5045 11.0501 42.4954C11.5499 42.4773 11.9497 42.0598 11.9315 41.5606C11.668 32.1121 13.4218 30.0337 14.4941 29.6434C16.875 28.763 23.7994 32.4026 43.4005 66.5931C43.2733 67.655 42.5554 71.6486 38.9932 73.4548C35.7036 75.1248 30.6603 74.4804 28.6702 70.8771C26.7982 67.4735 28.3521 62.2183 29.8515 57.1446L30.1241 56.2188C30.2695 55.7378 29.9878 55.2386 29.5062 55.0934C29.0246 54.9482 28.5157 55.2295 28.3794 55.7106L28.1067 56.6273C26.4983 62.064 24.8354 67.6822 27.0708 71.7575C28.6065 74.5439 31.8779 76.1595 35.2402 76.1595C36.7941 76.1595 38.3753 75.8146 39.8111 75.0794C44.7545 72.5653 45.2179 66.7111 45.2361 66.4569C45.2361 66.4297 45.227 66.4025 45.227 66.3752H45.2179Z" fill="#823737"/>
<path d="M85.3925 136.953C84.8382 136.953 84.2929 136.925 83.7295 136.871C81.1487 136.599 78.6225 135.827 76.2326 134.575C74.0971 135.401 71.8889 135.936 69.6534 136.19C62.938 136.935 57.3494 134.938 53.8326 133.132C53.3873 132.905 53.2147 132.351 53.4419 131.906C53.669 131.462 54.2234 131.289 54.6686 131.516C57.9582 133.213 63.1924 135.092 69.4535 134.384C71.6617 134.139 73.8517 133.585 75.9509 132.732L76.3507 132.569L76.7324 132.778C79.0314 134.039 81.4486 134.811 83.9203 135.065C94.2161 136.145 103.521 125.526 103.921 123.846C104.03 123.356 104.521 123.057 105.012 123.166C105.502 123.284 105.802 123.765 105.693 124.255C105.066 126.923 95.87 136.953 85.4016 136.953H85.3925Z" fill="#823737"/>
<path d="M61.3386 116.713C61.1387 116.713 60.9479 116.649 60.7752 116.522C59.8574 115.805 58.8851 115.142 57.8946 114.543C53.2238 111.748 47.7805 110.35 41.8284 110.404C41.3286 110.404 40.9197 110.005 40.9197 109.506C40.9197 109.007 41.3195 108.598 41.8193 108.589C41.9102 108.589 42.0011 108.589 42.0919 108.589C48.3167 108.589 53.9507 110.069 58.8306 112.991C59.8938 113.627 60.9206 114.335 61.902 115.097C62.2928 115.406 62.3655 115.977 62.0565 116.368C61.8748 116.595 61.6112 116.713 61.3386 116.713Z" fill="#231815"/>
<path d="M87.9915 116.985C87.7189 116.985 87.4553 116.867 87.2736 116.64C86.9646 116.25 87.0373 115.678 87.4281 115.369C88.4004 114.607 89.4363 113.899 90.4995 113.263C95.4521 110.305 101.159 108.834 107.511 108.861C108.011 108.861 108.42 109.279 108.41 109.778C108.41 110.277 108.001 110.677 107.502 110.677C107.438 110.677 107.32 110.677 107.238 110.677C101.35 110.677 96.0246 112.074 91.4264 114.816C90.4268 115.415 89.4636 116.077 88.5458 116.794C88.3822 116.921 88.1823 116.985 87.9824 116.985H87.9915Z" fill="#231815"/>
<path d="M76.2144 137.906C71.3527 137.906 66.5092 137.252 61.8112 135.945C61.3295 135.809 61.0478 135.31 61.1751 134.829C61.3114 134.348 61.8112 134.066 62.2928 134.193C66.9363 135.482 71.7253 136.136 76.5415 136.081C81.4759 136.045 86.1194 135.364 88.8183 134.729C89.2999 134.62 89.7997 134.92 89.9088 135.401C90.0269 135.891 89.718 136.381 89.2363 136.49C85.6741 137.325 80.8125 137.869 76.5506 137.897C76.4325 137.897 76.3234 137.897 76.2053 137.897L76.2144 137.906Z" fill="#823737"/>
<path d="M71.5439 125.784C71.5975 128.012 73.5277 129.895 75.6456 130.113C78.5409 130.413 81.0699 127.512 80.8107 125.32C80.4979 122.619 75.9226 120.608 73.358 122.227C72.2141 122.946 71.4992 124.383 71.535 125.784H71.5439Z" fill="url(#paint4_radial_111_3137)"/>
</g>
<defs>
<linearGradient id="paint0_linear_111_3137" x1="4.3891" y1="112.496" x2="66.5346" y2="160.175" gradientUnits="userSpaceOnUse">
<stop stop-color="white"/>
<stop offset="1" stop-color="#FF6C6A"/>
</linearGradient>
<linearGradient id="paint1_linear_111_3137" x1="88.7167" y1="112.496" x2="150.862" y2="160.175" gradientUnits="userSpaceOnUse">
<stop stop-color="white"/>
<stop offset="1" stop-color="#FF6C6A"/>
</linearGradient>
<linearGradient id="paint2_linear_111_3137" x1="8.00719" y1="81.3826" x2="125.03" y2="197.772" gradientUnits="userSpaceOnUse">
<stop stop-color="white"/>
<stop offset="1" stop-color="#FF6C6A"/>
</linearGradient>
<linearGradient id="paint3_linear_111_3137" x1="-60.3899" y1="-93.809" x2="118.98" y2="135.67" gradientUnits="userSpaceOnUse">
<stop stop-color="white"/>
<stop offset="1" stop-color="#FF6C6A"/>
</linearGradient>
<radialGradient id="paint4_radial_111_3137" cx="0" cy="0" r="1" gradientUnits="userSpaceOnUse" gradientTransform="translate(74.7762 124.043) rotate(77.0103) scale(6.25145 6.86454)">
<stop stop-color="#895E52"/>
<stop offset="1" stop-color="#231815"/>
</radialGradient>
<clipPath id="clip0_111_3137">
<rect width="156" height="236.021" fill="white"/>
</clipPath>
</defs>
</svg>
