<svg width="219" height="195" viewBox="0 0 219 195" fill="none" xmlns="http://www.w3.org/2000/svg">
<path fill-rule="evenodd" clip-rule="evenodd" d="M215.588 167.75L124.222 9.49999C117.679 -1.83334 101.321 -1.83332 94.7775 9.50001L3.41184 167.75C-3.13146 179.083 5.04769 193.25 18.1343 193.25H200.866C213.952 193.25 222.131 179.083 215.588 167.75ZM125.088 8.99999C118.16 -3.00001 100.84 -2.99999 93.9115 9.00001L2.54581 167.25C-4.38239 179.25 4.27789 194.25 18.1343 194.25H200.866C214.722 194.25 223.382 179.25 216.454 167.25L125.088 8.99999Z" fill="#BEBEBE"/>
<path fill-rule="evenodd" clip-rule="evenodd" d="M110 122L109 1.77352e-05L110 -0.00817871L111 121.992L110 122Z" fill="#BEBEBE"/>
<path fill-rule="evenodd" clip-rule="evenodd" d="M111 122L3.99964 186L3.48633 185.142L110.486 121.142L111 122Z" fill="#BEBEBE"/>
<path fill-rule="evenodd" clip-rule="evenodd" d="M110 122L216 186L216.517 185.144L110.517 121.144L110 122Z" fill="#BEBEBE"/>
</svg>
