<svg width="15" height="13" viewBox="0 0 15 13" fill="none" xmlns="http://www.w3.org/2000/svg">
<path d="M6.11977 2.39062L7.03992 0.796875L7.47294 1.04688L7.5 1L7.52706 1.04687L7.96008 0.796874L8.88023 2.39062L8.44722 2.64062L9.36737 4.23437L9.80038 3.98437L10.7205 5.57812L10.2875 5.82812L11.2077 7.42188L11.6407 7.17188L12.5608 8.76562L12.1278 9.01562L13.048 10.6094L13.481 10.3594L14.4011 11.9531L13.9681 12.2031L13.9952 12.25H13.9411V12.75H12.1008V12.25H10.2605V12.75H8.42015V12.25H6.57985V12.75H4.73954V12.25H2.89924V12.75H1.05894V12.25H1.00481L1.03187 12.2031L0.598859 11.9531L1.51901 10.3594L1.95202 10.6094L2.87218 9.01563L2.43916 8.76563L3.35932 7.17188L3.79233 7.42188L4.71248 5.82812L4.27947 5.57812L5.19962 3.98438L5.63263 4.23438L6.55278 2.64062L6.11977 2.39062Z" stroke="black" stroke-dasharray="2 2"/>
</svg>
