<svg width="253" height="390" viewBox="0 0 253 390" fill="none" xmlns="http://www.w3.org/2000/svg">
<rect x="1.5" y="0.5" width="35" height="96" rx="4.5" stroke="#D9D9D9"/>
<rect x="216.5" y="160.5" width="27" height="65" rx="4.5" transform="rotate(90 216.5 160.5)" stroke="#D9D9D9"/>
<rect x="30.5" y="362.5" width="27" height="28" rx="4.5" transform="rotate(90 30.5 362.5)" stroke="#D9D9D9"/>
<rect x="101.5" y="299.5" width="27" height="65" rx="4.5" transform="rotate(90 101.5 299.5)" stroke="#D9D9D9"/>
<mask id="path-5-inside-1_1129_7158" fill="white">
<path fill-rule="evenodd" clip-rule="evenodd" d="M51 0C48.2386 0 46 2.23858 46 5V60C46 62.7614 48.2386 65 51 65H63H69H101C103.761 65 106 62.7614 106 60V42C106 39.2386 103.761 37 101 37H74V5C74 2.23858 71.7614 0 69 0H51Z"/>
</mask>
<path d="M74 37H73V38H74V37ZM47 5C47 2.79086 48.7909 1 51 1V-1C47.6863 -1 45 1.68629 45 5H47ZM47 60V5H45V60H47ZM51 64C48.7909 64 47 62.2091 47 60H45C45 63.3137 47.6863 66 51 66V64ZM63 64H51V66H63V64ZM69 64H63V66H69V64ZM101 64H69V66H101V64ZM105 60C105 62.2091 103.209 64 101 64V66C104.314 66 107 63.3137 107 60H105ZM105 42V60H107V42H105ZM101 38C103.209 38 105 39.7909 105 42H107C107 38.6863 104.314 36 101 36V38ZM74 38H101V36H74V38ZM73 5V37H75V5H73ZM69 1C71.2091 1 73 2.79086 73 5H75C75 1.68629 72.3137 -1 69 -1V1ZM51 1H69V-1H51V1Z" fill="#D9D9D9" mask="url(#path-5-inside-1_1129_7158)"/>
<mask id="path-7-inside-2_1129_7158" fill="white">
<path fill-rule="evenodd" clip-rule="evenodd" d="M186 215C186 217.761 188.239 220 191 220L246 220C248.761 220 251 217.761 251 215L251 203L251 197L251 165C251 162.239 248.761 160 246 160L228 160C225.239 160 223 162.239 223 165L223 192L191 192C188.239 192 186 194.239 186 197L186 215Z"/>
</mask>
<path d="M186 215L187 215L186 215ZM251 215L252 215L251 215ZM251 203L250 203L251 203ZM223 192L223 193L224 193L224 192L223 192ZM186 197L185 197L186 197ZM191 219C188.791 219 187 217.209 187 215L185 215C185 218.314 187.686 221 191 221L191 219ZM246 219L191 219L191 221L246 221L246 219ZM250 215C250 217.209 248.209 219 246 219L246 221C249.314 221 252 218.314 252 215L250 215ZM250 203L250 215L252 215L252 203L250 203ZM250 197L250 203L252 203L252 197L250 197ZM250 165L250 197L252 197L252 165L250 165ZM246 161C248.209 161 250 162.791 250 165L252 165C252 161.686 249.314 159 246 159L246 161ZM228 161L246 161L246 159L228 159L228 161ZM224 165C224 162.791 225.791 161 228 161L228 159C224.686 159 222 161.686 222 165L224 165ZM224 192L224 165L222 165L222 192L224 192ZM191 193L223 193L223 191L191 191L191 193ZM187 197C187 194.791 188.791 193 191 193L191 191C187.686 191 185 193.686 185 197L187 197ZM187 215L187 197L185 197L185 215L187 215Z" fill="#D9D9D9" mask="url(#path-7-inside-2_1129_7158)"/>
<rect x="0.5" y="154.5" width="99" height="99" rx="11.5" stroke="#D9D9D9"/>
<rect x="153.5" y="290.5" width="99" height="99" rx="11.5" stroke="#D9D9D9"/>
<line x1="124" y1="272" x2="124" y2="388" stroke="#D9D9D9" stroke-width="2"/>
<line x1="1" y1="127" x2="114" y2="127" stroke="#D9D9D9" stroke-width="2"/>
<line x1="123" y1="271" x2="251" y2="271" stroke="#D9D9D9" stroke-width="2"/>
<line x1="114" y1="128" x2="114" y2="4.37114e-08" stroke="#D9D9D9" stroke-width="2"/>
<path d="M225 290H248C250.761 290 253 292.239 253 295V313C253 315.761 250.761 318 248 318H230C227.239 318 225 315.761 225 313V290Z" fill="#D5F8F3"/>
<path d="M72 276C72 273.239 74.2386 271 77 271H95C97.7614 271 100 273.239 100 276V299H77C74.2386 299 72 296.761 72 294V276Z" fill="#D5F8F3"/>
<path d="M152 349C152 346.239 154.239 344 157 344H175C177.761 344 180 346.239 180 349V372H157C154.239 372 152 369.761 152 367V349Z" fill="#D5F8F3"/>
<path d="M223 160H246C248.761 160 251 162.239 251 165V183C251 185.761 248.761 188 246 188H228C225.239 188 223 185.761 223 183V160Z" fill="#D5F8F3"/>
<path fill-rule="evenodd" clip-rule="evenodd" d="M157.808 69.674C164.358 69.9766 170.548 70.2626 177.887 70.2626C189.485 70.2627 198.887 79.6648 198.887 91.2627C198.886 102.861 189.484 112.263 177.886 112.263C170.568 112.263 161.776 111.889 153.822 111.551C148.6 111.329 143.738 111.123 139.891 111.047C128.196 110.818 119.529 111.413 112.994 113.373C107.223 115.103 103.699 117.691 101.075 122.023C98.0332 127.041 95 136.446 95 153.956C95 181.952 101.985 188.239 104.64 189.993C109.544 193.234 117.552 193.908 134.403 193.429C134.919 193.414 135.443 193.399 135.976 193.383C142.896 193.181 151.214 192.938 159.213 193.632C167.965 194.391 178.087 196.372 187.544 201.906C208.49 214.164 217 237.724 217 269.698C217 290.002 213.881 307.33 205.926 321.15C197.517 335.758 185.018 344.205 171.045 348.736C157.9 352.998 143.208 353.882 129.183 353.988C122.01 354.043 114.475 353.886 106.938 353.724L106.378 353.712C98.9282 353.553 91.3884 353.392 83.5895 353.392C71.9915 353.392 62.5895 343.99 62.5895 332.392C62.5895 320.794 71.9915 311.392 83.5895 311.392C91.8448 311.392 99.7774 311.562 107.127 311.719L107.835 311.734C115.477 311.897 122.402 312.039 128.864 311.99C142.109 311.889 151.39 310.957 158.09 308.784C163.962 306.88 167.18 304.272 169.526 300.197C172.326 295.333 175 286.348 175 269.698C175 243.796 168.26 239.284 166.331 238.155C164.35 236.996 161.129 235.955 155.584 235.474C150.096 234.998 144.062 235.171 136.411 235.389C136.142 235.397 135.87 235.404 135.597 235.412C135.126 235.425 134.644 235.44 134.153 235.454C120.402 235.861 98.8359 236.499 81.4853 225.034C61.2654 211.674 53 187.295 53 153.956C53 132.33 56.6262 114.33 65.1555 100.255C74.1014 85.4934 87.0599 77.3006 100.934 73.1415C114.044 69.2113 128.186 68.8096 140.714 69.0553C147.149 69.1815 152.593 69.433 157.808 69.674Z" fill="url(#paint0_linear_1129_7158)"/>
<path d="M29 97C26.2386 97 24 94.7614 24 92L24 74C24 71.2386 26.2386 69 29 69L52 69L52 92C52 94.7614 49.7614 97 47 97L29 97Z" fill="#D5F8F3"/>
<path d="M78 5C78 2.23858 80.2386 0 83 0H106V23C106 25.7614 103.761 28 101 28H83C80.2386 28 78 25.7614 78 23V5Z" fill="#D5F8F3"/>
<defs>
<linearGradient id="paint0_linear_1129_7158" x1="135" y1="68.998" x2="135" y2="449" gradientUnits="userSpaceOnUse">
<stop offset="0.09" stop-color="#D5F8F3"/>
<stop offset="1" stop-color="white"/>
</linearGradient>
</defs>
</svg>
