<svg width="26" height="26" viewBox="0 0 26 26" fill="none" xmlns="http://www.w3.org/2000/svg">
<path d="M26 21.3572C26 23.9213 23.9213 26 21.3572 26H0V4.64285C0 2.07868 2.07868 9.53674e-07 4.64285 9.53674e-07H21.3572C23.9213 9.53674e-07 26 2.07868 26 4.64285V21.3572Z" fill="#02DDC3"/>
<path d="M21.8065 7.05994C21.8065 5.62401 20.6174 4.45996 19.1505 4.45996C17.6837 4.45996 16.4946 5.62401 16.4946 7.05994V14.4599C16.4946 15.0122 16.952 15.46 17.5161 15.46H20.2635C20.5998 15.46 20.9239 15.3345 21.1237 15.0616C21.1801 14.9846 21.239 14.9041 21.3057 14.8211C21.5829 14.4764 21.8065 14.0705 21.8065 13.6266V7.05994Z" fill="white"/>
<path d="M4.1936 18.2618C4.1936 19.5855 5.3827 20.6586 6.84952 20.6586C8.31634 20.6586 9.50543 19.5855 9.50543 18.2618V11.4404C9.50543 10.9313 9.04808 10.5186 8.48391 10.5186H5.2151C4.65095 10.5186 4.1936 10.9313 4.1936 11.4404V18.2618Z" fill="#FF5A2D"/>
<path fill-rule="evenodd" clip-rule="evenodd" d="M4.1936 11.365C4.1936 9.23663 6.14819 8.52719 7.59597 9.22474L10.4989 10.7664L14.2577 8.67659C14.3274 8.64234 14.3991 8.61151 14.4724 8.58429C14.74 8.48463 15.014 8.4383 15.2823 8.43848C15.5506 8.4383 15.8247 8.48463 16.0922 8.58429C16.1656 8.61151 16.2373 8.64234 16.3069 8.67659C16.3069 8.67659 19.5388 10.2525 20.573 11.1655C21.6072 12.0785 22.116 13.7165 21.6072 14.8085C21.0984 15.9005 20.7167 16.2645 20.7167 16.2645C20.222 16.8105 19.3301 17.326 17.8823 16.6285L15.2823 15.2119L11.9585 17.3003C11.8887 17.3346 11.817 17.3655 11.7435 17.3927C11.476 17.4924 11.2021 17.5387 10.9338 17.5385C10.6656 17.5387 10.3916 17.4924 10.1241 17.3927C10.0507 17.3655 9.97891 17.3346 9.90916 17.3003C9.90916 17.3003 6.9477 15.9544 5.64312 15.1563C4.33856 14.3581 4.1936 12.9614 4.1936 12.2198V11.365Z" fill="url(#paint0_radial_1415_9110)"/>
<defs>
<radialGradient id="paint0_radial_1415_9110" cx="0" cy="0" r="1" gradientUnits="userSpaceOnUse" gradientTransform="translate(16.1655 15.0815) rotate(148.998) scale(8.65722 14.8054)">
<stop stop-color="#FF6C6A"/>
<stop offset="0.390912" stop-color="#FFB1B0"/>
<stop offset="1" stop-color="white"/>
</radialGradient>
</defs>
</svg>
