<svg width="93" height="100" viewBox="0 0 93 100" fill="none" xmlns="http://www.w3.org/2000/svg">
<path d="M93 17.8571C93 7.99491 85.5647 0 76.3929 0H0V82.1429C0 92.0051 7.43527 100 16.6071 100H76.3929C85.5647 100 93 92.0051 93 82.1429V17.8571Z" fill="#02DDC3"/>
<path d="M78 30.2181C78 25.1271 73.7467 21 68.5 21C63.2533 21 59 25.1271 59 30.2181V56.4545C59 58.4126 60.6359 60 62.6538 60H72.481C73.6839 60 74.8431 59.5551 75.558 58.5876C75.7596 58.3147 75.9702 58.0291 76.2087 57.7351C77.2003 56.513 78 55.0737 78 53.5V30.2181Z" fill="white"/>
<path d="M15 70.2363C15 75.3274 19.2533 79.4545 24.5 79.4545C29.7467 79.4545 34 75.3274 34 70.2363V44C34 42.0419 32.3641 40.4545 30.3461 40.4545H18.6538C16.6359 40.4545 15 42.0419 15 44V70.2363Z" fill="#FF5A2D"/>
<path fill-rule="evenodd" clip-rule="evenodd" d="M15 43.7105C15 35.5243 21.9914 32.7957 27.17 35.4786L37.5537 41.4082L50.9985 33.3703C51.2477 33.2386 51.5042 33.12 51.7666 33.0153C52.7235 32.632 53.7037 32.4538 54.6635 32.4545C55.6232 32.4538 56.6034 32.632 57.5603 33.0153C57.8228 33.12 58.0793 33.2386 58.3285 33.3703C58.3285 33.3703 69.8886 39.4316 73.5879 42.9431C77.2871 46.4545 79.1072 52.7545 77.2871 56.9545C75.467 61.1545 74.102 62.5545 74.102 62.5545C72.3324 64.6545 69.1421 66.6374 63.9635 63.9545L54.6635 58.5062L42.7743 66.5386C42.5249 66.6705 42.2682 66.7892 42.0054 66.894C41.0487 67.2771 40.0687 67.4552 39.1092 67.4545C38.1497 67.4552 37.1697 67.2771 36.213 66.894C35.9503 66.7892 35.6936 66.6705 35.4441 66.5386C35.4441 66.5386 24.8512 61.362 20.1848 58.2922C15.5185 55.2224 15 49.8502 15 46.9979V43.7105Z" fill="url(#paint0_radial_1147_7188)"/>
<defs>
<radialGradient id="paint0_radial_1147_7188" cx="0" cy="0" r="1" gradientUnits="userSpaceOnUse" gradientTransform="translate(57.8224 58.0045) rotate(147.132) scale(31.6013 55.7993)">
<stop stop-color="#FF6C6A"/>
<stop offset="0.390912" stop-color="#FFB1B0"/>
<stop offset="1" stop-color="white"/>
</radialGradient>
</defs>
</svg>
