<svg width="55" height="55" viewBox="0 0 55 55" fill="none" xmlns="http://www.w3.org/2000/svg">
<g clip-path="url(#clip0_1146_7368)">
<path d="M45.1786 55C50.6028 55 55 50.6028 55 45.1786V0L9.82143 1.97482e-06C4.3972 2.21192e-06 -2.371e-07 4.39721 0 9.82143L1.54552e-06 45.1786C1.78262e-06 50.6028 4.3972 55 9.82143 55H45.1786Z" fill="#2DDDC3"/>
<path fill-rule="evenodd" clip-rule="evenodd" d="M46 31.2464C46 36.1581 41.8939 37.7953 38.8525 36.1855L32.7542 32.6278L24.858 37.4505C24.7117 37.5295 24.561 37.6007 24.4069 37.6635C23.8449 37.8935 23.2692 38.0004 22.7056 38C22.1419 38.0004 21.5662 37.8935 21.0043 37.6635C20.8501 37.6007 20.6995 37.5295 20.5531 37.4505C20.5531 37.4505 13.7638 33.8137 11.5913 31.7069C9.41868 29.6 8.34975 25.82 9.41868 23.3C10.4876 20.78 11.2893 19.94 11.2893 19.94C12.3286 18.68 14.2023 17.4903 17.2436 19.1L22.7056 22.369L29.6881 17.5495C29.8346 17.4704 29.9854 17.3992 30.1397 17.3363C30.7015 17.1065 31.2771 16.9996 31.8406 17C32.4042 16.9996 32.9797 17.1065 33.5416 17.3363C33.6959 17.3992 33.8466 17.4704 33.9931 17.5495C33.9931 17.5495 40.2144 20.6555 42.9549 22.4974C45.6955 24.3393 46 27.5626 46 29.2739V31.2464Z" fill="white"/>
<path d="M20 40.5C20 43.5376 17.5376 46 14.5 46C11.4624 46 9 43.5376 9 40.5V25C9 23.8954 9.89543 23 11 23H18C19.1046 23 20 23.8954 20 25V40.5Z" fill="white"/>
<path d="M35 15.5C35 12.4624 37.4624 10 40.5 10C43.5376 10 46 12.4624 46 15.5V31C46 32.1046 45.1046 33 44 33H37C35.8954 33 35 32.1046 35 31V15.5Z" fill="white"/>
</g>
<defs>
<clipPath id="clip0_1146_7368">
<rect width="55" height="55" fill="white"/>
</clipPath>
</defs>
</svg>
