<svg width="55" height="55" viewBox="0 0 55 55" fill="none" xmlns="http://www.w3.org/2000/svg">
<path d="M45.1786 1.54551e-06C50.6028 1.78261e-06 55 4.3972 55 9.82143V55H9.82143C4.3972 55 -2.371e-07 50.6028 0 45.1786L1.54552e-06 9.82143C1.78262e-06 4.3972 4.3972 -2.371e-07 9.82143 0L45.1786 1.54551e-06Z" fill="#2DDDC3"/>
<path fill-rule="evenodd" clip-rule="evenodd" d="M9 23.7536C9 18.8419 13.1061 17.2047 16.1475 18.8145L22.2458 22.3722L30.142 17.5495C30.2883 17.4705 30.439 17.3993 30.5931 17.3365C31.1551 17.1065 31.7308 16.9996 32.2944 17C32.8581 16.9996 33.4338 17.1065 33.9957 17.3365C34.1499 17.3993 34.3005 17.4705 34.4469 17.5495C34.4469 17.5495 41.2362 21.1863 43.4087 23.2931C45.5813 25.4 46.6503 29.18 45.5813 31.7C44.5124 34.22 43.7107 35.06 43.7107 35.06C42.6714 36.32 40.7977 37.5097 37.7564 35.9L32.2944 32.631L25.3119 37.4505C25.1654 37.5296 25.0146 37.6008 24.8603 37.6637C24.2985 37.8935 23.7229 38.0004 23.1594 38C22.5958 38.0004 22.0203 37.8935 21.4584 37.6637C21.3041 37.6008 21.1534 37.5296 21.0069 37.4505C21.0069 37.4505 14.7856 34.3445 12.0451 32.5026C9.3045 30.6607 9 27.4374 9 25.7261V23.7536Z" fill="white"/>
<path d="M35 14.5C35 11.4624 37.4624 9 40.5 9C43.5376 9 46 11.4624 46 14.5V30C46 31.1046 45.1046 32 44 32H37C35.8954 32 35 31.1046 35 30V14.5Z" fill="white"/>
<path d="M20 39.5C20 42.5376 17.5376 45 14.5 45C11.4624 45 9 42.5376 9 39.5V24C9 22.8954 9.89543 22 11 22H18C19.1046 22 20 22.8954 20 24V39.5Z" fill="white"/>
</svg>
