<svg width="123" height="123" viewBox="0 0 123 123" fill="none" xmlns="http://www.w3.org/2000/svg">
<path d="M7.38773 77.157C6.81265 74.9544 6.30268 72.7409 5.86865 70.5273C6.24842 72.7843 6.74755 74.9978 7.38773 77.157Z" fill="white"/>
<path opacity="0.9" d="M24.4873 59.1014C24.7477 53.7629 25.6375 48.5003 27.0697 43.4006C25.1166 41.7404 23.055 40.1129 21.0043 38.7674C16.2083 35.6316 9.82818 37.8559 8.00528 43.2812C6.32345 48.2725 5.32519 53.5784 5.12988 59.0905H24.4873V59.1014Z" fill="white"/>
<path opacity="0.7" d="M32.3872 94.2908C27.9927 86.0877 24.7375 76.0835 24.4445 64.2998H5.16309C5.28244 66.4157 5.52115 68.4881 5.86837 70.528C6.3024 72.7415 6.80152 74.9551 7.38745 77.1577C10.0675 86.1963 14.9503 94.2908 21.4172 100.812C24.6399 98.4791 28.3073 96.2439 32.3872 94.2908Z" fill="white"/>
<path opacity="0.5" d="M35.0674 98.8789C31.5084 100.561 28.3075 102.481 25.4321 104.489C32.4524 110.326 40.9159 114.493 50.204 116.37C45.7118 112.475 39.9936 106.648 35.0674 98.8789Z" fill="white"/>
<path opacity="0.5" d="M59.6214 117.075V92.9219C52.3407 93.1714 45.8086 94.6254 40.0361 96.7738C47.5013 108.199 56.7026 115.068 59.6214 117.075Z" fill="white"/>
<path opacity="0.7" d="M37.2804 92.1731C43.7907 89.6666 51.2342 87.9739 59.6217 87.7243V77.9154C56.9525 78.0782 54.3375 78.4254 51.7985 78.9788C50.5072 75.0726 48.4782 69.886 45.2339 64.2871H29.6416C29.9671 75.2136 33.1029 84.5234 37.2804 92.1731Z" fill="white"/>
<path opacity="0.5" d="M75.7246 115.644C84.1229 113.431 91.7509 109.318 98.1419 103.806C95.5377 102.059 92.8034 100.508 89.9606 99.1514C85.3165 106.345 80.0214 111.857 75.7246 115.644Z" fill="white"/>
<path opacity="0.5" d="M84.9693 97.0351C78.6326 94.6588 71.8401 93.2591 64.8198 92.9336V117.369C64.8198 117.369 64.8307 117.369 64.8415 117.369C65.1996 117.141 76.1804 110.197 84.9693 97.0243V97.0351Z" fill="white"/>
<path opacity="0.7" d="M100.931 64.2871C100.573 76.2444 97.1765 86.3789 92.6519 94.6362C95.9287 96.2203 99.0645 98.0432 102.038 100.116C111.065 90.6974 116.87 78.1541 117.63 64.2871H100.942H100.931Z" fill="white"/>
<path opacity="0.7" d="M87.7361 92.5221C92.0546 84.8291 95.3532 75.3891 95.733 64.2998H79.6524C76.1043 69.801 73.8257 74.9117 72.3826 78.6768C69.9195 78.2319 67.3913 77.9498 64.8306 77.863V87.7587C72.8274 88.0951 80.5639 89.7335 87.747 92.533L87.7361 92.5221Z" fill="white"/>
<path opacity="0.9" d="M117.662 59.1026C117.445 53.0479 116.262 47.232 114.266 41.8067C113.192 38.8771 109.785 37.5533 106.985 38.9422C104.186 40.3311 101.343 42.3384 98.6519 44.4109C99.8997 49.196 100.692 54.1221 100.909 59.1134H117.662V59.1026Z" fill="white"/>
<path opacity="0.7" d="M94.1592 47.9912C89.8298 51.5393 86.2817 55.337 83.3521 59.1022H95.7C95.5155 55.3587 94.9839 51.637 94.1592 47.9912Z" fill="white"/>
<path opacity="0.7" d="M41.8929 59.1013C39.1152 55.1409 35.6972 51.1153 31.4655 47.2959C30.5215 51.1587 29.9139 55.1083 29.686 59.1013H41.8821H41.8929Z" fill="white"/>
<path d="M121.315 59.8668H123C122.54 44.5969 116.567 30.7023 106.973 20.1367C106.514 20.5406 106.054 20.9553 105.584 21.3483C114.959 31.5646 120.823 45.0335 121.315 59.8668Z" fill="white"/>
<path d="M2.17699 64.7656H0C0.794601 80.2036 7.32557 94.128 17.5139 104.496C18.0146 104.063 18.5262 103.62 19.0487 103.188C9.21955 93.1442 2.91716 79.6847 2.1661 64.7656H2.17699Z" fill="white"/>
<path d="M59.8677 2.03311V0C44.6053 0.351271 30.7215 6.12063 20.1377 15.4453C20.6805 15.9136 21.2341 16.3927 21.8094 16.8717C31.9807 7.97279 45.2675 2.44825 59.8677 2.04376V2.03311Z" fill="white"/>
<path d="M17.9602 20.519C17.3989 20.0256 16.8694 19.5432 16.3399 19.0498C6.57621 29.7725 0.455358 44.0804 0 59.8683H2.11794C2.60507 44.6395 8.53531 30.8579 17.9602 20.508V20.519Z" fill="white"/>
<path d="M22.7569 106.671C22.2284 107.106 21.7213 107.541 21.2251 107.964C31.6352 117.052 45.0983 122.65 59.8666 122.998V121.226C45.7132 120.824 32.7787 115.411 22.7569 106.671Z" fill="white"/>
<path d="M64.7656 121.251V123.001C79.3924 122.169 92.6745 116.347 102.863 107.22C102.426 106.853 101.988 106.485 101.54 106.129C91.6578 114.9 78.8458 120.495 64.7656 121.262V121.251Z" fill="white"/>
<path d="M101.995 17.9602C102.473 17.5662 102.94 17.1503 103.407 16.7344C93.1846 7.05929 79.6921 0.864627 64.7656 0V2.06854C79.1055 2.8675 92.0983 8.74477 101.995 17.9602Z" fill="white"/>
<path d="M121.328 64.7656C120.585 79.2508 114.522 92.379 105.04 102.319C105.477 102.675 105.903 103.041 106.329 103.407C116.03 93.1868 122.235 79.6924 123 64.7764H121.328V64.7656Z" fill="white"/>
</svg>
