<svg width="281" height="69" viewBox="0 0 281 69" fill="none" xmlns="http://www.w3.org/2000/svg">
<path d="M0 9.2C0 4.11898 4.12485 0 9.21311 0H271.787C276.875 0 281 4.11898 281 9.2V59.8C281 64.881 276.875 69 271.787 69H9.21312C4.12486 69 0 64.881 0 59.8V9.2Z" fill="#FEE500"/>
<path fill-rule="evenodd" clip-rule="evenodd" d="M37 46.1043C44.732 46.1043 51 40.9322 51 34.5522C51 28.1721 44.732 23 37 23C29.268 23 23 28.1721 23 34.5522C23 38.4166 25.2996 41.8379 28.8313 43.9351L27.2367 50L33.5212 45.7449C34.6335 45.9795 35.7991 46.1043 37 46.1043Z" fill="#030200"/>
<path d="M237.414 46.8113H235.364V26.6807H237.414V46.8113ZM231.518 28.8227C231.457 31.9091 230.597 34.6423 228.938 37.0224C227.295 39.3871 225.038 41.3526 222.167 42.9188L220.923 41.3756C223.303 40.2393 225.245 38.6961 226.75 36.746C228.27 34.7805 229.123 32.7153 229.307 30.5502H221.821V28.8227H231.518Z" fill="#191919"/>
<path d="M219.72 36.769H216.518V46.8113H214.468V26.6807H216.518V35.0646H219.72V36.769ZM209.862 29.6519H203.85V27.9935H209.862V29.6519ZM212.787 33.1068H200.856V31.4715H212.787V33.1068ZM211.658 38.4965C211.658 39.7095 211.221 40.7153 210.345 41.5138C209.47 42.3122 208.326 42.7115 206.914 42.7115C205.501 42.7115 204.349 42.3199 203.459 41.5368C202.583 40.7383 202.146 39.7249 202.146 38.4965C202.146 37.2834 202.591 36.27 203.482 35.4562C204.372 34.6423 205.516 34.2354 206.914 34.2354C208.326 34.2354 209.47 34.6423 210.345 35.4562C211.221 36.2546 211.658 37.2681 211.658 38.4965ZM208.894 40.3161C209.401 39.8401 209.654 39.2335 209.654 38.4965C209.654 37.7594 209.393 37.1529 208.871 36.6769C208.349 36.1855 207.697 35.9398 206.914 35.9398C206.13 35.9398 205.478 36.1778 204.956 36.6539C204.449 37.1299 204.196 37.7441 204.196 38.4965C204.196 39.2335 204.449 39.8401 204.956 40.3161C205.463 40.7767 206.115 41.0071 206.914 41.0071C207.743 41.0071 208.403 40.7767 208.894 40.3161Z" fill="#191919"/>
<path d="M181.204 29.744V28.0626H192.19V29.744H187.791V30.2968C187.791 31.6481 188.259 32.8611 189.196 33.936C190.148 34.9955 191.246 35.7095 192.49 36.078L191.361 37.7134C190.44 37.3448 189.541 36.769 188.666 35.9859C187.806 35.1874 187.177 34.3352 186.778 33.4293C186.455 34.3813 185.818 35.318 184.866 36.2393C183.929 37.1606 182.931 37.8362 181.872 38.2662L180.674 36.6769C182.04 36.1855 183.223 35.3487 184.221 34.1663C185.219 32.9686 185.718 31.6941 185.718 30.3429V29.744H181.204ZM183.553 39.6021H196.589V46.8344H194.563V41.2835H183.553V39.6021ZM199.584 33.7057H196.589V38.5426H194.54V26.6807H196.589V32.0012H199.584V33.7057Z" fill="#191919"/>
<path d="M177.766 46.8113H175.739V26.6807H177.766V46.8113ZM173.344 40.4543L172.123 41.9744C171.11 41.2681 170.127 40.3698 169.175 39.2796C168.238 38.174 167.601 37.0761 167.263 35.9859C166.91 37.2143 166.281 38.4197 165.375 39.6021C164.469 40.7844 163.44 41.7518 162.288 42.5042L161.021 41.0071C162.557 40.0243 163.801 38.7191 164.753 37.0915C165.705 35.4485 166.181 33.7133 166.181 31.8861V28.4542H168.3V31.7939C168.3 33.6059 168.776 35.2949 169.728 36.8612C170.68 38.412 171.885 39.6097 173.344 40.4543Z" fill="#191919"/>
<path d="M153.307 44.2545H135.134V42.5962H143.15V39.4176H137.322V32.9454H149.023V29.9972H137.276V28.3389H151.05V34.6038H139.349V37.7593H151.603V39.4176H145.2V42.5962H153.307V44.2545Z" fill="#191919"/>
<path d="M131.789 33.5218C131.789 35.088 131.198 36.3778 130.016 37.3913C128.849 38.3894 127.275 38.9652 125.294 39.1187V42.5276H133.378V44.209H115.206V42.5276H123.244V39.0957C121.279 38.9268 119.712 38.3433 118.545 37.3452C117.378 36.3471 116.795 35.0726 116.795 33.5218C116.795 31.8481 117.478 30.4968 118.845 29.468C120.227 28.4392 122.039 27.9248 124.28 27.9248C126.553 27.9248 128.373 28.4392 129.739 29.468C131.106 30.4814 131.789 31.8327 131.789 33.5218ZM128.196 36.3318C129.194 35.6101 129.693 34.6734 129.693 33.5218C129.693 32.3701 129.194 31.4335 128.196 30.7118C127.213 29.9901 125.908 29.6292 124.28 29.6292C122.668 29.6292 121.363 29.9901 120.365 30.7118C119.382 31.4335 118.891 32.3701 118.891 33.5218C118.891 34.6734 119.382 35.6101 120.365 36.3318C121.363 37.0535 122.668 37.4143 124.28 37.4143C125.893 37.4143 127.198 37.0535 128.196 36.3318Z" fill="#191919"/>
<path d="M105.733 28.7997C105.718 35.3563 102.647 40.1779 96.5202 43.2643L95.2534 41.698C98.6162 40.1625 100.996 38.0128 102.394 35.2489L95.9444 35.9398L95.5759 34.1433L103.062 33.5675C103.369 32.6001 103.545 31.5866 103.591 30.5271H96.382V28.7997H105.733ZM110.824 26.6807V34.7882H114.025V36.4696H110.824V46.8113H108.797V26.6807H110.824Z" fill="#191919"/>
<path d="M85.8046 28.7997C85.7893 35.3563 82.7182 40.1779 76.5915 43.2643L75.3247 41.698C78.6875 40.1625 81.0675 38.0128 82.4649 35.2489L76.0157 35.9398L75.6472 34.1433L83.1328 33.5675C83.4399 32.6001 83.6165 31.5866 83.6626 30.5271H76.4533V28.7997H85.8046ZM90.8949 26.6807V34.7882H94.0964V36.4696H90.8949V46.8113H88.868V26.6807H90.8949Z" fill="#191919"/>
</svg>
