<svg width="190" height="39" viewBox="0 0 190 39" fill="none" xmlns="http://www.w3.org/2000/svg">
<path d="M82.0644 23.3544C81.6193 19.9301 80.9344 22.3956 80.4208 23.5941C79.8044 24.9638 79.1196 25.9568 78.2977 27.0184C76.8595 28.8675 77.0992 28.4223 75.4898 29.9632C74.531 30.8878 73.3668 31.6069 72.0998 32.052C70.7301 32.4972 69.2919 32.4287 67.8537 32.4972C66.2443 32.4972 64.6691 31.9493 63.3679 30.9905C62.5803 30.4084 62.5803 30.066 62.3406 29.8605C59.5327 29.8263 57.5466 29.1414 55.5605 28.4223V28.4566C56.4166 33.7984 60.9024 37.3254 65.8676 38.0788C71.4834 38.9348 78.3662 36.6748 81.1056 31.4357C82.4068 29.0044 82.4753 26.6759 82.0644 23.3544Z" fill="white"/>
<path d="M78.3319 18.4232C77.1676 14.8277 73.1612 11.4376 65.6963 13.1498C61.3817 13.8346 58.4026 16.6425 56.9302 20.0326C56.1083 21.9159 55.7659 23.5596 55.9029 25.5456C57.5808 26.9838 60.149 28.0111 62.9226 28.3878C63.7787 28.5248 64.7718 28.5932 65.6278 28.5932C66.7578 28.5932 68.0591 28.3535 69.1548 28.1138C73.5721 27.0523 76.6197 25.6826 78.0237 23.1829C78.5716 22.1556 79.0852 20.5462 78.3319 18.4232ZM67.6481 22.9089C66.6209 23.0459 65.6278 23.0459 64.7033 22.772C64.5663 22.7377 63.3336 22.2926 63.402 22.1556C63.7445 20.2723 64.943 18.8683 66.8263 18.3889C68.3672 17.9438 70.7985 17.8068 71.997 19.0738C72.2367 19.3135 72.4421 19.6559 72.4421 19.9983C72.4421 20.5462 71.997 21.0256 71.5861 21.368C70.5588 22.0871 69.0863 22.7377 67.6481 22.9089Z" fill="white"/>
<path d="M162.843 22.9784C162.398 19.5541 161.713 22.0196 161.199 23.2181C160.583 24.5878 159.898 25.5809 159.076 26.6424C157.638 28.4915 157.878 28.0463 156.268 29.5873C155.309 30.5118 154.145 31.2309 152.878 31.6761C151.508 32.1212 150.07 32.0527 148.632 32.1212C147.023 32.1212 145.447 31.5733 144.146 30.6145C143.359 30.0324 143.359 29.69 143.119 29.4845C140.311 29.4503 138.325 28.7654 136.339 28.0463V28.0806C137.195 33.4225 141.681 36.9495 146.646 37.7028C152.262 38.5589 159.145 36.2988 161.884 31.0597C163.185 28.6285 163.219 26.3684 162.843 22.9784Z" fill="white"/>
<path d="M159.11 18.0823C157.946 14.4868 153.939 11.0968 146.475 12.8089C142.16 13.4938 139.181 16.3017 137.708 19.6917C136.887 21.5751 136.51 23.2187 136.681 25.2048C138.359 26.643 140.927 27.6703 143.701 28.047C144.557 28.1839 145.55 28.2524 146.406 28.2524C147.536 28.2524 148.837 28.0127 149.933 27.773C154.35 26.7115 157.398 25.3418 158.802 22.8421C159.281 21.8148 159.829 20.2054 159.11 18.0823ZM148.358 22.5681C147.331 22.7051 146.338 22.7051 145.413 22.4312C145.276 22.3969 144.043 21.9518 144.112 21.8148C144.454 19.9314 145.653 18.5275 147.536 18.0481C149.077 17.6029 151.508 17.466 152.707 18.7329C152.946 18.9726 153.152 19.3151 153.152 19.6575C153.152 20.2054 152.707 20.6848 152.296 21.0272C151.303 21.7463 149.865 22.3284 148.358 22.5681Z" fill="white"/>
<path d="M53.025 26.8473C52.9907 26.8473 52.888 26.8473 52.8195 26.8473C50.1143 26.813 47.8201 24.9639 45.834 23.6627C45.3546 23.3888 44.8752 23.0463 44.43 22.7382C46.0737 23.7654 47.3407 25.9912 47.1352 27.9773C46.8955 30.5797 44.1219 31.9495 41.7934 32.2234C40.3552 32.3604 38.8485 32.1207 37.4788 31.6413C36.52 31.2988 35.5269 30.8194 34.8763 29.9976C34.2942 29.3128 33.9518 28.4909 33.5751 27.6691C32.4451 25.3064 30.9726 23.1833 28.4387 22.3957C27.9935 22.2588 28.0963 22.2588 27.6511 22.1903C27.1717 22.156 26.795 22.0875 26.6238 22.2245C26.3841 22.4642 26.4868 22.6697 26.5211 23.2518C26.6238 24.0736 26.8635 24.8955 26.9662 25.7173C27.6853 30.2716 30.3905 34.6204 34.6024 36.675C39.4991 39.1062 45.9367 38.3528 49.9431 34.4834C51.3813 33.0795 52.4771 31.1961 52.8538 29.21C53.0592 28.2855 53.1277 27.7718 53.025 26.8473Z" fill="white"/>
<path d="M47.3078 14.7954C44.7054 12.9121 41.555 12.4669 38.4047 12.8436C35.9392 13.1175 33.7134 14.1106 31.8643 15.9254C30.8028 16.9527 29.8783 18.5964 29.4331 20.103C30.3577 20.6852 31.1795 21.0618 32.241 22.5343C32.8231 23.3561 33.2683 23.9725 33.6792 25.1367C33.5765 24.6916 33.645 24.5888 33.645 24.1094C33.6792 22.5 34.501 21.4043 35.1859 20.7194C37.6171 18.3567 40.9387 18.3909 43.6096 20.3427C45.9723 22.0206 48.3009 24.2807 51.2457 24.4176C51.28 24.4176 51.3827 24.4176 51.4512 24.4176C52.9579 24.3834 51.9991 21.7467 51.6909 20.9249C51.143 19.3155 50.2869 17.843 49.2254 16.6103C48.6775 15.8569 48.0269 15.2748 47.3078 14.7954Z" fill="white"/>
<path d="M104.492 16.2288C104.458 16.1946 104.389 16.1261 104.355 16.0234C102.951 14.1743 100.828 12.2567 98.4997 11.9142C96.2739 11.6403 94.0481 12.9415 93.0893 14.9618C92.7469 15.6809 92.5072 16.4685 92.3702 17.2219C92.2675 17.5985 92.2332 17.941 92.1647 18.3519C92.1647 18.4888 92.1647 19.2079 92.062 19.3107C92.1647 19.2079 92.0963 19.2079 92.199 19.1052C93.3975 17.667 95.1439 17.1191 96.9587 17.9067C104.252 21.1598 101.41 31.6723 98.3627 37.0827C97.8833 37.9387 98.1572 37.8702 99.6639 37.8702C101.068 37.8702 102.266 37.836 103.533 37.7675C104.458 37.7333 104.835 36.4663 105.177 35.6787C105.725 34.5487 106.478 32.2544 106.855 31.0217C107.574 28.6932 107.916 26.2277 107.574 23.7965C107.3 21.1255 106.136 18.4204 104.492 16.2288Z" fill="white"/>
<path d="M95.9659 11.2299C93.2607 9.38081 88.3982 8.38777 86.104 10.956C80.5909 17.1197 84.6658 28.591 85.6588 36.1929C85.8985 38.1789 85.6931 37.9392 88.227 37.8708C92.5416 37.768 92.3361 38.2132 92.0622 36.1244C91.2746 30.0292 89.0146 22.4273 90.8637 16.5033C91.891 13.0448 95.4865 10.6478 95.9659 11.2299Z" fill="white"/>
<path d="M184.175 12.1589C179.724 11.7822 175.135 13.3232 173.423 17.9802C173.218 18.4596 173.046 19.0074 172.875 19.9662C172.841 20.4456 172.772 20.7538 172.841 23.2193C172.841 23.8014 172.944 26.3696 173.217 25.5821C175.649 19.1787 182.497 17.3638 187.942 19.2471C190.27 20.069 189.928 17.7062 189.962 14.7613C189.996 13.2889 188.045 12.5013 184.175 12.1589Z" fill="white"/>
<path d="M168.8 15.516C168.355 15.516 167.944 15.4818 167.499 15.4818C166.54 15.4475 165.958 15.4818 165.855 16.8515C165.307 22.9467 165.65 29.0077 165.958 35.1371C166.163 36.7808 167.465 37.6026 169.142 37.6026C169.93 37.6026 170.17 37.6026 170.889 37.6026C171.848 37.6026 172.532 36.7465 172.43 36.0617C172.156 33.0141 171.95 29.9665 171.745 27.0558C171.539 23.7 171.882 20.31 171.882 16.9885C171.882 16.5091 171.745 15.9612 171.197 15.79C170.923 15.6872 170.615 15.6872 170.341 15.653C169.793 15.5503 169.279 15.5503 168.8 15.516Z" fill="white"/>
<path d="M120.999 14.1443C121.615 10.5146 122.676 7.26155 122.882 6.5767C123.567 4.31668 123.122 1.30332 120.93 0.276033C119.286 -0.51155 118.225 0.413004 117.54 2.70727C117.198 3.90576 116.102 7.36428 115.417 11.0967C116.684 11.9528 118.088 13.0486 119.595 13.6992C120.074 13.9731 120.553 14.0416 120.999 14.1443Z" fill="white"/>
<path d="M133.291 27.7045C132.709 27.1224 132.092 28.0469 130.688 29.8961C129.524 31.437 127.983 32.6012 125.86 32.567C123.977 32.5327 122.025 31.6082 121.1 30.033C119.97 28.1839 119.354 25.5815 119.354 22.8763C118.532 22.7736 118.19 22.7393 117.231 22.6023C115.724 22.3284 114.56 22.0545 113.259 21.6436C112.779 27.9785 114.697 34.7585 121.203 37.5664C125.381 39.347 132.88 38.3883 134.387 33.2518C134.661 31.9164 134.421 28.766 133.291 27.7045Z" fill="white"/>
<path d="M134.08 12.4654C131.511 12.3627 131.272 11.986 130.45 13.3899C130.176 13.9378 129.833 14.3487 129.491 14.7597C127.505 16.78 124.457 16.6088 121.923 16.0609C118.636 15.376 115.623 13.9378 112.541 12.6366C109.938 11.5751 109.596 10.6163 104.973 11.5066C104.288 11.6436 103.946 12.5339 104.391 12.9448C105.418 13.9721 106.48 15.0336 107.576 15.9582C110.11 18.0812 113.397 19.5536 116.479 20.6494C119.047 21.574 121.752 22.2931 124.526 22.3958C127.06 22.43 129.594 21.8479 131.751 20.5124C134.011 19.0742 135.347 16.917 136.648 14.6569C137.401 13.1503 137.709 12.6024 134.08 12.4654Z" fill="white"/>
<path d="M23.3033 21.814C21.3172 20.2046 18.2354 20.7867 15.9069 21.0264C14.8453 21.1292 14.7426 21.1634 13.5441 21.2319C13.5099 21.2319 12.688 21.2661 12.6195 21.2661C16.0438 21.4716 19.0914 24.074 19.0914 26.745C19.0914 28.1489 18.3038 29.3132 17.6532 29.9295C16.489 30.9911 14.7426 31.6074 13.1674 31.5732C12.0032 31.539 10.8047 31.2992 9.7774 30.7514C8.8186 30.2035 7.79132 29.6898 7.00374 28.868C6.62707 28.4913 6.31889 28.0462 6.14767 27.5668C6.0107 27.2244 5.87373 26.4025 5.32585 26.4368C4.26432 26.5738 3.47674 26.6765 2.41521 26.8135C1.38793 26.9504 1.25096 26.9504 0.292163 27.0874C-0.426935 27.1901 0.394891 29.2789 0.497619 29.6214C1.90157 33.7305 5.49706 36.3672 9.5377 37.189C10.3253 37.326 11.0444 37.4629 11.7977 37.5314C13.7838 37.7369 16.1465 37.2917 18.0299 36.6069C19.879 35.9905 21.9678 34.5181 23.1663 33.0114C23.8854 32.0868 24.4333 31.0253 24.7757 29.9295C25.0154 29.1077 25.1524 28.2859 25.1524 27.3956C25.1866 25.5465 24.9469 23.1495 23.3033 21.814Z" fill="white"/>
<path d="M11.7293 20.3409C11.7635 20.3409 11.832 20.3409 11.9347 20.3409C12.8935 20.3752 13.8181 20.204 14.7769 19.9985C17.0369 19.5191 19.9475 18.3891 22.2418 19.2794C21.7966 18.9027 20.8378 17.9782 20.2557 17.533C18.9545 16.5742 18.4066 16.403 16.7629 15.8894C15.1193 15.3415 13.2359 15.41 11.5238 15.1703C9.05832 14.8278 5.87374 12.739 6.72981 9.52022C7.44891 6.84929 10.8389 5.68503 13.4756 6.16443C16.3178 6.71232 18.1326 9.31476 19.4339 11.746C19.6736 12.2254 19.7763 12.1912 20.2215 12.0884C21.3857 11.8145 22.4815 11.5405 23.6457 11.2666C24.3648 11.0611 24.673 11.1639 24.5018 10.3078C23.7142 5.51382 19.4681 1.84985 14.9138 0.822566C8.71589 -0.581386 0.42915 3.18532 0.634606 10.4105C0.668849 12.8418 1.5934 15.5469 3.54524 17.3961C5.66829 19.2794 8.68165 20.4094 11.7293 20.3409Z" fill="white"/>
</svg>
