<svg width="629" height="270" viewBox="0 0 629 270" fill="none" xmlns="http://www.w3.org/2000/svg">
<path d="M230.604 173.41L198 166.143V99.58C198 90.4209 205.297 83 214.3 83C223.303 83 230.6 90.4245 230.6 99.58V173.414L230.604 173.41Z" fill="url(#paint0_linear_776_4610)"/>
<path d="M290.996 196L237 180.243V35.9429C237 16.0913 249.088 0 264 0C278.912 0 291 16.0913 291 35.9429V195.997L290.996 196Z" fill="url(#paint1_linear_776_4610)"/>
<path d="M229.491 55.0548L240.674 57.2911C240.707 57.2977 240.743 57.3009 240.776 57.3042C240.779 57.3042 240.785 57.3042 240.789 57.3042C240.815 57.3075 240.841 57.3107 240.87 57.314C241.073 57.3368 241.282 57.3271 241.491 57.2683L249.269 55.0842C250.232 54.8132 250.82 53.7065 250.581 52.6128C250.379 51.6823 249.644 51.062 248.838 51.062C248.694 51.062 248.55 51.0816 248.403 51.1208L240.981 53.207L230.111 51.0326C230.007 51.0131 229.902 51 229.798 51C228.942 51 228.181 51.6954 228.028 52.6879C227.855 53.7979 228.508 54.8557 229.487 55.0515L229.491 55.0548Z" fill="white"/>
<path d="M229.491 75.0548L240.674 77.2911C240.707 77.2977 240.743 77.3009 240.776 77.3042C240.779 77.3042 240.785 77.3042 240.789 77.3042C240.815 77.3075 240.841 77.3107 240.87 77.314C241.073 77.3368 241.282 77.3271 241.491 77.2683L249.269 75.0842C250.232 74.8132 250.82 73.7065 250.581 72.6128C250.379 71.6823 249.644 71.062 248.838 71.062C248.694 71.062 248.55 71.0816 248.403 71.1208L240.981 73.207L230.111 71.0326C230.007 71.0131 229.902 71 229.798 71C228.942 71 228.181 71.6954 228.028 72.6879C227.855 73.7979 228.508 74.8557 229.487 75.0515L229.491 75.0548Z" fill="white"/>
<path fill-rule="evenodd" clip-rule="evenodd" d="M250.861 101.531C246.498 99.9231 241.657 102.153 240.042 106.512C240.042 106.512 240.042 106.511 240.042 106.511L240.041 106.514C240.041 106.514 240.042 106.513 240.042 106.512C238.434 110.877 240.668 115.723 245.033 117.331C272.116 127.314 314.921 143.628 356.396 159.435L356.943 159.644C359.431 160.592 361.923 161.542 364.416 162.492C371.831 165.319 379.258 168.149 386.601 170.944C379.481 173.648 371.818 176.592 363.37 179.887C363.16 179.969 362.956 180.058 362.758 180.154C346.715 185.564 327.183 192.254 306.431 199.394C305.984 199.067 305.497 198.783 304.975 198.545C278.477 186.446 217.377 160.027 158.291 134.481C99.2872 108.97 38.2751 82.5911 11.9307 70.5606C7.69893 68.6311 2.69976 70.492 0.763442 74.7231C-1.16961 78.9542 0.694871 83.9525 4.92669 85.8885C31.4246 97.9876 92.5182 124.403 151.597 149.946C201.491 171.516 252.818 193.71 283.411 207.324C280.709 208.256 278.002 209.19 275.293 210.125C270.752 211.692 266.207 213.26 261.677 214.823L257.382 216.305C242.629 221.397 227.771 226.525 213.559 231.414C204.935 227.926 196.815 224.69 188.527 221.387L188.097 221.215C171.796 214.721 154.944 208.006 131.79 198.421C127.49 196.638 122.559 198.682 120.779 202.981C119 207.281 121.041 212.208 125.341 213.99C148.6 223.618 165.504 230.353 181.857 236.866C182.868 237.27 183.877 237.672 184.885 238.073C186.315 238.643 187.741 239.211 189.168 239.782C173.687 245.077 159.698 249.824 148.417 253.578C144.002 255.047 141.612 259.821 143.085 264.234C144.26 267.767 147.548 270 151.078 270C151.96 270 152.858 269.86 153.743 269.566C169.419 264.349 190.262 257.235 213.073 249.399C224.864 254.202 237.808 259.576 253.494 266.272C254.575 266.732 255.695 266.951 256.802 266.951C260.074 266.951 263.189 265.031 264.554 261.832C266.382 257.552 264.394 252.602 260.113 250.774C251.773 247.212 244.207 244.026 237.177 241.097C244.609 238.536 252.124 235.941 259.628 233.351C262.148 232.481 264.666 231.612 267.179 230.745L267.726 230.556C309.685 216.074 352.989 201.127 380.377 192.009C381.56 191.615 382.597 190.984 383.454 190.186C393.361 186.384 402.175 183.068 410.429 180.008C432.98 188.564 453.586 196.337 469.089 202.049C469.964 202.371 470.857 202.54 471.738 202.568C475.266 202.68 478.624 200.553 479.911 197.059C481.523 192.694 479.286 187.848 474.92 186.239C463.763 182.128 449.933 176.939 434.628 171.155C436.075 170.629 437.522 170.105 438.972 169.58C439.989 169.212 441.007 168.843 442.028 168.473C458.579 162.483 475.689 156.288 499.242 147.404C503.597 145.759 505.793 140.9 504.151 136.546C502.509 132.192 497.646 129.992 493.291 131.637C469.844 140.482 452.787 146.659 436.288 152.631L435.848 152.791C427.461 155.828 419.244 158.804 410.514 162.016C396.451 156.673 381.749 151.07 367.15 145.506L362.948 143.905C358.459 142.195 353.954 140.478 349.453 138.763C346.787 137.747 344.123 136.732 341.464 135.719C372.473 123.084 424.48 102.532 475.034 82.5579C534.894 58.9044 596.796 34.4438 623.665 23.1926C627.956 21.392 629.979 16.4555 628.181 12.1651C626.38 7.87462 621.443 5.85584 617.152 7.64988C590.438 18.8374 528.619 43.2648 468.834 66.888C408.967 90.5445 347.059 115.008 320.19 126.259C319.66 126.481 319.165 126.749 318.707 127.062C292.599 117.141 268.443 108.012 250.861 101.531Z" fill="url(#paint2_linear_776_4610)"/>
<path d="M279.193 243.544L227.863 255.134V149.445C227.863 132.546 239.353 118.848 253.528 118.848C267.703 118.848 279.193 132.546 279.193 149.445V243.544Z" fill="white"/>
<path d="M147.807 145.394L118.393 152.034V91.4734C118.393 81.7902 124.976 73.9385 133.1 73.9385C141.221 73.9385 147.807 81.7869 147.807 91.4734V145.394Z" fill="white"/>
<path d="M352.175 226.914L301.605 216.235V134.038C301.605 117.14 312.926 103.441 326.892 103.441C340.858 103.441 352.178 117.14 352.178 134.038V226.914H352.175Z" fill="white"/>
<path d="M159.82 116.344L174.204 118.763L174.129 90.1118C174.129 85.4008 170.926 81.5811 166.975 81.5811C163.024 81.5811 159.82 85.4008 159.82 90.1118V116.344Z" fill="white"/>
<path opacity="0.8" d="M233.136 142.034C233.136 136.249 234.484 130.836 236.826 126.223C231.343 131.835 227.866 140.15 227.866 149.441V255.131L233.162 253.936L233.139 247.723V142.034H233.136Z" fill="#2DDDC3"/>
<path opacity="0.8" d="M122.148 86.1708C122.148 82.8016 123.108 79.6511 124.777 76.9609C120.871 80.2289 118.393 85.0738 118.393 90.4835V152.034L122.164 151.338L122.148 147.721V86.1708Z" fill="#02DDC3"/>
<path d="M306.337 217.233L306.285 210.785V128.589C306.285 121.341 308.371 114.688 311.852 109.444C305.638 115.021 301.609 123.959 301.609 134.038V216.234" fill="#2DDDC3"/>
<path d="M161.21 116.785L161.194 114.787V89.3025C161.194 87.0563 161.84 84.993 162.921 83.3672C160.995 85.0942 159.744 87.866 159.744 90.9936V116.478" fill="#02DDC3"/>
<defs>
<linearGradient id="paint0_linear_776_4610" x1="214.302" y1="83" x2="214.302" y2="173.414" gradientUnits="userSpaceOnUse">
<stop stop-color="white"/>
<stop offset="1" stop-color="#2DDDC3"/>
</linearGradient>
<linearGradient id="paint1_linear_776_4610" x1="264" y1="0" x2="264" y2="196" gradientUnits="userSpaceOnUse">
<stop stop-color="white"/>
<stop offset="0.505" stop-color="#2DDDC3"/>
</linearGradient>
<linearGradient id="paint2_linear_776_4610" x1="658.415" y1="-36.1928" x2="297.543" y2="191.198" gradientUnits="userSpaceOnUse">
<stop offset="0.04" stop-color="white"/>
<stop offset="0.27" stop-color="#E6FAF8"/>
<stop offset="0.48" stop-color="#D5F8F3"/>
<stop offset="0.9" stop-color="#02DDC3"/>
</linearGradient>
</defs>
</svg>
