<svg width="261" height="330" viewBox="0 0 261 330" fill="none" xmlns="http://www.w3.org/2000/svg">
<rect x="1" width="260" height="330" rx="27" fill="#BCFDFF"/>
<mask id="mask0_1341_9030" style="mask-type:alpha" maskUnits="userSpaceOnUse" x="0" y="0" width="260" height="330">
<rect width="260" height="330" rx="45" fill="#98FCFF"/>
</mask>
<g mask="url(#mask0_1341_9030)">
<path fill-rule="evenodd" clip-rule="evenodd" d="M103.5 229C105.985 229 108 231.015 108 233.5C108 237.469 107.301 243.273 104.273 248.887C101.176 254.627 95.7687 259.916 86.8812 262.783C82.4774 264.204 78.8102 264.54 75.5238 264.248C72.4736 263.978 69.902 263.167 67.8339 262.515C67.7298 262.483 67.627 262.45 67.5255 262.418C65.3213 261.726 63.678 261.249 61.8199 261.168C60.0422 261.091 57.8199 261.376 54.7203 262.658C45.0347 266.666 41.1152 276.18 40.4385 280.24C40.0299 282.692 37.7114 284.348 35.2599 283.939C32.8085 283.53 31.1524 281.212 31.561 278.761C32.5509 272.821 37.7647 259.934 51.2791 254.342C55.4295 252.625 58.9572 252.035 62.2108 252.176C65.3839 252.314 68.0532 253.15 70.2239 253.832L70.2812 253.85C72.51 254.551 74.2595 255.101 76.3194 255.284C78.3142 255.461 80.772 255.297 84.1182 254.218C90.7308 252.085 94.3233 248.374 96.3518 244.614C98.4485 240.727 98.9997 236.531 98.9997 233.5C98.9997 231.015 101.014 229 103.5 229Z" fill="white"/>
<path fill-rule="evenodd" clip-rule="evenodd" d="M44.4997 123.5C46.985 123.5 48.9997 125.515 48.9997 128C48.9997 131.969 48.301 137.773 45.2727 143.387C42.1762 149.127 36.7687 154.416 27.8812 157.283C23.4774 158.704 19.8102 159.04 16.5238 158.748C13.4736 158.478 10.902 157.667 8.83392 157.015C8.72984 156.983 8.62703 156.95 8.52551 156.918C6.32125 156.226 4.67805 155.749 2.81988 155.668C1.04222 155.591 -1.18008 155.876 -4.27969 157.158C-13.9653 161.166 -17.8848 170.68 -18.5615 174.74C-18.9701 177.192 -21.2886 178.848 -23.7401 178.439C-26.1915 178.03 -27.8476 175.712 -27.439 173.261C-26.4491 167.321 -21.2353 154.434 -7.72086 148.842C-3.57047 147.125 -0.0427704 146.535 3.21082 146.676C6.3839 146.814 9.0532 147.65 11.2239 148.332L11.2812 148.35C13.51 149.051 15.2595 149.601 17.3194 149.784C19.3142 149.961 21.772 149.797 25.1182 148.718C31.7308 146.585 35.3233 142.874 37.3518 139.114C39.4485 135.227 39.9997 131.031 39.9997 128C39.9997 125.515 42.0144 123.5 44.4997 123.5Z" fill="white"/>
<path fill-rule="evenodd" clip-rule="evenodd" d="M185.5 118.5C187.985 118.5 190 120.515 190 123C190 126.969 189.301 132.773 186.273 138.387C183.176 144.127 177.769 149.416 168.881 152.283C164.477 153.704 160.81 154.04 157.524 153.748C154.474 153.478 151.902 152.667 149.834 152.015C149.73 151.983 149.627 151.95 149.526 151.918C147.321 151.226 145.678 150.749 143.82 150.668C142.042 150.591 139.82 150.876 136.72 152.158C127.035 156.166 123.115 165.68 122.438 169.74C122.03 172.192 119.711 173.848 117.26 173.439C114.808 173.03 113.152 170.712 113.561 168.261C114.551 162.321 119.765 149.434 133.279 143.842C137.43 142.125 140.957 141.535 144.211 141.676C147.384 141.814 150.053 142.65 152.224 143.332L152.281 143.35C154.51 144.051 156.26 144.601 158.319 144.784C160.314 144.961 162.772 144.797 166.118 143.718C172.731 141.585 176.323 137.874 178.352 134.114C180.448 130.227 181 126.031 181 123C181 120.515 183.014 118.5 185.5 118.5Z" fill="white"/>
<path fill-rule="evenodd" clip-rule="evenodd" d="M130.5 15.5C132.985 15.5 135 17.5147 135 20C135 23.9686 134.301 29.7731 131.273 35.3867C128.176 41.1267 122.769 46.4161 113.881 49.283C109.477 50.7036 105.81 51.04 102.524 50.7483C99.4736 50.4776 96.902 49.6671 94.8339 49.0154C94.7298 48.9826 94.627 48.9502 94.5255 48.9183C92.3213 48.2255 90.678 47.7487 88.8199 47.6679C87.0422 47.5906 84.8199 47.8758 81.7203 49.1584C72.0347 53.1662 68.1152 62.6796 67.4385 66.7401C67.0299 69.1916 64.7114 70.8476 62.2599 70.4391C59.8085 70.0305 58.1524 67.712 58.561 65.2605C59.5509 59.321 64.7647 46.4344 78.2791 40.8422C82.4295 39.1248 85.9572 38.535 89.2108 38.6764C92.3839 38.8144 95.0532 39.6501 97.2239 40.3323L97.2812 40.3503C99.51 41.0508 101.26 41.6007 103.319 41.7835C105.314 41.9606 107.772 41.797 111.118 40.7176C117.731 38.5845 121.323 34.8738 123.352 31.1136C125.448 27.227 126 23.0314 126 20C126 17.5147 128.014 15.5 130.5 15.5Z" fill="white"/>
<path fill-rule="evenodd" clip-rule="evenodd" d="M278.5 1.5C280.985 1.5 283 3.51472 283 6C283 9.96862 282.301 15.7731 279.273 21.3867C276.176 27.1267 270.769 32.4161 261.881 35.283C257.477 36.7036 253.81 37.04 250.524 36.7483C247.474 36.4776 244.902 35.6671 242.834 35.0154C242.73 34.9826 242.627 34.9502 242.526 34.9183C240.321 34.2255 238.678 33.7487 236.82 33.6679C235.042 33.5906 232.82 33.8758 229.72 35.1584C220.035 39.1662 216.115 48.6796 215.438 52.7401C215.03 55.1916 212.711 56.8476 210.26 56.4391C207.808 56.0305 206.152 53.712 206.561 51.2605C207.551 45.321 212.765 32.4344 226.279 26.8422C230.43 25.1248 233.957 24.535 237.211 24.6764C240.384 24.8144 243.053 25.6501 245.224 26.3323L245.281 26.3503C247.51 27.0508 249.26 27.6007 251.319 27.7835C253.314 27.9606 255.772 27.797 259.118 26.7176C265.731 24.5845 269.323 20.8738 271.352 17.1136C273.448 13.227 274 9.03138 274 6C274 3.51472 276.014 1.5 278.5 1.5Z" fill="white"/>
<path fill-rule="evenodd" clip-rule="evenodd" d="M284.5 164.5C286.985 164.5 289 166.515 289 169C289 172.969 288.301 178.773 285.273 184.387C282.176 190.127 276.769 195.416 267.881 198.283C263.477 199.704 259.81 200.04 256.524 199.748C253.474 199.478 250.902 198.667 248.834 198.015C248.73 197.983 248.627 197.95 248.526 197.918C246.321 197.226 244.678 196.749 242.82 196.668C241.042 196.591 238.82 196.876 235.72 198.158C226.035 202.166 222.115 211.68 221.438 215.74C221.03 218.192 218.711 219.848 216.26 219.439C213.808 219.03 212.152 216.712 212.561 214.261C213.551 208.321 218.765 195.434 232.279 189.842C236.43 188.125 239.957 187.535 243.211 187.676C246.384 187.814 249.053 188.65 251.224 189.332L251.281 189.35C253.51 190.051 255.26 190.601 257.319 190.784C259.314 190.961 261.772 190.797 265.118 189.718C271.731 187.585 275.323 183.874 277.352 180.114C279.448 176.227 280 172.031 280 169C280 166.515 282.014 164.5 284.5 164.5Z" fill="white"/>
<path fill-rule="evenodd" clip-rule="evenodd" d="M197.5 279.5C199.985 279.5 202 281.515 202 284C202 287.969 201.301 293.773 198.273 299.387C195.176 305.127 189.769 310.416 180.881 313.283C176.477 314.704 172.81 315.04 169.524 314.748C166.474 314.478 163.902 313.667 161.834 313.015C161.73 312.983 161.627 312.95 161.526 312.918C159.321 312.226 157.678 311.749 155.82 311.668C154.042 311.591 151.82 311.876 148.72 313.158C139.035 317.166 135.115 326.68 134.438 330.74C134.03 333.192 131.711 334.848 129.26 334.439C126.808 334.03 125.152 331.712 125.561 329.261C126.551 323.321 131.765 310.434 145.279 304.842C149.43 303.125 152.957 302.535 156.211 302.676C159.384 302.814 162.053 303.65 164.224 304.332L164.281 304.35C166.51 305.051 168.26 305.601 170.319 305.784C172.314 305.961 174.772 305.797 178.118 304.718C184.731 302.585 188.323 298.874 190.352 295.114C192.448 291.227 193 287.031 193 284C193 281.515 195.014 279.5 197.5 279.5Z" fill="white"/>
</g>
</svg>
