<svg width="185" height="285" viewBox="0 0 185 285" fill="none" xmlns="http://www.w3.org/2000/svg">
<ellipse cx="88.5" cy="274" rx="50.5" ry="11" fill="#5C5C5C"/>
<path d="M132.924 172.84C135.519 172.399 136.565 171.117 139.58 168.328C146.78 161.682 148.247 156.051 157.272 148.338C159.128 146.749 163.149 143.313 166.544 144.246C172.236 145.805 171.805 158.389 171.774 159.128C171.231 171.805 162.164 180.994 160.359 182.758C150.093 192.789 137.642 194.143 134.247 194.399" fill="url(#paint0_linear_1352_8259)"/>
<path d="M169.292 159.868C168.995 159.868 168.687 159.755 168.482 159.509C168.113 159.078 168.164 158.432 168.595 158.063C169.518 157.273 170.072 156.206 170.082 155.201C170.082 154.637 169.918 154.278 169.774 154.145C169.518 153.919 168.831 153.827 167.99 154.114C167.436 154.299 166.831 154.114 166.482 153.642C166.133 153.181 166.113 152.535 166.441 152.053C167.128 151.037 167.405 149.981 167.272 148.904C167.097 147.519 166.082 145.366 163.959 145.068C162.349 144.853 160.697 145.766 159.877 147.355C159.62 147.858 158.995 148.053 158.492 147.796C157.99 147.54 157.795 146.914 158.051 146.412C159.282 144.053 161.764 142.689 164.236 143.037C167.302 143.458 169.005 146.248 169.302 148.648C169.436 149.735 169.282 150.832 168.851 151.878C169.764 151.848 170.574 152.104 171.148 152.617C171.795 153.191 172.154 154.145 172.133 155.222C172.113 156.832 171.313 158.432 169.928 159.612C169.743 159.765 169.518 159.847 169.292 159.858V159.868Z" fill="#823737"/>
<path fill-rule="evenodd" clip-rule="evenodd" d="M128.142 228.774C130.957 222.93 133.224 216.174 135.067 208.678H135.057C142.841 177.038 116.309 158.895 93.1912 158.895C70.0738 158.895 42.9666 170.905 51.3254 208.678C53.1725 217.015 55.6834 224.422 58.9558 230.675C52.6671 238.826 49.4701 241.888 47.9717 242.318L47.9372 242.328C47.6501 242.409 46.5104 242.728 45.3051 243.59C43.8487 244.636 42.6385 246.246 42.2385 247.621C40.4129 253.939 52.9357 265.836 57.551 270.215C57.9202 270.564 58.5254 271.128 59.3664 271.487C63.0791 273.046 66.5047 268.472 68.4944 265.692C72.2434 260.488 75.6915 255.058 78.6558 250.08C83.008 251.888 87.8833 252.842 93.3245 252.842C97.0718 252.842 100.528 252.386 103.716 251.509C103.873 255.261 104.129 259.157 104.524 263.036C104.863 266.338 105.519 271.846 109.365 272.359C110.237 272.472 111.017 272.297 111.488 272.185L111.523 272.176C117.509 270.755 133.604 266.932 135.108 260.759C135.437 259.426 135.201 257.477 134.483 255.887C133.911 254.611 133.127 253.794 132.903 253.561L132.903 253.561C132.886 253.543 132.872 253.529 132.862 253.518C131.534 252.119 129.945 245.769 128.142 228.774Z" fill="url(#paint1_linear_1352_8259)"/>
<path d="M154.297 150.116C154.574 149.982 154.646 149.767 154.954 149.623C155.261 149.48 155.426 149.254 155.908 149.459C162.072 152.126 166.646 157.059 170.205 162.792C170.82 163.787 171.538 165.449 172.041 166.628C172.194 166.987 172.153 167.428 171.917 167.756C171.682 168.085 171.394 168.454 171.128 168.761C169.477 165.941 167.497 162.751 165.548 160.259C162.4 156.228 158.923 152.218 154.297 150.116Z" fill="#0C1035"/>
<path d="M152.359 151.583C152.677 151.367 152.985 151.131 153.292 150.896C158.164 153.008 161.548 156.711 164.81 160.967C166.789 163.541 168.759 166.752 170.41 169.654C170.153 169.982 169.897 170.3 169.63 170.587C167.948 167.757 165.794 164.331 163.948 161.798C160.564 157.121 157.477 153.88 152.359 151.583Z" fill="#0C1035"/>
<path d="M157.774 157.92C155.836 155.92 153.282 154.351 150.533 153.428C150.749 153.13 151.036 152.895 151.282 152.607C156.82 154.197 159.877 157.941 163.22 162.689C164.984 165.202 167.282 168.73 168.902 171.561C168.687 171.94 168.43 172.248 168.225 172.597C167.271 171.202 166.297 169.715 165.364 168.341C162.861 164.679 160.943 161.182 157.784 157.92H157.774Z" fill="#0C1035"/>
<path d="M139.108 193.49C137.867 191.828 134.626 186.382 132.913 182.485C131.201 178.588 127.734 171.316 127.129 166.383C128.411 166.219 129.98 165.983 131.211 165.511C137.365 163.152 143.18 159.07 148.062 155.316C149.354 154.321 149.826 153.962 150.349 153.562C150.872 153.162 150.472 153.46 150.493 153.46C153.344 154.321 155.836 155.921 157.785 157.921C160.954 161.183 162.872 164.69 165.364 168.342C166.297 169.716 167.323 171.193 168.195 172.598C168.266 172.711 168.113 172.762 168.031 172.906C164.051 179.952 160.164 185.141 153.733 190.618C151.108 192.854 146.841 195.849 143.713 197.9C141.477 195.798 141.611 196.823 139.108 193.48V193.49Z" fill="white"/>
<path d="M132.257 234.442C131.734 235.027 131.467 235.457 130.534 235.406C122.011 234.934 113.211 234.565 104.678 234.299C103.663 234.268 103.386 233.868 102.75 233.263C107.365 233.386 111.919 233.478 116.524 233.663C121.765 233.868 126.996 234.186 132.257 234.442Z" fill="#0C1035"/>
<path d="M132.76 232.37C132.688 232.709 132.616 233.047 132.544 233.375C127.232 233.129 121.898 232.801 116.586 232.586C111.837 232.401 107.109 232.309 102.36 232.165C102.35 232.042 102.33 231.96 102.33 231.827C102.33 231.806 102.33 231.878 102.33 231.786C102.33 231.693 102.33 231.314 102.33 231.16C107.078 231.283 111.817 231.386 116.575 231.57C121.97 231.786 127.365 232.114 132.76 232.36V232.37Z" fill="#0C1035"/>
<path d="M100.945 173.224C101.027 172.772 101.242 172.331 101.499 172.116C103.242 170.629 105.191 169.665 107.222 168.865C112.688 166.701 117.97 164.557 123.57 162.855C123.724 162.814 123.939 162.834 124.072 162.978C125.098 164.044 126.001 165.296 127.047 166.321C127.057 166.331 127.098 166.352 127.108 166.362C127.744 171.336 131.19 178.577 132.913 182.485C134.636 186.382 137.877 191.828 139.108 193.49C141.6 196.844 141.508 195.798 143.682 197.931C143.518 197.828 143.549 197.931 143.446 197.982C142.339 203.367 140.605 209.961 139.211 214.977C137.621 220.69 135.672 224.679 133.344 229.756C133.077 230.33 133.18 230.741 132.975 231.315C127.539 231.059 122.083 230.73 116.637 230.515C111.868 230.32 107.088 230.228 102.319 230.084C103.129 212.341 103.56 194.987 100.934 177.388C100.719 175.921 100.688 174.618 100.934 173.224H100.945Z" fill="url(#paint2_linear_1352_8259)"/>
<path d="M151.282 152.609C151.641 152.28 151.99 151.921 152.359 151.583C157.487 153.87 160.564 157.111 163.949 161.788C165.784 164.332 167.938 167.747 169.631 170.578C169.395 170.926 169.159 171.254 168.902 171.562C167.282 168.721 164.984 165.193 163.22 162.691C159.877 157.942 156.821 154.198 151.282 152.609Z" fill="white"/>
<path d="M153.282 150.895C153.621 150.649 153.969 150.393 154.298 150.126C158.913 152.229 162.4 156.239 165.538 160.269C167.487 162.762 169.466 165.951 171.118 168.772C170.892 169.09 170.646 169.377 170.4 169.654C168.738 166.751 166.769 163.541 164.8 160.967C161.528 156.71 158.154 153.008 153.282 150.895Z" fill="white"/>
<path d="M132.544 233.375C132.524 233.519 132.514 233.468 132.493 233.652C132.473 233.837 132.38 234.227 132.257 234.432C127.016 234.186 121.765 233.868 116.534 233.652C111.94 233.468 107.365 233.375 102.771 233.252C102.555 232.914 102.432 232.565 102.371 232.165C107.119 232.298 111.847 232.391 116.596 232.586C121.909 232.801 127.242 233.129 132.555 233.365L132.544 233.375Z" fill="white"/>
<path d="M132.985 231.304C132.913 231.663 132.831 232.012 132.759 232.371C127.365 232.125 121.97 231.786 116.575 231.581C111.816 231.396 107.088 231.294 102.329 231.16C102.329 230.801 102.319 230.453 102.329 230.094C107.098 230.227 111.878 230.33 116.647 230.514C122.093 230.73 127.539 231.058 132.985 231.304Z" fill="white"/>
<path d="M51.5612 169.723C48.9664 169.282 47.9203 168 44.9049 165.21C37.7051 158.564 36.2385 152.934 27.213 145.221C25.3566 143.631 21.3362 140.196 17.9414 141.129C12.2492 142.688 12.68 155.272 12.7107 156.011C13.2543 168.687 22.3208 177.877 24.1259 179.641C34.3923 189.672 46.8434 191.025 50.2382 191.282" fill="url(#paint3_linear_1352_8259)"/>
<path d="M15.1826 156.751C15.48 156.751 15.7877 156.638 15.9929 156.392C16.3621 155.961 16.3108 155.315 15.88 154.946C14.957 154.156 14.4031 153.089 14.3929 152.084C14.3929 151.52 14.557 151.161 14.7006 151.028C14.957 150.802 15.6441 150.71 16.4852 150.997C17.039 151.182 17.6441 150.997 17.9928 150.525C18.3415 150.064 18.362 149.417 18.0338 148.935C17.3467 147.92 17.0698 146.864 17.2031 145.787C17.3774 144.402 18.3928 142.248 20.5158 141.951C22.1261 141.736 23.7773 142.648 24.5978 144.238C24.8542 144.741 25.4798 144.936 25.9824 144.679C26.4849 144.423 26.6798 143.797 26.4234 143.295C25.1927 140.936 22.7107 139.572 20.2389 139.92C17.1723 140.341 15.4698 143.13 15.1724 145.53C15.039 146.618 15.1929 147.715 15.6236 148.761C14.7108 148.73 13.9006 148.987 13.3262 149.5C12.6801 150.074 12.3211 151.028 12.3417 152.105C12.3622 153.715 13.1621 155.315 14.5467 156.494C14.7313 156.648 14.957 156.73 15.1826 156.74V156.751Z" fill="#823737"/>
<path d="M30.1771 146.997C29.9002 146.863 29.8284 146.648 29.5207 146.504C29.213 146.361 29.0489 146.135 28.5669 146.34C22.4029 149.007 17.8286 153.94 14.2697 159.673C13.6544 160.668 12.9364 162.33 12.4339 163.509C12.28 163.868 12.321 164.309 12.5569 164.637C12.7928 164.965 13.08 165.335 13.3467 165.642C14.9979 162.822 16.9774 159.632 18.926 157.14C22.0747 153.109 25.5515 149.099 30.1771 146.997Z" fill="#0C1035"/>
<path d="M32.1261 148.464C31.8081 148.248 31.5005 148.012 31.1928 147.776C26.3211 149.889 22.9365 153.592 19.6751 157.848C17.6956 160.422 15.7264 163.633 14.0752 166.535C14.3316 166.863 14.588 167.181 14.8547 167.468C16.5367 164.638 18.6905 161.212 20.5366 158.679C23.9211 154.002 27.0083 150.761 32.1261 148.464Z" fill="#0C1035"/>
<path d="M26.7002 154.802C28.6387 152.802 31.1924 151.233 33.9411 150.31C33.7257 150.012 33.4386 149.776 33.1924 149.489C27.6541 151.079 24.5977 154.822 21.2542 159.571C19.4901 162.084 17.1927 165.612 15.5723 168.443C15.7876 168.822 16.0441 169.13 16.2492 169.479C17.203 168.084 18.1773 166.597 19.1107 165.222C21.6132 161.561 23.5311 158.063 26.69 154.802H26.7002Z" fill="#0C1035"/>
<path d="M45.3664 190.371C46.6074 188.709 49.8483 183.263 51.5611 179.366C53.2739 175.469 56.7405 168.197 57.3456 163.264C56.0636 163.099 54.4944 162.864 53.2636 162.392C47.1099 160.033 41.2947 155.951 36.4127 152.197C35.1204 151.202 34.6486 150.843 34.1256 150.443C33.6025 150.043 34.0025 150.341 33.982 150.341C31.1308 151.202 28.6385 152.802 26.6898 154.802C23.5207 158.064 21.6028 161.571 19.1105 165.222C18.1772 166.597 17.1516 168.074 16.2798 169.479C16.208 169.592 16.3619 169.643 16.4439 169.787C20.4233 176.833 24.3104 182.022 30.741 187.499C33.3666 189.735 37.6332 192.73 40.7613 194.781C42.9972 192.678 42.8638 193.704 45.3664 190.361V190.371Z" fill="white"/>
<path d="M52.2178 231.323C52.7408 231.908 53.0075 232.338 53.9408 232.287C62.4637 231.815 71.2635 231.446 79.7967 231.179C80.812 231.149 81.089 230.749 81.7248 230.144C77.1096 230.267 72.5558 230.359 67.9508 230.544C62.7099 230.749 57.4792 231.067 52.2178 231.323Z" fill="#0C1035"/>
<path d="M51.7256 229.251C51.7974 229.59 51.8692 229.928 51.941 230.256C57.2537 230.01 62.5869 229.682 67.8996 229.467C72.6482 229.282 77.3763 229.19 82.1249 229.046C82.1352 228.923 82.1557 228.841 82.1557 228.708C82.1557 228.687 82.1557 228.759 82.1557 228.667C82.1557 228.574 82.1557 228.195 82.1557 228.041C77.4071 228.164 72.6687 228.267 67.9099 228.451C62.5151 228.667 57.1203 228.995 51.7256 229.241V229.251Z" fill="#0C1035"/>
<path d="M83.53 170.103C83.448 169.652 83.2326 169.211 82.9762 168.996C81.2326 167.508 79.284 166.544 77.2532 165.744C71.7867 163.58 65.8278 162.637 60.228 160.944C60.0741 160.903 59.8587 160.924 59.7254 161.068C58.6998 162.134 58.4844 162.175 57.428 163.201C57.4178 163.211 57.3767 163.232 57.3665 163.242C56.7306 168.216 53.2845 175.457 51.5615 179.365C49.8384 183.262 46.5975 188.708 45.3667 190.37C42.8745 193.723 42.9668 192.677 40.7925 194.811C40.9566 194.708 40.9258 194.811 41.0284 194.862C42.136 200.246 43.8693 206.841 45.2642 211.856C46.8539 217.569 48.8026 221.559 51.1307 226.636C51.3974 227.21 51.2948 227.62 51.4999 228.195C56.9357 227.938 62.392 227.61 67.8381 227.395C72.6072 227.2 77.3866 227.107 82.1557 226.964C81.3455 209.221 80.9147 191.867 83.5403 174.267C83.7557 172.801 83.7864 171.498 83.5403 170.103H83.53Z" fill="url(#paint4_linear_1352_8259)"/>
<path d="M33.1926 149.489C32.8336 149.161 32.4849 148.802 32.1157 148.464C26.9876 150.751 23.9107 153.992 20.5262 158.669C18.6903 161.212 16.5365 164.628 14.8442 167.458C15.0801 167.807 15.316 168.135 15.5724 168.443C17.1929 165.602 19.4903 162.074 21.2544 159.571C24.5979 154.823 27.6542 151.079 33.1926 149.489Z" fill="white"/>
<path d="M31.1925 147.776C30.854 147.53 30.5053 147.273 30.1771 147.007C25.5618 149.109 22.0747 153.12 18.9363 157.15C16.9876 159.643 15.0082 162.832 13.3569 165.653C13.5826 165.971 13.8287 166.258 14.0749 166.535C15.7364 163.632 17.7056 160.422 19.6747 157.848C22.9465 153.591 26.3208 149.889 31.1925 147.776Z" fill="white"/>
<path d="M51.9307 230.256C51.9512 230.4 51.9614 230.348 51.9819 230.533C52.0025 230.718 52.0948 231.107 52.2178 231.312C57.4588 231.066 62.7099 230.748 67.9406 230.533C72.5354 230.348 77.1096 230.256 81.7044 230.133C81.9198 229.795 82.0428 229.446 82.1044 229.046C77.3558 229.179 72.6277 229.272 67.879 229.466C62.5663 229.682 57.2331 230.01 51.9204 230.246L51.9307 230.256Z" fill="white"/>
<path d="M51.4995 228.185C51.5713 228.544 51.6534 228.892 51.7251 229.251C57.1199 229.005 62.5147 228.667 67.9094 228.462C72.6683 228.277 77.3964 228.175 82.1553 228.041C82.1553 227.682 82.1655 227.334 82.1553 226.975C77.3861 227.108 72.6068 227.21 67.8376 227.395C62.3916 227.61 56.9455 227.939 51.4995 228.185Z" fill="white"/>
<path d="M176.769 3.43C167.815 -1.15454 153.292 10.5581 142.872 18.9682C122.226 35.6346 112.452 56.0445 107.919 67.9827C103.088 67.1212 98.1039 66.6494 93.0579 66.6494C87.017 66.6494 81.0684 67.3161 75.3557 68.5366C71.3045 56.2291 62.4534 35.6243 42.8641 18.1375C32.8027 9.16326 18.7928 -3.33909 9.56221 0.82494C-4.67338 7.24534 -1.92472 50.7625 10.6391 82.6697C16.1159 96.5771 22.9978 107.11 28.208 114.085C28.2592 115.059 28.3413 116.043 28.4746 117.038C33.1925 149.92 55.5202 168.853 91.9604 169.109C126.955 169.355 153.251 146.853 157.641 117.038C158.072 114.126 158.062 111.264 157.703 108.474C162.236 102.29 167.272 94.3207 171.682 84.5876C185.723 53.542 190.584 10.4965 176.779 3.43H176.769Z" fill="url(#paint5_linear_1352_8259)"/>
<path d="M56.2588 78.598C56.2588 78.5262 56.2588 78.4646 56.2383 78.3928C56.2178 78.321 56.1973 78.2595 56.1768 78.198C56.1665 78.1672 56.1665 78.1364 56.146 78.1056C31.3773 34.7936 23.2442 31.7475 19.3058 33.2141C16.034 34.4244 14.6392 39.5422 14.9161 49.3267C14.9366 49.8907 15.4289 50.3113 15.9725 50.3215C16.5366 50.301 16.9879 49.8292 16.9674 49.2651C16.6494 38.0653 18.7417 35.6038 20.0237 35.1321C22.8442 34.0859 31.0491 38.373 54.2076 78.8339C54.0435 80.0851 53.1717 84.885 48.9872 87.008C44.5155 89.2747 38.7207 87.1927 36.7105 83.9004C34.649 80.5056 36.4131 75.2954 37.7054 71.4904C38.772 68.3417 39.4797 66.2597 37.9618 65.3982C36.9054 64.8034 35.8798 65.5725 34.8849 66.3212C33.7568 67.1725 32.3414 68.2289 30.444 68.2289H30.4235C28.2697 68.2289 25.6236 66.8648 25.3262 65.07C25.0082 63.2034 26.9671 60.6495 30.2799 59.9624C30.8337 59.8495 31.1927 59.306 31.0799 58.7521C30.9671 58.1983 30.4337 57.8496 29.8697 57.9522C25.3467 58.8855 22.8236 62.5572 23.3057 65.4084C23.8082 68.4032 27.3877 70.2596 30.4235 70.2801H30.4543C33.0388 70.2801 34.8952 68.8853 36.1259 67.952C36.3208 67.8084 36.5567 67.6238 36.7618 67.4802C36.6285 68.2802 36.1464 69.7161 35.767 70.8237C34.3413 75.0083 32.3927 80.7517 34.9567 84.9671C36.731 87.8901 40.731 90.0132 44.8642 90.0132C46.5667 90.0132 48.3 89.6542 49.9103 88.8439C55.6537 85.9414 56.2588 78.9979 56.2896 78.7005C56.2896 78.6697 56.2793 78.639 56.2793 78.6082L56.2588 78.598Z" fill="#823737"/>
<path d="M166.093 34.6288C162.39 32.598 153.908 34.4339 123.068 73.6435C123.006 73.7255 122.965 73.8179 122.935 73.9204C122.935 73.9409 122.914 73.9614 122.904 73.9819C122.873 74.0743 122.873 74.1562 122.873 74.2486C122.873 74.2896 122.853 74.3307 122.853 74.3717C122.873 74.6691 123.478 81.6125 129.232 84.5151C130.842 85.3253 132.565 85.6843 134.278 85.6843C138.411 85.6843 142.411 83.5613 144.185 80.6382C146.749 76.4229 144.801 70.6897 143.375 66.5051C142.996 65.3974 142.514 63.9718 142.38 63.1616C142.585 63.3052 142.821 63.4795 143.016 63.6334C144.257 64.5667 146.114 65.9616 148.719 65.9616C151.744 65.9513 155.324 64.0847 155.836 61.0899C156.318 58.2386 153.795 54.5669 149.272 53.6336C148.719 53.5207 148.175 53.8797 148.062 54.4336C147.949 54.9874 148.308 55.531 148.862 55.6438C152.175 56.3207 154.134 58.8847 153.816 60.7514C153.519 62.5462 150.872 63.9001 148.719 63.9103C146.821 63.8693 145.396 62.8539 144.257 62.0026C143.262 61.2539 142.237 60.4847 141.18 61.0796C139.662 61.9411 140.37 64.0231 141.437 67.1718C142.729 70.9769 144.503 76.187 142.432 79.5818C140.432 82.8741 134.637 84.9459 130.155 82.6895C126.052 80.6177 125.129 75.9409 124.945 74.587C153.734 38.0338 162.472 34.9774 165.108 36.4338C166.298 37.0902 168.011 39.8286 166.062 50.8644C165.959 51.4182 166.339 51.9516 166.893 52.0541C167.446 52.1567 167.98 51.7772 168.082 51.2234C169.785 41.5928 169.149 36.321 166.103 34.639L166.093 34.6288Z" fill="#823737"/>
<path opacity="0.5" d="M101.15 126.956C100.77 126.956 100.391 126.813 100.094 126.536C100.063 126.505 96.668 123.469 89.4784 123.869C84.2785 124.157 83.2734 125.192 82.5349 125.951L82.3811 126.105C81.7862 126.71 80.8119 126.71 80.2068 126.105C79.6017 125.51 79.6017 124.536 80.2068 123.931L80.3401 123.798C81.6529 122.454 83.417 121.121 89.3143 120.792C96.1962 120.413 100.76 122.926 102.217 124.3C102.832 124.885 102.852 125.859 102.268 126.474C101.97 126.792 101.56 126.956 101.15 126.956Z" fill="#231815"/>
<path d="M53.2739 143.294C42.0537 143.294 30.0437 139.182 21.9413 130.125C8.14669 114.721 11.2235 101.972 18.7106 95.1927C24.7412 89.7261 35.8692 88.8235 53.7457 92.3517C79.1298 97.3567 84.5348 105.849 86.4732 113.49C86.5245 113.695 86.5758 113.879 86.6168 114.064C87.0886 115.797 86.9245 117.182 86.7809 118.403L86.7194 118.895C85.622 128.751 77.7555 134.782 75.1709 136.761C69.6223 141.017 61.6635 143.315 53.2739 143.315V143.294ZM39.1614 99.6438C32.4539 99.6438 28.4334 101.869 27.0181 103.705C25.1002 106.187 22.0643 113.141 28.536 124.218C36.5563 137.951 59.5302 136.782 69.8172 130.187C72.0428 128.761 76.576 126.556 77.9401 120.269L78.2478 118.177C78.3503 117.285 78.3196 116.382 78.1247 115.5C78.0529 115.162 77.9811 114.864 77.9606 114.762C77.2016 111.756 75.335 105.644 52.0227 101.049C44.9356 99.6541 43.1613 99.6438 39.1614 99.6438Z" fill="url(#paint6_linear_1352_8259)"/>
<path d="M58.4124 124.526C57.9919 124.526 57.5919 124.269 57.4483 123.849C57.2535 123.315 57.5304 122.731 58.074 122.536C60.0021 121.849 64.4841 120.628 69.1096 120.392C70.7711 120.31 72.0839 120.423 73.1506 120.515C71.3147 118.967 69.4481 117.91 67.5712 117.367C59.9201 115.141 53.7458 114.998 52.3715 115.192C51.7869 115.285 51.2946 114.885 51.2126 114.321C51.1305 113.757 51.5203 113.244 52.0843 113.162C53.8382 112.905 60.3303 113.121 68.1558 115.398C70.7814 116.167 73.3762 117.777 75.8479 120.187C76.2787 120.608 76.412 121.233 76.1761 121.777C75.9402 122.341 75.3967 122.69 74.7608 122.679C74.2377 122.669 73.6941 122.618 73.0993 122.567C72.0224 122.474 70.8019 122.362 69.2122 122.444C64.8225 122.659 60.4534 123.859 58.7611 124.464C58.6483 124.505 58.5355 124.526 58.4124 124.526Z" fill="#231815"/>
<path d="M127.119 125.038C127.006 125.038 126.883 125.018 126.77 124.977C125.078 124.372 120.709 123.172 116.319 122.956C114.729 122.874 113.509 122.987 112.432 123.079C111.837 123.131 111.293 123.182 110.77 123.192C110.135 123.192 109.591 122.854 109.355 122.29C109.129 121.746 109.253 121.12 109.683 120.7C112.165 118.29 114.75 116.679 117.375 115.91C125.201 113.633 131.683 113.418 133.447 113.674C134.011 113.756 134.39 114.279 134.319 114.833C134.247 115.387 133.714 115.787 133.16 115.705C131.775 115.51 125.611 115.654 117.96 117.879C116.093 118.423 114.217 119.479 112.381 121.028C113.447 120.936 114.76 120.833 116.422 120.905C121.037 121.131 125.529 122.361 127.457 123.049C127.991 123.243 128.267 123.828 128.083 124.361C127.929 124.782 127.539 125.038 127.119 125.038Z" fill="#231815"/>
<path d="M85.9709 146.125C79.0172 146.125 72.6789 143.499 69.2738 141.786C68.7713 141.53 68.5662 140.915 68.8226 140.412C69.079 139.909 69.6943 139.704 70.1969 139.961C73.8994 141.827 81.2633 144.833 88.8632 143.909C91.3349 143.612 92.6579 142.72 94.1861 141.684L95.0476 141.099L95.6117 141.438C96.1758 141.786 101.294 144.75 106.811 142.248C111.386 140.176 114.852 137.284 115.734 136.279C116.114 135.848 116.76 135.807 117.181 136.186C117.611 136.556 117.652 137.212 117.273 137.633C116.257 138.781 112.575 141.889 107.663 144.115C102.094 146.638 96.904 144.443 95.1297 143.52C93.5913 144.556 91.9503 145.602 89.1093 145.94C88.0529 146.063 87.0068 146.125 85.9709 146.125Z" fill="#823737"/>
<path d="M96.5961 152.361C92.5654 152.361 88.8219 149.992 87.0476 146.218C86.8117 145.705 87.0271 145.1 87.5399 144.854C88.0527 144.608 88.6578 144.833 88.904 145.346C90.4526 148.649 93.8885 150.638 97.4268 150.259C100.647 149.931 103.427 147.695 104.524 144.567C104.709 144.033 105.293 143.746 105.827 143.941C106.36 144.126 106.637 144.71 106.452 145.244C105.098 149.12 101.632 151.89 97.6217 152.3C97.273 152.331 96.9243 152.351 96.5756 152.351L96.5961 152.361Z" fill="#823737"/>
<path d="M108.504 138.771C105.817 136.791 97.6322 130.771 96.4938 120.905L96.4322 120.412C96.2784 119.192 96.104 117.807 96.5963 116.074C96.6476 115.9 96.6989 115.705 96.7502 115.5C98.7706 107.859 104.391 99.3768 130.811 94.3615C149.405 90.8333 160.995 91.7358 167.262 97.2024C175.046 103.982 178.246 116.73 163.897 132.135C155.457 141.191 142.965 145.304 131.293 145.304C122.565 145.304 114.288 143.007 108.504 138.75V138.771ZM132.596 103.069C108.34 107.664 106.401 113.776 105.601 116.782C105.571 116.884 105.509 117.182 105.427 117.52C105.222 118.402 105.181 119.305 105.294 120.197L105.612 122.289C107.027 128.576 111.745 130.781 114.063 132.207C124.77 138.791 148.677 139.971 157.026 126.238C163.764 115.161 160.605 108.207 158.605 105.725C157.128 103.889 152.944 101.664 145.97 101.664C141.816 101.664 139.97 101.664 132.585 103.069H132.596Z" fill="url(#paint7_linear_1352_8259)"/>
<path d="M86.2397 133.369C86.3009 135.912 88.5031 138.06 90.9195 138.309C94.223 138.652 97.1084 135.341 96.8127 132.84C96.4559 129.758 91.2356 127.465 88.3094 129.312C87.0044 130.132 86.1887 131.771 86.2295 133.369H86.2397Z" fill="url(#paint8_radial_1352_8259)"/>
<defs>
<linearGradient id="paint0_linear_1352_8259" x1="117.879" y1="112.718" x2="179.619" y2="171.566" gradientUnits="userSpaceOnUse">
<stop stop-color="white"/>
<stop offset="1" stop-color="#FF6C6A"/>
</linearGradient>
<linearGradient id="paint1_linear_1352_8259" x1="5.52494" y1="88.1254" x2="144.923" y2="231.14" gradientUnits="userSpaceOnUse">
<stop stop-color="white"/>
<stop offset="1" stop-color="#FF6C6A"/>
</linearGradient>
<linearGradient id="paint2_linear_1352_8259" x1="136.752" y1="162.836" x2="103.892" y2="230.714" gradientUnits="userSpaceOnUse">
<stop stop-color="#232F9B"/>
<stop offset="1" stop-color="#0C1035"/>
</linearGradient>
<linearGradient id="paint3_linear_1352_8259" x1="-2.3532" y1="109.601" x2="59.3866" y2="168.449" gradientUnits="userSpaceOnUse">
<stop stop-color="white"/>
<stop offset="1" stop-color="#FF6C6A"/>
</linearGradient>
<linearGradient id="paint4_linear_1352_8259" x1="76.7833" y1="160.926" x2="44.8624" y2="228.05" gradientUnits="userSpaceOnUse">
<stop stop-color="#232F9B"/>
<stop offset="1" stop-color="#0C1035"/>
</linearGradient>
<linearGradient id="paint5_linear_1352_8259" x1="-71.6077" y1="-105.443" x2="127.155" y2="162.818" gradientUnits="userSpaceOnUse">
<stop stop-color="white"/>
<stop offset="1" stop-color="#FF6C6A"/>
</linearGradient>
<linearGradient id="paint6_linear_1352_8259" x1="-14.3018" y1="51.974" x2="53.6324" y2="140.24" gradientUnits="userSpaceOnUse">
<stop stop-color="#AA3C2D"/>
<stop offset="1" stop-color="#441812"/>
</linearGradient>
<linearGradient id="paint7_linear_1352_8259" x1="68.5449" y1="53.9986" x2="135.709" y2="144.836" gradientUnits="userSpaceOnUse">
<stop stop-color="#AA3C2D"/>
<stop offset="1" stop-color="#441812"/>
</linearGradient>
<radialGradient id="paint8_radial_1352_8259" cx="0" cy="0" r="1" gradientUnits="userSpaceOnUse" gradientTransform="translate(89.9276 131.384) rotate(77.0103) scale(7.13264 7.83215)">
<stop stop-color="#895E52"/>
<stop offset="1" stop-color="#231815"/>
</radialGradient>
</defs>
</svg>
