<svg width="177" height="279" viewBox="0 0 177 279" fill="none" xmlns="http://www.w3.org/2000/svg">
<ellipse cx="85.5" cy="268" rx="50.5" ry="11" fill="#5C5C5C"/>
<g clip-path="url(#clip0_1352_8260)">
<path d="M56.2337 164.688C43.9023 167.89 30.2306 170.877 23.7144 180.063C13.9504 193.831 22.0957 211.801 31.0658 219.34C32.5608 220.586 38.51 225.591 42.9847 223.675C48.6967 221.224 52.0373 216.209 47.7172 209.67C44.191 204.325 44.4694 205.53 40.603 200.659C38.7574 198.332 39.7678 194.501 42.9744 192.74C44.521 191.895 51.2022 190.196 51.7177 190.762" fill="#FF6C6A"/>
<path d="M56.2337 164.688C43.9023 167.89 30.2306 170.877 23.7144 180.063C13.9504 193.831 22.0957 211.801 31.0658 219.34C32.5608 220.586 38.51 225.591 42.9847 223.675C48.6967 221.224 52.0373 216.209 47.7172 209.67C44.191 204.325 44.4694 205.53 40.603 200.659C38.7574 198.332 39.7678 194.501 42.9744 192.74C44.521 191.895 51.2022 190.196 51.7177 190.762" fill="url(#paint0_linear_1352_8260)"/>
<path d="M114.962 164.688C127.293 167.89 140.965 170.877 147.481 180.063C157.245 193.831 149.1 211.801 140.13 219.34C138.635 220.586 132.686 225.591 128.211 223.675C122.499 221.224 119.158 216.209 123.478 209.67C127.005 204.325 126.726 205.53 130.593 200.659C132.438 198.332 131.428 194.501 128.221 192.74C126.675 191.895 119.993 190.196 119.478 190.762" fill="#FF6C6A"/>
<path d="M114.962 164.688C127.293 167.89 140.965 170.877 147.481 180.063C157.245 193.831 149.1 211.801 140.13 219.34C138.635 220.586 132.686 225.591 128.211 223.675C122.499 221.224 119.158 216.209 123.478 209.67C127.005 204.325 126.726 205.53 130.593 200.659C132.438 198.332 131.428 194.501 128.221 192.74C126.675 191.895 119.993 190.196 119.478 190.762" fill="url(#paint1_linear_1352_8260)"/>
<path d="M44.4795 224.19C44.3558 224.19 44.232 224.169 44.1083 224.118C43.5412 223.902 43.0051 223.634 42.4999 223.315C39.747 221.616 38.5716 218.989 38.0561 217.095C37.9117 216.549 38.2313 215.982 38.7881 215.838C39.3346 215.694 39.9016 216.013 40.046 216.569C40.4584 218.114 41.407 220.236 43.5825 221.574C43.9846 221.821 44.4073 222.027 44.8507 222.203C45.3868 222.408 45.6446 223.006 45.4384 223.531C45.2837 223.943 44.8919 224.19 44.4795 224.19Z" fill="#823737"/>
<path d="M48.1812 223.552C48.0574 223.552 47.9337 223.532 47.81 223.48C47.2429 223.264 46.6965 222.996 46.2016 222.677C43.459 220.978 42.2733 218.352 41.7577 216.457C41.6134 215.911 41.933 215.345 42.4898 215.201C43.0362 215.056 43.6033 215.376 43.7477 215.932C44.1601 217.476 45.1086 219.598 47.2842 220.937C47.6759 221.184 48.109 221.39 48.5523 221.565C49.0782 221.771 49.3462 222.368 49.14 222.893C48.9854 223.305 48.5936 223.552 48.1812 223.552Z" fill="#823737"/>
<path d="M123.726 223.562C123.314 223.562 122.922 223.315 122.767 222.903C122.561 222.378 122.819 221.781 123.355 221.575C123.798 221.4 124.231 221.184 124.623 220.947C126.788 219.608 127.737 217.487 128.16 215.942C128.304 215.396 128.871 215.066 129.417 215.211C129.964 215.355 130.294 215.921 130.15 216.467C129.634 218.372 128.459 220.998 125.706 222.687C125.2 222.996 124.664 223.264 124.097 223.49C123.974 223.542 123.85 223.562 123.726 223.562Z" fill="#823737"/>
<path d="M120.025 222.924C119.612 222.924 119.22 222.677 119.066 222.265C118.86 221.729 119.128 221.142 119.653 220.936C120.097 220.761 120.52 220.555 120.922 220.308C123.087 218.969 124.035 216.848 124.458 215.303C124.602 214.757 125.17 214.428 125.716 214.572C126.262 214.716 126.592 215.283 126.448 215.828C125.933 217.733 124.757 220.36 122.004 222.048C121.499 222.357 120.953 222.635 120.396 222.852C120.272 222.903 120.148 222.924 120.025 222.924Z" fill="#823737"/>
<path fill-rule="evenodd" clip-rule="evenodd" d="M91.5801 253.77C89.9759 253.959 88.3125 254.055 86.5877 254.055C83.9641 254.055 81.4714 253.834 79.1048 253.405C79.3351 254.356 79.5581 255.312 79.7724 256.269C80.5045 259.513 81.618 264.971 78.1125 266.68C77.3185 267.071 76.5143 267.154 76.0297 267.195L76.0161 267.196C69.8704 267.743 53.272 269.22 49.872 263.807C49.14 262.633 48.7482 260.707 48.9235 258.967C49.0704 257.538 49.5711 256.5 49.7002 256.232L49.7174 256.197C50.6763 254.168 49.8514 245.713 44.3869 222.408L48.5271 223.925C46.8775 219.567 45.4979 214.813 44.3662 209.711C35.9632 171.783 63.2138 159.724 86.4536 159.724C109.693 159.724 136.367 177.941 128.541 209.711H128.551C127.374 214.491 126.026 218.972 124.473 223.109L126.386 222.408C120.922 245.713 120.097 254.168 121.056 256.197C121.06 256.206 121.066 256.218 121.073 256.232C121.202 256.5 121.703 257.538 121.849 258.967C122.025 260.707 121.633 262.633 120.901 263.807C117.501 269.22 100.903 267.743 94.7569 267.196L94.7432 267.195C94.2586 267.154 93.4544 267.071 92.6605 266.68C89.1549 264.971 90.2685 259.513 91.0005 256.269C91.1875 255.434 91.381 254.601 91.5801 253.77Z" fill="url(#paint2_linear_1352_8260)"/>
<path d="M84.7319 236.126C78.494 236.126 73.4419 234.2 70.5653 232.769C70.0601 232.511 69.8435 231.893 70.1013 231.389C70.3591 230.884 70.9674 230.668 71.4829 230.925C75.1947 232.758 82.7523 235.487 91.7327 233.181C105.569 229.617 111.116 216.652 111.704 215.19C111.921 214.664 112.519 214.407 113.044 214.613C113.57 214.829 113.828 215.427 113.622 215.952C112.601 218.506 106.765 231.44 92.2482 235.178C89.6087 235.858 87.093 236.136 84.7422 236.136L84.7319 236.126Z" fill="#823737"/>
<path d="M93.1348 185.82L96.6197 171.546C96.9806 170.064 95.5371 168.684 93.6194 168.684H76.7308C74.844 168.684 73.4108 170.022 73.7202 171.495L76.7514 185.768C76.9267 186.571 77.5969 187.22 78.4939 187.55C76.5143 197.848 74.1326 216.992 72.751 227.898C76.3184 234.211 79.8549 239.71 83.742 245.106C87.2269 240.441 92.5883 232.151 96.3517 226.724C95.0835 217.105 92.4852 198.373 91.0521 187.653C92.0934 187.385 92.908 186.705 93.1245 185.82H93.1348Z" fill="#2DDDC3"/>
<mask id="mask0_1352_8260" style="mask-type:luminance" maskUnits="userSpaceOnUse" x="72" y="168" width="25" height="78">
<path d="M93.1348 185.82L96.6197 171.546C96.9806 170.064 95.5371 168.684 93.6194 168.684H76.7308C74.844 168.684 73.4108 170.022 73.7202 171.495L76.7514 185.768C76.9267 186.571 77.5969 187.22 78.4939 187.55C76.5143 197.848 74.1326 216.992 72.751 227.898C76.3184 234.211 79.8549 239.71 83.742 245.106C87.2269 240.441 92.5883 232.151 96.3517 226.724C95.0835 217.105 92.4852 198.373 91.0521 187.653C92.0934 187.385 92.908 186.705 93.1245 185.82H93.1348Z" fill="white"/>
</mask>
<g mask="url(#mask0_1352_8260)">
<mask id="mask1_1352_8260" style="mask-type:luminance" maskUnits="userSpaceOnUse" x="70" y="168" width="32" height="83">
<path d="M92.104 177.252C88.9696 170.023 87.1137 168.426 85.4125 168.365C78.5148 168.087 70.8541 192.555 70.3076 214.037C70.1839 219.031 69.4828 246.785 80.6696 250.441C84.8145 251.8 89.0211 249.329 90.1553 248.659C106.9 238.824 102.188 200.474 92.104 177.252Z" fill="white"/>
</mask>
<g mask="url(#mask1_1352_8260)">
<path d="M76.2877 177.025C76.0712 179.899 75.1948 181.021 74.3493 181.484C73.2358 182.092 72.3285 181.474 71.3387 182.257C70.2664 183.112 70.0911 184.831 70.3695 186.036C70.7097 187.55 71.782 188.405 72.112 188.652" stroke="white" stroke-width="2" stroke-miterlimit="10" stroke-linecap="round"/>
<path d="M83.2783 179.158C83.2783 177.86 83.7011 176.48 84.7527 175.636C85.5466 174.997 86.3405 174.966 86.9282 174.946C87.3303 174.935 87.619 174.925 87.918 174.76C88.8975 174.225 89.2172 172.495 89.3203 171.125C89.3615 170.559 89.8564 170.136 90.4235 170.178C90.9906 170.219 91.4236 170.723 91.3721 171.279C91.1658 174.039 90.3513 175.769 88.8975 176.562C88.1655 176.954 87.5159 176.985 87.0004 177.005C86.5055 177.026 86.2993 177.036 86.0415 177.242C85.3713 177.778 85.227 179.065 85.4332 179.992C85.6704 181.052 86.3818 181.711 86.7839 182.01C87.2375 182.35 87.3406 182.988 87.0004 183.452C86.6602 183.905 86.0106 184.008 85.5569 183.668C84.928 183.194 83.8042 182.154 83.4227 180.455C83.3299 180.053 83.2783 179.611 83.2783 179.168V179.158Z" fill="white"/>
<path d="M69.421 199.383C69.421 198.086 69.8437 196.706 70.8954 195.861C71.6893 195.223 72.4832 195.192 73.0709 195.171C73.473 195.161 73.7617 195.151 74.0607 194.986C75.0299 194.45 75.3598 192.72 75.4629 191.351C75.5041 190.784 75.999 190.362 76.5661 190.403C77.1332 190.444 77.5559 190.928 77.5147 191.505C77.3085 194.265 76.4939 195.995 75.0402 196.788C74.3081 197.179 73.6586 197.21 73.143 197.231C72.6481 197.251 72.4419 197.262 72.1842 197.468C71.514 198.003 71.3696 199.29 71.5758 200.217C71.8233 201.319 72.6069 201.989 72.9265 202.236C73.3802 202.576 73.4833 203.214 73.143 203.677C72.8028 204.131 72.1532 204.234 71.6996 203.894C71.0706 203.43 69.9468 202.39 69.555 200.681C69.4622 200.279 69.4106 199.836 69.4106 199.393L69.421 199.383Z" fill="white"/>
<path d="M78.587 208.981C78.587 207.683 79.0097 206.303 80.0614 205.459C80.8553 204.82 81.6492 204.789 82.2369 204.769C82.639 204.759 82.9174 204.748 83.2267 204.583C84.2062 204.048 84.5258 202.318 84.6289 200.948C84.6702 200.382 85.1651 199.96 85.7321 200.001C86.2992 200.042 86.7323 200.547 86.6807 201.103C86.4745 203.863 85.66 205.593 84.2062 206.386C83.4741 206.777 82.8246 206.808 82.3091 206.828C81.8142 206.849 81.6079 206.859 81.3502 207.065C80.6697 207.611 80.5356 208.888 80.7419 209.815C80.979 210.876 81.6904 211.535 82.0925 211.833C82.5462 212.173 82.6493 212.812 82.3091 213.275C81.9688 213.728 81.3192 213.831 80.8656 213.491C80.2263 213.028 79.1128 211.988 78.721 210.268C78.6282 209.866 78.5767 209.424 78.5767 208.97L78.587 208.981Z" fill="white"/>
<path d="M74.7545 195.155C74.7545 193.857 75.1772 192.477 76.2289 191.633C77.0228 190.994 77.8167 190.963 78.4044 190.943C78.8065 190.932 79.0849 190.922 79.3942 190.757C80.3737 190.222 80.6933 188.492 80.7964 187.122C80.8376 186.556 81.3325 186.133 81.8996 186.175C82.4667 186.216 82.8997 186.72 82.8482 187.277C82.642 190.036 81.8274 191.767 80.3737 192.559C79.6416 192.951 78.9921 192.982 78.4765 193.002C77.9816 193.023 77.7754 193.033 77.5177 193.239C76.8372 193.785 76.7031 195.062 76.9093 195.989C77.1465 197.049 77.8579 197.709 78.26 198.007C78.7137 198.347 78.8168 198.986 78.4765 199.449C78.1363 199.902 77.4867 200.005 77.0331 199.665C76.3938 199.202 75.2803 198.162 74.8885 196.442C74.7957 196.04 74.7441 195.597 74.7441 195.144L74.7545 195.155Z" fill="white"/>
<path d="M88.9693 195.614C88.9693 194.316 89.392 192.936 90.4437 192.092C91.2376 191.453 92.0315 191.422 92.6192 191.402C93.0213 191.391 93.2997 191.381 93.609 191.216C94.5885 190.681 94.9081 188.951 95.0112 187.581C95.0525 187.015 95.5474 186.592 96.1145 186.634C96.6815 186.675 97.1146 187.179 97.063 187.736C96.8568 190.495 96.0423 192.226 94.5885 193.018C93.8565 193.41 93.2069 193.441 92.6914 193.461C92.1965 193.482 91.9903 193.492 91.7325 193.698C91.052 194.244 90.918 195.521 91.1242 196.448C91.3613 197.508 92.0728 198.168 92.4749 198.466C92.9285 198.806 93.0316 199.445 92.6914 199.908C92.3511 200.361 91.7016 200.464 91.2479 200.124C90.6087 199.661 89.4951 198.621 89.1033 196.901C89.0105 196.499 88.959 196.056 88.959 195.603L88.9693 195.614Z" fill="white"/>
<path d="M96.6095 187.468C96.393 190.341 95.5166 191.463 94.6711 191.927C93.5576 192.534 92.6503 191.917 91.6605 192.699C90.5882 193.554 90.4129 195.274 90.6913 196.479C91.0315 197.992 92.1038 198.847 92.4338 199.094" stroke="white" stroke-width="2" stroke-miterlimit="10" stroke-linecap="round"/>
<path d="M81.7111 187.396C81.4945 190.27 80.6181 191.392 79.7727 191.856C78.6592 192.463 77.7518 191.845 76.762 192.628C75.6897 193.483 75.5145 195.202 75.7928 196.407C76.1331 197.921 77.2054 198.776 77.5353 199.023" stroke="white" stroke-width="2" stroke-miterlimit="10" stroke-linecap="round"/>
<path d="M70.1943 226.838C70.1943 225.541 70.6171 224.161 71.6687 223.316C72.4626 222.678 73.2565 222.647 73.8442 222.626C74.2464 222.616 74.535 222.606 74.8341 222.441C75.8135 221.916 76.1332 220.175 76.2363 218.806C76.2775 218.239 76.7724 217.817 77.3395 217.858C77.9066 217.899 78.3396 218.404 78.2881 218.96C78.0819 221.72 77.2673 223.45 75.8135 224.243C75.0815 224.634 74.4423 224.665 73.9164 224.686C73.4215 224.706 73.2153 224.717 72.9575 224.923C72.2771 225.458 72.143 226.746 72.3492 227.672C72.5864 228.733 73.2978 229.392 73.6999 229.691C74.1536 230.031 74.2464 230.679 73.9164 231.133C73.5762 231.586 72.9266 231.689 72.473 231.349C71.844 230.875 70.7202 229.835 70.3387 228.136C70.2459 227.734 70.1943 227.291 70.1943 226.838Z" fill="white"/>
<path d="M81.6802 231.4C81.6802 230.102 82.103 228.722 83.1546 227.878C83.9485 227.239 84.7424 227.208 85.3301 227.188C85.7323 227.178 86.0209 227.167 86.32 227.002C87.2891 226.467 87.6191 224.737 87.7222 223.367C87.7634 222.801 88.2583 222.379 88.8254 222.42C89.3925 222.461 89.8152 222.966 89.774 223.522C89.5677 226.282 88.7532 228.012 87.2994 228.805C86.5674 229.196 85.9178 229.227 85.4023 229.247C84.9074 229.268 84.7012 229.278 84.4434 229.484C83.7733 230.02 83.6289 231.297 83.8351 232.234C84.0826 233.336 84.8662 234.005 85.1858 234.252C85.6395 234.592 85.7426 235.231 85.4023 235.694C85.0621 236.147 84.4125 236.25 83.9588 235.91C83.3299 235.447 82.2061 234.407 81.8143 232.697C81.7215 232.296 81.6699 231.853 81.6699 231.41L81.6802 231.4Z" fill="white"/>
<path d="M90.3716 214.892C90.3716 213.594 90.7944 212.214 91.846 211.37C92.6399 210.731 93.4339 210.701 94.0216 210.68C94.4237 210.67 94.7124 210.659 95.0114 210.495C95.9805 209.959 96.3105 208.229 96.4136 206.859C96.4548 206.293 96.9497 205.871 97.5168 205.912C98.0839 205.953 98.5066 206.458 98.4654 207.014C98.2592 209.774 97.4446 211.504 95.9908 212.297C95.2588 212.688 94.6092 212.719 94.0937 212.74C93.5988 212.76 93.3926 212.771 93.1348 212.976C92.4647 213.512 92.3203 214.789 92.5265 215.726C92.774 216.828 93.5576 217.497 93.8772 217.745C94.3309 218.084 94.434 218.723 94.0937 219.186C93.7535 219.639 93.1039 219.742 92.6503 219.403C92.0213 218.939 90.8975 217.899 90.5057 216.189C90.4129 215.788 90.3613 215.345 90.3613 214.902L90.3716 214.892Z" fill="white"/>
<path d="M80.1026 251.976C80.1026 250.678 80.5253 249.298 81.577 248.454C82.3709 247.815 83.1648 247.785 83.7525 247.764C84.1546 247.754 84.433 247.743 84.7423 247.579C85.7115 247.043 86.0414 245.313 86.1445 243.943C86.1858 243.377 86.6807 242.955 87.2478 242.996C87.8148 243.037 88.2376 243.542 88.1963 244.098C87.9901 246.858 87.1756 248.588 85.7218 249.381C84.9898 249.772 84.3402 249.803 83.8247 249.824C83.3298 249.844 83.1236 249.854 82.8658 250.06C82.1853 250.596 82.0513 251.883 82.2575 252.81C82.5049 253.912 83.2885 254.581 83.6082 254.828C84.0618 255.168 84.1649 255.807 83.8247 256.27C83.4844 256.734 82.8349 256.826 82.3812 256.486C81.7523 256.023 80.6284 254.983 80.2366 253.273C80.1438 252.872 80.0923 252.429 80.0923 251.986L80.1026 251.976Z" fill="white"/>
</g>
</g>
<path d="M119.952 162.062L114.168 179.28L112.25 185.449C110.528 190.989 103.445 192.596 99.5065 188.332L95.8875 183.276L84.7109 168.704" fill="white"/>
<path d="M51.7178 162.515L57.1205 179.28L59.0382 185.449C60.7601 190.989 67.8434 192.596 71.782 188.332L75.236 183.276L84.7216 168.704" fill="white"/>
<path d="M167.009 2.37864C157.256 -2.07015 142.347 11.0806 131.655 20.524C111.116 38.6487 101.631 60.0379 97.1867 73.096C93.609 72.6119 89.9694 72.3442 86.2988 72.3442C82.6283 72.3442 79.2877 72.5913 75.8543 73.0342C71.9982 59.5333 63.956 39.4313 46.387 21.3787C36.4477 11.1424 22.5801 -3.09996 12.517 0.597067C-3.01054 6.30223 -3.38171 52.4276 7.48553 87.0396C12.3005 102.363 19.2292 113.568 24.2504 121.312L24.3741 121.518C28.8385 150.033 50.5627 170.455 85.2575 170.702C118.89 170.939 144.337 149.652 148.378 120.715C148.43 120.375 148.44 120.045 148.481 119.705C153.771 112.414 160.215 102.116 165.483 88.9448C178.949 55.2596 182.073 9.2372 167.02 2.37864H167.009Z" fill="#FF6C6A"/>
<path d="M167.009 2.37864C157.256 -2.07015 142.347 11.0806 131.655 20.524C111.116 38.6487 101.631 60.0379 97.1867 73.096C93.609 72.6119 89.9694 72.3442 86.2988 72.3442C82.6283 72.3442 79.2877 72.5913 75.8543 73.0342C71.9982 59.5333 63.956 39.4313 46.387 21.3787C36.4477 11.1424 22.5801 -3.09996 12.517 0.597067C-3.01054 6.30223 -3.38171 52.4276 7.48553 87.0396C12.3005 102.363 19.2292 113.568 24.2504 121.312L24.3741 121.518C28.8385 150.033 50.5627 170.455 85.2575 170.702C118.89 170.939 144.337 149.652 148.378 120.715C148.43 120.375 148.44 120.045 148.481 119.705C153.771 112.414 160.215 102.116 165.483 88.9448C178.949 55.2596 182.073 9.2372 167.02 2.37864H167.009Z" fill="url(#paint3_linear_1352_8260)"/>
<path d="M156.194 40.4818C152.626 38.5251 144.45 40.2758 114.787 77.9464C114.612 78.1729 114.54 78.4407 114.57 78.7084C114.57 78.729 114.57 78.7393 114.57 78.7599C114.591 79.038 115.117 85.6803 120.726 88.5432C122.355 89.3773 124.139 89.7584 125.912 89.7584C129.727 89.7584 133.439 87.9356 135.181 84.7637C137.728 80.1502 135.841 73.7756 134.016 67.6071L133.707 66.5566C133.542 66.0108 132.975 65.7019 132.428 65.8564C131.882 66.0211 131.572 66.5875 131.727 67.1333L132.036 68.194C133.738 73.9507 135.501 79.9133 133.377 83.7751C131.129 87.8635 125.396 88.605 121.664 86.6998C117.622 84.6402 116.808 80.109 116.663 78.9041C144.316 43.839 152.688 40.904 155.204 42.2839C156.338 42.9018 157.967 45.5278 156.101 56.0834C155.998 56.6395 156.379 57.175 156.936 57.278C157.493 57.381 158.029 57 158.132 56.4439C159.772 47.1755 159.163 42.0986 156.204 40.4818H156.194Z" fill="#823737"/>
<path d="M51.305 75.3103C51.305 75.2382 51.2946 75.1764 51.274 75.1043C51.2534 75.0322 51.2328 74.9704 51.2122 74.9087C51.2018 74.8778 51.2018 74.8469 51.1812 74.816C27.364 33.2218 19.5384 30.2971 15.7235 31.708C12.5582 32.882 11.2075 37.8045 11.4756 47.217C11.4962 47.7834 11.9498 48.2262 12.5375 48.2159C13.1046 48.1953 13.5583 47.7216 13.5377 47.1552C13.2387 36.4348 15.2286 34.0765 16.4452 33.6337C19.1466 32.6348 27.0031 36.7644 49.2429 75.5574C49.0985 76.7623 48.284 81.2935 44.2423 83.3428C40.5099 85.2377 34.7876 84.5065 32.5296 80.4182C30.4056 76.5564 32.1687 70.5937 33.8699 64.8371L34.1792 63.7867C34.3442 63.2409 34.0246 62.6745 33.4781 62.5097C32.9317 62.3449 32.3543 62.6642 32.1996 63.21L31.8903 64.2501C30.0654 70.4187 28.1785 76.7932 30.7149 81.4171C32.4574 84.5786 36.1692 86.4117 39.984 86.4117C41.7471 86.4117 43.5412 86.0203 45.1702 85.1862C50.7791 82.3336 51.305 75.6913 51.3256 75.403C51.3256 75.3721 51.3153 75.3412 51.3153 75.3103H51.305Z" fill="#823737"/>
<path d="M96.888 155.388C96.2591 155.388 95.6404 155.357 95.0012 155.295C92.073 154.986 89.2067 154.111 86.495 152.69C84.0721 153.627 81.5666 154.235 79.0302 154.523C71.4108 155.367 65.0699 153.102 61.0797 151.052C60.5745 150.795 60.3786 150.167 60.6363 149.662C60.8941 149.158 61.523 148.962 62.0283 149.219C65.7607 151.145 71.6995 153.277 78.8034 152.474C81.3089 152.196 83.7937 151.567 86.1754 150.599L86.6291 150.414L87.0621 150.651C89.6707 152.082 92.4132 152.958 95.2177 153.246C106.899 154.471 117.457 142.423 117.911 140.517C118.035 139.961 118.592 139.621 119.148 139.745C119.705 139.879 120.045 140.425 119.922 140.981C119.21 144.008 108.776 155.388 96.8983 155.388H96.888Z" fill="#823737"/>
<path d="M69.5959 132.424C69.369 132.424 69.1525 132.352 68.9566 132.208C67.9153 131.394 66.812 130.642 65.6882 129.963C60.3886 126.791 54.2126 125.205 47.4593 125.267C46.8922 125.267 46.4282 124.814 46.4282 124.247C46.4282 123.681 46.8819 123.217 47.449 123.207C47.5521 123.207 47.6552 123.207 47.7583 123.207C54.821 123.207 61.2134 124.886 66.7502 128.202C67.9565 128.922 69.1216 129.726 70.2351 130.591C70.6785 130.941 70.761 131.59 70.4104 132.033C70.2042 132.29 69.9052 132.424 69.5959 132.424Z" fill="#231815"/>
<path d="M99.8366 132.733C99.5273 132.733 99.2283 132.599 99.0221 132.342C98.6715 131.899 98.754 131.25 99.1974 130.9C100.301 130.035 101.476 129.232 102.682 128.511C108.302 125.153 114.776 123.485 121.984 123.516C122.551 123.516 123.015 123.99 123.004 124.556C123.004 125.123 122.54 125.576 121.973 125.576C121.901 125.576 121.767 125.576 121.674 125.576C114.993 125.576 108.951 127.162 103.734 130.272C102.6 130.951 101.507 131.703 100.466 132.517C100.28 132.661 100.053 132.733 99.8263 132.733H99.8366Z" fill="#231815"/>
<path d="M86.474 156.47C80.9579 156.47 75.4624 155.729 70.1319 154.246C69.5854 154.091 69.2658 153.525 69.4101 152.979C69.5648 152.433 70.1319 152.114 70.6783 152.258C75.947 153.721 81.3806 154.462 86.8451 154.4C92.4437 154.359 97.7124 153.587 100.775 152.866C101.321 152.742 101.888 153.082 102.012 153.628C102.146 154.184 101.795 154.74 101.249 154.864C97.2072 155.811 91.6911 156.429 86.8554 156.46C86.7214 156.46 86.5977 156.46 86.4637 156.46L86.474 156.47Z" fill="#823737"/>
<path d="M81.1747 142.716C81.2355 145.245 83.4256 147.381 85.8285 147.629C89.1136 147.969 91.983 144.677 91.6889 142.19C91.3341 139.125 86.1428 136.844 83.2329 138.681C81.9351 139.496 81.124 141.127 81.1645 142.716H81.1747Z" fill="url(#paint4_radial_1352_8260)"/>
</g>
<defs>
<linearGradient id="paint0_linear_1352_8260" x1="4.98015" y1="127.639" x2="75.4913" y2="181.736" gradientUnits="userSpaceOnUse">
<stop stop-color="white"/>
<stop offset="1" stop-color="#FF6C6A"/>
</linearGradient>
<linearGradient id="paint1_linear_1352_8260" x1="100.659" y1="127.639" x2="171.171" y2="181.736" gradientUnits="userSpaceOnUse">
<stop stop-color="white"/>
<stop offset="1" stop-color="#FF6C6A"/>
</linearGradient>
<linearGradient id="paint2_linear_1352_8260" x1="9.08521" y1="92.3375" x2="141.861" y2="224.394" gradientUnits="userSpaceOnUse">
<stop stop-color="white"/>
<stop offset="1" stop-color="#FF6C6A"/>
</linearGradient>
<linearGradient id="paint3_linear_1352_8260" x1="-68.5191" y1="-106.437" x2="134.996" y2="153.934" gradientUnits="userSpaceOnUse">
<stop stop-color="white"/>
<stop offset="1" stop-color="#FF6C6A"/>
</linearGradient>
<radialGradient id="paint4_radial_1352_8260" cx="0" cy="0" r="1" gradientUnits="userSpaceOnUse" gradientTransform="translate(84.8421 140.741) rotate(77.0103) scale(7.09299 7.78862)">
<stop stop-color="#895E52"/>
<stop offset="1" stop-color="#231815"/>
</radialGradient>
<clipPath id="clip0_1352_8260">
<rect width="177" height="267.793" fill="white"/>
</clipPath>
</defs>
</svg>
