<svg width="162" height="33" viewBox="0 0 162 33" fill="none" xmlns="http://www.w3.org/2000/svg">
<g id="Group 315">
<g id="Group">
<path id="Vector" d="M69.7962 19.7916C69.4463 16.8648 68.8659 18.9766 68.4007 19.9851C67.8738 21.1295 67.2893 21.9898 66.5812 22.8914C65.3627 24.4392 65.5686 24.0975 64.1772 25.4189C63.3539 26.2052 62.3618 26.8268 61.2792 27.1849C60.1101 27.5718 58.8833 27.5307 57.669 27.543C56.3146 27.5554 54.9397 27.0737 53.8365 26.2751C53.1573 25.7853 53.1696 25.5136 52.9844 25.3201C50.6009 25.2625 48.9173 24.6944 47.2295 24.1016C47.2295 24.1222 47.2295 24.1428 47.2295 24.1634C47.9705 28.7121 51.7659 31.6925 56.0018 32.3594C60.7646 33.1044 66.61 31.1532 68.9647 26.7115C70.0844 24.5956 70.1338 22.6403 69.7962 19.7916Z" fill="white"/>
<path id="Vector_2" d="M66.6304 15.6013C65.6301 12.5757 62.2216 9.68589 55.8699 11.102C52.1938 11.6865 49.6457 14.0535 48.4025 16.9351C47.7109 18.5405 47.394 19.9278 47.5339 21.632C48.9665 22.8711 51.1647 23.7314 53.4987 24.0731C54.2438 24.1801 55.0507 24.2172 55.8246 24.2172C56.7714 24.2172 57.8746 24.0319 58.8173 23.8097C62.5757 22.9205 65.1567 21.7349 66.3546 19.5943C66.8116 18.7752 67.2273 17.4208 66.6263 15.5972L66.6304 15.6013ZM57.5041 19.4379C56.6314 19.5738 55.7587 19.5532 55.0054 19.3227C54.8819 19.2856 53.8692 18.9316 53.8939 18.804C54.1903 17.1862 55.2112 16.0089 56.8208 15.5766C58.1545 15.2185 60.184 15.0703 61.2419 16.1529C61.4519 16.367 61.6206 16.6469 61.6247 16.9474C61.633 17.4167 61.2625 17.8037 60.8838 18.0836C59.9987 18.7381 58.7555 19.2444 57.5041 19.4379Z" fill="white"/>
</g>
<g id="Group_2">
<path id="Vector_3" d="M138.451 19.4834C138.101 16.5565 137.521 18.6683 137.055 19.6769C136.529 20.8213 135.944 21.6816 135.236 22.5831C134.018 24.1309 134.223 23.7893 132.832 25.1107C132.009 25.8969 131.017 26.5185 129.934 26.8766C128.765 27.2636 127.538 27.2224 126.324 27.2348C124.969 27.2471 123.594 26.7655 122.491 25.9669C121.812 25.477 121.824 25.2053 121.639 25.0119C119.256 24.9542 117.572 24.3862 115.884 23.7934C115.884 23.814 115.884 23.8345 115.884 23.8551C116.625 28.4039 120.421 31.3842 124.657 32.0511C129.419 32.7962 135.265 30.845 137.619 26.4032C138.739 24.2874 138.789 22.332 138.451 19.4834Z" fill="white"/>
<path id="Vector_4" d="M135.285 15.2888C134.285 12.2632 130.877 9.37338 124.525 10.7895C120.849 11.374 118.301 13.741 117.058 16.6226C116.366 18.228 116.049 19.6153 116.189 21.3195C117.621 22.5586 119.82 23.4189 122.154 23.7606C122.899 23.8676 123.706 23.9047 124.48 23.9047C125.426 23.9047 126.53 23.7194 127.472 23.4971C131.231 22.608 133.812 21.4224 135.01 19.2818C135.467 18.4627 135.882 17.1083 135.281 15.2847L135.285 15.2888ZM126.159 19.1254C125.286 19.2613 124.414 19.2407 123.66 19.0101C123.537 18.9731 122.524 18.6191 122.549 18.4915C122.845 16.8737 123.866 15.6964 125.476 15.2641C126.81 14.906 128.839 14.7578 129.897 15.8404C130.107 16.0545 130.276 16.3344 130.28 16.6349C130.288 17.1042 129.918 17.4912 129.539 17.7711C128.654 18.4256 127.411 18.9319 126.159 19.1254Z" fill="white"/>
</g>
<g id="Group_3">
<path id="Vector_5" d="M19.8126 18.4659C18.1454 17.091 15.4985 17.6015 13.5184 17.7908C12.6169 17.8773 12.5264 17.9143 11.489 17.9678C11.4355 17.9678 10.7522 18.0296 10.6986 18.0296C13.6296 18.1778 16.223 20.413 16.2024 22.6853C16.1901 23.8586 15.5479 24.8836 14.9798 25.4022C13.9713 26.3202 12.5181 26.8595 11.1556 26.7978C10.1635 26.7525 9.15082 26.5508 8.26577 26.0897C7.43011 25.6534 6.57799 25.1841 5.92347 24.4966C5.61061 24.1714 5.36364 23.8009 5.19486 23.3852C5.07548 23.0929 4.96021 22.389 4.51562 22.4507C3.60176 22.5783 2.95958 22.6524 2.04572 22.78C1.19771 22.8994 1.04129 22.9118 0.25092 23.0476C-0.354208 23.1505 0.312649 24.9042 0.411445 25.2005C1.60112 28.679 4.66794 30.9184 8.09288 31.6388C8.73505 31.7746 9.38958 31.8693 10.0441 31.9269C11.7319 32.071 13.7572 31.7252 15.3585 31.1654C16.9598 30.6055 18.7011 29.4117 19.7138 28.1109C20.3272 27.3205 20.7841 26.419 21.0722 25.464C21.2822 24.7765 21.3933 24.0603 21.4016 23.3399C21.418 21.6521 21.2081 19.6227 19.8126 18.47V18.4659Z" fill="white"/>
<path id="Vector_6" d="M9.99893 17.2599C10.0483 17.2599 10.1018 17.2599 10.1512 17.2599C10.9581 17.2928 11.7526 17.1281 12.5964 16.9552C14.5394 16.5559 17.0176 15.605 18.9441 16.3213C18.5695 15.9837 17.7709 15.2222 17.2399 14.8311C16.1325 14.0202 15.6962 13.8802 14.2554 13.4274C12.8146 12.9746 11.238 12.9993 9.80544 12.7934C7.71837 12.4929 4.99737 10.7187 5.73422 7.99357C6.3517 5.70891 9.22914 4.7333 11.4397 5.14495C13.889 5.60188 15.4039 7.84127 16.4866 9.88717C16.6965 10.2824 16.7582 10.2741 17.137 10.1712C18.1043 9.90364 19.0882 9.70193 20.0638 9.46317C20.6936 9.30675 20.9324 9.36026 20.8171 8.6481C20.1585 4.55628 16.5359 1.42773 12.6623 0.559148C7.38081 -0.626409 0.36217 2.56801 0.510365 8.69339C0.559763 10.7434 1.32543 13.0569 2.98027 14.6129C4.83271 16.3501 7.37671 17.3093 9.99893 17.2722V17.2599Z" fill="white"/>
</g>
<path id="Vector_7" d="M45.1327 23.0178C45.0699 23.0178 45.0113 23.0262 44.9485 23.0262C42.5838 23.001 40.6377 21.3763 38.9342 20.2583C38.5157 19.9861 38.1097 19.7181 37.7038 19.4753C39.1393 20.3462 40.2233 22.2766 40.0643 23.9767C39.8592 26.2253 37.4736 27.4271 35.4563 27.6449C34.1965 27.7789 32.9158 27.5737 31.7272 27.1466C30.8859 26.8451 30.0656 26.4179 29.4838 25.7354C28.9858 25.1492 28.697 24.4206 28.3663 23.7255C27.387 21.682 26.0854 19.8312 23.9174 19.1696C23.5323 19.0523 23.637 19.0607 23.2268 19.0063C22.7957 18.9476 22.4902 18.9267 22.3437 19.0607C22.1302 19.2533 22.2056 19.4543 22.2642 19.961C22.3479 20.6561 22.5404 21.3973 22.6534 22.0924C23.2896 26.016 25.6208 29.7762 29.2453 31.5475C33.4766 33.6203 39.0598 32.9922 42.5169 29.6716C43.7892 28.4488 44.6849 26.8325 45.0113 25.0947C45.1662 24.2782 45.208 23.8218 45.1327 23.022V23.0178Z" fill="white"/>
<path id="Vector_8" d="M40.0993 12.3305C37.8175 10.7142 35.0497 10.3207 32.3411 10.6431C30.203 10.8985 28.2551 11.7359 26.624 13.3186C25.6944 14.2147 24.9 15.6048 24.4985 16.9279C25.3098 17.4178 26.0282 17.7528 26.9282 19.0005C27.4522 19.7249 27.8071 20.2692 28.2043 21.2574C28.1072 20.8722 28.1452 20.7759 28.1579 20.3697C28.2001 19.0047 28.9227 18.0249 29.5227 17.4471C31.6439 15.3954 34.5511 15.4582 36.8625 17.0954C38.9541 18.5777 40.9443 20.5079 43.5219 20.6C43.5811 20.6 43.636 20.6 43.691 20.6C44.9967 20.5414 44.1558 18.2845 43.9107 17.5769C43.429 16.1868 42.6937 14.9055 41.7641 13.842C41.2486 13.2516 40.6908 12.7534 40.0993 12.3347V12.3305Z" fill="white"/>
<g id="Group_4">
<path id="Vector_9" d="M88.8705 13.7524C88.8335 13.703 88.7964 13.6494 88.7552 13.6C87.582 12.0564 85.7584 10.3892 83.7578 10.1134C81.8642 9.84991 79.9747 10.9984 79.1555 12.6944C78.8591 13.3078 78.678 13.9623 78.5381 14.6292C78.4722 14.942 78.4187 15.2549 78.3734 15.5719C78.3569 15.7077 78.3816 16.3046 78.2952 16.3869C78.3651 16.3211 78.3569 16.2964 78.4187 16.2182C79.4396 14.9709 80.9503 14.5139 82.457 15.1808C88.6647 17.9306 86.2277 26.8552 83.6384 31.4781C83.2185 32.2314 83.4943 32.1367 84.7663 32.1203C85.9683 32.1038 86.9975 32.0832 88.0801 32.0256C88.8705 31.9844 89.1751 30.9059 89.4756 30.2719C89.9285 29.3128 90.5953 27.3369 90.9041 26.3201C91.501 24.3483 91.8015 22.2489 91.5257 20.1947C91.221 17.91 90.2372 15.6089 88.8664 13.7482L88.8705 13.7524Z" fill="white"/>
<path id="Vector_10" d="M81.5924 9.47992C79.2666 7.91153 75.183 7.05118 73.203 9.2494C68.5101 14.4609 71.9721 24.2253 72.8243 30.6923C73.0465 32.3678 72.8531 32.166 74.9937 32.1249C78.6656 32.059 78.4721 32.4171 78.2375 30.6347C77.5624 25.4643 75.64 18.9767 77.2289 13.9546C78.1593 11.0195 81.1767 9.00652 81.5883 9.47992H81.5924Z" fill="white"/>
</g>
<g id="Group_5">
<path id="Vector_11" d="M156.617 10.2913C152.822 9.95782 148.911 11.2792 147.478 15.2146C147.326 15.6345 147.149 16.0873 147.03 16.9147C146.972 17.3223 146.931 17.5734 146.993 19.6851C147.005 20.1627 147.067 22.3403 147.314 21.6899C149.38 16.252 155.209 14.7124 159.816 16.3055C161.8 16.9929 161.487 14.9758 161.536 12.4607C161.561 11.2545 159.918 10.5794 156.613 10.2913H156.617Z" fill="white"/>
<path id="Vector_12" d="M143.514 13.1356C143.139 13.1191 142.765 13.1026 142.394 13.0903C141.575 13.0574 141.069 13.0821 140.99 14.2429C140.542 19.4462 140.809 24.5959 141.089 29.7992C141.25 31.1947 142.353 31.911 143.794 31.911C144.452 31.911 144.662 31.9233 145.276 31.911C146.115 31.8904 146.671 31.1536 146.614 30.5731C146.354 27.988 146.206 25.3822 146.054 22.8999C145.877 20.0719 146.169 17.1698 146.169 14.3376C146.169 13.9177 146.033 13.4772 145.584 13.3044C145.35 13.2138 145.086 13.2014 144.831 13.1891C144.395 13.1726 143.958 13.152 143.522 13.1356H143.514Z" fill="white"/>
</g>
<g id="Group_6">
<path id="Vector_13" d="M102.904 11.9705C103.435 8.90368 104.345 6.10445 104.509 5.56518C105.09 3.62631 104.719 1.06994 102.875 0.221942C101.476 -0.420234 100.578 0.349566 99.9936 2.29256C99.689 3.31346 98.7628 6.24441 98.1824 9.41413C99.2444 10.1675 100.434 11.0402 101.739 11.6288C102.126 11.8017 102.534 11.9087 102.904 11.9705Z" fill="white"/>
<path id="Vector_14" d="M113.348 23.4926C112.837 22.9986 112.302 23.7684 111.108 25.3368C110.104 26.6582 108.811 27.6297 106.975 27.5926C105.386 27.5556 103.732 26.7652 102.937 25.4315C101.999 23.8548 101.459 21.636 101.468 19.339C100.76 19.2732 100.467 19.2279 99.6439 19.0756C98.3637 18.8409 97.3798 18.6145 96.2519 18.2358C95.832 23.6325 97.4786 29.3998 102.982 31.7627C106.527 33.2858 112.92 32.4625 114.2 28.1113C114.509 27.0657 114.27 24.3941 113.344 23.4926H113.348Z" fill="white"/>
<path id="Vector_15" d="M113.998 10.5215C111.812 10.4309 111.607 10.0934 110.915 11.3201C110.668 11.7564 110.388 12.1352 110.084 12.4521C108.412 14.1811 105.819 14.0246 103.658 13.5801C100.875 13.0037 98.2979 11.7523 95.6881 10.6697C93.4775 9.75169 93.1934 8.93251 89.2498 9.70641C88.6612 9.82168 88.3689 10.575 88.7394 10.9496C89.608 11.8223 90.526 12.7115 91.4728 13.4977C93.6298 15.2884 96.4332 16.5563 99.0472 17.5031C101.241 18.2976 103.53 18.9192 105.872 18.9686C108.013 19.0139 110.182 18.4952 112.006 17.3467C113.949 16.1241 115.052 14.3005 116.151 12.3492C116.843 11.1266 117.082 10.645 113.998 10.5215Z" fill="white"/>
</g>
</g>
</svg>
